<svg width="200" height="200" viewBox="0 0 200 200" fill="none" xmlns="http://www.w3.org/2000/svg">
<path d="M173.913 114.679C173.913 114.679 181.179 107.945 174.454 100.679C167.721 93.4119 160.454 100.145 160.454 100.145L126.729 131.395C127.263 130.895 124.379 126.812 124.813 126.412L171.621 83.0536C171.621 83.0536 178.888 76.3286 172.163 69.0619C165.429 61.7952 158.163 68.5286 158.163 68.5286L114.129 109.312C114.238 109.22 110.963 105.504 111.021 105.445L162.063 58.1619C162.063 58.1619 169.329 51.4286 162.604 44.1619C155.863 36.9119 148.604 43.6369 148.604 43.6369L97.5626 90.9203C97.4959 90.9703 94.0043 87.4536 93.8959 87.5536L141.604 43.3619C141.604 43.3619 148.871 36.6369 142.146 29.3703C135.413 22.1119 128.146 28.8369 128.146 28.8369C128.146 28.8369 92.6459 61.7286 77.6959 75.5619C62.7626 89.3952 59.3959 85.7703 59.3959 85.7703L72.8792 73.2702L88.4626 58.8536C88.4626 58.8536 95.7293 52.1286 88.9959 44.8536C82.2626 37.5869 74.9959 44.3202 74.9959 44.3202L35.0376 81.3369C23.4775 92.0461 16.645 106.909 16.0434 122.656C15.4417 138.403 21.12 153.743 31.8293 165.304C42.5385 176.864 57.4013 183.696 73.1481 184.298C88.8949 184.899 104.236 179.221 115.796 168.512C117.071 167.337 119.354 165.054 119.254 164.945L119.421 165.145L173.921 114.67L173.913 114.679Z" fill="#C1694F"/>
<path d="M170.675 113C170.675 113 177.942 106.275 171.217 99.0083C164.483 91.7333 157.217 98.4667 157.217 98.4667L123.492 129.717C124.025 129.217 121.142 125.133 121.575 124.742L168.383 81.3833C168.383 81.3833 175.65 74.65 168.925 67.3833C162.192 60.125 154.925 66.85 154.925 66.85L110.9 107.642C111 107.542 107.717 103.833 107.783 103.775L158.825 56.4833C158.825 56.4833 166.092 49.7583 159.367 42.4917C152.633 35.2333 145.367 41.9583 145.367 41.9583L94.325 89.2333C94.2583 89.3 90.7666 85.7833 90.6583 85.8833L138.375 41.6917C138.375 41.6917 145.642 34.9583 138.917 27.6917C132.183 20.4417 124.917 27.1583 124.917 27.1583C124.917 27.1583 89.4166 60.0583 74.4666 73.8917C59.5333 87.725 56.1666 84.0917 56.1666 84.0917L69.6666 71.5917L85.2333 57.175C85.2333 57.175 92.4916 50.45 85.7666 43.1833C79.0333 35.9167 71.7666 42.65 71.7666 42.65L31.8166 79.65C26.0921 84.9521 21.4679 91.3299 18.2082 98.4191C14.9484 105.508 13.1169 113.17 12.8182 120.967C12.5195 128.764 13.7595 136.544 16.4673 143.862C19.1752 151.179 23.2978 157.892 28.6 163.617C33.9021 169.341 40.2798 173.965 47.369 177.225C54.4582 180.485 62.1201 182.316 69.9171 182.615C77.7141 182.914 85.4936 181.674 92.8115 178.966C100.129 176.258 106.842 172.135 112.567 166.833C113.85 165.658 116.125 163.383 116.025 163.275L116.2 163.475L170.683 113H170.675Z" fill="#D99E82"/>
<path d="M66.8833 40.6C67.8563 40.599 68.8096 40.3254 69.635 39.8103C70.4605 39.2952 71.1252 38.5591 71.5537 37.6856C71.9822 36.812 72.1575 35.8359 72.0596 34.8678C71.9618 33.8997 71.5947 32.9784 71 32.2083L55.4833 12.125C54.639 11.031 53.3947 10.3172 52.0242 10.1406C50.6536 9.96397 49.269 10.3391 48.175 11.1833C47.081 12.0276 46.3671 13.2719 46.1905 14.6425C46.0139 16.0131 46.389 17.3977 47.2333 18.4917L62.7583 38.575C63.2444 39.2065 63.8692 39.7176 64.5846 40.0687C65.2999 40.4199 66.0864 40.6017 66.8833 40.6ZM95.7666 43.425C97.1473 43.4228 98.4708 42.8734 99.4471 41.8971C100.423 40.9208 100.973 39.5973 100.975 38.2167V12.15C100.9 10.8196 100.318 9.56847 99.3497 8.65324C98.3812 7.73801 97.0992 7.22809 95.7666 7.22809C94.4341 7.22809 93.1521 7.73801 92.1836 8.65324C91.2151 9.56847 90.6336 10.8196 90.5583 12.15V38.2167C90.5583 41.0917 92.8833 43.425 95.7666 43.425ZM46.6833 57.3333C47.9216 57.3554 49.1272 56.9348 50.083 56.1472C51.0387 55.3595 51.682 54.2566 51.897 53.0369C52.1121 51.8172 51.8847 50.5608 51.2558 49.4938C50.6269 48.4268 49.6379 47.6193 48.4666 47.2167L24.5833 38.525C23.2837 38.052 21.8495 38.1147 20.5962 38.6992C19.3428 39.2837 18.3729 40.3421 17.9 41.6417C17.427 42.9412 17.4896 44.3755 18.0741 45.6288C18.6586 46.8822 19.7171 47.852 21.0166 48.325L44.9 57.0083C45.4715 57.2167 46.075 57.3239 46.6833 57.325V57.3333Z" fill="#FFAC33"/>
</svg>
