<svg width="184" height="108" viewBox="0 0 184 108" fill="none" xmlns="http://www.w3.org/2000/svg">
<path d="M91.8343 96.7826C141.43 96.7471 181.627 77.6344 181.61 54.0897C181.604 46.6931 177.628 39.7344 170.634 33.6752C164.828 28.6396 156.93 24.2194 147.496 20.6809C132.185 14.9353 112.822 11.5092 91.7752 11.5269C42.1738 11.5624 1.98228 30.6751 2.00001 54.2198C2.01773 77.7646 42.2329 96.8181 91.8343 96.7826Z" stroke="#31333A" stroke-width="2.126"/>
<path d="M94.4962 103.86C93.7401 103.866 92.984 103.872 92.2279 103.872C42.6265 103.913 2.40543 84.854 2.38771 61.3152C2.3818 55.2145 5.07541 49.4156 9.931 44.167M177.31 47.5683C178.287 48.9301 179.139 50.3779 179.856 51.8938C181.256 54.882 182 57.9885 182 61.1779C182.018 82.8824 147.852 100.829 103.649 103.522M148.771 27.749C157.879 31.2402 165.511 35.5598 171.17 40.4652M57.5902 21.2608C66.7343 19.7637 82.0985 18.3199 92.3059 18.314C103.258 18.3081 115.509 19.5152 125.214 21.2134M17.0632 37.7267C22.3736 33.8627 28.9599 30.4307 36.5505 27.5668C37.6197 27.1644 38.7125 26.768 39.823 26.3893" stroke="#31333A" stroke-width="2.126"/>
<path d="M2.18848 53.7145C2.17076 30.1698 42.3623 11.0571 91.9637 11.0216C113.01 11.0038 132.374 14.4299 147.685 20.1755C157.118 23.714 165.016 28.1342 170.829 33.1698C177.817 39.2291 181.792 46.1877 181.798 53.5843C181.804 57.4897 180.699 61.2708 178.626 64.8685" stroke="#31333A" stroke-width="2.126"/>
<path fill-rule="evenodd" clip-rule="evenodd" d="M132.866 21.1411L139.806 22.65L135.034 27.9164L132.866 21.1411Z" fill="#5670FD"/>
<path d="M139.806 22.65L132.866 21.1411L135.034 27.9164L139.806 22.65Z" stroke="#3662E3" stroke-width="2.126"/>
<path fill-rule="evenodd" clip-rule="evenodd" d="M12.9758 19.647L12.8636 22.8245C12.8576 23.0198 12.9463 23.2092 13.1057 23.3275L15.6576 25.221C16.0593 25.5169 15.947 26.15 15.4686 26.2861L12.4146 27.1619C12.3206 27.1886 12.2348 27.2383 12.1647 27.3065C12.0946 27.3746 12.0424 27.4591 12.0129 27.5524L11.0028 30.5643C10.8433 31.0377 10.2113 31.1264 9.93366 30.7122L8.15564 28.0731C8.04341 27.9075 7.86029 27.8128 7.66536 27.8069L4.48737 27.7773C3.99118 27.7773 3.71355 27.1974 4.02071 26.8068L5.97594 24.2979C6.09409 24.1441 6.13544 23.937 6.07637 23.7476L5.11942 20.7121C4.97175 20.2387 5.4325 19.7949 5.89915 19.9665L8.88221 21.0553C9.07124 21.1204 9.27798 21.0908 9.43747 20.9784L12.0248 19.1322C12.4323 18.8422 12.9935 19.144 12.9758 19.647Z" fill="white"/>
<path d="M12.8636 22.8244L12.9758 19.6468C12.98 19.5342 12.9527 19.4227 12.8969 19.3248C12.8411 19.2269 12.7591 19.1467 12.6601 19.0931C12.5612 19.0395 12.4492 19.0148 12.3369 19.0216C12.2246 19.0285 12.1165 19.0668 12.0248 19.132L9.43747 20.9782C9.27798 21.0906 9.07124 21.1202 8.88221 21.0551L5.89915 19.9664C5.4325 19.7948 4.97175 20.2386 5.11942 20.7119L6.07637 23.7475C6.13544 23.9368 6.09409 24.1439 5.97594 24.2978L4.02071 26.8067C3.71355 27.1972 3.99118 27.7771 4.48737 27.7771L7.66536 27.8067C7.86029 27.8126 8.04341 27.9073 8.15564 28.073L9.93366 30.7121C10.2113 31.1263 10.8433 31.0375 11.0028 30.5642L12.0129 27.5523C12.0424 27.459 12.0946 27.3745 12.1647 27.3063C12.2348 27.2382 12.3206 27.1885 12.4146 27.1617L15.4686 26.286C15.947 26.1499 16.0593 25.5167 15.6576 25.2209L13.1057 23.3274C12.9463 23.209 12.8576 23.0197 12.8636 22.8244Z" stroke="#31333A" stroke-width="2.126"/>
<path fill-rule="evenodd" clip-rule="evenodd" d="M15.5789 79.3213L20.3595 77.5657L18.6068 72.7769L13.8257 74.5325L15.5789 79.3213Z" fill="#5670FD"/>
<path d="M19.4106 73.1514L14.6318 74.9064L15.9521 78.5118L20.7309 76.7567L19.4106 73.1514Z" stroke="#3662E3" stroke-width="2.126"/>
<path fill-rule="evenodd" clip-rule="evenodd" d="M171.172 37.5039C169.541 37.5039 168.218 38.8294 168.218 40.4625C168.218 42.0957 169.541 43.4212 171.172 43.4212C172.802 43.4212 174.125 42.0957 174.125 40.4625C174.125 38.8294 172.802 37.5039 171.172 37.5039Z" fill="#31333A"/>
<path fill-rule="evenodd" clip-rule="evenodd" d="M142.246 74.1915C141.857 73.2992 141.837 72.2886 142.19 71.3814C142.543 70.4741 143.241 69.7441 144.131 69.3512C145.985 68.5406 148.153 69.3867 148.962 71.2388C149.778 73.1028 148.939 75.2626 147.078 76.0791C145.229 76.8957 143.067 76.0496 142.246 74.1915Z" fill="white"/>
<path d="M144.131 69.3512C143.241 69.7441 142.543 70.4741 142.19 71.3814C141.837 72.2886 141.857 73.2992 142.246 74.1915C143.067 76.0496 145.229 76.8957 147.078 76.0791C147.52 75.8861 147.919 75.6076 148.253 75.2595C148.587 74.9115 148.849 74.5009 149.024 74.0511C149.199 73.6014 149.284 73.1214 149.273 72.6388C149.263 72.1562 149.157 71.6804 148.962 71.2388C148.153 69.3867 145.985 68.5406 144.131 69.3512Z" stroke="#31333A" stroke-width="2.126"/>
<path fill-rule="evenodd" clip-rule="evenodd" d="M134.496 70.5878L123.189 44.8064L140.255 37.2915L151.555 63.0789L134.496 70.5878Z" fill="white"/>
<path d="M123.189 44.8064L134.496 70.5878L151.555 63.0789L140.255 37.2915L123.189 44.8064Z" stroke="#31333A" stroke-width="2.126"/>
<path fill-rule="evenodd" clip-rule="evenodd" d="M144.131 69.3513C143.241 69.7441 142.543 70.4742 142.19 71.3814C141.837 72.2887 141.857 73.2992 142.246 74.1916C143.067 76.0496 145.229 76.8958 147.078 76.0792C147.52 75.8861 147.919 75.6076 148.253 75.2596C148.587 74.9116 148.849 74.5009 149.024 74.0512C149.199 73.6014 149.284 73.1215 149.273 72.6389C149.263 72.1562 149.157 71.6805 148.963 71.2389C148.153 69.3868 145.985 68.5406 144.131 69.3513ZM143.433 33.8969C142.76 32.3466 140.946 31.6424 139.404 32.3229L120.118 40.8082C119.749 40.97 119.415 41.2031 119.136 41.4941C118.857 41.7852 118.638 42.1285 118.492 42.5044C118.345 42.8803 118.274 43.2815 118.282 43.6849C118.291 44.0884 118.379 44.4862 118.541 44.8556L134.2 80.5662C134.361 80.9354 134.594 81.2692 134.884 81.5482C135.174 81.8273 135.516 82.0463 135.891 82.1925C136.266 82.3387 136.666 82.4094 137.068 82.4004C137.47 82.3914 137.867 82.303 138.235 82.1402L157.521 73.6549C157.89 73.4933 158.224 73.2603 158.503 72.9691C158.782 72.678 159.001 72.3345 159.147 71.9584C159.293 71.5823 159.363 71.1809 159.354 70.7775C159.345 70.3741 159.256 69.9764 159.093 69.6075L143.433 33.8969ZM123.189 44.8065L134.495 70.588L151.555 63.079L140.254 37.2916L123.189 44.8065Z" fill="#AFAEB4"/>
<path d="M144.131 69.3513C143.241 69.7441 142.543 70.4742 142.19 71.3814C141.837 72.2887 141.857 73.2992 142.246 74.1916C143.067 76.0496 145.229 76.8958 147.078 76.0792C147.52 75.8861 147.919 75.6076 148.253 75.2596C148.587 74.9116 148.849 74.5009 149.024 74.0512C149.199 73.6014 149.284 73.1215 149.273 72.6389C149.263 72.1562 149.157 71.6805 148.963 71.2389C148.153 69.3868 145.985 68.5406 144.131 69.3513ZM143.433 33.8969C142.76 32.3466 140.946 31.6424 139.404 32.3229L120.118 40.8082C119.749 40.97 119.415 41.2031 119.136 41.4941C118.857 41.7852 118.638 42.1285 118.492 42.5044C118.345 42.8803 118.274 43.2815 118.282 43.6849C118.291 44.0884 118.379 44.4862 118.541 44.8556L134.2 80.5662C134.361 80.9354 134.594 81.2692 134.884 81.5482C135.174 81.8273 135.516 82.0463 135.891 82.1925C136.266 82.3387 136.666 82.4094 137.068 82.4004C137.47 82.3914 137.867 82.303 138.235 82.1402L157.521 73.6549C157.89 73.4933 158.224 73.2603 158.503 72.9691C158.782 72.678 159.001 72.3345 159.147 71.9584C159.293 71.5823 159.363 71.1809 159.354 70.7775C159.345 70.3741 159.256 69.9764 159.093 69.6075L143.433 33.8969ZM123.189 44.8065L134.495 70.588L151.555 63.079L140.254 37.2916L123.189 44.8065Z" stroke="#31333A" stroke-width="2.126"/>
<path fill-rule="evenodd" clip-rule="evenodd" d="M45.3871 29.6743H34.8152C31.5546 29.6743 28.9082 27.0234 28.9082 23.7571V17.7156C28.9082 14.4493 31.5546 11.7983 34.8152 11.7983H53.1094C56.37 11.7983 59.0164 14.4493 59.0164 17.7156V23.7571C59.0164 27.0234 56.37 29.6743 53.1094 29.6743H51.1086L46.4976 34.1312C46.0841 34.5336 45.3871 34.2377 45.3871 33.6578V29.6743Z" fill="white"/>
<path d="M45.3871 29.6743H34.8152C31.5546 29.6743 28.9082 27.0234 28.9082 23.7571V17.7156C28.9082 14.4493 31.5546 11.7983 34.8152 11.7983H53.1094C56.37 11.7983 59.0164 14.4493 59.0164 17.7156V23.7571C59.0164 27.0234 56.37 29.6743 53.1094 29.6743H51.1086L46.4976 34.1312C46.0841 34.5336 45.3871 34.2377 45.3871 33.6578V29.6743Z" stroke="#31333A" stroke-width="2.126"/>
<path fill-rule="evenodd" clip-rule="evenodd" d="M35.8799 82.8824L26.3754 41.6037C25.7847 39.0415 27.7282 36.5918 30.3568 36.5918H49.596C51.3032 36.5918 52.904 37.4498 53.8491 38.8699L55.4617 41.2901H84.5007C87.2711 41.2901 89.6753 43.2132 90.2837 45.9233L96.9823 75.8113C97.7916 79.4386 95.0389 82.8824 91.3293 82.8824H35.8799Z" fill="#3662E3"/>
<path fill-rule="evenodd" clip-rule="evenodd" d="M72.365 4.79294C74.084 6.51486 75.1531 8.89359 75.1531 11.509V72.4152C75.1531 77.6461 79.4298 81.9242 84.6517 81.9242H46.6753C51.8971 81.9242 56.1679 77.6461 56.1679 72.4152V11.509C56.1679 6.27817 60.4446 2 65.6605 2C66.0268 2 66.393 2.02367 66.7474 2.06509C68.9271 2.31361 70.8883 3.31363 72.365 4.79294Z" fill="#D7D9DD"/>
<path fill-rule="evenodd" clip-rule="evenodd" d="M67.3786 2.13018C62.8598 2.85208 59.3746 6.78705 59.3746 11.509V72.4152C59.3746 77.6461 55.1038 81.9242 49.882 81.9242H46.8989C52.1208 81.9242 56.3915 77.6461 56.3915 72.4152V11.509C56.3915 6.27817 60.6682 2 65.8842 2C66.2504 2 66.6166 2.02367 66.9711 2.06509C67.1069 2.08284 67.2428 2.10651 67.3786 2.13018Z" fill="white"/>
<path d="M66.7474 2.06509C66.393 2.02367 66.0268 2 65.6605 2C60.4446 2 56.1679 6.27817 56.1679 11.509V72.4152C56.1679 77.6461 51.8971 81.9242 46.6753 81.9242H84.6517C79.4298 81.9242 75.1531 77.6461 75.1531 72.4152V11.509C75.1531 8.89359 74.084 6.51486 72.365 4.79294C70.8883 3.31363 68.9271 2.31361 66.7474 2.06509Z" stroke="#31333A" stroke-width="2.126"/>
<path fill-rule="evenodd" clip-rule="evenodd" d="M38.5371 70.7844V62.228H57.5223V70.7844C57.5223 76.0152 53.2516 80.2934 48.0297 80.2934C42.8079 80.2934 38.5371 76.0152 38.5371 70.7844Z" fill="#D7D9DD"/>
<path fill-rule="evenodd" clip-rule="evenodd" d="M38.5371 71.3288V62.7725H41.2484V71.3288C41.2484 76.0981 44.7986 80.0627 49.3824 80.7313C48.9394 80.7964 48.4905 80.8378 48.0297 80.8378C42.8079 80.8378 38.5371 76.5596 38.5371 71.3288Z" fill="white"/>
<path d="M38.5371 62.7725V71.3288C38.5371 76.5596 42.8079 80.8378 48.0297 80.8378C53.2516 80.8378 57.5223 76.5596 57.5223 71.3288V62.7725H38.5371ZM38.5371 62.7725H57.5229" stroke="#31333A" stroke-width="2.126"/>
<path fill-rule="evenodd" clip-rule="evenodd" d="M37.1836 65.4399V51.4102H56.1688V65.4399C56.1688 74.014 51.898 81.0319 46.6762 81.0319C41.4544 81.0319 37.1836 74.014 37.1836 65.4399Z" fill="#D7D9DD"/>
<path fill-rule="evenodd" clip-rule="evenodd" d="M37.1836 66.3325V52.3027H39.889V66.3325C39.889 74.1551 43.4451 80.6582 48.0289 81.7469C47.5859 81.8535 47.137 81.9245 46.6762 81.9245C41.4544 81.9245 37.1836 74.9125 37.1836 66.3325Z" fill="white"/>
<path d="M37.1831 52.3033H56.1683M37.1837 52.3027V66.3325C37.1837 74.9125 41.4545 81.9245 46.6763 81.9245C51.8981 81.9245 56.1689 74.9125 56.1689 66.3325V52.3027H37.1837Z" stroke="#31333A" stroke-width="2.126"/>
<path fill-rule="evenodd" clip-rule="evenodd" d="M44.7671 49.7018L101.173 50.8675L99.484 81.9271H40.1655L41.6836 52.5776C41.7234 51.7907 42.0676 51.0503 42.6433 50.5134C43.2189 49.9765 43.9808 49.6854 44.7671 49.7018Z" fill="#D7D9DD"/>
<path d="M101.173 50.8675L44.7671 49.7018C43.9808 49.6854 43.2189 49.9765 42.6433 50.5134C42.0676 51.0503 41.7234 51.7907 41.6836 52.5776L40.1655 81.9271H99.484L101.173 50.8675Z" stroke="#31333A" stroke-width="2.126"/>
<path fill-rule="evenodd" clip-rule="evenodd" d="M101.304 78.9294C100.877 79.9163 100.172 80.7568 99.2745 81.3476C98.3773 81.9384 97.3273 82.2537 96.2535 82.2548H37.1831L49.96 52.5799H49.9719L51.5904 48.1242C51.8759 47.3435 52.3939 46.6695 53.0742 46.1933C53.7546 45.717 54.5645 45.4616 55.3945 45.4614H77.7409C80.5467 45.4614 82.496 48.2544 81.5391 50.8994L80.9248 52.5799H104.287C108.239 52.5799 110.903 56.6332 109.338 60.2664L101.304 78.9294Z" fill="#5670FD"/>
<path d="M96.2535 82.2548C98.445 82.2548 100.43 80.9471 101.304 78.9294L109.338 60.2664C110.903 56.6332 108.239 52.5799 104.287 52.5799H80.9248L81.5391 50.8994C82.496 48.2544 80.5467 45.4614 77.7409 45.4614H55.3945C54.5645 45.4616 53.7546 45.717 53.0742 46.1933C52.3939 46.6695 51.8759 47.3435 51.5904 48.1242L49.9719 52.5799H49.96L37.1831 82.2548H96.2535Z" stroke="#3662E3" stroke-width="2.126"/>
<path fill-rule="evenodd" clip-rule="evenodd" d="M99.4809 100.915C97.8505 100.915 96.5273 102.241 96.5273 103.874C96.5273 105.507 97.8505 106.832 99.4809 106.832C101.111 106.832 102.434 105.507 102.434 103.874C102.434 102.241 101.111 100.915 99.4809 100.915Z" fill="white"/>
<path d="M99.4809 100.915C97.8505 100.915 96.5273 102.241 96.5273 103.874C96.5273 105.507 97.8505 106.832 99.4809 106.832C101.111 106.832 102.434 105.507 102.434 103.874C102.434 102.241 101.111 100.915 99.4809 100.915Z" stroke="#31333A" stroke-width="2.126"/>
<path fill-rule="evenodd" clip-rule="evenodd" d="M67.9821 2H110.182C116.68 2 121.996 7.32552 121.996 13.8345V63.8589H94.1444V72.4152C94.1444 77.6461 89.8677 81.9242 84.6518 81.9242C79.43 81.9242 75.1533 77.6461 75.1533 72.4152V11.509C75.1533 8.89359 74.0841 6.51486 72.3652 4.79294C70.8884 3.31363 68.9273 2.31361 66.7476 2.06509C67.1551 2.02367 67.5686 2 67.9821 2Z" fill="white"/>
<path d="M121.996 63.8589H94.1444V72.4152C94.1444 77.6461 89.8677 81.9242 84.6518 81.9242C79.43 81.9242 75.1533 77.6461 75.1533 72.4152V11.509C75.1533 8.89359 74.0841 6.51486 72.3652 4.79294C70.8884 3.31363 68.9273 2.31361 66.7476 2.06509C67.1551 2.02367 67.5686 2 67.9821 2H110.182C116.68 2 121.996 7.32552 121.996 13.8345V63.8589ZM121.996 63.8589H140.981" stroke="#31333A" stroke-width="2.126"/>
<path fill-rule="evenodd" clip-rule="evenodd" d="M99.917 14.5714H117.874V12.0093H99.917V14.5714Z" fill="#AFAEB4"/>
<path fill-rule="evenodd" clip-rule="evenodd" d="M99.917 19.8607H117.874V18.1743H99.917V19.8607ZM99.917 23.9028H117.874V22.2164H99.917V23.9028Z" fill="#D7D9DD"/>
<path fill-rule="evenodd" clip-rule="evenodd" d="M81.522 38.381H99.4794V35.8188H81.522V38.381Z" fill="#AFAEB4"/>
<path fill-rule="evenodd" clip-rule="evenodd" d="M81.5217 43.6702H99.4791V41.9838H81.5217V43.6702ZM81.5217 47.7123H99.4791V46.0258H81.5217V47.7123ZM88.3673 9.104C83.7126 9.104 79.938 12.8851 79.938 17.5479C79.938 22.2048 83.7126 25.9859 88.3673 25.9859C93.0162 25.9859 96.7908 22.2048 96.7908 17.5479C96.7908 12.8851 93.0162 9.104 88.3673 9.104Z" fill="#D7D9DD"/>
<path fill-rule="evenodd" clip-rule="evenodd" d="M83.1143 18.2476C83.1143 17.9222 83.1497 17.6086 83.2147 17.3009C83.8704 17.4902 84.5497 17.5849 85.2349 17.5849C86.7117 17.5849 88.0525 17.1529 89.0508 16.4488C89.5648 16.0937 89.996 15.6381 90.3209 15.1056L90.3268 15.0937C90.3858 15.0109 90.4981 14.9931 90.5808 15.0464C91.5403 15.7028 92.2712 16.6429 92.6715 17.7356C93.0718 18.8282 93.1215 20.0188 92.8136 21.1412C91.8449 22.3719 90.2618 23.1767 88.4719 23.1767C87.9994 23.1767 87.5327 23.1175 87.0956 23.011C87.0306 22.9992 86.9597 22.9814 86.8948 22.9577H86.883C85.6879 22.6027 84.6447 21.8595 83.9176 20.8453C83.9058 20.8335 83.8999 20.8157 83.8881 20.8039C83.385 20.0465 83.1158 19.1574 83.1143 18.2476Z" fill="white"/>
<path d="M83.2147 17.301C83.1497 17.6087 83.1143 17.9223 83.1143 18.2478C83.1143 19.1827 83.3978 20.0584 83.8881 20.804C83.8999 20.8158 83.9058 20.8336 83.9176 20.8454C84.6447 21.8597 85.6879 22.6028 86.883 22.9579H86.8948C86.9597 22.9815 87.0306 22.9993 87.0956 23.0111C87.5327 23.1176 87.9994 23.1768 88.4719 23.1768C90.2618 23.1768 91.8449 22.3721 92.8136 21.1413C93.1215 20.019 93.0718 18.8284 92.6715 17.7357C92.2712 16.6431 91.5403 15.7029 90.5808 15.0465C90.5405 15.0202 90.4916 15.0105 90.4443 15.0193C90.397 15.0281 90.3549 15.0548 90.3268 15.0939L90.3209 15.1057C89.996 15.6382 89.5648 16.0939 89.0508 16.4489C88.0525 17.1531 86.7117 17.585 85.2349 17.585C84.5497 17.585 83.8704 17.4903 83.2147 17.301Z" stroke="#31333A" stroke-width="1.417"/>
<path fill-rule="evenodd" clip-rule="evenodd" d="M90.6887 15.2234C90.6539 15.2008 90.6149 15.1852 90.574 15.1778C90.5331 15.1703 90.4911 15.1709 90.4505 15.1797C90.4099 15.1885 90.3714 15.2053 90.3373 15.229C90.3031 15.2528 90.274 15.283 90.2516 15.3181C89.9326 15.8033 89.525 16.2175 89.0525 16.5489C88.0542 17.253 86.7074 17.685 85.2306 17.685C84.953 17.685 84.6813 17.6672 84.4036 17.6376C84.1496 18.3359 84.0197 19.0814 84.0197 19.827C84.0197 20.3004 84.0728 20.7738 84.1733 21.2353C83.282 20.2199 82.7924 18.9128 82.7969 17.5607C82.7969 17.4601 82.7969 17.3654 82.8028 17.2648C82.6729 17.2175 82.5429 17.1643 82.413 17.111C82.2594 17.04 82.1117 16.969 81.9699 16.8921C81.863 16.8323 81.7749 16.7438 81.7155 16.6365C81.6562 16.5292 81.628 16.4074 81.6341 16.2849C81.6403 16.1624 81.6805 16.0441 81.7503 15.9433C81.8201 15.8425 81.9166 15.7632 82.029 15.7145C82.4661 15.5193 82.9328 15.3713 83.4053 15.2766C84.7049 12.5843 87.8652 11.3713 90.6297 12.4955C91.6623 12.9131 92.5469 13.6302 93.17 14.5548C93.793 15.4794 94.1262 16.5694 94.1266 17.685C94.1266 19.0045 93.66 20.2886 92.7975 21.2945C93.1116 20.191 93.0788 19.0175 92.7036 17.9334C92.3284 16.8493 91.629 15.9072 90.7005 15.2352L90.6887 15.2234Z" fill="#31333A"/>
<path d="M90.2516 15.3181C90.3461 15.1701 90.5411 15.1287 90.6887 15.2234L90.7005 15.2352C91.629 15.9072 92.3284 16.8493 92.7036 17.9334C93.0788 19.0175 93.1116 20.191 92.7975 21.2945C93.6568 20.289 94.1282 19.0086 94.1266 17.685C94.1266 15.4009 92.7385 13.3476 90.6297 12.4955C87.8652 11.3713 84.7049 12.5843 83.4053 15.2766C82.9328 15.3713 82.4661 15.5193 82.029 15.7145C81.9166 15.7632 81.8201 15.8425 81.7503 15.9433C81.6805 16.0441 81.6403 16.1624 81.6341 16.2849C81.628 16.4074 81.6562 16.5292 81.7155 16.6365C81.7749 16.7438 81.863 16.8323 81.9699 16.8921C82.1117 16.969 82.2594 17.04 82.413 17.111C82.5429 17.1643 82.6729 17.2175 82.8028 17.2648C82.7969 17.3654 82.7969 17.4601 82.7969 17.5607C82.791 18.9098 83.2813 20.2176 84.1733 21.2353C84.0728 20.7738 84.0197 20.3004 84.0197 19.827C84.0197 19.0814 84.1496 18.3359 84.4036 17.6376C84.6813 17.6672 84.953 17.685 85.2306 17.685C86.7074 17.685 88.0542 17.253 89.0525 16.5489C89.525 16.2175 89.9326 15.8033 90.2516 15.3181Z" stroke="#31333A" stroke-width="0.709"/>
<path d="M86.8916 19.9114C86.8916 19.6451 86.673 19.4321 86.4072 19.4321C86.1414 19.4321 85.9287 19.6451 85.9287 19.9114M90.9846 19.9114C90.9846 19.6451 90.766 19.4321 90.5002 19.4321C90.2344 19.4321 90.0217 19.6451 90.0217 19.9114" stroke="#31333A" stroke-width="1.417"/>
<path d="M88.4779 13.3169C85.5125 13.3169 83.1143 15.524 83.1143 18.246C83.1143 20.9679 85.5125 23.1809 88.4779 23.1809C91.4373 23.1809 93.8355 20.9679 93.8355 18.246C93.8355 15.524 91.4373 13.3169 88.4779 13.3169Z" stroke="#31333A" stroke-width="1.417"/>
<path fill-rule="evenodd" clip-rule="evenodd" d="M82.8796 16.6865C82.6216 16.6954 82.377 16.8044 82.1976 16.9904C82.0182 17.1764 81.918 17.4249 81.918 17.6836C81.918 17.9422 82.0182 18.1908 82.1976 18.3768C82.377 18.5628 82.6216 18.6717 82.8796 18.6806C83.429 18.6806 83.8779 18.2309 83.8779 17.6806C83.8779 17.1303 83.429 16.6865 82.8796 16.6865Z" fill="#31333A"/>
<path fill-rule="evenodd" clip-rule="evenodd" d="M88.4749 22.1642C88.8943 22.1642 89.231 21.8683 89.231 21.5015H87.7188C87.7188 21.8683 88.0555 22.1642 88.4749 22.1642Z" fill="white"/>
<path d="M88.4749 22.1642C88.8943 22.1642 89.231 21.8683 89.231 21.5015H87.7188C87.7188 21.8683 88.0555 22.1642 88.4749 22.1642Z" stroke="#31333A" stroke-width="0.992"/>
<path fill-rule="evenodd" clip-rule="evenodd" d="M112.396 32.7583C107.741 32.7583 103.966 36.5394 103.966 41.2022C103.966 45.8591 107.741 49.6402 112.396 49.6402C117.045 49.6402 120.819 45.8591 120.819 41.2022C120.819 36.5394 117.045 32.7583 112.396 32.7583Z" fill="#D7D9DD"/>
<path fill-rule="evenodd" clip-rule="evenodd" d="M110.911 46.6125C109.716 46.2575 108.673 45.5143 107.946 44.5001C107.934 44.4882 107.928 44.4705 107.916 44.4587C107.413 43.7013 107.144 42.8122 107.143 41.9024C107.143 41.577 107.178 41.2633 107.243 40.9556C107.899 41.145 108.578 41.2397 109.263 41.2397C110.74 41.2397 112.081 40.8077 113.079 40.1036C113.593 39.7485 114.024 39.2929 114.349 38.7603L114.355 38.7485C114.414 38.6657 114.526 38.6479 114.609 38.7012C115.569 39.3576 116.299 40.2977 116.7 41.3904C117.1 42.483 117.15 43.6736 116.842 44.7959C115.873 46.0267 114.29 46.8315 112.5 46.8315C112.028 46.8315 111.561 46.7782 111.124 46.6658C111.053 46.6539 110.988 46.6362 110.923 46.6125H110.911Z" fill="white"/>
<path d="M107.946 44.5002C108.673 45.5144 109.716 46.2576 110.911 46.6127H110.923C110.988 46.6363 111.053 46.6541 111.124 46.6659C111.561 46.7783 112.028 46.8316 112.5 46.8316C114.29 46.8316 115.873 46.0269 116.842 44.7961C117.15 43.6738 117.1 42.4832 116.7 41.3905C116.299 40.2979 115.569 39.3577 114.609 38.7013C114.569 38.675 114.52 38.6653 114.473 38.6741C114.425 38.6829 114.383 38.7096 114.355 38.7486L114.349 38.7605C114.024 39.293 113.593 39.7487 113.079 40.1037C112.081 40.8078 110.74 41.2398 109.263 41.2398C108.578 41.2398 107.899 41.1451 107.243 40.9558C107.178 41.2635 107.143 41.5771 107.143 41.9025C107.143 42.8375 107.426 43.7132 107.916 44.4588C107.928 44.4706 107.934 44.4884 107.946 44.5002Z" stroke="#31333A" stroke-width="0.992"/>
<path fill-rule="evenodd" clip-rule="evenodd" d="M114.658 36.1503C115.691 36.5679 116.575 37.285 117.198 38.2096C117.821 39.1342 118.154 40.2242 118.155 41.3398C118.155 42.6593 117.688 43.9433 116.826 44.9493C117.14 43.8458 117.107 42.6723 116.732 41.5882C116.357 40.504 115.657 39.562 114.729 38.89L114.717 38.8782C114.682 38.8555 114.643 38.84 114.602 38.8325C114.561 38.825 114.519 38.8257 114.479 38.8345C114.438 38.8433 114.4 38.8601 114.366 38.8838C114.331 38.9075 114.302 38.9378 114.28 38.9729C113.961 39.4581 113.553 39.8723 113.081 40.2036C112.083 40.9078 110.736 41.3398 109.259 41.3398C108.981 41.3398 108.704 41.322 108.432 41.2924C108.178 41.9907 108.048 42.7362 108.048 43.4818C108.048 43.9552 108.101 44.4286 108.202 44.8901C107.31 43.8747 106.821 42.5676 106.825 41.2155C106.825 41.1149 106.825 41.0202 106.831 40.9196C106.701 40.8723 106.571 40.819 106.441 40.7658C106.288 40.6948 106.14 40.6238 105.998 40.5468C105.891 40.4871 105.803 40.3986 105.744 40.2913C105.684 40.184 105.656 40.0622 105.662 39.9397C105.669 39.8172 105.709 39.6988 105.779 39.598C105.848 39.4972 105.945 39.418 106.057 39.3693C106.494 39.174 106.961 39.0261 107.434 38.9314C108.733 36.2391 111.893 35.0261 114.658 36.1503Z" fill="#31333A"/>
<path d="M118.155 41.3398C118.155 39.0557 116.767 37.0024 114.658 36.1503C111.893 35.0261 108.733 36.2391 107.434 38.9314C106.961 39.0261 106.494 39.174 106.057 39.3693C105.945 39.418 105.848 39.4972 105.779 39.598C105.709 39.6988 105.669 39.8172 105.662 39.9397C105.656 40.0622 105.684 40.184 105.744 40.2913C105.803 40.3986 105.891 40.4871 105.998 40.5468C106.14 40.6238 106.288 40.6948 106.441 40.7658C106.571 40.819 106.701 40.8723 106.831 40.9196C106.825 41.0202 106.825 41.1149 106.825 41.2155C106.819 42.5646 107.31 43.8723 108.202 44.8901C108.101 44.4286 108.048 43.9552 108.048 43.4818C108.048 42.7362 108.178 41.9907 108.432 41.2924C108.704 41.322 108.981 41.3398 109.259 41.3398C110.736 41.3398 112.083 40.9078 113.081 40.2036C113.553 39.8723 113.961 39.4581 114.28 38.9729C114.374 38.8249 114.569 38.7835 114.717 38.8782L114.729 38.89C115.657 39.562 116.357 40.504 116.732 41.5882C117.107 42.6723 117.14 43.8458 116.826 44.9493C117.685 43.9438 118.157 42.6633 118.155 41.3398Z" stroke="#31333A" stroke-width="0.709"/>
<path d="M112.506 36.9717C109.541 36.9717 107.143 39.1788 107.143 41.9007C107.143 44.6227 109.541 46.8357 112.506 46.8357C115.466 46.8357 117.864 44.6227 117.864 41.9007C117.864 39.1788 115.466 36.9717 112.506 36.9717Z" stroke="#31333A" stroke-width="0.992"/>
<path fill-rule="evenodd" clip-rule="evenodd" d="M106.908 40.3408C106.65 40.3497 106.405 40.4587 106.226 40.6447C106.047 40.8307 105.946 41.0792 105.946 41.3379C105.946 41.5965 106.047 41.8451 106.226 42.0311C106.405 42.2171 106.65 42.326 106.908 42.3349C107.457 42.3349 107.906 41.8852 107.906 41.3349C107.906 40.7846 107.457 40.3408 106.908 40.3408Z" fill="#31333A"/>
<path fill-rule="evenodd" clip-rule="evenodd" d="M112.503 45.819C112.923 45.819 113.259 45.5231 113.259 45.1562H111.747C111.747 45.5231 112.084 45.819 112.503 45.819Z" fill="white"/>
<path d="M112.503 45.819C112.923 45.819 113.259 45.5231 113.259 45.1562H111.747C111.747 45.5231 112.084 45.819 112.503 45.819Z" stroke="#31333A" stroke-width="0.992"/>
<path fill-rule="evenodd" clip-rule="evenodd" d="M115.011 33.521C114.507 33.5335 114.028 33.7428 113.676 34.1043C113.324 34.4658 113.126 34.9509 113.126 35.4559C113.126 35.961 113.324 36.446 113.676 36.8075C114.028 37.169 114.507 37.3784 115.011 37.3909C116.074 37.3909 116.942 36.521 116.942 35.4559C116.942 34.3849 116.074 33.521 115.011 33.521Z" fill="#31333A"/>
<path fill-rule="evenodd" clip-rule="evenodd" d="M110.436 41.9614C110.081 41.9719 109.744 42.1205 109.497 42.3757C109.25 42.6309 109.111 42.9726 109.111 43.3283C109.111 43.684 109.25 44.0257 109.497 44.2809C109.744 44.5361 110.081 44.6847 110.436 44.6952C111.186 44.6952 111.801 44.0798 111.801 43.3283C111.801 42.5709 111.186 41.9614 110.436 41.9614Z" fill="white"/>
<path d="M110.436 41.9614C110.081 41.9719 109.744 42.1205 109.497 42.3757C109.25 42.6309 109.111 42.9726 109.111 43.3283C109.111 43.684 109.25 44.0257 109.497 44.2809C109.744 44.5361 110.081 44.6847 110.436 44.6952C111.186 44.6952 111.801 44.0798 111.801 43.3283C111.801 42.5709 111.186 41.9614 110.436 41.9614Z" stroke="#31333A" stroke-width="0.992"/>
<path fill-rule="evenodd" clip-rule="evenodd" d="M114.53 41.9614C114.175 41.9719 113.838 42.1205 113.59 42.3757C113.343 42.6309 113.205 42.9726 113.205 43.3283C113.205 43.684 113.343 44.0257 113.59 44.2809C113.838 44.5361 114.175 44.6847 114.53 44.6952C115.28 44.6952 115.894 44.0798 115.894 43.3283C115.894 42.5709 115.28 41.9614 114.53 41.9614Z" fill="white"/>
<path d="M111.909 43.3277C112.08 43.02 112.907 43.0378 113.108 43.3277M114.53 41.9614C114.175 41.9719 113.838 42.1205 113.59 42.3757C113.343 42.6309 113.205 42.9726 113.205 43.3283C113.205 43.684 113.343 44.0257 113.59 44.2809C113.838 44.5361 114.175 44.6847 114.53 44.6952C115.28 44.6952 115.894 44.0798 115.894 43.3283C115.894 42.5709 115.28 41.9614 114.53 41.9614Z" stroke="#31333A" stroke-width="0.992"/>
<path fill-rule="evenodd" clip-rule="evenodd" d="M110.581 43.1025C110.392 43.1025 110.233 43.2623 110.233 43.4517C110.233 43.6469 110.392 43.8067 110.581 43.8067C110.776 43.8067 110.936 43.6469 110.936 43.4517C110.934 43.3585 110.896 43.2697 110.83 43.2044C110.764 43.1391 110.674 43.1025 110.581 43.1025ZM114.655 43.1025C114.466 43.1025 114.306 43.2623 114.306 43.4517C114.306 43.6469 114.466 43.8067 114.655 43.8067C114.85 43.8067 115.009 43.6469 115.009 43.4517C115.008 43.3585 114.97 43.2697 114.903 43.2044C114.837 43.1391 114.748 43.1025 114.655 43.1025Z" fill="#31333A"/>
<path fill-rule="evenodd" clip-rule="evenodd" d="M76.0298 71.8708V63.3145H95.015V71.8708C95.015 77.1016 90.7442 81.3798 85.5224 81.3798C80.3006 81.3798 76.0298 77.1016 76.0298 71.8708Z" fill="#D7D9DD"/>
<path fill-rule="evenodd" clip-rule="evenodd" d="M76.0298 71.8708V63.3145H78.7411V71.8708C78.7411 76.6401 82.2913 80.6046 86.8751 81.2733C86.4321 81.3325 85.9832 81.3798 85.5224 81.3798C80.3006 81.3798 76.0298 77.1016 76.0298 71.8708Z" fill="white"/>
<path fill-rule="evenodd" clip-rule="evenodd" d="M94.1445 72.4152V63.8589H140.981V72.4152C140.981 77.6461 136.711 81.9242 131.489 81.9242H84.6519C89.8678 81.9242 94.1445 77.6461 94.1445 72.4152Z" fill="white"/>
<path d="M94.1445 63.8589V72.4152C94.1445 77.6461 89.8678 81.9242 84.6519 81.9242H131.489C136.711 81.9242 140.981 77.6461 140.981 72.4152V63.8589H94.1445Z" stroke="#31333A" stroke-width="2.126"/>
<path fill-rule="evenodd" clip-rule="evenodd" d="M37.6061 19.3301C36.8263 19.3301 36.2002 19.9573 36.2002 20.7384C36.2002 21.1119 36.3483 21.4701 36.612 21.7342C36.8756 21.9983 37.2332 22.1467 37.6061 22.1467C37.9789 22.1467 38.3365 21.9983 38.6002 21.7342C38.8638 21.4701 39.0119 21.1119 39.0119 20.7384C39.0119 20.3649 38.8638 20.0067 38.6002 19.7426C38.3365 19.4785 37.9789 19.3301 37.6061 19.3301Z" fill="white"/>
<path d="M37.6061 19.3301C36.8263 19.3301 36.2002 19.9573 36.2002 20.7384C36.2002 21.1119 36.3483 21.4701 36.612 21.7342C36.8756 21.9983 37.2332 22.1467 37.6061 22.1467C37.9789 22.1467 38.3365 21.9983 38.6002 21.7342C38.8638 21.4701 39.0119 21.1119 39.0119 20.7384C39.0119 20.3649 38.8638 20.0067 38.6002 19.7426C38.3365 19.4785 37.9789 19.3301 37.6061 19.3301Z" stroke="#31333A" stroke-width="1.417"/>
<path fill-rule="evenodd" clip-rule="evenodd" d="M43.9611 19.3301C43.1813 19.3301 42.5552 19.9573 42.5552 20.7384C42.5552 21.1119 42.7033 21.4701 42.9669 21.7342C43.2306 21.9983 43.5882 22.1467 43.9611 22.1467C44.3339 22.1467 44.6915 21.9983 44.9552 21.7342C45.2188 21.4701 45.3669 21.1119 45.3669 20.7384C45.3669 20.3649 45.2188 20.0067 44.9552 19.7426C44.6915 19.4785 44.3339 19.3301 43.9611 19.3301Z" fill="white"/>
<path d="M43.9611 19.3301C43.1813 19.3301 42.5552 19.9573 42.5552 20.7384C42.5552 21.1119 42.7033 21.4701 42.9669 21.7342C43.2306 21.9983 43.5882 22.1467 43.9611 22.1467C44.3339 22.1467 44.6915 21.9983 44.9552 21.7342C45.2188 21.4701 45.3669 21.1119 45.3669 20.7384C45.3669 20.3649 45.2188 20.0067 44.9552 19.7426C44.6915 19.4785 44.3339 19.3301 43.9611 19.3301Z" stroke="#31333A" stroke-width="1.417"/>
<path fill-rule="evenodd" clip-rule="evenodd" d="M50.3165 19.3301C49.5368 19.3301 48.9106 19.9573 48.9106 20.7384C48.9106 20.9233 48.947 21.1065 49.0177 21.2773C49.0883 21.4482 49.1919 21.6034 49.3224 21.7342C49.453 21.865 49.6079 21.9687 49.7785 22.0395C49.9491 22.1103 50.1319 22.1467 50.3165 22.1467C50.5011 22.1467 50.684 22.1103 50.8545 22.0395C51.0251 21.9687 51.1801 21.865 51.3106 21.7342C51.4412 21.6034 51.5447 21.4482 51.6154 21.2773C51.686 21.1065 51.7224 20.9233 51.7224 20.7384C51.7224 20.3649 51.5743 20.0067 51.3106 19.7426C51.047 19.4785 50.6894 19.3301 50.3165 19.3301Z" fill="white"/>
<path d="M50.3165 19.3301C49.5368 19.3301 48.9106 19.9573 48.9106 20.7384C48.9106 20.9233 48.947 21.1065 49.0177 21.2773C49.0883 21.4482 49.1919 21.6034 49.3224 21.7342C49.453 21.865 49.6079 21.9687 49.7785 22.0395C49.9491 22.1103 50.1319 22.1467 50.3165 22.1467C50.5011 22.1467 50.684 22.1103 50.8545 22.0395C51.0251 21.9687 51.1801 21.865 51.3106 21.7342C51.4412 21.6034 51.5447 21.4482 51.6154 21.2773C51.686 21.1065 51.7224 20.9233 51.7224 20.7384C51.7224 20.3649 51.5743 20.0067 51.3106 19.7426C51.047 19.4785 50.6894 19.3301 50.3165 19.3301Z" stroke="#31333A" stroke-width="1.417"/>
</svg>
