<svg width="398" height="124" viewBox="0 0 398 124" fill="none" xmlns="http://www.w3.org/2000/svg">
<g clip-path="url(#clip0_698_2592)">
<rect width="398" height="124" rx="16" fill="white"/>
<path d="M32.896 24.76L35.056 23.272C36.376 24.4 37.936 26.008 38.656 27.136L36.328 28.768C35.704 27.616 34.192 25.936 32.896 24.76ZM17.176 29.44H38.848V32.176H17.176V29.44ZM16.72 36.232C19.624 35.8 24.184 35.008 28.384 34.24L28.6 36.856C24.712 37.672 20.536 38.512 17.44 39.136L16.72 36.232ZM21.736 25.576H24.64V41.8C24.64 43.36 24.328 44.152 23.344 44.608C22.384 45.064 20.968 45.16 19 45.16C18.88 44.344 18.4 43.048 17.968 42.232C19.336 42.304 20.728 42.304 21.16 42.28C21.592 42.28 21.736 42.16 21.736 41.752V25.576ZM26.656 22.768L28.6 25.216C25.48 26.176 21.376 26.824 17.896 27.208C17.752 26.536 17.392 25.456 17.056 24.808C20.44 24.352 24.184 23.608 26.656 22.768ZM29.008 22.816H32.032C31.864 32.488 34.024 42.328 36.208 42.328C36.712 42.328 36.976 41.152 37.12 38.296C37.72 38.968 38.704 39.64 39.472 39.952C39.016 44.2 38.104 45.256 35.92 45.256C30.952 45.256 29.08 33.592 29.008 22.816ZM35.536 32.968L38.08 34.048C35.584 38.512 31.672 42.088 27.328 44.392C26.896 43.672 26.104 42.712 25.384 42.064C29.488 40.192 33.4 36.928 35.536 32.968ZM40.984 35.632H63.016V37.96H40.984V35.632ZM41.44 23.464H62.44V25.96H41.44V23.464ZM48.976 33.328L51.808 34.048C50.272 36.592 48.232 39.616 46.768 41.536L43.984 40.696C45.472 38.776 47.584 35.68 48.976 33.328ZM55.936 36.496L58.72 37.216C56.344 42.88 51.4 44.512 42.496 45.208C42.304 44.368 41.872 43.36 41.416 42.736C49.504 42.4 54.016 41.104 55.936 36.496ZM45.64 40.888L47.104 38.824C52.624 39.952 58.6 41.608 62.2 42.928L60.472 45.256C56.992 43.84 51.376 42.112 45.64 40.888ZM47.752 24.448H50.464V32.656H47.752V24.448ZM53.2 24.448H55.912V32.656H53.2V24.448ZM45.232 29.584V31.84H58.792V29.584H45.232ZM42.544 27.328H61.672V34.096H42.544V27.328ZM75.16 23.512H77.848V26.032C77.848 28.36 77.224 31.168 74.368 32.92C74.032 32.368 73 31.216 72.472 30.832C74.848 29.44 75.16 27.568 75.16 25.96V23.512ZM76.504 23.512H82.312V26.176H76.504V23.512ZM80.944 23.512H83.68V28.744C83.68 29.392 83.752 29.464 84.04 29.464C84.16 29.464 84.592 29.464 84.736 29.464C85.072 29.464 85.144 29.128 85.192 27.04C85.72 27.472 86.848 27.88 87.568 28.072C87.328 31.024 86.68 31.84 85.048 31.84C84.616 31.84 83.896 31.84 83.512 31.84C81.52 31.84 80.944 31.144 80.944 28.768V23.512ZM73.864 32.92H83.848V35.512H73.864V32.92ZM82.96 32.92H83.512L84.04 32.824L85.912 33.544C84.064 40.24 79.408 43.6 73.168 45.184C72.88 44.416 72.208 43.192 71.68 42.568C77.296 41.464 81.544 38.464 82.96 33.352V32.92ZM77.056 35.344C78.808 38.992 82.456 41.536 87.592 42.544C86.968 43.144 86.128 44.368 85.72 45.136C80.248 43.84 76.648 40.768 74.464 36.136L77.056 35.344ZM64.504 34.96C66.544 34.552 69.712 33.76 72.76 33.016L73.072 35.512C70.384 36.376 67.576 37.288 65.32 37.96L64.504 34.96ZM64.888 27.088H73.168V29.752H64.888V27.088ZM67.936 22.624H70.768V42.064C70.768 43.456 70.504 44.176 69.688 44.608C68.896 45.04 67.744 45.136 66.04 45.112C65.944 44.392 65.584 43.216 65.248 42.496C66.16 42.52 67.168 42.52 67.48 42.52C67.792 42.496 67.936 42.4 67.936 42.064V22.624ZM102.784 22.624H105.568V26.056H102.784V22.624ZM97.432 24.928H110.776V27.16H97.432V24.928ZM101.704 29.992V31.432H106.72V29.992H101.704ZM99.28 28.048H109.288V33.376H99.28V28.048ZM97.6 34.24H109.168V36.472H100.168V45.184H97.6V34.24ZM108.184 34.24H110.8V42.688C110.8 43.768 110.608 44.392 109.936 44.776C109.24 45.136 108.328 45.16 107.08 45.16C107.008 44.488 106.696 43.552 106.408 42.928C107.032 42.952 107.68 42.952 107.896 42.952C108.112 42.928 108.184 42.88 108.184 42.64V34.24ZM101.176 37.432H103.144V43.696H101.176V37.432ZM102.664 37.432H107.128V42.568H102.664V40.84H105.136V39.184H102.664V37.432ZM92.032 24.832H94.792V45.16H92.032V24.832ZM88.864 29.416H97.408V32.056H88.864V29.416ZM92.224 30.472L93.904 31.192C93.088 34.576 91.552 38.92 89.824 41.296C89.584 40.48 88.936 39.256 88.504 38.536C90.016 36.592 91.552 33.088 92.224 30.472ZM95.728 22.96L97.744 25.12C95.368 26.008 92.224 26.584 89.536 26.896C89.416 26.296 89.056 25.312 88.744 24.712C91.24 24.328 94.024 23.704 95.728 22.96ZM94.696 32.296C95.296 32.824 97.288 35.104 97.72 35.704L96.064 37.936C95.536 36.712 94.144 34.456 93.448 33.4L94.696 32.296Z" fill="#455A64"/>
<path d="M16.91 52.36H23.462V53.214H16.91V52.36ZM16.686 56.154H23.546V56.994H16.686V56.154ZM17.218 54.236H23.182V55.062H17.218V54.236ZM24.176 51.828H28.222V52.738H25.184V58.772H24.176V51.828ZM28.012 51.828H28.222L28.39 51.786L29.118 52.234C28.6 52.962 27.97 53.816 27.396 54.516C28.586 55.258 28.992 55.93 29.006 56.56C29.02 57.162 28.768 57.554 28.32 57.806C28.082 57.932 27.746 58.002 27.48 58.044C26.99 58.086 26.388 58.086 25.842 58.044C25.828 57.778 25.688 57.4 25.506 57.148C26.108 57.218 26.626 57.218 27.032 57.19C27.228 57.176 27.452 57.134 27.606 57.078C27.858 56.98 27.97 56.784 27.97 56.476C27.956 55.972 27.508 55.356 26.262 54.656C26.92 53.788 27.606 52.738 28.012 52.024V51.828ZM19.822 51.24H20.886V55.398C20.886 56.518 20.228 58.408 17.694 59.402C17.526 59.192 17.204 58.842 16.966 58.646C19.248 57.876 19.822 56.294 19.822 55.384V51.24ZM22.412 58.24H23.504V64.106H22.412V58.24ZM18.1 59.346H27.494V60.298H19.15V63.364H18.1V59.346ZM27.046 59.346H28.11V62.216C28.11 62.748 27.984 63.028 27.536 63.182C27.088 63.336 26.346 63.336 25.17 63.336C25.1 63.056 24.946 62.692 24.806 62.426C25.688 62.454 26.514 62.454 26.752 62.44C26.99 62.426 27.046 62.37 27.046 62.202V59.346ZM36.524 54.418H42.446V55.412H36.524V54.418ZM41.998 54.418H43.006C43.006 54.418 42.992 54.81 42.992 54.95C42.852 60.872 42.726 62.874 42.264 63.476C41.984 63.854 41.69 63.966 41.242 64.008C40.808 64.05 40.052 64.036 39.31 64.008C39.282 63.7 39.17 63.266 38.988 63C39.8 63.056 40.528 63.056 40.822 63.056C41.06 63.07 41.214 63.028 41.34 62.846C41.718 62.412 41.872 60.368 41.998 54.642V54.418ZM38.848 51.254H39.87C39.856 56.616 39.842 61.6 35.95 64.148C35.796 63.896 35.446 63.546 35.18 63.378C38.918 61.054 38.834 56.35 38.848 51.254ZM31.484 51.926H36.048V61.04H35.068V52.892H32.422V61.936H31.484V51.926ZM30.476 61.684C32.03 61.376 34.494 60.858 36.818 60.34L36.916 61.292C34.69 61.824 32.338 62.37 30.658 62.748L30.476 61.684ZM31.974 54.936H35.53V55.888H31.974V54.936ZM31.974 57.932H35.53V58.87H31.974V57.932ZM53.842 52.164L54.64 51.618C55.466 52.318 56.446 53.312 56.908 53.956L56.04 54.572C55.62 53.9 54.668 52.892 53.842 52.164ZM44.77 55.384H57.244V56.392H44.77V55.384ZM44.56 59.5C46.226 59.192 48.858 58.632 51.322 58.1L51.406 59.052C49.11 59.584 46.632 60.158 44.868 60.55L44.56 59.5ZM47.78 52.668H48.83V62.776C48.83 63.462 48.662 63.77 48.214 63.938C47.766 64.106 47.024 64.148 45.862 64.134C45.806 63.854 45.624 63.378 45.47 63.07C46.366 63.112 47.192 63.098 47.444 63.084C47.696 63.084 47.78 63.014 47.78 62.762V52.668ZM50.44 51.408L51.182 52.29C49.558 52.85 47.178 53.284 45.176 53.564C45.12 53.326 44.994 52.934 44.854 52.696C46.828 52.388 49.096 51.912 50.44 51.408ZM51.84 51.366H52.932C52.904 57.792 54.276 63.112 55.984 63.112C56.362 63.112 56.53 62.384 56.614 60.578C56.838 60.816 57.216 61.054 57.51 61.166C57.314 63.49 56.936 64.176 55.886 64.176C53.142 64.176 51.896 58.03 51.84 51.366ZM55.634 57.036L56.572 57.428C55.2 59.99 52.89 62.244 50.314 63.602C50.146 63.336 49.852 63 49.586 62.762C52.078 61.558 54.388 59.402 55.634 57.036ZM66.05 51.758H70.264V52.724H66.05V51.758ZM69.858 51.758H70.908V62.804C70.908 63.434 70.754 63.742 70.32 63.91C69.9 64.078 69.186 64.092 68.08 64.092C68.038 63.826 67.884 63.364 67.744 63.084C68.542 63.126 69.312 63.112 69.55 63.098C69.774 63.084 69.858 63.014 69.858 62.79V51.758ZM63.32 51.702L64.132 51.254C64.748 52.094 65.49 53.242 65.812 53.942L64.944 54.446C64.636 53.732 63.936 52.556 63.32 51.702ZM62.732 54.068H63.754V64.12H62.732V54.068ZM61.136 51.324L62.116 51.59C61.416 54.012 60.324 56.476 59.064 58.114C58.966 57.876 58.672 57.316 58.49 57.05C59.596 55.636 60.562 53.48 61.136 51.324ZM60.03 54.852L60.996 53.872L61.038 53.9V64.12H60.03V54.852ZM72.476 60.34C73.554 60.088 75.164 59.64 76.76 59.206L76.886 60.144C75.458 60.592 73.974 61.054 72.826 61.39L72.476 60.34ZM76.298 51.31H77.32V64.12H76.298V51.31ZM73.428 52.864H74.436V60.466H73.428V52.864ZM79.574 53.844H85.482V54.838H79.574V53.844ZM79.952 51.24L81.03 51.45C80.414 54.026 79.42 56.448 78.132 58.03C77.964 57.82 77.53 57.442 77.278 57.274C78.524 55.846 79.434 53.578 79.952 51.24ZM83.662 54.32L84.712 54.488C83.732 59.29 81.814 62.328 78.062 64.162C77.964 63.924 77.642 63.448 77.446 63.224C81.044 61.614 82.808 58.772 83.662 54.32ZM79.952 54.656C80.764 58.646 82.514 61.922 85.65 63.266C85.412 63.476 85.076 63.882 84.922 64.162C81.66 62.594 79.924 59.206 79 54.838L79.952 54.656ZM86.924 56.546H99.16V57.484H86.924V56.546ZM92.44 57.022H93.518V62.986C93.518 63.588 93.364 63.854 92.916 63.994C92.482 64.148 91.782 64.162 90.69 64.148C90.62 63.882 90.466 63.504 90.326 63.224C91.138 63.266 91.922 63.266 92.16 63.252C92.384 63.238 92.44 63.168 92.44 62.972V57.022ZM93.392 57.624C94.4 60.032 96.542 61.908 99.342 62.664C99.104 62.874 98.796 63.28 98.642 63.574C95.786 62.664 93.686 60.62 92.538 57.876L93.392 57.624ZM97.326 57.82L98.222 58.478C97.284 59.29 96.052 60.172 95.114 60.746L94.386 60.158C95.324 59.57 96.584 58.576 97.326 57.82ZM87.876 58.562L88.576 57.918C89.458 58.408 90.606 59.136 91.166 59.682L90.424 60.41C89.892 59.864 88.786 59.08 87.876 58.562ZM86.952 62.244C88.38 61.712 90.676 60.788 92.804 59.906L93.014 60.802C91.096 61.642 89.038 62.538 87.512 63.182L86.952 62.244ZM88.296 54.292H96.682V55.258H88.296V54.292ZM96.374 52.024H96.486L96.682 51.982L97.508 52.038C97.466 53.536 97.34 55.566 97.2 57.092L96.122 57.036C96.248 55.482 96.346 53.284 96.374 52.164V52.024ZM87.876 52.024H96.668V53.004H87.876V52.024ZM100.896 51.996H113.09V52.948H100.896V51.996ZM106.538 52.402H107.63V57.834C107.63 60.536 106.888 62.944 101.274 64.134C101.162 63.91 100.868 63.462 100.644 63.21C106.104 62.202 106.538 60.144 106.538 57.82V52.402ZM103.178 57.246V58.674H111.158V57.246H103.178ZM103.178 55.006V56.406H111.158V55.006H103.178ZM102.184 54.124H112.222V59.556H102.184V54.124ZM103.528 59.668C105.306 62.44 108.498 62.916 113.552 63.042C113.37 63.294 113.16 63.742 113.104 64.078C107.952 63.868 104.508 63.21 102.632 60.032L103.528 59.668ZM117.514 54.334L118.214 53.718C119.264 54.208 120.552 54.992 121.182 55.58L120.44 56.266C119.838 55.678 118.564 54.852 117.514 54.334ZM123.982 52.43H124.192L124.374 52.374L125.06 52.794C123.24 56.056 119.096 58.016 115.4 58.828C115.302 58.562 115.092 58.128 114.896 57.904C118.424 57.246 122.456 55.356 123.982 52.598V52.43ZM119.306 52.43H124.248V53.312H119.306V52.43ZM120.342 51.226L121.518 51.478C120.23 52.962 118.326 54.348 115.722 55.384C115.568 55.132 115.246 54.782 115.008 54.6C117.528 53.718 119.376 52.402 120.342 51.226ZM119.306 59.472L120.076 58.87C121.182 59.444 122.526 60.326 123.198 60.998L122.372 61.67C121.742 61.012 120.412 60.074 119.306 59.472ZM126.026 57.33H126.236L126.432 57.274L127.118 57.652C125.354 61.74 120.986 63.49 116.408 64.162C116.338 63.868 116.128 63.434 115.96 63.196C120.286 62.678 124.514 61.012 126.026 57.484V57.33ZM121.476 57.33H126.306V58.226H121.476V57.33ZM122.61 56.014L123.772 56.28C122.358 57.932 120.146 59.458 117.08 60.536C116.954 60.298 116.646 59.92 116.422 59.724C119.39 58.8 121.518 57.344 122.61 56.014ZM136.89 51.24H137.884V60.998H136.89V51.24ZM132.48 57.022L140.026 53.844L140.418 54.74L132.886 57.946L132.48 57.022ZM133.992 52.556H135V61.922C135 62.692 135.168 62.86 136.106 62.86C136.568 62.86 138.92 62.86 139.48 62.86C140.306 62.86 140.446 62.482 140.544 60.872C140.796 61.04 141.202 61.208 141.496 61.264C141.328 63.196 140.992 63.812 139.522 63.812C139.144 63.812 136.428 63.812 136.078 63.812C134.468 63.812 133.992 63.434 133.992 61.908V52.556ZM139.844 53.984H139.718L139.97 53.774L140.152 53.62L140.894 53.9L140.852 54.096C140.852 56.728 140.81 58.828 140.712 59.374C140.628 59.934 140.362 60.2 139.956 60.298C139.578 60.396 139.018 60.396 138.64 60.396C138.598 60.116 138.514 59.724 138.388 59.486C138.71 59.5 139.172 59.5 139.326 59.5C139.536 59.5 139.676 59.444 139.746 59.122C139.83 58.758 139.844 56.77 139.844 53.984ZM128.574 54.614H133.026V55.608H128.574V54.614ZM130.38 51.408H131.374V60.494H130.38V51.408ZM128.448 60.858C129.582 60.438 131.304 59.71 132.97 58.996L133.194 59.934C131.696 60.648 130.114 61.362 128.868 61.894L128.448 60.858ZM148.356 51.24H149.42V56.014H148.356V51.24ZM145.304 56.504V59.01H152.626V56.504H145.304ZM144.31 55.51H153.69V59.99H144.31V55.51ZM148.846 52.738H154.74V53.732H148.846V52.738ZM146.746 61.208L147.754 61.124C147.95 62.034 148.104 63.182 148.118 63.868L147.04 64.008C147.04 63.294 146.928 62.118 146.746 61.208ZM149.644 61.222L150.596 61.026C151.03 61.866 151.492 63 151.66 63.714L150.624 63.966C150.484 63.266 150.064 62.104 149.644 61.222ZM152.5 61.11L153.438 60.76C154.152 61.628 154.964 62.818 155.3 63.602L154.306 64.008C153.984 63.238 153.214 62.006 152.5 61.11ZM144.478 60.844L145.472 61.096C145.01 62.188 144.296 63.378 143.54 64.12L142.574 63.644C143.316 63.014 144.044 61.88 144.478 60.844Z" fill="#B9BBBB"/>
<path d="M331.492 38.5H278.075C269.646 38.5 262.812 45.3333 262.812 53.7625V122.442C262.812 130.872 269.646 137.705 278.075 137.705H331.492C339.922 137.705 346.755 130.872 346.755 122.442V53.7625C346.755 45.3333 339.922 38.5 331.492 38.5Z" fill="#80B0F4"/>
<g filter="url(#filter0_d_698_2592)">
<path d="M270.442 62.3473C270.442 59.7131 272.577 57.5781 275.212 57.5781H334.353C336.987 57.5781 339.122 59.7135 339.122 62.3473C339.122 64.9815 336.987 67.117 334.353 67.117H275.212C272.577 67.117 270.442 64.9815 270.442 62.3473Z" fill="white"/>
</g>
<g filter="url(#filter1_d_698_2592)">
<path d="M270.442 85.2406C270.442 82.6069 272.577 80.4714 275.212 80.4714H315.275C317.909 80.4714 320.045 82.6069 320.045 85.2406C320.045 87.8748 317.909 90.0103 315.275 90.0103H275.212C272.577 90.0103 270.442 87.8748 270.442 85.2406Z" fill="white"/>
</g>
<g filter="url(#filter2_iii_698_2592)">
<path fill-rule="evenodd" clip-rule="evenodd" d="M375.833 75.954C380.303 80.4243 380.303 87.6719 375.833 92.1422L333.862 134.114C329.392 138.584 322.144 138.584 317.674 134.114L298.596 115.036C294.126 110.566 294.126 103.318 298.596 98.8478C303.066 94.3775 310.314 94.3775 314.784 98.8478L325.768 109.832L359.645 75.954C364.115 71.4838 371.363 71.4838 375.833 75.954Z" fill="#B7D5FF" fill-opacity="0.3"/>
</g>
</g>
<defs>
<filter id="filter0_d_698_2592" x="254.868" y="49.7911" width="99.8282" height="40.6868" filterUnits="userSpaceOnUse" color-interpolation-filters="sRGB">
<feFlood flood-opacity="0" result="BackgroundImageFix"/>
<feColorMatrix in="SourceAlpha" type="matrix" values="0 0 0 0 0 0 0 0 0 0 0 0 0 0 0 0 0 0 127 0" result="hardAlpha"/>
<feOffset dy="7.787"/>
<feGaussianBlur stdDeviation="7.787"/>
<feColorMatrix type="matrix" values="0 0 0 0 0.184314 0 0 0 0 0.607843 0 0 0 0 1 0 0 0 0.3 0"/>
<feBlend mode="normal" in2="BackgroundImageFix" result="effect1_dropShadow_698_2592"/>
<feBlend mode="normal" in="SourceGraphic" in2="effect1_dropShadow_698_2592" result="shape"/>
</filter>
<filter id="filter1_d_698_2592" x="254.868" y="72.6844" width="80.7505" height="40.6868" filterUnits="userSpaceOnUse" color-interpolation-filters="sRGB">
<feFlood flood-opacity="0" result="BackgroundImageFix"/>
<feColorMatrix in="SourceAlpha" type="matrix" values="0 0 0 0 0 0 0 0 0 0 0 0 0 0 0 0 0 0 127 0" result="hardAlpha"/>
<feOffset dy="7.787"/>
<feGaussianBlur stdDeviation="7.787"/>
<feColorMatrix type="matrix" values="0 0 0 0 0.184314 0 0 0 0 0.607843 0 0 0 0 1 0 0 0 0.3 0"/>
<feBlend mode="normal" in2="BackgroundImageFix" result="effect1_dropShadow_698_2592"/>
<feBlend mode="normal" in="SourceGraphic" in2="effect1_dropShadow_698_2592" result="shape"/>
</filter>
<filter id="filter2_iii_698_2592" x="295.243" y="69.1973" width="89.3899" height="81.887" filterUnits="userSpaceOnUse" color-interpolation-filters="sRGB">
<feFlood flood-opacity="0" result="BackgroundImageFix"/>
<feBlend mode="normal" in="SourceGraphic" in2="BackgroundImageFix" result="shape"/>
<feColorMatrix in="SourceAlpha" type="matrix" values="0 0 0 0 0 0 0 0 0 0 0 0 0 0 0 0 0 0 127 0" result="hardAlpha"/>
<feOffset dx="5.447" dy="13.618"/>
<feGaussianBlur stdDeviation="8.982"/>
<feComposite in2="hardAlpha" operator="arithmetic" k2="-1" k3="1"/>
<feColorMatrix type="matrix" values="0 0 0 0 1 0 0 0 0 1 0 0 0 0 1 0 0 0 0.25 0"/>
<feBlend mode="normal" in2="shape" result="effect1_innerShadow_698_2592"/>
<feColorMatrix in="SourceAlpha" type="matrix" values="0 0 0 0 0 0 0 0 0 0 0 0 0 0 0 0 0 0 127 0" result="hardAlpha"/>
<feOffset dy="3.404"/>
<feGaussianBlur stdDeviation="3.404"/>
<feComposite in2="hardAlpha" operator="arithmetic" k2="-1" k3="1"/>
<feColorMatrix type="matrix" values="0 0 0 0 1 0 0 0 0 1 0 0 0 0 1 0 0 0 0.2 0"/>
<feBlend mode="normal" in2="effect1_innerShadow_698_2592" result="effect2_innerShadow_698_2592"/>
<feColorMatrix in="SourceAlpha" type="matrix" values="0 0 0 0 0 0 0 0 0 0 0 0 0 0 0 0 0 0 127 0" result="hardAlpha"/>
<feOffset dy="-3.404"/>
<feGaussianBlur stdDeviation="3.404"/>
<feComposite in2="hardAlpha" operator="arithmetic" k2="-1" k3="1"/>
<feColorMatrix type="matrix" values="0 0 0 0 0.103594 0 0 0 0 0.52793 0 0 0 0 0.920833 0 0 0 0.16 0"/>
<feBlend mode="normal" in2="effect2_innerShadow_698_2592" result="effect3_innerShadow_698_2592"/>
</filter>
<clipPath id="clip0_698_2592">
<rect width="398" height="124" fill="white"/>
</clipPath>
</defs>
</svg>
