<svg width="400" height="300" viewBox="0 0 400 300" fill="none" xmlns="http://www.w3.org/2000/svg">
<path d="M199.427 97.733C230.432 97.733 261.252 108.383 291.584 129.057L292.503 129.687L264.455 170.243C241.644 154.538 220.072 147.008 199.427 147.008C179.214 147.008 159.055 154.227 138.469 169.299L137.845 169.758L108.438 130.172C137.385 108.764 167.88 97.733 199.427 97.733Z" fill="#04D6BA"/>
<path d="M198.516 29C242.81 29 287.146 43.862 331.231 73.012L332.567 73.899L305.068 114.728C268.269 90.152 232.853 78.161 198.516 78.161C164.745 78.161 131.351 89.759 97.869 113.533L96.854 114.257L67.996 74.37C109.883 44.322 153.55 29 198.516 29Z" fill="#3370FF"/>
<path fill-rule="evenodd" clip-rule="evenodd" d="M273.038 33.91L251.306 67.332L267.747 69.787L242.424 97.733H256.597L254.896 103.965L242.424 133.988L267.747 113.028L273.038 114.728L277.574 103.965L258.487 96.223L292.503 64.5L277.574 62.234L297.417 45.994L273.038 33.91Z" fill="white"/>
<path fill-rule="evenodd" clip-rule="evenodd" d="M150.751 187.541L200.5 255.5L249.288 188.417C235.907 176.936 218.513 170 199.5 170C180.975 170 163.988 176.585 150.751 187.541Z" fill="#5FE4D2"/>
</svg>
