<svg width="215" height="123" viewBox="0 0 215 123" fill="none" xmlns="http://www.w3.org/2000/svg">
<g clip-path="url(#clip0_581_1601)">
<path d="M21.6585 77.8721L55.1605 146.568C60.2358 156.975 72.5711 161.602 83.2492 157.104L133.507 135.93" stroke="#143C9B" stroke-width="0.856"/>
<path fill-rule="evenodd" clip-rule="evenodd" d="M219.348 52.0605L176.924 71.0744C177.15 72.2669 177.264 73.4781 177.263 74.6918C177.263 85.3337 168.636 93.9602 157.994 93.9602C151.762 93.9602 146.221 91.0021 142.699 86.4139L77.1274 115.802L106.954 147.493L126.232 139.676L143.663 178.576H194.921C208.369 178.563 219.274 167.675 219.294 154.241L219.348 52.0605Z" fill="#3662E3"/>
<path d="M140.696 48.2573L138.952 53.829H141.925M138.036 45.0989H143.212M167.97 53.9715C168.671 54.8555 169.564 55.5693 170.581 56.0594C171.598 56.5495 172.713 56.8032 173.843 56.8015C177.973 56.8015 181.321 53.4743 181.321 49.3714C181.321 45.2678 177.973 41.9414 173.843 41.9414C172.706 41.9396 171.583 42.1968 170.561 42.6933C169.538 43.1899 168.642 43.9127 167.942 44.807M125.758 60.8958C132.844 60.8958 138.588 53.0746 138.588 43.4272C138.588 33.7799 132.844 25.9595 125.758 25.9595C118.673 25.9595 112.928 33.7799 112.928 43.4272C112.928 53.0746 118.673 60.8958 125.758 60.8958ZM153.259 56.4375C158.499 56.4375 162.745 51.3613 162.745 45.0989C162.745 38.8365 158.499 33.7603 153.259 33.7603C148.021 33.7603 143.775 38.8373 143.775 45.0989C143.775 51.3613 148.021 56.4375 153.259 56.4375Z" stroke="#143C9B" stroke-width="0.856"/>
<path d="M177.551 52.3429C177.947 51.7374 178.204 51.0516 178.302 50.3351C178.401 49.6185 178.339 48.8891 178.121 48.1993C177.337 45.702 174.744 44.3358 172.33 45.147C170.928 45.618 169.894 46.7203 169.428 48.05" stroke="#143C9B" stroke-width="0.856"/>
<path d="M174.13 49.1811C174.059 48.4759 173.828 47.7963 173.453 47.1946C173.078 46.5928 172.57 46.0848 171.968 45.7096M173.198 58.556L169.893 75.1659L177.336 72.0551M156.047 73.518H142.385C135.357 73.518 129.66 67.8258 129.66 60.8047V32.2827" stroke="#143C9B" stroke-width="0.856"/>
<path fill-rule="evenodd" clip-rule="evenodd" d="M138.053 8.06982C142.285 8.06982 145.01 9.09404 147.827 11.1926L161.295 11.1756C171.365 11.0084 179.665 18.9977 179.832 29.0209C179.856 30.484 179.703 31.9446 179.375 33.3707L177.07 42.8543C174.504 41.7783 172.072 41.8462 169.776 43.0562L167.749 34.9889C163.697 36.3339 159.78 36.6691 155.997 35.9979C152.216 35.3249 149.153 33.6321 146.81 30.9166C144.079 32.5858 140.646 37.0204 136.952 37.213C117.139 38.2449 113.083 27.7388 114.229 19.8853C115.502 11.1603 123.766 8.77753 124.05 8.7979C128.326 9.10847 134.414 8.07068 138.053 8.07068V8.06982ZM171.286 56.4297L174.26 56.8319L171.286 66.0881" fill="#143C9B"/>
<path d="M145.643 73.5171L142.6 86.9609M84.7646 132.041L55.3024 74.9631" stroke="#143C9B" stroke-width="0.856"/>
<path d="M107.317 77.8721C86.6257 77.8721 69.8521 61.1069 69.8521 40.4265C69.8521 19.7461 86.6257 2.98096 107.317 2.98096C128.008 2.98096 144.781 19.7461 144.781 40.4265C144.781 61.1069 128.008 77.8721 107.317 77.8721Z" fill="white" fill-opacity="0.503" stroke="#04D6BA" stroke-width="6.849"/>
<path fill-rule="evenodd" clip-rule="evenodd" d="M71.845 48.4243L5.83481 76.5815L9.29792 84.7795L75.3081 56.6232L71.845 48.4243Z" fill="#04D6BA"/>
<path d="M55.3881 75.3273L57.2857 68.9741C57.6733 67.6766 57.6902 66.2967 57.3345 64.9901C56.9787 63.6836 56.2646 62.5023 55.2726 61.5797L49.759 56.4518C49.5298 56.2395 49.2384 56.1065 48.9277 56.0726C48.617 56.0386 48.3036 56.1055 48.034 56.2634C47.7643 56.4212 47.5527 56.6615 47.4305 56.9489C47.3082 57.2362 47.2818 57.5552 47.3551 57.8587L49.3886 66.2179C49.4344 66.4052 49.4424 66.5998 49.412 66.7902C49.3817 66.9807 49.3137 67.1631 49.2119 67.327L47.5462 70.0093M38.5704 76.0545C41.015 79.6092 44.4102 80.7938 48.755 79.6092" stroke="#143C9B" stroke-width="0.856"/>
<path d="M125.867 140.04L117.865 122.953" stroke="white" stroke-width="0.856"/>
<path fill-rule="evenodd" clip-rule="evenodd" d="M156.058 73.8729L144.418 79.3267L145.711 73.5098L156.058 73.8729Z" fill="#143C9B"/>
<path d="M146.601 63.33C145.194 63.33 144.054 62.7598 144.054 62.0572C144.054 61.3545 145.194 60.7852 146.601 60.7852C148.007 60.7852 149.146 61.3545 149.146 62.0572C149.146 62.7598 148.007 63.33 146.601 63.33Z" stroke="#143C9B" stroke-width="0.856"/>
<path d="M26.4968 75.2219L46.5491 66.4435C46.8963 66.2912 47.1704 66.0096 47.3128 65.6585C47.4553 65.3075 47.455 64.9147 47.3119 64.5639L44.276 57.1355C44.0549 56.5948 43.7273 56.104 43.3127 55.6922C42.898 55.2805 42.4047 54.9562 41.8621 54.7386C41.3195 54.521 40.7387 54.4145 40.1541 54.4256C39.5696 54.4366 38.9932 54.5649 38.4592 54.8028L19.4874 63.2588C18.4579 63.7177 17.6462 64.5569 17.2225 65.6005C16.7987 66.6441 16.7958 67.8111 17.2143 68.8568L18.2031 71.3278M42.5721 68.4198L39.4326 60.7301M36.7527 70.9646L33.479 62.9669M30.9809 73.7522L27.7998 65.8198" stroke="#143C9B" stroke-width="0.856"/>
</g>
<defs>
<clipPath id="clip0_581_1601">
<rect width="220" height="179.048" fill="white" transform="matrix(-1 0 0 1 220 0)"/>
</clipPath>
</defs>
</svg>
