<svg width="32" height="32" viewBox="0 0 32 32" fill="none" xmlns="http://www.w3.org/2000/svg">
<path d="M10.6963 21.7489C10.3157 21.7372 7.84673 21.575 7.89441 19.393H7.89435C7.90893 18.7292 8.64341 16.9356 11.4885 17.2304C12.9911 17.386 14.6841 18.2952 15.0174 18.4558C15.3505 18.6165 15.6898 18.792 16.0348 18.9825C15.9873 19.0301 15.9396 19.0748 15.892 19.1164C15.8444 19.1581 14.5536 20.3721 13.7622 20.8422C12.9707 21.3124 11.9544 21.7875 10.6963 21.7489ZM27.5986 21.2218C23.2738 20.5313 19.1767 18.5717 19.1767 18.5717C19.7122 17.8815 20.1437 17.2091 20.471 16.5545C20.7982 15.9 21.0452 15.3169 21.2118 14.8052C21.412 14.2166 21.5536 13.6573 21.6373 13.127H21.6401V13.1092C21.6393 13.1151 21.6382 13.1211 21.6373 13.127H17.4809V11.1456H22.7114V10.2886H17.4809V8.23562H16.1062C15.8802 8.23562 15.6777 8.25353 15.4993 8.28935C15.3446 8.31307 15.2077 8.35765 15.0887 8.42314C14.9696 8.48863 14.9102 8.57488 14.9102 8.68204V10.2886H9.82251V11.1456H14.9102V13.127H11.2506V13.9839H18.9983C18.9744 14.0791 18.921 14.2458 18.8376 14.4837C18.7543 14.7218 18.6352 15.0163 18.4805 15.3675C18.3258 15.7186 18.1294 16.1053 17.8913 16.5279C17.6534 16.9502 17.3619 17.3816 17.0166 17.8221C16.8501 17.7625 16.6895 17.703 16.5347 17.6436C16.38 17.584 16.2311 17.5245 16.0884 17.4651C15.7314 17.3103 15.3535 17.1497 14.9548 16.983C14.5561 16.8164 14.1336 16.6617 13.6873 16.5188C13.241 16.3761 12.7739 16.2541 12.2859 16.1529C11.7979 16.0517 11.2921 15.9893 10.7685 15.9655C10.233 15.9418 9.70036 16.0072 9.17083 16.1618C8.6413 16.3165 8.15916 16.5426 7.7248 16.8403C7.29037 17.1377 6.93625 17.5008 6.66251 17.9293C6.38891 18.3578 6.24606 18.8337 6.23413 19.3575C6.23413 19.9643 6.3592 20.497 6.60908 20.9551C6.85892 21.4133 7.19824 21.7942 7.62656 22.0976C8.05504 22.4011 8.55783 22.6302 9.13511 22.7848C9.71235 22.9396 10.3281 23.0171 10.9827 23.0171H11.2684C11.3041 23.0171 11.3339 23.011 11.3576 22.9991C11.6075 22.9872 11.923 22.9604 12.3038 22.9188C12.6846 22.877 13.1279 22.776 13.6338 22.6153C14.1396 22.4545 14.7073 22.2226 15.3118 21.8744C16.0001 21.4778 17.8913 19.9643 17.8913 19.9643C21.6901 21.6519 24.1637 22.6793 26.493 23.186C24.2012 26.5259 20.3565 28.7167 16 28.7167C8.97672 28.7167 3.2832 23.0233 3.2832 15.9999C3.2832 8.97659 8.97675 3.2832 16 3.2832C23.0233 3.2832 28.7168 8.97666 28.7168 16C28.7168 17.861 28.317 19.6287 27.5986 21.2218Z" fill="white"/>
</svg>
