<svg width="16" height="16" viewBox="0 0 16 16" fill="none" xmlns="http://www.w3.org/2000/svg">
<path d="M8.00016 14.6668C9.8411 14.6668 11.5078 13.9206 12.7142 12.7142C13.9206 11.5078 14.6668 9.8411 14.6668 8.00016C14.6668 6.15923 13.9206 4.49256 12.7142 3.28612C11.5078 2.07969 9.8411 1.3335 8.00016 1.3335C6.15923 1.3335 4.49256 2.07969 3.28612 3.28612C2.07969 4.49256 1.3335 6.15923 1.3335 8.00016C1.3335 9.8411 2.07969 11.5078 3.28612 12.7142C4.49256 13.9206 6.15923 14.6668 8.00016 14.6668Z" stroke="white" stroke-linejoin="round"/>
<path d="M8.33317 11.4998C8.33317 11.6839 8.18393 11.8332 7.99984 11.8332C7.81575 11.8332 7.6665 11.6839 7.6665 11.4998C7.6665 11.3157 7.81575 11.1665 7.99984 11.1665C8.18393 11.1665 8.33317 11.3157 8.33317 11.4998Z" fill="white" stroke="white"/>
<path d="M8 4V9.33333" stroke="white" stroke-linecap="round" stroke-linejoin="round"/>
</svg>
