<svg width="36" height="36" viewBox="0 0 36 36" fill="none" xmlns="http://www.w3.org/2000/svg">
<path fill-rule="evenodd" clip-rule="evenodd" d="M20.4215 16.1934L20.4217 16.1932C20.422 13.8556 20.4226 9.28844 20.4235 9.25978C20.4472 8.50613 20.7015 7.78935 21.1377 7.25405C21.5961 6.69144 22.2179 6.37537 22.8663 6.37537C23.5146 6.37537 24.1364 6.69144 24.5949 7.25405C25.0533 7.81665 25.3109 8.57972 25.3109 9.37537V12.3479C25.3167 11.5621 25.5736 10.81 26.0268 10.2539C26.4852 9.69125 27.107 9.37518 27.7554 9.37518C28.4037 9.37518 29.0255 9.69125 29.4839 10.2539C29.9424 10.8165 30.1999 11.5795 30.1999 12.3752V21.3752C30.1999 24.5578 29.1697 27.61 27.3359 29.8605C25.5021 32.1109 23.015 33.3752 20.4216 33.3752H17.977C14.5546 33.3752 12.4767 32.0852 10.6554 29.8652L6.25518 24.4652C5.83463 23.8936 5.6093 23.1454 5.62585 22.3756C5.6424 21.6058 5.89955 20.8732 6.34407 20.3296C6.78858 19.786 7.38642 19.4731 8.01378 19.4555C8.64115 19.4379 9.25 19.7171 9.71428 20.2352L10.6432 21.3752V9.37537C10.6432 8.57972 10.9008 7.81665 11.3592 7.25405C11.8177 6.69144 12.4395 6.37537 13.0878 6.37537C13.7362 6.37537 14.358 6.69144 14.8164 7.25405C15.2704 7.81113 15.5274 8.56476 15.5324 9.35195V6.375C15.5324 5.57935 15.7899 4.81629 16.2484 4.25368C16.7068 3.69107 17.3286 3.375 17.9769 3.375C18.6253 3.375 19.2471 3.69107 19.7055 4.25368C20.164 4.81629 20.4215 5.57935 20.4215 6.375V16.1934Z" fill="black" fill-opacity="0.5"/>
</svg>
