<svg width="36" height="36" viewBox="0 0 36 36" fill="none" xmlns="http://www.w3.org/2000/svg">
<path fill-rule="evenodd" clip-rule="evenodd" d="M17.9769 2.375C16.9896 2.375 16.0958 2.8578 15.4731 3.62198C14.9814 4.2254 14.6767 4.97675 14.5726 5.76329C14.1232 5.51513 13.6191 5.37537 13.0878 5.37537C12.1005 5.37537 11.2067 5.85816 10.584 6.62235C9.96591 7.38091 9.64324 8.37323 9.64324 9.37537V18.8936C9.14696 18.599 8.58073 18.4392 7.98577 18.4559C7.0318 18.4826 6.17374 18.9582 5.56994 19.6966C4.97017 20.43 4.64693 21.3838 4.62608 22.3541C4.60522 23.3245 4.88708 24.2931 5.44971 25.0578C5.45947 25.0711 5.46956 25.0841 5.47996 25.0969L9.88022 30.4969L9.88231 30.4994C10.8509 31.6801 11.928 32.6626 13.261 33.3433C14.5986 34.0264 16.1343 34.3752 17.977 34.3752H20.4216C23.354 34.3752 26.1131 32.9442 28.1111 30.4922C30.1046 28.0458 31.1999 24.7643 31.1999 21.3752V12.3752C31.1999 11.373 30.8773 10.3807 30.2592 9.62217C29.6364 8.85798 28.7427 8.37518 27.7553 8.37518C27.2241 8.37518 26.7199 8.51496 26.2705 8.76313C26.1664 7.97678 25.8617 7.22564 25.3701 6.62235C24.7474 5.85816 23.8536 5.37537 22.8663 5.37537C22.335 5.37537 21.8307 5.51517 21.3813 5.7634C21.2772 4.97682 20.9725 4.22543 20.4807 3.62198C19.858 2.8578 18.9643 2.375 17.9769 2.375ZM24.3109 12.3895V16.8754C24.3109 17.4277 24.7586 17.8754 25.3109 17.8754C25.8631 17.8754 26.3109 17.4277 26.3109 16.8754V12.3518C26.3159 11.7719 26.5072 11.2474 26.802 10.8856C27.0962 10.5245 27.446 10.3752 27.7553 10.3752C28.0647 10.3752 28.4145 10.5245 28.7087 10.8856C29.0075 11.2522 29.1999 11.786 29.1999 12.3752V21.3752C29.1999 24.3513 28.2348 27.1743 26.5607 29.2288C24.8912 31.2776 22.676 32.3752 20.4216 32.3752H17.977C16.3973 32.3752 15.1828 32.079 14.1706 31.5621C13.154 31.043 12.2818 30.2708 11.4294 29.232L11.4286 29.2309L7.04766 23.8547C6.77694 23.4775 6.61357 22.9574 6.62562 22.3971C6.63786 21.8277 6.82893 21.3164 7.11818 20.9627C7.40342 20.6139 7.74103 20.4635 8.04179 20.4551C8.33636 20.4468 8.66678 20.5725 8.95554 20.8871L9.85756 21.9941C9.8642 22.0025 9.87099 22.0108 9.8779 22.019L11.0903 23.5069C11.4392 23.935 12.0691 23.9993 12.4972 23.6504C12.9253 23.3015 12.9896 22.6716 12.6407 22.2435L11.6432 21.0194V9.37537C11.6432 8.78621 11.8357 8.2524 12.1345 7.88574C12.4287 7.52471 12.7785 7.37537 13.0878 7.37537C13.3972 7.37537 13.747 7.52471 14.0412 7.88574C14.3366 8.24824 14.528 8.7741 14.5323 9.35531V9.375L14.5324 9.38732V16.1254C14.5324 16.6777 14.9801 17.1254 15.5324 17.1254C16.0847 17.1254 16.5324 16.6777 16.5324 16.1254V9.37537L16.5323 9.34901V6.375C16.5323 5.78584 16.7248 5.25204 17.0236 4.88538C17.3178 4.52434 17.6676 4.375 17.9769 4.375C18.2863 4.375 18.6361 4.52434 18.9303 4.88538C19.2291 5.25204 19.4215 5.78584 19.4215 6.375V15.375C19.4215 15.9273 19.8692 16.375 20.4215 16.375C20.9738 16.375 21.4215 15.9273 21.4215 15.375V9.39279L21.4217 9.37537C21.4217 8.78621 21.6141 8.2524 21.9129 7.88574C22.2071 7.52471 22.5569 7.37537 22.8663 7.37537C23.1756 7.37537 23.5254 7.52471 23.8196 7.88574C24.1184 8.2524 24.3109 8.78621 24.3109 9.37537V12.3445C24.3108 12.3547 24.3108 12.3649 24.3108 12.3752C24.3108 12.38 24.3108 12.3848 24.3109 12.3895Z" fill="black" fill-opacity="0.5"/>
</svg>
