<svg width="32" height="32" viewBox="0 0 32 32" fill="none" xmlns="http://www.w3.org/2000/svg">
<path d="M6.57193 12C4.15907 14 2.66669 16 2.66669 16C2.66669 16 8.63622 24 16 24C16.9133 24 17.8051 23.8769 18.6667 23.6614M13.3546 8.33333C14.2096 8.12107 15.0943 8 16 8C23.3638 8 29.3334 16 29.3334 16C29.3334 16 27.841 18 25.4281 20" stroke="#6D7985" stroke-width="2" stroke-linecap="round" stroke-linejoin="round"/>
<path d="M13.5428 13.7474C12.9988 14.3406 12.6667 15.1315 12.6667 15.9999C12.6667 17.8408 14.1591 19.3332 16 19.3332C16.9085 19.3332 17.7321 18.9697 18.3334 18.3803" stroke="#6D7985" stroke-width="2" stroke-linecap="round" stroke-linejoin="round"/>
<path d="M28 28L4 4" stroke="#6D7985" stroke-width="2" stroke-linecap="round" stroke-linejoin="round"/>
</svg>
