<svg width="32" height="32" viewBox="0 0 32 32" fill="none" xmlns="http://www.w3.org/2000/svg">
<path d="M15.3333 20H9.33333C7.91885 20 6.56229 20.5619 5.5621 21.5621C4.5619 22.5623 4 23.9188 4 25.3333V28" stroke="#899199" stroke-width="2" stroke-linecap="round" stroke-linejoin="round"/>
<path d="M28.504 22.168C29.0351 21.6369 29.3335 20.9165 29.3335 20.1653C29.3335 19.4142 29.0351 18.6938 28.504 18.1627C27.9728 17.6315 27.2525 17.3331 26.5013 17.3331C25.7502 17.3331 25.0298 17.6315 24.4987 18.1627L19.152 23.512C18.835 23.8288 18.6029 24.2204 18.4773 24.6507L17.3613 28.4773C17.3279 28.5921 17.3259 28.7137 17.3555 28.8295C17.3852 28.9452 17.4454 29.0509 17.5299 29.1354C17.6144 29.2199 17.7201 29.2801 17.8359 29.3098C17.9516 29.3395 18.0733 29.3375 18.188 29.304L22.0147 28.188C22.4449 28.0624 22.8365 27.8303 23.1533 27.5133L28.504 22.168Z" fill="#D9D9D9" stroke="#899199" stroke-width="2" stroke-linecap="round" stroke-linejoin="round"/>
<path d="M13.3333 14.6667C16.2789 14.6667 18.6667 12.2789 18.6667 9.33333C18.6667 6.38781 16.2789 4 13.3333 4C10.3878 4 8 6.38781 8 9.33333C8 12.2789 10.3878 14.6667 13.3333 14.6667Z" stroke="#899199" stroke-width="2" stroke-linecap="round" stroke-linejoin="round"/>
</svg>
