<svg width="36" height="36" viewBox="0 0 36 36" fill="none" xmlns="http://www.w3.org/2000/svg">
<path fill-rule="evenodd" clip-rule="evenodd" d="M6 10.7978C6 10.3573 6.35714 10.0001 6.79768 10.0001H29.1791C29.6197 10.0001 29.9768 10.3573 29.9768 10.7978V12.9943H6V10.7978ZM2 14.9943V10.7978C2 8.14812 4.14799 6.00012 6.79768 6.00012H29.1791C31.8288 6.00012 33.9768 8.14812 33.9768 10.7978V14.9943V24.7862C33.9768 27.4359 31.8288 29.5839 29.1791 29.5839H6.79768C4.14799 29.5839 2 27.4359 2 24.7862V14.9943ZM29.9768 16.9943V24.7862C29.9768 25.2268 29.6197 25.5839 29.1791 25.5839H6.79768C6.35714 25.5839 6 25.2268 6 24.7862V16.9943H29.9768Z" fill="white"/>
</svg>
