<svg width="110" height="110" viewBox="0 0 110 110" fill="none" xmlns="http://www.w3.org/2000/svg">
<path fill-rule="evenodd" clip-rule="evenodd" d="M16.2222 32.9933C16.2222 30.4812 18.2586 28.4448 20.7706 28.4448H89.1584C91.6705 28.4448 93.7069 30.4812 93.7069 32.9933V41.816H16.2222V32.9933ZM8.22217 45.816V32.9933C8.22217 26.063 13.8403 20.4448 20.7706 20.4448H89.1584C96.0888 20.4448 101.707 26.063 101.707 32.9933V45.816V75.7357C101.707 82.666 96.0888 88.2841 89.1584 88.2841H20.7706C13.8403 88.2841 8.22217 82.666 8.22217 75.7357V45.816ZM93.7069 49.816V75.7357C93.7069 78.2477 91.6705 80.2841 89.1584 80.2841H20.7706C18.2586 80.2841 16.2222 78.2477 16.2222 75.7357V49.816H93.7069Z" fill="url(#paint0_linear_382_1944)"/>
<defs>
<linearGradient id="paint0_linear_382_1944" x1="54.9645" y1="20.4448" x2="54.9645" y2="88.2841" gradientUnits="userSpaceOnUse">
<stop offset="0.5" stop-color="white" stop-opacity="0.5"/>
<stop offset="0.84" stop-color="white" stop-opacity="0"/>
</linearGradient>
</defs>
</svg>
