<svg width="32" height="32" viewBox="0 0 32 32" fill="none" xmlns="http://www.w3.org/2000/svg">
<path d="M16.2933 2.66669H15.7067C14.9994 2.66669 14.3211 2.94764 13.8211 3.44774C13.321 3.94783 13.04 4.62611 13.04 5.33335V5.57335C13.0395 6.04099 12.9161 6.50027 12.6821 6.90514C12.448 7.31 12.1117 7.6462 11.7067 7.88002L11.1333 8.21335C10.728 8.4474 10.2681 8.57062 9.8 8.57062C9.3319 8.57062 8.87205 8.4474 8.46667 8.21335L8.26667 8.10669C7.65476 7.7537 6.92779 7.65795 6.24534 7.84043C5.56289 8.02292 4.98074 8.46873 4.62667 9.08002L4.33334 9.58669C3.98035 10.1986 3.88459 10.9256 4.06708 11.608C4.24957 12.2905 4.69538 12.8726 5.30667 13.2267L5.50667 13.36C5.9097 13.5927 6.24483 13.9268 6.47874 14.3291C6.71265 14.7315 6.83719 15.188 6.84 15.6534V16.3334C6.84187 16.8032 6.71954 17.2653 6.48539 17.6727C6.25125 18.0801 5.91361 18.4184 5.50667 18.6534L5.30667 18.7734C4.69538 19.1274 4.24957 19.7096 4.06708 20.392C3.88459 21.0745 3.98035 21.8014 4.33334 22.4134L4.62667 22.92C4.98074 23.5313 5.56289 23.9771 6.24534 24.1596C6.92779 24.3421 7.65476 24.2463 8.26667 23.8934L8.46667 23.7867C8.87205 23.5526 9.3319 23.4294 9.8 23.4294C10.2681 23.4294 10.728 23.5526 11.1333 23.7867L11.7067 24.12C12.1117 24.3538 12.448 24.69 12.6821 25.0949C12.9161 25.4998 13.0395 25.9591 13.04 26.4267V26.6667C13.04 27.3739 13.321 28.0522 13.8211 28.5523C14.3211 29.0524 14.9994 29.3334 15.7067 29.3334H16.2933C17.0006 29.3334 17.6789 29.0524 18.179 28.5523C18.6791 28.0522 18.96 27.3739 18.96 26.6667V26.4267C18.9605 25.9591 19.0839 25.4998 19.318 25.0949C19.552 24.69 19.8884 24.3538 20.2933 24.12L20.8667 23.7867C21.2721 23.5526 21.7319 23.4294 22.2 23.4294C22.6681 23.4294 23.128 23.5526 23.5333 23.7867L23.7333 23.8934C24.3452 24.2463 25.0722 24.3421 25.7547 24.1596C26.4371 23.9771 27.0193 23.5313 27.3733 22.92L27.6667 22.4C28.0197 21.7881 28.1154 21.0611 27.9329 20.3787C27.7504 19.6962 27.3046 19.1141 26.6933 18.76L26.4933 18.6534C26.0864 18.4184 25.7488 18.0801 25.5146 17.6727C25.2805 17.2653 25.1581 16.8032 25.16 16.3334V15.6667C25.1581 15.1968 25.2805 14.7347 25.5146 14.3273C25.7488 13.9199 26.0864 13.5816 26.4933 13.3467L26.6933 13.2267C27.3046 12.8726 27.7504 12.2905 27.9329 11.608C28.1154 10.9256 28.0197 10.1986 27.6667 9.58669L27.3733 9.08002C27.0193 8.46873 26.4371 8.02292 25.7547 7.84043C25.0722 7.65795 24.3452 7.7537 23.7333 8.10669L23.5333 8.21335C23.128 8.4474 22.6681 8.57062 22.2 8.57062C21.7319 8.57062 21.2721 8.4474 20.8667 8.21335L20.2933 7.88002C19.8884 7.6462 19.552 7.31 19.318 6.90514C19.0839 6.50027 18.9605 6.04099 18.96 5.57335V5.33335C18.96 4.62611 18.6791 3.94783 18.179 3.44774C17.6789 2.94764 17.0006 2.66669 16.2933 2.66669Z" stroke="black" stroke-width="2" stroke-linecap="round" stroke-linejoin="round"/>
<path d="M16 20C18.2091 20 20 18.2091 20 16C20 13.7909 18.2091 12 16 12C13.7909 12 12 13.7909 12 16C12 18.2091 13.7909 20 16 20Z" fill="#D9D9D9" stroke="black" stroke-width="2" stroke-linecap="round" stroke-linejoin="round"/>
</svg>
