<svg width="36" height="36" viewBox="0 0 36 36" fill="none" xmlns="http://www.w3.org/2000/svg">
<path d="M28 17.0819C27.8845 10.943 22.5566 6 16.001 6C9.37299 6 4 11.0527 4 17.2856C4 20.0475 5.05503 22.5777 6.80678 24.5392C7.02134 24.7794 7.1237 25.1023 7.06763 25.4195L6.57213 28.2228C6.4354 28.9964 7.20302 29.6183 7.93138 29.3241L11.2628 27.9785C11.4772 27.8919 11.7149 27.8834 11.9369 27.9481C14.1614 28.5964 16.2661 28.7457 18.2512 28.396" fill="#65DA78"/>
<path d="M11.6875 15.4C12.6194 15.4 13.375 14.639 13.375 13.7C13.375 12.7612 12.6194 12 11.6875 12C10.7556 12 10 12.7612 10 13.7C10 14.639 10.7556 15.4 11.6875 15.4Z" fill="white"/>
<path d="M18.4375 15.4C19.3694 15.4 20.125 14.639 20.125 13.7C20.125 12.7612 19.3694 12 18.4375 12C17.5056 12 16.75 12.7612 16.75 13.7C16.75 14.639 17.5056 15.4 18.4375 15.4Z" fill="white"/>
<path d="M29.0713 29.947C27.7601 30.9226 26.135 31.5 24.375 31.5C20.0258 31.5 16.5 27.9742 16.5 23.625C16.5 19.2758 20.0258 15.75 24.375 15.75C28.7242 15.75 32.25 19.2758 32.25 23.625C32.25 24.8248 31.9817 25.9619 31.5018 26.9796" fill="#D7D7D7"/>
<path d="M31.5018 26.9796L31.9334 29.587C32.0661 30.3887 31.2379 31.0055 30.5078 30.6488L29.0714 29.947" fill="#D7D7D7"/>
<path d="M26.7656 23.0999C26.0666 23.0999 25.5 22.5291 25.5 21.8249C25.5 21.1207 26.0666 20.5499 26.7656 20.5499C27.4646 20.5499 28.0312 21.1207 28.0312 21.8249C28.0312 22.5291 27.4646 23.0999 26.7656 23.0999Z" fill="white"/>
<path d="M21.7031 23.0999C21.0041 23.0999 20.4375 22.5291 20.4375 21.8249C20.4375 21.1207 21.0041 20.5499 21.7031 20.5499C22.4021 20.5499 22.9688 21.1207 22.9688 21.8249C22.9688 22.5291 22.4021 23.0999 21.7031 23.0999Z" fill="white"/>
</svg>
