<svg width="32" height="32" viewBox="0 0 32 32" fill="none" xmlns="http://www.w3.org/2000/svg">
<path d="M12.602 19.412C10.8899 20.3626 10.6356 18.8783 10.6356 18.8783L8.48955 13.8901C7.66379 11.5197 9.20427 12.8211 9.20427 12.8211C9.20427 12.8211 10.5262 13.817 11.5292 14.4242C12.5318 15.0312 13.6745 14.6021 13.6745 14.6021L27.7046 8.15187C25.1158 4.94371 20.84 2.84595 15.999 2.84595C8.09883 2.84595 1.69531 8.42867 1.69531 15.3154C1.69531 19.2768 3.81579 22.8023 7.11867 25.0875L6.52315 28.4979C6.52315 28.4979 6.23307 29.4939 7.23915 29.032C7.92491 28.7171 9.67291 27.5887 10.7136 26.9023C12.3496 27.4703 14.1316 27.7856 16.0003 27.7856C23.8996 27.7856 30.3048 22.2031 30.3048 15.3162C30.3048 13.3213 29.7652 11.4375 28.8089 9.76563C24.3387 12.4437 13.942 18.6693 12.602 19.412Z" fill="white"/>
</svg>
