<svg width="512" height="512" viewBox="0 0 512 512" fill="none" xmlns="http://www.w3.org/2000/svg">
<path fill-rule="evenodd" clip-rule="evenodd" d="M373.036 400.235L322.876 402.838L322.862 402.631C326.754 392.878 336.619 385.805 347.105 385.26C357.591 384.714 368.141 390.717 373.025 400.012L373.036 400.235ZM312.942 403.355C303.512 427.859 293.628 452.296 272.529 467.923C271.824 468.444 271.114 468.951 270.395 469.437L270.826 470.065C310.252 488.784 359.419 489.243 398.342 469.498C425.514 455.71 448.609 432.116 457.232 402.891C465.855 373.665 457.98 339.037 434.469 319.646C419.131 306.996 399.097 301.696 379.482 298.454C358.187 294.815 336.578 293.34 314.985 294.05L314.75 293.859V293.706L314.313 293.701C308.063 301.109 302.646 309.182 298.159 317.774C295.07 305.506 291.921 293.084 285.83 281.995L285.836 281.858C282.556 281.756 279.276 281.651 275.996 281.541L275.979 282C278.052 322.884 278.869 363.776 278.433 404.675L278.46 405.15L312.942 403.355ZM314.967 348.596L314.962 348.719C314.268 353.733 313.575 358.805 314.028 363.847C314.482 368.89 316.173 373.981 319.682 377.634C323.19 381.286 328.714 383.216 333.517 381.612C336.524 380.608 339.002 378.338 340.726 375.674C342.451 373.011 343.482 369.955 344.257 366.882C345.703 361.149 346.332 355.239 346.124 349.331L345.764 349.341C344.809 349.319 343.855 349.295 342.901 349.272C341.973 349.249 341.046 349.226 340.121 349.205C340.273 347.382 340.404 345.548 340.514 343.72C340.625 342.83 340.558 341.926 340.317 341.062C340.189 340.631 339.941 340.245 339.602 339.95C339.262 339.655 338.846 339.463 338.401 339.398C337.102 339.31 336.174 340.631 335.705 341.848C334.875 344.008 334.588 346.34 334.87 348.637L334.859 349.074C328.228 348.917 321.597 348.758 314.967 348.596ZM406.501 310.651C406.077 310.491 405.605 310.705 405.446 311.128C405.286 311.551 405.5 312.023 405.923 312.183C426.204 319.822 442.409 337.555 448.196 358.441C453.984 379.327 449.216 402.871 435.757 419.859C435.476 420.214 435.536 420.728 435.89 421.009C436.245 421.29 436.76 421.23 437.041 420.876C450.824 403.478 455.702 379.394 449.774 358.004C443.847 336.614 427.27 318.475 406.501 310.651Z" fill="white"/>
<path d="M340.119 349.207C341.996 349.251 343.879 349.3 345.762 349.343L346.122 349.333C346.33 355.242 345.701 361.151 344.255 366.884C343.481 369.957 342.449 373.013 340.725 375.676C339.001 378.34 336.522 380.61 333.515 381.614C328.715 383.219 323.189 381.287 319.68 377.636C316.171 373.985 314.474 368.893 314.027 363.85C313.58 358.806 314.267 353.737 314.96 348.722L314.965 348.596C321.596 348.754 328.227 348.914 334.859 349.076L340.119 349.207Z" fill="white"/>
<path d="M334.869 348.64C334.587 346.342 334.873 344.011 335.704 341.85C336.173 340.633 337.101 339.313 338.4 339.4C338.844 339.466 339.261 339.658 339.601 339.953C339.94 340.248 340.188 340.633 340.316 341.065C340.556 341.929 340.623 342.832 340.513 343.722C340.406 345.551 340.272 347.385 340.119 349.207L334.858 349.076L334.869 348.64Z" fill="#171717"/>
<path d="M314.315 293.698C308.065 301.107 302.648 309.18 298.161 317.772C295.072 305.505 291.922 293.082 285.833 281.992L285.838 281.855C287.394 281.909 288.955 281.959 290.51 282.008L300.115 282.319C303.859 282.445 307.827 282.636 310.915 284.753C313.977 286.849 314.802 288.241 314.752 293.703L314.315 293.698Z" fill="#171717"/>
<path d="M247.281 301.606C243.826 298.55 239.596 296.187 235.014 295.712L234.948 295.728C233.573 290.642 237.311 285.222 242.103 282.958C246.011 281.108 250.404 280.829 254.765 280.878C255.84 280.889 256.909 280.922 257.968 280.954C261.636 281.074 265.301 281.192 268.965 281.309L268.96 281.472C263.688 291.187 259.971 301.66 256.276 312.086C253.519 308.384 250.741 304.657 247.281 301.606Z" fill="#171717"/>
<path d="M229.418 433.772C229.532 434.567 229.823 435.326 230.27 435.992C230.717 436.66 231.308 437.217 231.999 437.625C233.751 438.558 235.978 438.171 237.675 437.134C239.372 436.097 240.644 434.514 241.845 432.937C247.231 425.88 252.002 418.294 255.331 410.07C255.843 408.841 256.26 407.575 256.58 406.283C257.257 403.44 257.29 400.515 255.663 398.184C253.637 395.292 249.797 394.424 246.304 393.927C236.638 392.558 226.706 392.327 217.184 394.468C207.662 396.608 197.813 401.95 191.28 409.203L191.302 409.672L210.769 408.663C208.34 413.547 205.911 418.433 203.483 423.322C202.686 424.932 201.873 426.575 201.628 428.353C201.382 430.132 201.808 432.109 203.145 433.309C204.471 434.499 206.463 434.707 208.198 434.286C209.934 433.866 211.484 432.894 212.998 431.94L213.566 432.125C213.283 432.933 213.223 433.803 213.391 434.641C213.954 436.966 216.726 438.001 219.116 438.001C220.917 437.998 222.7 437.633 224.357 436.929C226.015 436.225 227.516 435.196 228.77 433.903L229.418 433.772ZM102.628 426.181C95.6858 403.744 100.898 378.569 113.62 358.829C126.341 339.088 145.944 324.44 167.306 314.683C188.667 304.925 210.224 296.421 235.018 295.968C234.996 295.887 234.968 295.808 234.947 295.728L235.012 295.712C239.599 296.187 243.826 298.55 247.279 301.606C250.732 304.663 253.519 308.384 256.273 312.085C259.968 301.661 263.686 291.188 268.957 281.471L268.962 281.308C271.309 281.39 273.65 281.461 275.997 281.537L275.98 281.996C278.049 322.851 278.867 363.743 278.434 404.671L278.461 405.145L312.942 403.356C303.51 427.861 293.626 452.301 272.529 467.923C271.825 468.442 271.116 468.949 270.396 469.435C255.272 479.799 236.597 484.023 218.276 485.584C194.907 487.576 170.751 485.513 149.347 475.931C127.942 466.348 109.559 448.584 102.628 426.181Z" fill="white"/>
<path d="M279.327 240.269C281.843 239.842 284.357 239.413 286.869 238.981C286.509 229.228 286.146 219.474 285.778 209.717C285.701 207.691 285.794 205.318 287.448 204.156C288.507 203.414 289.904 203.419 291.203 203.452C296.229 203.583 301.254 203.716 306.276 203.85" stroke="#171717" stroke-width="4" stroke-linecap="round" stroke-linejoin="round"/>
<path d="M296.644 216.297V211.283" stroke="#171717" stroke-width="3.07" stroke-linecap="round" stroke-linejoin="round"/>
<path d="M271.856 215.148C271.758 213.603 271.66 212.06 271.562 210.52" stroke="#171717" stroke-width="3.07" stroke-linecap="round" stroke-linejoin="round"/>
<path d="M278.083 252.636C276.412 253.095 274.642 253.052 272.995 252.513C271.347 251.973 269.895 250.961 268.819 249.602C267.743 248.243 267.091 246.597 266.944 244.87C266.797 243.143 267.161 241.411 267.992 239.889" stroke="#171717" stroke-width="3.07" stroke-linecap="round" stroke-linejoin="round"/>
<path d="M254.769 279.852L255.26 242.999C255.391 233.383 255.52 223.766 255.647 214.15C255.729 207.842 256.193 200.698 261.028 196.648C264.412 193.821 269.094 193.281 273.488 192.948C287.04 191.923 300.642 191.73 314.218 192.369L315.909 192.451" stroke="#171717" stroke-width="4" stroke-linecap="round" stroke-linejoin="round"/>
<path d="M290.526 281.495C289.058 276.818 290.793 271.677 293.533 267.611C296.273 263.546 299.946 260.216 302.991 256.379C309.78 247.816 313.186 236.972 314.441 226.117C314.49 225.686 314.539 225.26 314.578 224.829C315.636 214.394 314.898 203.856 314.168 193.388" stroke="#171717" stroke-width="4" stroke-linecap="round" stroke-linejoin="round"/>
<path d="M330.994 166.914C331.852 165.971 332.955 165.284 334.179 164.93C335.403 164.575 336.702 164.566 337.931 164.905C341.435 165.986 343.683 169.735 343.738 173.397C343.792 177.06 341.97 180.557 339.497 183.264C337.025 185.971 333.919 188.006 330.852 190.01C334.22 188.225 338.761 189.709 340.879 192.875C342.997 196.04 342.811 200.428 340.917 203.73C339.023 207.032 335.622 209.31 331.982 210.427C336.512 214.574 336.515 222.662 331.993 226.821C327.471 230.98 318.873 229.747 315.113 224.889" stroke="#171717" stroke-width="3.07" stroke-linecap="round" stroke-linejoin="round"/>
<path d="M330.994 166.914C330.644 167.927 330.194 168.903 329.652 169.828C329.782 168.74 330.252 167.72 330.994 166.914Z" stroke="#171717" stroke-width="3.07" stroke-linecap="round" stroke-linejoin="round"/>
<path d="M316.171 157.177C316.692 155.712 317.662 154.45 318.945 153.571C320.228 152.693 321.756 152.243 323.309 152.287C327.037 152.478 330.268 155.491 331.332 159.066C332.04 161.653 331.922 164.397 330.994 166.914" stroke="#171717" stroke-width="3.07" stroke-linecap="round" stroke-linejoin="round"/>
<path d="M316.172 157.177C316.156 157.788 316.066 158.395 315.905 158.984C315.891 158.371 315.981 157.76 316.172 157.177Z" stroke="#171717" stroke-width="3.07" stroke-linecap="round" stroke-linejoin="round"/>
<path d="M254.599 242.987C251.281 248.335 243.117 249.852 238.095 246.059C233.074 242.266 232.305 233.992 236.546 229.337C230.957 227.64 228.507 220.562 229.986 214.907C231.465 209.253 235.754 204.822 240.055 200.87C233.757 198.873 229.626 191.658 231.095 185.213C232.564 178.767 239.402 174.052 245.945 174.969C241.416 171.825 240.825 164.709 244.046 160.233C247.267 155.758 253.346 153.925 258.793 154.781C264.239 155.638 269.091 158.814 273.037 162.678C270.63 158.896 272.524 153.412 276.338 151.07C280.153 148.729 285.185 149.116 289.213 151.081C293.241 153.046 296.417 156.375 299.271 159.828C297.241 154.664 301.458 148.121 306.999 147.837C311.927 147.591 316.309 152.362 316.172 157.175" stroke="#171717" stroke-width="3.07" stroke-linecap="round" stroke-linejoin="round"/>
<path d="M314.752 293.857V293.703C314.801 288.241 313.977 286.849 310.915 284.753C307.827 282.636 303.859 282.445 300.115 282.319L290.509 282.008C288.954 281.959 287.393 281.91 285.838 281.855C282.558 281.751 279.278 281.646 275.998 281.539C273.651 281.462 271.31 281.391 268.963 281.309C265.295 281.195 261.63 281.077 257.966 280.955C256.907 280.922 255.838 280.89 254.763 280.878C250.402 280.829 246.008 281.108 242.101 282.958C237.309 285.223 233.571 290.643 234.946 295.729C234.968 295.811 234.995 295.889 235.017 295.969C210.223 296.422 188.67 304.919 167.305 314.683C145.94 324.447 126.342 339.083 113.619 358.829C100.896 378.574 95.6853 403.745 102.627 426.181C109.56 448.584 127.94 466.354 149.344 475.932C170.748 485.51 194.904 487.578 218.273 485.585C236.594 484.024 255.27 479.8 270.393 469.436C271.114 468.95 271.823 468.443 272.526 467.924C293.625 452.298 303.509 427.86 312.94 403.356" stroke="#171717" stroke-width="4" stroke-linecap="round" stroke-linejoin="round"/>
<path d="M314.987 294.048C336.58 293.338 358.189 294.813 379.485 298.452C399.099 301.693 419.134 306.993 434.471 319.644C457.982 339.034 465.858 373.662 457.235 402.888C448.612 432.114 425.514 455.71 398.342 469.498C359.419 489.243 310.252 488.785 270.826 470.065" stroke="#171717" stroke-width="4" stroke-linecap="round" stroke-linejoin="round"/>
<path d="M256.574 406.282H256.58L278.459 405.147L312.94 403.357L322.873 402.838L373.034 400.235L376.521 400.055L378.829 346.631" stroke="#171717" stroke-width="4" stroke-linecap="round" stroke-linejoin="round"/>
<path d="M186.467 357.678L183.639 410.07L191.302 409.672L210.769 408.662" stroke="#171717" stroke-width="4" stroke-linecap="round" stroke-linejoin="round"/>
<path d="M191.28 409.203C197.813 401.95 207.658 396.607 217.182 394.468C226.706 392.328 236.638 392.558 246.302 393.927C249.795 394.424 253.637 395.292 255.661 398.184C257.288 400.515 257.255 403.44 256.578 406.283C256.258 407.575 255.841 408.841 255.329 410.07C251.999 418.294 247.229 425.88 241.843 432.937C240.642 434.514 239.365 436.102 237.673 437.134C235.981 438.165 233.749 438.558 231.997 437.625C231.306 437.218 230.715 436.659 230.268 435.992C229.821 435.326 229.53 434.567 229.416 433.772C229.291 433.119 229.258 432.453 229.318 431.791C229.514 429.532 230.579 427.452 231.626 425.438C235.163 418.612 238.703 411.782 242.247 404.951" stroke="#171717" stroke-width="4" stroke-linecap="round" stroke-linejoin="round"/>
<path d="M228.769 433.903C227.515 435.196 226.014 436.225 224.356 436.929C222.698 437.633 220.916 437.997 219.115 438.002C216.725 438.002 213.953 436.965 213.39 434.642C213.222 433.802 213.282 432.933 213.565 432.125C213.733 431.595 213.929 431.074 214.151 430.565C217.968 421.49 222.365 412.67 227.315 404.161" stroke="#171717" stroke-width="4" stroke-linecap="round" stroke-linejoin="round"/>
<path d="M212.996 431.938C211.484 432.893 209.934 433.858 208.196 434.285C206.458 434.711 204.469 434.498 203.143 433.308C201.806 432.107 201.383 430.137 201.626 428.352C201.868 426.567 202.684 424.93 203.481 423.321C205.909 418.436 208.338 413.549 210.766 408.661C211.509 407.171 212.246 405.687 212.988 404.197" stroke="#171717" stroke-width="4" stroke-linecap="round" stroke-linejoin="round"/>
<path d="M322.862 402.631C326.755 392.878 336.622 385.811 347.104 385.26C357.587 384.708 368.138 390.717 373.024 400.012" stroke="#171717" stroke-width="4" stroke-linecap="round" stroke-linejoin="round"/>
<path d="M235.012 295.71C239.598 296.184 243.826 298.548 247.278 301.604C250.731 304.661 253.518 308.382 256.273 312.083C259.967 301.659 263.686 291.186 268.956 281.469" stroke="#171717" stroke-width="3.07" stroke-linecap="round" stroke-linejoin="round"/>
<path d="M285.833 281.992C291.924 293.082 295.072 305.503 298.161 317.772C302.648 309.18 308.065 301.107 314.315 293.698" stroke="#171717" stroke-width="3.07" stroke-linecap="round" stroke-linejoin="round"/>
<path d="M275.982 281.997C278.051 322.853 278.868 363.745 278.435 404.673" stroke="#171717" stroke-width="4" stroke-linecap="round" stroke-linejoin="round"/>
<path d="M314.96 348.723C314.267 353.736 313.573 358.808 314.027 363.851C314.48 368.894 316.172 373.984 319.68 377.637C323.188 381.29 328.713 383.22 333.515 381.616C336.522 380.612 339 378.341 340.725 375.678C342.45 373.014 343.481 369.958 344.255 366.886C345.701 361.152 346.33 355.244 346.122 349.334C346.122 349.291 346.117 349.247 346.117 349.203" stroke="#171717" stroke-width="3.07" stroke-linecap="round" stroke-linejoin="round"/>
<path d="M314.37 348.58L314.965 348.596C321.596 348.754 328.227 348.914 334.858 349.076L340.119 349.206C341.997 349.25 343.879 349.299 345.763 349.343" stroke="#171717" stroke-width="3.07" stroke-linecap="round" stroke-linejoin="round"/>
<path d="M337.843 367.692C338.842 361.569 339.601 355.407 340.119 349.207C340.272 347.385 340.403 345.551 340.513 343.722C340.623 342.832 340.556 341.929 340.316 341.065C340.188 340.633 339.94 340.248 339.601 339.953C339.261 339.658 338.844 339.466 338.4 339.4C337.101 339.313 336.173 340.633 335.704 341.85C334.873 344.011 334.587 346.342 334.869 348.64C335.038 348.586 335.207 348.536 335.377 348.48" stroke="#171717" stroke-width="4" stroke-linecap="round" stroke-linejoin="round"/>
<path d="M423.516 373.598L429.422 368.46" stroke="#171717" stroke-width="2.784" stroke-linecap="round" stroke-linejoin="round"/>
<path d="M428.779 373.958L424.591 368.429" stroke="#171717" stroke-width="2.784" stroke-linecap="round" stroke-linejoin="round"/>
<path d="M364.947 353.608C363.014 352.882 361.329 351.618 360.09 349.966" stroke="#171717" stroke-width="2.784" stroke-linecap="round" stroke-linejoin="round"/>
<path d="M359.856 354.363L364.214 348.963" stroke="#171717" stroke-width="2.784" stroke-linecap="round" stroke-linejoin="round"/>
<path d="M299.747 333.299L305.75 327.688L305.381 327.884" stroke="#171717" stroke-width="2.784" stroke-linecap="round" stroke-linejoin="round"/>
<path d="M304.094 334.563C303.294 332.166 301.979 329.975 300.242 328.142" stroke="#171717" stroke-width="2.784" stroke-linecap="round" stroke-linejoin="round"/>
<path d="M247.299 369.215C248.118 367.617 249.381 366.29 250.938 365.393" stroke="#171717" stroke-width="2.784" stroke-linecap="round" stroke-linejoin="round"/>
<path d="M250.366 369.786L247.223 365.466" stroke="#171717" stroke-width="2.784" stroke-linecap="round" stroke-linejoin="round"/>
<path d="M201.07 331.466C202.324 328.399 204.147 325.596 206.442 323.207" stroke="#171717" stroke-width="2.784" stroke-linecap="round" stroke-linejoin="round"/>
<path d="M205.862 330.573L199.618 324.493" stroke="#171717" stroke-width="2.784" stroke-linecap="round" stroke-linejoin="round"/>
<path d="M170.26 395.203L166.415 391.6" stroke="#171717" stroke-width="2.784" stroke-linecap="round" stroke-linejoin="round"/>
<path d="M165.15 397.228L170.03 390.55" stroke="#171717" stroke-width="2.784" stroke-linecap="round" stroke-linejoin="round"/>
<path d="M168.233 459.894C166.926 462.255 165.183 464.347 163.097 466.058" stroke="#171717" stroke-width="2.784" stroke-linecap="round" stroke-linejoin="round"/>
<path d="M167.537 465.747L164.293 461.241" stroke="#171717" stroke-width="2.784" stroke-linecap="round" stroke-linejoin="round"/>
<path d="M270.769 436.483L267.334 431.097C267.374 431.086 267.416 431.087 267.455 431.102C267.494 431.116 267.527 431.142 267.55 431.177C267.574 431.211 267.586 431.252 267.585 431.293C267.584 431.334 267.57 431.374 267.545 431.408C267.52 431.441 267.486 431.466 267.446 431.478C267.407 431.491 267.364 431.491 267.325 431.478C267.285 431.465 267.251 431.441 267.226 431.407C267.202 431.374 267.188 431.334 267.187 431.292" stroke="#171717" stroke-width="2.784" stroke-linecap="round" stroke-linejoin="round"/>
<path d="M265.874 436.313L270.745 431.424" stroke="#171717" stroke-width="2.784" stroke-linecap="round" stroke-linejoin="round"/>
<path d="M361.353 432.428L357.513 428.818" stroke="#171717" stroke-width="2.784" stroke-linecap="round" stroke-linejoin="round"/>
<path d="M357.257 433.441L360.852 429.075" stroke="#171717" stroke-width="2.784" stroke-linecap="round" stroke-linejoin="round"/>
<path d="M138.129 368.259L133.122 364.596" stroke="#171717" stroke-width="2.784" stroke-linecap="round" stroke-linejoin="round"/>
<path d="M133.522 369.44L136.962 363.261" stroke="#171717" stroke-width="2.784" stroke-linecap="round" stroke-linejoin="round"/>
<path d="M424.507 429.747L420.334 424.304" stroke="#171717" stroke-width="2.784" stroke-linecap="round" stroke-linejoin="round"/>
<path d="M419.132 429.874C421.583 428.427 423.858 426.699 425.91 424.725" stroke="#171717" stroke-width="2.784" stroke-linecap="round" stroke-linejoin="round"/>
<path d="M385.765 317.869L389.361 312.219" stroke="#171717" stroke-width="2.784" stroke-linecap="round" stroke-linejoin="round"/>
<path d="M389.611 317.363L384.165 312.802" stroke="#171717" stroke-width="2.784" stroke-linecap="round" stroke-linejoin="round"/>
<path d="M33.7582 251.217C25.4734 273.577 19.9214 297.377 21.6489 321.158C22.1673 328.3 23.3923 335.554 26.843 341.827C30.2937 348.101 36.2878 353.301 43.3763 354.314C50.4649 355.326 58.3696 351.274 60.4251 344.414C62.4806 337.554 56.8704 329.131 49.7209 329.526C44.2483 329.829 39.8601 334.806 38.7673 340.178C37.6745 345.549 39.2473 351.123 41.5315 356.106C44.5315 362.655 48.7395 368.573 52.1283 374.929C55.5174 381.285 58.1264 388.369 57.5062 395.546C56.8859 402.723 52.3481 409.92 45.4094 411.855C38.4707 413.79 29.9241 408.582 29.9689 401.379" stroke="#171717" stroke-width="4" stroke-linecap="round" stroke-linejoin="round"/>
<path d="M488.262 181.986C487.625 199.799 486.803 218.327 478.366 234.028C475.966 238.489 472.873 242.748 468.548 245.388C464.223 248.027 458.486 248.764 454.095 246.238C449.703 243.713 447.498 237.495 450.193 233.207C453.233 228.367 460.909 228.281 465.253 231.994C469.597 235.708 471.045 241.887 470.786 247.596C470.441 255.21 467.564 262.45 464.716 269.516C461.868 276.582 458.974 283.817 458.591 291.427C458.209 299.038 460.802 307.239 467.015 311.652C473.228 316.066 483.282 315.043 487.034 308.41C490.786 301.776 484.314 291.583 476.948 293.535C474.876 294.134 473.047 295.373 471.722 297.075C467.695 302.066 468.437 310.216 473.299 314.397C478.162 318.579 486.331 318.092 490.662 313.364" stroke="#171717" stroke-width="4" stroke-linecap="round" stroke-linejoin="round"/>
<path d="M271.493 129.63L265.666 81.8186" stroke="#171717" stroke-width="4" stroke-linecap="round" stroke-linejoin="round"/>
<path d="M252.594 133.892C247.618 131.336 243.041 128.067 239.008 124.19" stroke="#171717" stroke-width="2.784" stroke-linecap="round" stroke-linejoin="round"/>
<path d="M288.483 128.43L292.35 118.805" stroke="#171717" stroke-width="4" stroke-linecap="round" stroke-linejoin="round"/>
<path d="M334.745 103.184C339.669 101.151 340.521 94.4373 339.308 89.2517C338.094 84.0661 335.589 78.8794 336.63 73.6549C337.721 68.1818 342.522 64.1498 347.628 61.8986C353.228 59.4314 359.638 58.5818 365.548 60.1658C371.459 61.7498 376.759 65.9162 379.118 71.5599C381.478 77.2037 380.563 84.2362 376.381 88.7002C372.404 92.945 366.381 94.3823 360.955 96.4778C355.529 98.5733 349.852 102.295 349.032 108.054" stroke="#171717" stroke-width="4" stroke-linecap="round" stroke-linejoin="round"/>
<path d="M352.891 96.4842C355.47 93.4442 357.356 89.8789 358.418 86.0362C357.05 87.145 355.083 88.2816 353.686 87.2096C352.316 86.1573 352.853 84.0096 353.519 82.4149C353.422 82.8293 353.239 83.2186 352.982 83.5578C352.724 83.897 352.398 84.1781 352.026 84.3829C351.652 84.5877 351.241 84.712 350.817 84.7472C350.392 84.7824 349.965 84.728 349.564 84.5872C349.162 84.4464 348.794 84.2229 348.484 83.9312C348.175 83.6389 347.93 83.2848 347.766 82.8922C347.603 82.4992 347.523 82.0762 347.533 81.6506C347.544 81.2256 347.643 80.8069 347.826 80.4224L345.287 92.209" stroke="#171717" stroke-width="4" stroke-linecap="round" stroke-linejoin="round"/>
<path d="M387.622 227.763C400.038 221.88 411.563 216.33 423.093 208.86C424.27 208.197 425.307 207.313 426.148 206.256C426.918 205.152 427.226 203.617 426.55 202.452C425.879 201.296 424.453 200.806 423.122 200.687C419.557 200.367 416.14 202.015 412.96 203.659C403.68 208.457 394.397 212.957 385.489 218.43" stroke="#171717" stroke-width="4" stroke-linecap="round" stroke-linejoin="round"/>
<path d="M385.022 218.755L374.969 228.596L387.561 227.817" stroke="#171717" stroke-width="4" stroke-linecap="round" stroke-linejoin="round"/>
<path d="M382.556 228.03L380.422 223.763" stroke="#171717" stroke-width="4" stroke-linecap="round" stroke-linejoin="round"/>
<path d="M417.603 211.674L414.516 203.2" stroke="#171717" stroke-width="4" stroke-linecap="round" stroke-linejoin="round"/>
<path d="M403.355 152.729L401.817 143.87" stroke="#171717" stroke-width="4" stroke-linecap="round" stroke-linejoin="round"/>
<path d="M398.33 149.602L406.425 146.148" stroke="#171717" stroke-width="4" stroke-linecap="round" stroke-linejoin="round"/>
<path d="M411.448 145.795L412.429 151.458L412.142 149.659" stroke="#171717" stroke-width="4" stroke-linecap="round" stroke-linejoin="round"/>
<path d="M416.578 148.266L405 157.1" stroke="#171717" stroke-width="4" stroke-linecap="round" stroke-linejoin="round"/>
<path d="M403.995 254.884L400.617 248.29" stroke="#171717" stroke-width="4" stroke-linecap="round" stroke-linejoin="round"/>
<path d="M396.451 255.241L407.739 246.921" stroke="#171717" stroke-width="4" stroke-linecap="round" stroke-linejoin="round"/>
<path d="M310.9 96.4844L307.048 88.7793" stroke="#171717" stroke-width="4" stroke-linecap="round" stroke-linejoin="round"/>
<path d="M304.717 94.9131L312.042 90.2976" stroke="#171717" stroke-width="4" stroke-linecap="round" stroke-linejoin="round"/>
<path d="M414.151 95.7035L406.833 90.6934" stroke="#171717" stroke-width="4" stroke-linecap="round" stroke-linejoin="round"/>
<path d="M411.949 89.6299L407.022 96.6208" stroke="#171717" stroke-width="4" stroke-linecap="round" stroke-linejoin="round"/>
<path d="M149.091 154.892C149.233 157.578 150.761 160.259 153.216 161.356C161.146 164.899 166.772 153.207 162.078 147.444C156.544 140.648 148.721 147.909 149.091 154.892Z" stroke="#171717" stroke-width="4" stroke-linecap="round" stroke-linejoin="round"/>
<path d="M187.604 198.586L183.331 192.447" stroke="#171717" stroke-width="4" stroke-linecap="round" stroke-linejoin="round"/>
<path d="M181.85 198.58L189.174 192.806" stroke="#171717" stroke-width="4" stroke-linecap="round" stroke-linejoin="round"/>
<path d="M111.714 165.078L104.883 159.556" stroke="#171717" stroke-width="4" stroke-linecap="round" stroke-linejoin="round"/>
<path d="M104.807 165.833L109.428 157.356" stroke="#171717" stroke-width="4" stroke-linecap="round" stroke-linejoin="round"/>
<path d="M101.918 451.115C97.9232 447.609 94.6902 443.321 92.4198 438.515C90.1488 433.709 88.8891 428.489 88.7179 423.177" stroke="#171717" stroke-width="4" stroke-linecap="round" stroke-linejoin="round"/>
<path d="M438.784 455.497C447.141 451.072 454.45 444.904 460.217 437.41C465.983 429.915 470.073 421.27 472.208 412.058" stroke="#171717" stroke-width="4" stroke-linecap="round" stroke-linejoin="round"/>
<path d="M84.1126 280.054C82.5899 278.873 81.36 277.357 80.5179 275.623C79.6763 273.89 79.2454 271.985 79.2592 270.058C79.2726 268.131 79.7302 266.233 80.5963 264.511C81.4624 262.79 82.7136 261.291 84.2528 260.132C87.0294 258.04 90.6838 257.085 92.9056 254.412C95.5302 251.254 95.3723 246.652 94.559 242.626C93.4363 237.094 91.3499 231.803 88.3952 226.994" stroke="#171717" stroke-width="4" stroke-linecap="round" stroke-linejoin="round"/>
<path d="M147.131 252.064C142.188 241.024 137.235 229.952 133.512 218.44C132.134 214.181 130.991 209.279 133.288 205.437C133.928 204.37 134.927 203.389 136.168 203.292C137.757 203.168 139.056 204.483 140.061 205.719C149.608 217.429 155.409 231.674 160.936 245.735" stroke="#171717" stroke-width="4" stroke-linecap="round" stroke-linejoin="round"/>
<path d="M147.356 252.03L160.689 246.163" stroke="#171717" stroke-width="4" stroke-linecap="round" stroke-linejoin="round"/>
<path d="M141.02 224.172C141.598 223.135 142.093 222.681 143.034 221.956C143.84 221.288 145.167 221.599 145.807 222.428C146.1 222.864 146.288 223.361 146.356 223.882C146.424 224.402 146.371 224.931 146.2 225.427C146.068 225.94 145.831 226.42 145.506 226.838C145.181 227.257 144.774 227.604 144.31 227.859C143.839 228.103 143.306 228.198 142.78 228.131C142.254 228.065 141.761 227.839 141.366 227.486C140.528 226.65 140.518 225.244 141.02 224.172Z" stroke="#171717" stroke-width="4" stroke-linecap="round" stroke-linejoin="round"/>
<path d="M140.883 239.521C138.552 243.309 137.276 247.65 137.186 252.096C137.094 256.543 138.193 260.933 140.366 264.813C140.464 262.223 141.079 259.679 142.175 257.331C143.271 254.982 144.826 252.877 146.747 251.139" stroke="#171717" stroke-width="4" stroke-linecap="round" stroke-linejoin="round"/>
<path d="M154.59 229.833C159.887 228.308 165.753 230.692 169.539 234.7C173.324 238.707 175.329 244.08 176.57 249.451C171.992 246.21 166.471 244.572 160.867 244.792" stroke="#171717" stroke-width="4" stroke-linecap="round" stroke-linejoin="round"/>
<path d="M160.541 254.275C157.659 255.251 154.851 256.436 152.141 257.82" stroke="#171717" stroke-width="4" stroke-linecap="round" stroke-linejoin="round"/>
<path d="M152.197 257.515L151.762 280.004L156.87 269.318L163.609 286.001L163.274 270.971C166.621 274.853 170.381 278.36 174.489 281.427L167.592 269.474C172.054 269.989 176.574 269.518 180.834 268.093C176.584 266.324 172.176 264.962 167.669 264.024L173.568 260.324C169.301 258.393 165.044 256.443 160.797 254.473" stroke="#171717" stroke-width="4" stroke-linecap="round" stroke-linejoin="round"/>
<path d="M65.5018 286L88.7173 293.875L104.883 249.616" stroke="#171717" stroke-width="4" stroke-linecap="round" stroke-linejoin="round"/>
<path d="M111.714 88.7792L143.528 111.123L146.374 67.52L111.714 88.7792Z" stroke="#171717" stroke-width="4" stroke-linecap="round" stroke-linejoin="round"/>
<path d="M277.262 47.9441L285.338 25.6001L292.802 44.0918L277.262 47.9441Z" stroke="#171717" stroke-width="4" stroke-linecap="round" stroke-linejoin="round"/>
<path d="M384.165 138.09L385.679 152.729L402.587 129.629L425.91 143.869" stroke="#171717" stroke-width="4" stroke-linecap="round" stroke-linejoin="round"/>
<path d="M438.784 162.317L455.496 175.844L464.611 157.1L438.784 162.317Z" stroke="#171717" stroke-width="4" stroke-linecap="round" stroke-linejoin="round"/>
<path d="M235.011 105.723L205.863 67.52L176.57 92.6053L197.206 128.43L235.011 105.723Z" stroke="#171717" stroke-width="4" stroke-linecap="round" stroke-linejoin="round"/>
<path d="M189.174 97.9749L210.77 83.7082L203.756 77.6074L183.642 92.6053L189.174 97.9749Z" stroke="#171717" stroke-width="4" stroke-linecap="round" stroke-linejoin="round"/>
<path d="M193.402 102.841L212.664 90.2976" stroke="#171717" stroke-width="4" stroke-linecap="round" stroke-linejoin="round"/>
<path d="M198.41 108.427L217.479 96.4844" stroke="#171717" stroke-width="4" stroke-linecap="round" stroke-linejoin="round"/>
<path d="M202.07 115.361L221.332 102.841" stroke="#171717" stroke-width="4" stroke-linecap="round" stroke-linejoin="round"/>
<path d="M213.289 276.584L205.863 257.904L221.331 257.82L213.289 276.584Z" stroke="#171717" stroke-width="4" stroke-linecap="round" stroke-linejoin="round"/>
<path d="M333.915 103.78C332.291 109.106 330.159 114.263 327.55 119.181L338.902 125.439L343.915 117.318C344.87 115.771 348.986 111.048 348.802 109.318C348.623 107.645 343.828 106.331 342.402 105.822C339.654 104.838 336.81 104.154 333.915 103.78Z" stroke="#171717" stroke-width="4" stroke-linecap="round" stroke-linejoin="round"/>
<path d="M345.63 114.75C341.961 111.714 337.849 109.258 333.435 107.466" stroke="#171717" stroke-width="2.784" stroke-linecap="round" stroke-linejoin="round"/>
<path d="M341.51 119.807L331.97 110.278" stroke="#171717" stroke-width="2.784" stroke-linecap="round" stroke-linejoin="round"/>
<path d="M339.296 123.771C336.018 120.885 332.992 117.726 330.25 114.327" stroke="#171717" stroke-width="2.784" stroke-linecap="round" stroke-linejoin="round"/>
<path d="M385.609 71.3605L391.394 69.4512" stroke="#171717" stroke-width="2.784" stroke-linecap="round" stroke-linejoin="round"/>
<path d="M374.486 57.5846L380.627 43.3979V44.4795" stroke="#171717" stroke-width="2.784" stroke-linecap="round" stroke-linejoin="round"/>
<path d="M351.003 54.4927C350.996 52.8223 350.434 51.2013 349.406 49.8843" stroke="#171717" stroke-width="4" stroke-linecap="round" stroke-linejoin="round"/>
<path d="M333.629 64.8943L325.539 59.5012" stroke="#171717" stroke-width="4" stroke-linecap="round" stroke-linejoin="round"/>
<path d="M331.318 83.3899L326.695 84.16" stroke="#171717" stroke-width="4" stroke-linecap="round" stroke-linejoin="round"/>
<path d="M385.592 86.1851L395.071 90.2667" stroke="#171717" stroke-width="2.784" stroke-linecap="round" stroke-linejoin="round"/>
<path d="M373.952 97.3098L375.098 100.011" stroke="#171717" stroke-width="4" stroke-linecap="round" stroke-linejoin="round"/>
<path d="M363.292 103.419L363.227 117.228C363.164 117.267 363.093 117.289 363.019 117.291C362.946 117.294 362.873 117.278 362.807 117.245C362.742 117.211 362.686 117.161 362.646 117.1C362.605 117.038 362.582 116.968 362.577 116.894" stroke="#171717" stroke-width="4" stroke-linecap="round" stroke-linejoin="round"/>
<path fill-rule="evenodd" clip-rule="evenodd" d="M261.03 196.646C264.414 193.819 269.096 193.279 273.49 192.946C287.041 191.921 300.643 191.728 314.219 192.367L314.17 193.388L314.175 193.461C314.903 203.905 315.636 214.418 314.58 224.829L315.113 224.889C318.874 229.747 327.471 230.98 331.994 226.821C336.516 222.662 336.513 214.574 331.982 210.427C335.623 209.31 339.026 207.029 340.919 203.727C342.813 200.426 342.999 196.038 340.881 192.872C338.763 189.707 334.222 188.223 330.854 190.007C333.922 188.004 337.027 185.968 339.499 183.262C341.972 180.555 343.794 177.058 343.74 173.395C343.685 169.733 341.437 165.983 337.933 164.903C336.704 164.565 335.405 164.573 334.181 164.927C332.956 165.282 331.854 165.969 330.996 166.911C331.924 164.395 332.042 161.651 331.335 159.063C330.27 155.488 327.039 152.476 323.312 152.285C321.758 152.241 320.23 152.691 318.947 153.569C317.665 154.447 316.694 155.71 316.174 157.175C316.311 152.362 311.929 147.591 307.001 147.837C301.459 148.121 297.243 154.664 299.273 159.828C296.418 156.375 293.242 153.046 289.214 151.081C285.187 149.116 280.154 148.729 276.34 151.07C272.525 153.412 270.631 158.896 273.038 162.678C269.092 158.814 264.241 155.638 258.794 154.781C253.347 153.925 247.268 155.758 244.047 160.233C240.827 164.709 241.417 171.825 245.947 174.969C239.403 174.052 232.566 178.767 231.097 185.213C229.627 191.658 233.758 198.873 240.057 200.87C235.756 204.822 231.466 209.253 229.987 214.907C228.508 220.562 230.959 227.64 236.547 229.337C232.307 233.992 233.076 242.266 238.097 246.059C243.118 249.852 251.283 248.335 254.601 242.987L255.261 242.997C255.388 233.381 255.517 223.765 255.649 214.149C255.731 207.84 256.195 200.696 261.03 196.646ZM315.907 158.982C316.068 158.392 316.158 157.786 316.174 157.175C315.983 157.758 315.893 158.368 315.907 158.982ZM329.654 169.826C330.196 168.901 330.646 167.925 330.996 166.911C330.254 167.718 329.784 168.737 329.654 169.826ZM318.89 158.349C318.48 158.157 317.993 158.335 317.802 158.744C317.61 159.154 317.787 159.641 318.197 159.832C322.977 162.063 325.394 168.413 323.307 173.257C323.151 173.617 323.274 174.036 323.597 174.257C323.922 174.478 324.357 174.438 324.635 174.162C326.513 172.299 330.044 172.471 332.026 174.419C333.998 176.358 334.443 179.659 333.325 182.318C332.21 184.973 329.745 186.986 326.939 188.007C326.514 188.162 326.294 188.631 326.449 189.056C326.604 189.481 327.074 189.7 327.498 189.546C330.628 188.407 333.503 186.122 334.835 182.952C336.165 179.787 335.705 175.74 333.173 173.251C331.217 171.328 328.035 170.681 325.49 171.693C326.5 166.478 323.765 160.624 318.89 158.349Z" fill="#171717"/>
<g opacity="0.1">
<path d="M241.577 295.917C212.275 295.927 182.881 304.658 157.501 319.131C134.482 332.257 113.433 351.103 103.853 376.387C99.0257 389.134 97.3883 403.057 99.7387 416.5C102.098 429.989 109.102 442.112 118.96 451.528C138.228 469.931 165.005 480.308 191.11 483.741C205.927 485.664 220.952 485.304 235.66 482.674C242.919 481.395 250.061 479.525 257.016 477.082C264.024 474.614 271.283 471.847 277.336 467.489C279.132 466.196 280.103 464.084 279.157 461.932C278.345 460.084 275.999 458.53 273.907 459.355C268.126 461.636 262.605 464.481 256.776 466.653C239.595 473.054 221.281 475.846 202.973 474.856C178.607 473.645 154.366 465.762 134.514 451.458C124.555 444.282 115.746 434.737 111.647 422.988C107.681 411.621 107.38 398.852 110.267 387.195C116.267 362.96 134.686 344.088 155.129 330.883C181.113 314.1 210.933 305.028 241.576 301.965C245.371 301.586 245.549 295.914 241.576 295.915L241.577 295.917Z" fill="#171717"/>
</g>
<g opacity="0.1">
<path d="M383.945 397.586C385.418 389.575 385.608 381.133 386.21 373.017L387.1 361.017C387.404 356.922 388.307 352.401 387.516 348.361C386.615 343.762 380.291 344.565 378.982 348.361C377.723 352.013 378.089 356.648 377.842 360.494L377.068 372.494C376.56 380.395 375.552 388.585 375.899 396.494C376.09 400.873 383.07 402.345 383.946 397.584L383.945 397.586Z" fill="#171717"/>
</g>
<g opacity="0.1">
<path d="M275.596 470.109C276.716 471.943 277.506 473.287 279.485 474.37C281.662 475.562 284.094 476.27 286.455 476.995C290.589 478.264 294.778 479.367 299.018 480.223C307.785 481.997 316.683 483.042 325.622 483.346C343.542 484.006 361.429 481.337 378.375 475.474C387.722 472.202 396.882 468.472 404.194 461.63C405.182 460.706 404.14 459.177 402.929 459.458C394.827 461.324 387.187 464.427 379.235 466.818C371.069 469.242 362.73 471.035 354.289 472.181C337.89 474.451 320.983 474.404 304.682 471.421C300.137 470.589 295.611 469.584 291.147 468.388C288.845 467.772 286.578 466.983 284.26 466.436C283.026 466.105 281.759 465.91 280.483 465.856C279.172 465.849 278.153 466.42 276.94 466.802C276.611 466.898 276.307 467.068 276.052 467.298C275.797 467.528 275.597 467.812 275.468 468.13C275.339 468.449 275.283 468.792 275.305 469.135C275.327 469.477 275.426 469.81 275.595 470.109L275.596 470.109Z" fill="#171717"/>
</g>
</svg>
