<svg width="512" height="512" viewBox="0 0 512 512" fill="none" xmlns="http://www.w3.org/2000/svg">
<mask id="mask0_760_3735" style="mask-type:luminance" maskUnits="userSpaceOnUse" x="20" y="37" width="473" height="438">
<path d="M492.267 37.3333H20.2667V474.667H492.267V37.3333Z" fill="white"/>
</mask>
<g mask="url(#mask0_760_3735)">
<path fill-rule="evenodd" clip-rule="evenodd" d="M272.564 128.817C277.785 133.998 284.64 137.208 291.962 137.901L291.958 137.973C294.024 156.463 295.877 175.577 287.307 192.098C284.971 196.605 281.94 200.686 278.907 204.77C276.878 207.502 274.849 210.235 273.025 213.097C268.476 220.238 265.17 230.172 267.196 238.4L267.113 239.062C276.201 240.294 285.218 242.004 294.127 244.182L295.066 243.751C310.911 235.24 327.376 223.189 335.307 207.042C343.238 190.895 342.016 169.26 328.641 157.229C332.681 144.829 336.221 131.978 335.486 118.963C334.751 105.948 329.096 92.6047 318.153 85.5151C309.802 80.1029 299.334 78.8805 289.421 79.7551C266.485 81.7626 244.758 94.7455 232.118 113.988C229.094 109.33 223.503 106.815 217.971 106.319C212.438 105.824 206.905 107.104 201.572 108.642C193.035 111.099 184.105 114.722 179.344 122.223C172.807 132.527 176.442 145.975 180.18 157.594C183.918 169.213 187.322 182.787 180.47 192.888C175.061 200.866 165.117 203.827 155.735 206.619C154.851 206.883 153.972 207.144 153.102 207.408C135.759 212.671 118.683 221.374 107.919 235.96C97.1563 250.546 94.2741 271.949 104.735 286.759L104.774 286.804C109.201 282.743 113.878 278.966 118.779 275.494C146.508 255.865 183.854 247.064 216.034 257.963L216.407 257.956C216.073 254.501 215.732 249.695 216.433 246.292C217.134 242.889 219.032 239.556 222.133 237.987C224.43 236.822 227.106 236.739 229.686 236.712C231.561 236.695 233.437 236.7 235.315 236.726V236.623C234.272 223.83 233.23 211.194 232.189 198.558C231.123 185.635 230.058 172.714 228.991 159.627V159.563C238.57 159.695 247.945 156.791 255.772 151.268C263.6 145.745 269.478 137.886 272.564 128.817ZM324.685 99.4586C319.076 89.1423 308.063 81.3781 296.188 81.4442C295.655 81.4474 295.225 81.8821 295.228 82.4149C295.231 82.9477 295.666 83.3775 296.198 83.3743C307.235 83.313 317.654 90.5679 322.99 100.381C328.324 110.191 329.023 122.119 326.612 133.148C326.498 133.669 326.828 134.183 327.349 134.298C327.869 134.411 328.384 134.082 328.498 133.56C330.98 122.207 330.297 109.778 324.685 99.4586Z" fill="#171717"/>
<path fill-rule="evenodd" clip-rule="evenodd" d="M165.499 472.74C187.761 473.046 210.025 473.351 232.291 473.653C240.024 473.754 248.915 473.329 253.856 467.504C254.004 467.332 254.146 467.158 254.287 466.971C258.359 461.638 257.671 454.195 256.783 447.536C255.953 441.276 255.091 434.933 252.659 429.104C251.464 426.198 249.811 423.503 247.763 421.12C245.693 418.696 243.086 416.788 240.15 415.547C234.329 413.175 227.767 413.99 221.527 414.766L221.461 414.774C219.769 414.987 218.077 415.186 216.385 415.385C203.64 416.833 190.773 417.674 178.067 416.074C173.734 415.539 169.448 414.676 165.245 413.494C160.812 410.231 156.862 406.358 153.511 401.991C152.004 400.022 150.563 397.52 151.431 395.197C152.454 392.463 156.09 391.768 158.939 392.418C160.086 392.68 161.2 393.089 162.31 393.499C163.957 394.105 165.598 394.709 167.335 394.824L167.56 394.509C166.338 393.642 165.134 392.728 163.964 391.789C161.481 389.793 158.875 386.911 159.743 383.843C160.355 381.687 162.607 380.317 164.839 380.066C167.071 379.815 169.3 380.465 171.433 381.153C177.932 383.226 184.299 385.688 190.502 388.526L191.37 388.23C190.637 385.541 191.357 382.401 193.802 381.185C194.444 380.875 195.142 380.698 195.854 380.664L195.829 380.368C178.233 348.349 181.186 320.762 181.186 320.762L181.443 320.781C182.833 301.668 241.146 286.285 312.879 286.285C327.977 286.285 342.479 286.967 355.977 288.222L356.157 288.279C357.382 284.318 358.609 280.36 359.837 276.404C360.197 275.244 360.609 274.01 361.574 273.27C362.781 272.345 364.469 272.479 365.981 272.665C373.084 273.521 380.373 274.433 386.691 277.793C393.602 281.569 398.732 287.935 400.954 295.492L401.223 295.414C427.138 301.714 443.62 310.745 444.328 320.807L444.425 320.801C445.537 339.213 444.412 358.585 434.87 374.372C423.972 392.399 404.189 403.612 383.744 408.688C363.311 413.764 342.621 413.417 321.577 413.044C322.035 415.473 321.833 417.982 320.99 420.307C320.505 421.615 319.814 422.838 318.945 423.929L319.44 424.174C323.242 425.718 325.59 428.484 326.626 432.46C327.083 434.269 327.159 436.152 326.85 437.991C326.541 439.831 325.853 441.586 324.831 443.146C329.341 445.138 331.554 450.748 330.538 455.573C330.069 457.698 329.135 459.693 327.803 461.414L328.086 461.639C342.717 458.571 357.665 457.846 372.625 457.12C380.341 456.746 388.06 456.372 395.741 455.676C418.314 453.63 441.622 448.316 458.941 433.699C481.574 414.598 489.771 383.144 490.781 353.544C491.366 336.168 489.751 318.148 481.491 302.849C473.371 287.814 459.35 276.581 443.944 269.196C428.538 261.81 411.688 257.963 394.877 254.888C359.68 248.448 334.905 248.216 293.576 255.023L293.061 255.004C293.906 252.284 294.079 249.484 294.254 246.651C294.296 245.987 294.337 245.32 294.387 244.652L294.123 244.182C274.868 239.467 255.138 236.966 235.315 236.726C233.434 236.698 231.557 236.694 229.685 236.713C227.106 236.739 224.429 236.823 222.132 237.987C219.031 239.557 217.128 242.889 216.433 246.293C215.738 249.696 216.072 254.502 216.407 257.957L216.034 257.963C183.853 247.064 146.507 255.868 118.779 275.494C113.878 278.966 109.2 282.744 104.773 286.804C84.2571 305.564 68.9323 329.908 57.4486 355.391C48.6156 374.987 41.7383 397.054 47.5026 417.765C53.7622 440.283 74.1563 456.662 96.223 464.344C118.29 472.025 142.132 472.424 165.499 472.74ZM397.639 260.276C397.123 260.143 396.597 260.453 396.464 260.969C396.331 261.486 396.641 262.012 397.157 262.145C409.961 265.447 422.742 268.751 434.763 274.008C446.777 279.262 458.053 286.582 466.221 296.704C479.606 313.293 483.454 336.382 479.336 357.421C479.234 357.944 479.575 358.451 480.098 358.553C480.621 358.656 481.128 358.315 481.23 357.792C485.433 336.319 481.54 312.615 467.723 295.493C459.3 285.053 447.73 277.572 435.536 272.239C423.35 266.91 410.418 263.572 397.639 260.276Z" fill="white"/>
<path d="M444.325 320.805C444.345 321.03 444.351 321.255 444.351 321.48C444.351 324.819 442.614 328.055 439.365 331.117L438.953 330.461C438.181 327.753 437.383 324.999 435.839 322.645C434.295 320.29 431.876 318.341 429.071 318.083C426.82 317.877 424.633 318.746 422.445 319.286C420.257 319.827 417.716 319.988 415.947 318.579C414.12 317.125 413.734 314.519 412.402 312.596C410.112 309.289 404.722 308.774 401.845 311.586L400.925 311.515C401.814 308.55 402.212 305.46 402.102 302.366C402.01 300.035 401.623 297.724 400.951 295.489L401.221 295.412C427.135 301.71 443.618 310.743 444.325 320.805Z" fill="#171717"/>
<path d="M424.922 339.36L425.122 339.816C412.1 345.517 393.18 350.149 370.63 353.108L370.547 352.465C372.333 348.766 374.315 345.164 376.485 341.676C378.247 338.845 380.139 336.079 382.138 333.403C383.804 331.176 385.934 328.809 388.655 328.564C388.815 328.551 388.975 328.545 389.144 328.545C393.944 328.564 397.128 335.229 401.863 334.425C405.955 333.737 408.039 327.721 412.17 328.101C413.913 328.261 415.29 329.581 416.512 330.829C419.318 333.672 422.122 336.516 424.922 339.36Z" fill="white"/>
<path d="M361.327 327.142C357.886 329.161 354.314 330.949 350.635 332.495C347.862 331.607 345.553 329.258 343.095 327.748L343.945 327.677C345.907 321.34 347.871 314.999 349.837 308.653C351.947 301.866 354.053 295.075 356.155 288.28C357.384 284.324 358.611 280.365 359.835 276.404C360.195 275.246 360.607 274.011 361.572 273.271C362.781 272.345 364.467 272.48 365.979 272.666C373.082 273.52 380.371 274.435 386.689 277.794C393.6 281.571 398.73 287.936 400.951 295.492C401.623 297.727 402.01 300.038 402.103 302.37C402.212 305.463 401.814 308.553 400.925 311.518C398.932 318.324 394.565 324.189 388.618 328.051L388.657 328.566C385.937 328.811 383.804 331.179 382.14 333.404C380.139 336.081 378.246 338.844 376.486 341.677L376.383 341.613C374.492 337.409 372.602 333.207 370.714 329.008L370.733 329.001C374.201 329.606 377.765 329.302 381.079 328.119C384.394 326.937 387.346 324.915 389.647 322.252C390.11 321.781 390.434 321.19 390.58 320.546C390.641 320.223 390.585 319.89 390.424 319.604C390.263 319.318 390.006 319.098 389.699 318.983L389.753 318.854C379.967 314.993 369.929 311.805 359.708 309.313C358.653 309.056 357.508 308.818 356.517 309.255C355.344 309.77 354.761 311.057 354.285 312.242C353.385 314.474 352.533 316.724 351.731 318.991C351.287 320.258 350.85 321.628 351.229 322.921C351.75 324.71 353.683 325.72 355.52 326.042C357.357 326.363 359.265 326.228 361.073 326.704L361.327 327.142ZM396.281 304.175C399.697 303.788 396.087 296.769 395.309 295.039C393.609 291.293 391.225 287.898 388.277 285.028C383.535 280.492 377.699 277.261 371.338 275.648C368.618 274.94 365.252 274.696 363.451 276.864C361.758 278.91 362.485 282.159 364.281 284.121C366.076 286.083 368.649 287.093 371.068 288.187C377.009 290.864 382.563 294.326 387.582 298.481C389.461 300.037 391.262 301.691 393.27 303.081C394.164 303.705 395.193 304.297 396.281 304.175ZM393.894 313.38C398.534 310.775 387.544 302.881 385.582 301.337C380.767 297.543 375.447 294.437 369.775 292.11C367.735 291.281 365.426 290.547 363.38 291.345C360.735 292.38 359.629 295.451 358.838 298.177C358.374 299.747 357.963 301.6 358.973 302.893C359.492 303.471 360.137 303.922 360.858 304.212C366.188 306.805 371.719 308.961 377.398 310.658C381.431 311.854 385.524 312.836 389.66 313.6C391.082 313.863 392.633 314.08 393.894 313.38Z" fill="white"/>
<path d="M326.413 355.751C326.098 353.655 326.223 351.517 326.781 349.472C327.34 347.428 328.318 345.522 329.655 343.877C330.991 342.232 332.657 340.884 334.543 339.919C336.43 338.954 338.498 338.394 340.614 338.273C342.73 338.153 344.848 338.475 346.833 339.22C348.817 339.964 350.624 341.115 352.139 342.597C353.653 344.08 354.842 345.862 355.628 347.83C356.415 349.798 356.782 351.909 356.707 354.027L356.771 354.664C347.127 355.578 336.969 356.195 326.437 356.485L326.413 355.751Z" fill="white"/>
<path d="M342.465 293.173C345.914 295.901 347.212 301.402 344.524 304.876L344.331 305.172C341.32 303.236 338.307 301.299 335.292 299.363C333.278 302.592 331.226 305.873 328.363 308.383C326.053 310.409 323.107 311.895 320.077 312.069H320.07C317.69 308.415 317.69 303.441 319.678 299.549C321.717 295.567 325.622 292.711 329.907 291.43C334.115 290.169 339.017 290.453 342.465 293.173Z" fill="white"/>
<path d="M300.345 403.146C298.222 388.041 295.944 371.558 293.809 356.304C294.786 356.343 295.777 356.382 296.761 356.407C302.043 356.587 307.415 356.676 312.877 356.674C314.202 356.674 315.515 356.667 316.827 356.654C320.062 356.635 323.267 356.579 326.439 356.487C336.971 356.198 347.129 355.581 356.773 354.666C361.527 354.216 366.146 353.697 370.63 353.11C393.18 350.15 412.1 345.518 425.122 339.818C431.255 337.135 436.078 334.215 439.365 331.12C442.614 328.057 444.351 324.822 444.351 321.482C444.351 321.257 444.345 321.032 444.326 320.807L444.422 320.801C445.535 339.213 444.41 358.584 434.868 374.372C423.97 392.399 404.187 403.612 383.742 408.688C363.309 413.764 342.619 413.417 321.575 413.043C321.045 409.939 319.492 407.101 317.162 404.983C315.03 403.154 312.41 401.99 309.625 401.636C306.839 401.281 304.011 401.751 301.49 402.988L300.345 403.146Z" fill="#171717"/>
<path d="M296.91 317.961C297.413 318.034 297.882 318.258 298.254 318.604C299.798 319.763 301.34 320.921 302.88 322.078L303.157 322.066C303.33 326.402 304.212 330.821 304.218 335.186C304.194 342.675 301.567 349.923 296.788 355.689L296.762 356.41C295.778 356.384 294.788 356.345 293.809 356.307C293.294 352.633 292.786 349.024 292.291 345.531L292.786 345.35C293.835 344.462 295.257 344.124 296.35 343.292C298.988 341.31 298.923 337.399 298.525 334.124C297.855 329.016 296.843 323.958 295.494 318.986L295.957 318.864C295.854 318.366 296.408 317.942 296.91 317.961Z" fill="white"/>
<path d="M286.351 322.658L285.747 322.715C285.238 317.395 284.91 312.01 284.473 308.986C283.978 305.615 282.903 300.436 279.416 300.848C278.168 300.996 279.474 312.705 280.651 323.706L280.195 323.76C279.049 323.855 277.899 323.651 276.855 323.168L276.283 323.206C275.505 312.262 273.896 299.91 271.754 300.02C268.767 299.646 270.255 305.662 270.325 308.878C270.428 313.337 270.578 317.798 270.776 322.26L270.609 322.267C269.11 320.613 267.145 319.454 264.973 318.941L265.115 318.354C264.806 313.265 260.971 308.704 256.155 307.037C251.338 305.371 245.778 306.446 241.595 309.366C237.412 312.287 234.57 316.9 233.289 321.841L233.219 321.989C228.657 319.891 224.19 317.601 219.818 315.118C218.673 317.492 217.471 319.924 215.488 321.661C213.505 323.398 210.521 324.253 208.186 323.031C206.989 322.401 205.94 321.243 204.589 321.281C203.593 321.307 202.749 321.982 201.984 322.626C197.776 326.209 193.564 329.788 189.348 333.363L189.219 333.537C184.162 329.773 181.409 325.714 181.409 321.48C181.406 321.246 181.417 321.012 181.441 320.779C182.83 301.665 241.143 286.283 312.877 286.283C327.976 286.283 342.477 286.965 355.974 288.219L356.155 288.277C354.051 295.071 351.945 301.862 349.837 308.65L349.669 308.597C347.887 307.452 346.108 306.309 344.33 305.168L344.523 304.871C347.212 301.397 345.913 295.897 342.464 293.169C339.015 290.441 334.114 290.165 329.906 291.426C325.621 292.706 321.716 295.563 319.677 299.545C317.689 303.438 317.689 308.41 320.069 312.065C319.349 312.11 318.627 312.076 317.914 311.962C315.919 311.642 314.079 310.713 312.13 310.166C310.181 309.62 307.942 309.484 306.295 310.649C305.002 311.563 304.301 313.102 303.87 314.625C303.237 317.05 302.996 319.561 303.156 322.062L302.879 322.075C301.335 320.917 299.793 319.759 298.253 318.601C297.881 318.254 297.412 318.03 296.909 317.957C296.407 317.938 295.853 318.363 295.956 318.858L295.493 318.98C294.02 313.306 292.27 307.683 290.64 302.138C290.061 300.169 288.922 298.277 287.88 298.631C286.445 299.12 286.587 301.23 286.844 302.723C287.893 308.681 288.937 314.641 289.977 320.602L289.533 320.679C288.732 321.685 287.609 322.385 286.351 322.658Z" fill="#171717"/>
<path d="M292.038 332.32C292.425 334.513 292.412 337.666 290.231 338.129C287.671 338.676 286.506 330.763 285.747 322.716L286.351 322.659C287.609 322.387 288.734 321.69 289.536 320.685L289.98 320.608C290.669 324.511 291.355 328.415 292.038 332.32Z" fill="white"/>
<path d="M283.031 347.323C283.476 350.141 283.922 352.962 284.37 355.784L283.939 355.854C270.969 355.095 258.752 353.821 247.577 352.116L247.712 351.263C248.567 346.2 249.421 341.141 250.272 336.086C250.471 334.913 250.684 333.699 251.372 332.726C252.202 331.556 253.585 330.932 254.807 330.179C256.352 329.22 257.711 327.988 258.815 326.544C260.587 324.26 261.673 321.521 261.949 318.644C262.965 318.6 263.983 318.7 264.972 318.94C267.144 319.453 269.109 320.612 270.608 322.266L270.775 322.259C270.918 325.657 271.091 329.053 271.296 332.45C271.522 336.272 270.563 340.286 272.679 343.477C274.5 346.204 278.096 348 281.127 347.176L283.031 347.323Z" fill="white"/>
<path d="M280.651 323.706C281.153 328.403 281.636 332.964 281.878 336.453C281.923 337.141 281.962 339.813 281.614 340.41C280.848 341.716 278.693 340.107 277.774 338.904C276.855 337.701 276.81 334.78 276.777 333.268C276.713 330.431 276.546 326.899 276.282 323.206L276.854 323.168C277.898 323.651 279.048 323.855 280.194 323.76L280.651 323.706Z" fill="white"/>
<path d="M233.289 321.84C234.569 316.899 237.412 312.287 241.594 309.366C245.776 306.445 251.334 305.377 256.154 307.037C260.974 308.696 264.807 313.264 265.114 318.353L264.972 318.94C263.983 318.7 262.966 318.6 261.949 318.644C261.673 321.521 260.587 324.261 258.815 326.544L258.326 326.177L244.721 316.816C243.026 319.582 241.102 322.2 238.97 324.645L238.703 324.414C236.863 323.635 235.029 322.831 233.215 321.988L233.289 321.84Z" fill="white"/>
<path d="M255.157 196.619L255.028 196.967C253.204 198.262 251.813 200.077 251.035 202.175C250.257 204.272 250.129 206.556 250.667 208.727L250.628 209.28C248.586 209.198 246.602 208.579 244.874 207.486C243.146 206.394 241.737 204.867 240.786 203.057C239.836 201.247 239.378 199.22 239.459 197.177C239.54 195.135 240.157 193.15 241.249 191.421C241.924 190.327 242.863 189.298 244.111 188.983C245.681 188.584 247.328 189.427 248.485 190.552C249.642 191.678 250.492 193.094 251.618 194.258C252.617 195.287 253.823 196.092 255.157 196.619Z" fill="#171717"/>
<path d="M221.458 414.773C219.765 414.987 218.074 415.185 216.381 415.384L216.375 415.331C216.202 408.839 221.219 403.064 227.202 400.515C227.24 400.573 227.279 400.624 227.317 400.682C227.449 400.671 227.575 400.623 227.679 400.543C227.785 400.464 227.865 400.355 227.909 400.231C233.757 397.96 240.274 398.07 246.54 398.631C258.836 399.728 270.945 402.367 282.581 406.486L282.774 407.529C281.912 407.683 281.062 407.883 280.22 408.088C268.874 410.867 257.975 415.231 247.846 421.052L247.763 421.123C245.692 418.697 243.084 416.787 240.146 415.545C234.305 413.164 227.717 413.994 221.458 414.773Z" fill="white"/>
<path d="M195.827 380.366C178.231 348.346 181.185 320.759 181.185 320.759L181.442 320.778C181.418 321.012 181.407 321.246 181.41 321.48C181.41 325.713 184.163 329.773 189.22 333.536C195.898 338.496 206.59 342.936 220.281 346.564C229.273 348.905 238.386 350.758 247.578 352.116C258.753 353.823 270.97 355.095 283.94 355.854L284.371 355.783C287.189 373.571 290.002 391.353 292.812 409.129L292.705 409.258C291.838 408.497 290.818 407.932 289.714 407.598C287.474 406.929 285.107 407.09 282.78 407.528L282.587 406.485C270.95 402.366 258.842 399.727 246.547 398.63C240.281 398.07 233.764 397.961 227.916 400.23C227.697 400.308 227.485 400.398 227.272 400.488C227.253 400.494 227.227 400.507 227.208 400.513C220.601 391.057 210.886 384.218 199.756 381.188C198.494 380.799 197.177 380.621 195.858 380.66L195.827 380.366Z" fill="#171717"/>
<path d="M295.062 243.751C310.908 235.239 327.372 223.19 335.304 207.042C343.236 190.893 342.014 169.258 328.637 157.228C332.678 144.831 336.216 131.977 335.483 118.962C334.749 105.947 329.094 92.6042 318.149 85.5146C309.799 80.104 299.331 78.8816 289.418 79.7546C266.484 81.7621 244.756 94.745 232.115 113.987C229.091 109.33 223.494 106.814 217.967 106.319C212.441 105.824 206.902 107.103 201.569 108.641C193.031 111.099 184.101 114.721 179.341 122.222C172.804 132.529 176.439 145.974 180.177 157.594C183.915 169.213 187.318 182.787 180.467 192.887C174.547 201.618 163.199 204.339 153.099 207.408C135.754 212.67 118.686 221.375 107.916 235.959C97.1467 250.544 94.2709 271.948 104.732 286.758" stroke="#171717" stroke-width="3.619" stroke-linecap="round" stroke-linejoin="round"/>
<path d="M217.59 157.999C221.308 159.007 225.139 159.533 228.99 159.562C238.57 159.695 247.945 156.791 255.772 151.268C263.599 145.745 269.477 137.886 272.564 128.817C277.785 133.998 284.639 137.208 291.961 137.901C296.989 138.439 302.071 137.737 306.764 135.855" stroke="#171717" stroke-width="3.619" stroke-linecap="round" stroke-linejoin="round"/>
<path d="M228.99 159.627C231.101 185.508 233.204 210.747 235.315 236.622" stroke="#171717" stroke-width="3.619" stroke-linecap="round" stroke-linejoin="round"/>
<path d="M291.955 137.973C294.02 156.464 295.873 175.577 287.303 192.098C283.405 199.618 277.57 205.949 273.021 213.097C268.473 220.245 265.166 230.17 267.193 238.4" stroke="#171717" stroke-width="3.619" stroke-linecap="round" stroke-linejoin="round"/>
<path d="M243.203 157.529C243.724 159.262 244.887 160.729 246.455 161.631C248.023 162.534 249.877 162.801 251.636 162.38C253.396 161.959 254.927 160.88 255.916 159.366C256.906 157.852 257.278 156.016 256.958 154.236" stroke="#171717" stroke-width="3.619" stroke-linecap="round" stroke-linejoin="round"/>
<path d="M271.149 154.313C270.92 155.242 270.905 156.21 271.106 157.146C271.307 158.081 271.717 158.958 272.308 159.71C272.898 160.463 273.651 161.072 274.511 161.49C275.372 161.908 276.316 162.125 277.273 162.124C278.229 162.123 279.173 161.904 280.032 161.484C280.891 161.064 281.644 160.454 282.233 159.7C282.821 158.946 283.23 158.068 283.429 157.132C283.627 156.197 283.611 155.228 283.379 154.3" stroke="#171717" stroke-width="3.619" stroke-linecap="round" stroke-linejoin="round"/>
<path d="M269.457 147.184C274.494 143.073 282.51 143.235 287.381 147.539" stroke="#171717" stroke-width="3.619" stroke-linecap="round" stroke-linejoin="round"/>
<path d="M269.097 172.738C270.109 173.827 270.918 175.089 271.484 176.463C271.964 177.865 271.877 179.564 270.867 180.652C269.857 181.739 267.83 181.835 266.994 180.613" stroke="#171717" stroke-width="3.619" stroke-linecap="round" stroke-linejoin="round"/>
<path d="M264.427 196.143C263.012 196.901 261.447 197.337 259.845 197.42C258.242 197.502 256.641 197.228 255.156 196.619C253.823 196.092 252.617 195.287 251.618 194.258C250.492 193.094 249.649 191.678 248.484 190.552C247.319 189.427 245.679 188.584 244.111 188.983C242.863 189.298 241.924 190.327 241.248 191.421C240.157 193.149 239.54 195.134 239.459 197.176C239.378 199.219 239.836 201.246 240.786 203.056C241.736 204.866 243.146 206.393 244.873 207.486C246.601 208.578 248.585 209.197 250.627 209.28C252.507 209.41 254.389 209.074 256.108 208.302" stroke="#171717" stroke-width="3.619" stroke-linecap="round" stroke-linejoin="round"/>
<path d="M250.667 208.727C250.129 206.556 250.257 204.272 251.035 202.175C251.813 200.077 253.204 198.262 255.028 196.967" stroke="#171717" stroke-width="3.619" stroke-linecap="round" stroke-linejoin="round"/>
<path d="M294.124 244.182C274.868 239.467 255.138 236.965 235.315 236.726C233.437 236.7 231.56 236.696 229.686 236.713C227.106 236.739 224.43 236.822 222.133 237.987C219.032 239.556 217.134 242.889 216.433 246.292C215.732 249.696 216.073 254.501 216.407 257.956" stroke="#171717" stroke-width="3.619" stroke-linecap="round" stroke-linejoin="round"/>
<path d="M216.034 257.962C183.854 247.064 146.508 255.865 118.779 275.494C113.878 278.966 109.201 282.743 104.774 286.804C84.2576 305.564 68.9338 329.908 57.449 355.39C48.6161 374.987 41.7388 397.054 47.5031 417.763C53.7626 440.28 74.1504 456.654 96.2234 464.342C118.297 472.03 142.133 472.422 165.499 472.737C187.759 473.04 210.023 473.344 232.291 473.651C240.025 473.754 248.916 473.331 253.857 467.507C254.004 467.333 254.146 467.159 254.287 466.974C258.36 461.64 257.671 454.197 256.783 447.539C255.954 441.279 255.092 434.935 252.66 429.107C251.465 426.201 249.812 423.505 247.764 421.123C245.693 418.697 243.085 416.787 240.147 415.545C234.305 413.165 227.72 413.994 221.458 414.773C219.765 414.986 218.074 415.184 216.381 415.384C203.635 416.831 190.77 417.677 178.064 416.072C173.731 415.537 169.445 414.675 165.242 413.493C155.418 410.733 146.154 406.133 138.671 399.253C125.727 387.359 119.159 368.9 121.675 351.51C124.19 334.12 135.718 318.275 151.493 310.535" stroke="#171717" stroke-width="3.619" stroke-linecap="round" stroke-linejoin="round"/>
<path d="M216.373 415.332C216.2 408.84 221.218 403.065 227.2 400.515C227.219 400.509 227.245 400.496 227.264 400.489C227.477 400.399 227.691 400.309 227.908 400.232C233.756 397.961 240.273 398.07 246.539 398.632C258.834 399.729 270.942 402.368 282.579 406.487" stroke="#171717" stroke-width="3.619" stroke-linecap="round" stroke-linejoin="round"/>
<path d="M247.848 421.051C257.977 415.23 268.875 410.866 280.221 408.087C281.064 407.882 281.914 407.682 282.775 407.528C285.105 407.09 287.472 406.93 289.709 407.598C290.813 407.932 291.833 408.498 292.7 409.259C294.289 410.635 295.306 412.604 294.99 414.656" stroke="#171717" stroke-width="3.619" stroke-linecap="round" stroke-linejoin="round"/>
<path d="M272.205 423.322C280.197 422.096 287.929 419.545 295.083 415.776C297.356 414.583 299.564 413.269 301.696 411.839C302.61 411.227 303.51 410.595 304.398 409.94" stroke="#171717" stroke-width="3.619" stroke-linecap="round" stroke-linejoin="round"/>
<path d="M301.49 402.987C304.011 401.75 306.839 401.28 309.625 401.635C312.41 401.989 315.03 403.152 317.162 404.981C319.492 407.1 321.046 409.937 321.575 413.042C322.033 415.472 321.83 417.981 320.988 420.305C320.502 421.614 319.812 422.836 318.942 423.928C317.646 425.582 316.003 426.932 314.129 427.882C312.255 428.832 310.196 429.36 308.095 429.428" stroke="#171717" stroke-width="3.619" stroke-linecap="round" stroke-linejoin="round"/>
<path d="M319.439 424.171C323.242 425.715 325.59 428.481 326.626 432.457C327.082 434.266 327.158 436.15 326.849 437.989C326.54 439.828 325.853 441.583 324.83 443.143C324.617 443.459 324.393 443.768 324.156 444.07C320.689 448.412 314.955 450.111 309.589 451.577C310.016 451.494 310.433 451.41 310.857 451.327" stroke="#171717" stroke-width="3.619" stroke-linecap="round" stroke-linejoin="round"/>
<path d="M324.812 443.137C324.818 443.137 324.825 443.144 324.831 443.144C329.341 445.138 331.554 450.748 330.538 455.57C330.068 457.696 329.134 459.69 327.803 461.412C326.098 463.605 323.958 465.423 321.518 466.752C317.201 469.139 312.267 470.168 307.385 470.914C290.188 473.559 271.049 473.095 254.43 467.928" stroke="#171717" stroke-width="3.619" stroke-linecap="round" stroke-linejoin="round"/>
<path d="M227.827 399.486C227.909 399.59 227.961 399.715 227.975 399.848C227.99 399.979 227.967 400.113 227.91 400.233C227.865 400.357 227.786 400.465 227.681 400.545C227.575 400.625 227.45 400.673 227.318 400.683C227.28 400.625 227.241 400.577 227.203 400.516C220.596 391.059 210.882 384.22 199.751 381.19C198.489 380.802 197.172 380.624 195.852 380.662C195.14 380.696 194.442 380.873 193.8 381.184C191.355 382.4 190.635 385.539 191.368 388.228C191.544 388.886 191.815 389.515 192.172 390.094C193.961 392.989 197.152 394.643 200.195 396.168" stroke="#171717" stroke-width="3.619" stroke-linecap="round" stroke-linejoin="round"/>
<path d="M190.5 388.523C184.297 385.685 177.93 383.223 171.431 381.15C169.298 380.462 167.069 379.812 164.837 380.063C162.605 380.315 160.353 381.685 159.741 383.84C158.873 386.909 161.478 389.791 163.962 391.787C165.132 392.726 166.335 393.639 167.558 394.507C174.134 399.212 181.377 402.907 189.046 405.469C189.084 405.218 189.116 404.974 189.149 404.723" stroke="#171717" stroke-width="3.619" stroke-linecap="round" stroke-linejoin="round"/>
<path d="M167.333 394.822C164.425 394.629 161.786 393.066 158.937 392.416C156.088 391.765 152.452 392.461 151.429 395.195C150.561 397.517 152.002 400.02 153.509 401.989C156.86 406.356 160.81 410.229 165.243 413.492C165.475 413.666 165.706 413.839 165.944 414.007" stroke="#171717" stroke-width="3.619" stroke-linecap="round" stroke-linejoin="round"/>
<path d="M321.536 413.041H321.575C342.619 413.414 363.309 413.762 383.742 408.686C404.187 403.61 423.97 392.396 434.868 374.37C444.41 358.583 445.535 339.211 444.422 320.798" stroke="#171717" stroke-width="3.619" stroke-linecap="round" stroke-linejoin="round"/>
<path d="M328.085 461.639C350.261 456.988 373.171 457.715 395.74 455.676C418.308 453.636 441.623 448.316 458.94 433.699C481.573 414.598 489.766 383.145 490.78 353.545C491.366 336.168 489.75 318.148 481.49 302.849C473.371 287.814 459.356 276.581 443.943 269.196C428.53 261.811 411.685 257.963 394.876 254.888C359.679 248.448 334.903 248.217 293.575 255.023" stroke="#171717" stroke-width="3.619" stroke-linecap="round" stroke-linejoin="round"/>
<path d="M293.061 255.003C294.103 251.643 294.123 248.164 294.387 244.652" stroke="#171717" stroke-width="3.619" stroke-linecap="round" stroke-linejoin="round"/>
<path d="M401.221 295.413C427.135 301.711 443.618 310.744 444.326 320.806C444.345 321.031 444.351 321.256 444.351 321.481C444.351 324.821 442.614 328.056 439.365 331.119C436.078 334.212 431.253 337.134 425.122 339.817C412.1 345.517 393.18 350.149 370.63 353.109C366.146 353.693 361.527 354.213 356.773 354.666C347.129 355.58 336.971 356.198 326.439 356.487C323.267 356.577 320.063 356.633 316.827 356.654C315.515 356.667 314.202 356.674 312.877 356.674C307.421 356.674 302.049 356.585 296.761 356.407C295.777 356.382 294.788 356.343 293.809 356.304H293.776" stroke="#171717" stroke-width="3.619" stroke-linecap="round" stroke-linejoin="round"/>
<path d="M283.939 355.854C270.969 355.095 258.752 353.821 247.577 352.116C238.385 350.758 229.272 348.905 220.279 346.564C206.589 342.938 195.897 338.497 189.219 333.537C184.162 329.773 181.409 325.714 181.409 321.48C181.406 321.246 181.417 321.012 181.441 320.779C182.83 301.665 241.143 286.283 312.877 286.283C327.976 286.283 342.477 286.965 355.974 288.219" stroke="#171717" stroke-width="3.619" stroke-linecap="round" stroke-linejoin="round"/>
<path d="M195.827 380.366C178.231 348.346 181.185 320.759 181.185 320.759" stroke="#171717" stroke-width="3.619" stroke-linecap="round" stroke-linejoin="round"/>
<path d="M301.484 411.221C301.111 408.583 300.732 405.892 300.345 403.146C298.222 388.041 295.945 371.558 293.809 356.304C293.294 352.631 292.786 349.022 292.291 345.528" stroke="#171717" stroke-width="3.619" stroke-linecap="round" stroke-linejoin="round"/>
<path d="M292.812 409.13C290 391.348 287.186 373.566 284.371 355.783C283.927 352.965 283.48 350.145 283.032 347.323C283.271 348.649 283.502 349.974 283.74 351.299" stroke="#171717" stroke-width="3.619" stroke-linecap="round" stroke-linejoin="round"/>
<path d="M292.786 345.348C293.834 344.46 295.256 344.122 296.349 343.29C298.987 341.308 298.923 337.397 298.524 334.122C297.854 329.014 296.842 323.956 295.494 318.984C294.021 313.31 292.271 307.687 290.641 302.141C290.061 300.172 288.923 298.281 287.881 298.635C286.446 299.124 286.587 301.234 286.845 302.726C287.893 308.684 288.938 314.644 289.978 320.605C290.666 324.51 291.353 328.416 292.036 332.321C292.422 334.514 292.41 337.667 290.229 338.13C287.669 338.677 286.503 330.764 285.745 322.717C285.236 317.396 284.908 312.012 284.47 308.988C283.975 305.617 282.901 300.438 279.414 300.85C278.166 300.998 279.472 312.707 280.649 323.708C281.151 328.404 281.634 332.965 281.876 336.454C281.921 337.143 281.959 339.814 281.612 340.411C280.846 341.717 278.691 340.109 277.772 338.906C276.853 337.702 276.807 334.782 276.775 333.27C276.711 330.433 276.543 326.901 276.28 323.208C275.501 312.265 273.893 299.913 271.75 300.022C268.764 299.649 270.252 305.664 270.322 308.881C270.425 313.339 270.575 317.799 270.773 322.262C270.915 325.659 271.089 329.056 271.294 332.453C271.519 336.275 270.561 340.289 272.677 343.48C274.498 346.208 278.094 348.003 281.124 347.179C281.639 347.036 282.131 346.82 282.585 346.536" stroke="#171717" stroke-width="3.619" stroke-linecap="round" stroke-linejoin="round"/>
<path d="M424.922 339.36C422.123 336.516 419.321 333.671 416.513 330.827C415.291 329.578 413.914 328.259 412.171 328.099C408.041 327.719 405.956 333.735 401.865 334.423C397.129 335.227 393.945 328.562 389.145 328.543C388.978 328.543 388.817 328.549 388.657 328.562C385.937 328.806 383.803 331.175 382.139 333.4C380.139 336.076 378.246 338.84 376.486 341.673C374.316 345.162 372.334 348.763 370.548 352.463" stroke="#171717" stroke-width="3.619" stroke-linecap="round" stroke-linejoin="round"/>
<path d="M376.382 341.611C374.492 337.408 372.603 333.207 370.714 329.007C369.794 326.955 368.872 324.903 367.948 322.851C365.805 324.375 363.598 325.806 361.327 327.142C357.886 329.161 354.314 330.949 350.635 332.494C347.862 331.606 345.553 329.258 343.095 327.748C341.596 326.828 340.039 326.223 338.283 326.442C336.739 326.635 335.362 327.478 334.037 328.295C328.202 331.922 322.366 335.548 316.531 339.175C317.009 344.512 317.103 349.877 316.814 355.228" stroke="#171717" stroke-width="3.619" stroke-linecap="round" stroke-linejoin="round"/>
<path d="M388.618 328.048C394.566 324.187 398.932 318.32 400.925 311.515C401.814 308.55 402.212 305.46 402.103 302.367C402.011 300.035 401.624 297.724 400.951 295.49C398.73 287.933 393.601 281.568 386.689 277.791C380.371 274.431 373.082 273.519 365.979 272.663C364.467 272.477 362.779 272.343 361.572 273.268C360.607 274.008 360.195 275.242 359.835 276.402C358.606 280.358 357.38 284.316 356.156 288.277C354.051 295.071 351.945 301.863 349.837 308.651C347.875 314.994 345.911 321.335 343.945 327.675" stroke="#171717" stroke-width="3.619" stroke-linecap="round" stroke-linejoin="round"/>
<path d="M388.278 285.028C383.536 280.492 377.7 277.261 371.339 275.648C368.619 274.94 365.252 274.696 363.451 276.864C361.759 278.91 362.486 282.159 364.281 284.121C366.076 286.083 368.65 287.093 371.068 288.187C377.009 290.863 382.564 294.326 387.583 298.481C389.462 300.037 391.263 301.691 393.27 303.081C394.164 303.705 395.194 304.297 396.281 304.174C399.697 303.788 396.088 296.769 395.31 295.038C393.61 291.293 391.225 287.898 388.278 285.028Z" stroke="#171717" stroke-width="3.619" stroke-linecap="round" stroke-linejoin="round"/>
<path d="M369.775 292.111C367.736 291.282 365.426 290.548 363.38 291.346C360.735 292.381 359.629 295.452 358.838 298.178C358.374 299.748 357.963 301.6 358.973 302.894C359.492 303.471 360.138 303.923 360.858 304.213C366.188 306.806 371.72 308.962 377.398 310.659C381.431 311.854 385.524 312.836 389.66 313.6C391.082 313.867 392.633 314.08 393.894 313.381C398.534 310.776 387.544 302.882 385.582 301.338C380.767 297.543 375.447 294.438 369.775 292.111Z" stroke="#171717" stroke-width="3.619" stroke-linecap="round" stroke-linejoin="round"/>
<path d="M389.956 318.933C389.886 318.907 389.821 318.88 389.75 318.856C379.965 314.995 369.926 311.807 359.706 309.315C358.651 309.058 357.506 308.82 356.515 309.257C355.342 309.772 354.759 311.059 354.283 312.244C353.382 314.477 352.531 316.726 351.729 318.993C351.285 320.26 350.848 321.631 351.227 322.923C351.748 324.712 353.681 325.722 355.518 326.044C357.355 326.366 359.262 326.231 361.07 326.706" stroke="#171717" stroke-width="3.619" stroke-linecap="round" stroke-linejoin="round"/>
<path d="M370.733 329.001C374.201 329.605 377.765 329.302 381.079 328.119C384.394 326.936 387.346 324.915 389.647 322.252C390.11 321.781 390.434 321.19 390.58 320.546C390.641 320.223 390.585 319.89 390.424 319.604C390.263 319.318 390.006 319.098 389.699 318.982" stroke="#171717" stroke-width="3.619" stroke-linecap="round" stroke-linejoin="round"/>
<path d="M438.954 330.461C438.182 327.753 437.384 324.999 435.84 322.645C434.296 320.29 431.877 318.341 429.072 318.083C426.821 317.877 424.634 318.746 422.446 319.286C420.258 319.827 417.717 319.988 415.948 318.579C414.121 317.125 413.735 314.519 412.403 312.596C410.113 309.289 404.723 308.774 401.846 311.586C402.129 311.386 402.406 311.187 402.689 310.987" stroke="#171717" stroke-width="3.619" stroke-linecap="round" stroke-linejoin="round"/>
<path d="M320.07 312.068C319.35 312.114 318.627 312.079 317.915 311.965C315.921 311.645 314.081 310.717 312.131 310.17C310.182 309.623 307.943 309.488 306.296 310.653C305.003 311.566 304.302 313.106 303.871 314.628C303.238 317.053 302.997 319.564 303.157 322.065C303.33 326.401 304.212 330.821 304.218 335.185C304.193 342.675 301.566 349.922 296.788 355.689" stroke="#171717" stroke-width="3.619" stroke-linecap="round" stroke-linejoin="round"/>
<path d="M349.67 308.601C347.888 307.456 346.108 306.313 344.33 305.171C341.32 303.235 338.307 301.299 335.291 299.362C333.278 302.592 331.226 305.873 328.363 308.382C326.053 310.409 323.106 311.895 320.076 312.068" stroke="#171717" stroke-width="3.619" stroke-linecap="round" stroke-linejoin="round"/>
<path d="M302.88 322.08C301.336 320.922 299.794 319.764 298.254 318.606C297.882 318.26 297.413 318.035 296.91 317.963C296.408 317.943 295.854 318.368 295.957 318.863" stroke="#171717" stroke-width="3.619" stroke-linecap="round" stroke-linejoin="round"/>
<path d="M289.537 320.683C288.734 321.688 287.609 322.384 286.352 322.656C286.333 322.437 286.313 322.225 286.294 322.006" stroke="#171717" stroke-width="3.619" stroke-linecap="round" stroke-linejoin="round"/>
<path d="M280.195 323.758C279.05 323.853 277.899 323.649 276.856 323.166" stroke="#171717" stroke-width="3.619" stroke-linecap="round" stroke-linejoin="round"/>
<path d="M270.61 322.265C269.111 320.612 267.146 319.452 264.974 318.939C263.985 318.699 262.967 318.6 261.95 318.643C261.675 321.52 260.588 324.26 258.817 326.544C257.712 327.988 256.354 329.22 254.809 330.178C253.587 330.931 252.204 331.555 251.374 332.726C250.685 333.697 250.473 334.913 250.274 336.086C249.425 341.143 248.571 346.201 247.714 351.263" stroke="#171717" stroke-width="3.619" stroke-linecap="round" stroke-linejoin="round"/>
<path d="M258.327 326.176L244.721 316.816C243.026 319.582 241.101 322.201 238.969 324.645C238.422 325.276 237.862 325.893 237.29 326.498C236.209 327.637 234.884 328.808 233.321 328.738C231.004 328.631 228.849 325.843 226.861 327.02C226.031 327.516 225.697 328.519 225.421 329.439C223.742 334.998 222.068 340.559 220.397 346.122" stroke="#171717" stroke-width="3.619" stroke-linecap="round" stroke-linejoin="round"/>
<path d="M238.705 324.414C236.865 323.635 235.031 322.831 233.218 321.988C228.657 319.891 224.189 317.6 219.817 315.117C218.671 317.491 217.47 319.923 215.487 321.66C213.504 323.397 210.52 324.253 208.185 323.03C206.988 322.4 205.939 321.242 204.588 321.28C203.591 321.307 202.748 321.982 201.983 322.625C197.776 326.208 193.564 329.788 189.348 333.363" stroke="#171717" stroke-width="3.619" stroke-linecap="round" stroke-linejoin="round"/>
<path d="M265.115 318.353C264.806 313.264 260.972 308.703 256.155 307.037C251.339 305.37 245.778 306.445 241.595 309.366C237.412 312.286 234.57 316.9 233.29 321.84L234.313 320.875" stroke="#171717" stroke-width="3.619" stroke-linecap="round" stroke-linejoin="round"/>
<path d="M320.237 312.32C320.179 312.24 320.125 312.156 320.077 312.069H320.07C317.69 308.415 317.69 303.442 319.678 299.549C321.717 295.568 325.622 292.711 329.907 291.431C334.115 290.17 339.017 290.453 342.465 293.174C345.913 295.895 347.212 301.402 344.524 304.876" stroke="#171717" stroke-width="3.619" stroke-linecap="round" stroke-linejoin="round"/>
<path d="M356.709 354.027C356.784 351.909 356.417 349.798 355.63 347.83C354.844 345.862 353.655 344.079 352.141 342.597C350.626 341.114 348.819 339.964 346.835 339.219C344.85 338.475 342.732 338.153 340.616 338.273C338.5 338.393 336.433 338.954 334.546 339.919C332.659 340.884 330.994 342.231 329.657 343.877C328.321 345.522 327.342 347.427 326.783 349.472C326.226 351.517 326.1 353.655 326.415 355.751C326.525 355.551 326.629 355.358 326.736 355.159" stroke="#171717" stroke-width="3.619" stroke-linecap="round" stroke-linejoin="round"/>
<path d="M284.417 255.947L285.933 246.865" stroke="#171717" stroke-width="3.619" stroke-linecap="round" stroke-linejoin="round"/>
<path d="M273.514 255.339L274.957 245.942" stroke="#171717" stroke-width="3.619" stroke-linecap="round" stroke-linejoin="round"/>
<path d="M263.025 254.13L263.707 245.031" stroke="#171717" stroke-width="3.619" stroke-linecap="round" stroke-linejoin="round"/>
<path d="M251.46 254.748C252.252 251.158 252.685 247.498 252.753 243.822" stroke="#171717" stroke-width="3.619" stroke-linecap="round" stroke-linejoin="round"/>
<path d="M239.18 255.021L240.082 244.121" stroke="#171717" stroke-width="3.619" stroke-linecap="round" stroke-linejoin="round"/>
<path d="M226.265 254.421L226.556 244.43" stroke="#171717" stroke-width="3.619" stroke-linecap="round" stroke-linejoin="round"/>
<path d="M251.685 399.756C247.556 404.945 244.77 411.072 243.573 417.594" stroke="#171717" stroke-width="3.619" stroke-linecap="round" stroke-linejoin="round"/>
<path d="M220.661 415.229C225.493 434.169 227.562 453.709 226.805 473.241" stroke="#171717" stroke-width="3.619" stroke-linecap="round" stroke-linejoin="round"/>
<path d="M347.094 448.25L354.764 439.297" stroke="#171717" stroke-width="3.619" stroke-linecap="round" stroke-linejoin="round"/>
<path d="M384.572 426.945C380.568 425.388 376.688 423.53 372.965 421.387" stroke="#171717" stroke-width="3.619" stroke-linecap="round" stroke-linejoin="round"/>
<path d="M410.265 439.884L416.131 430.786" stroke="#171717" stroke-width="3.619" stroke-linecap="round" stroke-linejoin="round"/>
<path d="M417.949 402.821C421.101 403.981 423.94 405.859 426.242 408.304" stroke="#171717" stroke-width="3.619" stroke-linecap="round" stroke-linejoin="round"/>
<path d="M455.399 417.603L449.344 414.272" stroke="#171717" stroke-width="3.619" stroke-linecap="round" stroke-linejoin="round"/>
<path d="M447.91 391.573L449.121 377.647" stroke="#171717" stroke-width="3.619" stroke-linecap="round" stroke-linejoin="round"/>
<path d="M466.318 378.937C470.18 378.04 474.165 377.795 478.109 378.212" stroke="#171717" stroke-width="3.619" stroke-linecap="round" stroke-linejoin="round"/>
<path d="M465.782 359.218L462.097 350.074" stroke="#171717" stroke-width="3.619" stroke-linecap="round" stroke-linejoin="round"/>
<path d="M470.782 332.447L478.129 327.418" stroke="#171717" stroke-width="3.619" stroke-linecap="round" stroke-linejoin="round"/>
<path d="M460.975 316.346C459.329 314.593 457.978 312.585 456.975 310.399" stroke="#171717" stroke-width="3.619" stroke-linecap="round" stroke-linejoin="round"/>
<path d="M447.556 292.9L452.698 288.051" stroke="#171717" stroke-width="3.619" stroke-linecap="round" stroke-linejoin="round"/>
<path d="M422.085 293.183C419.838 291.003 418.178 288.292 417.257 285.299" stroke="#171717" stroke-width="3.619" stroke-linecap="round" stroke-linejoin="round"/>
<path d="M399.719 271.111L406.332 266.802" stroke="#171717" stroke-width="3.619" stroke-linecap="round" stroke-linejoin="round"/>
<path d="M372.392 266.281L365.82 259.833" stroke="#171717" stroke-width="3.619" stroke-linecap="round" stroke-linejoin="round"/>
<path d="M332.149 275.886L339.257 268.457" stroke="#171717" stroke-width="3.619" stroke-linecap="round" stroke-linejoin="round"/>
<path d="M316.453 268.326L309.797 262.566" stroke="#171717" stroke-width="3.619" stroke-linecap="round" stroke-linejoin="round"/>
<path d="M285.494 279.492L290.94 273.434" stroke="#171717" stroke-width="3.619" stroke-linecap="round" stroke-linejoin="round"/>
<path d="M268.229 273.037C265.757 271.889 263.657 270.072 262.165 267.792" stroke="#171717" stroke-width="3.619" stroke-linecap="round" stroke-linejoin="round"/>
<path d="M239.99 283.181L247.256 276.37" stroke="#171717" stroke-width="3.619" stroke-linecap="round" stroke-linejoin="round"/>
<path d="M222.453 277.725L216.971 272.586" stroke="#171717" stroke-width="3.619" stroke-linecap="round" stroke-linejoin="round"/>
<path d="M195.941 296.805L202.299 289.539" stroke="#171717" stroke-width="3.619" stroke-linecap="round" stroke-linejoin="round"/>
<path d="M184.287 275.808L175.026 267.77" stroke="#171717" stroke-width="3.619" stroke-linecap="round" stroke-linejoin="round"/>
<path d="M174.594 299.074L168.691 309.973" stroke="#171717" stroke-width="3.619" stroke-linecap="round" stroke-linejoin="round"/>
<path d="M161.427 334.498L150.941 328.091L152.345 328.594" stroke="#171717" stroke-width="3.619" stroke-linecap="round" stroke-linejoin="round"/>
<path d="M142.353 360.837C143.465 358.078 145.171 355.597 147.349 353.571" stroke="#171717" stroke-width="3.619" stroke-linecap="round" stroke-linejoin="round"/>
<path d="M173.566 368.27L165.434 362.309" stroke="#171717" stroke-width="3.619" stroke-linecap="round" stroke-linejoin="round"/>
<path d="M144.111 285.828C140.665 288.452 137.768 291.727 135.582 295.467" stroke="#171717" stroke-width="3.619" stroke-linecap="round" stroke-linejoin="round"/>
<path d="M114.769 328.015L106.022 319.062" stroke="#171717" stroke-width="3.619" stroke-linecap="round" stroke-linejoin="round"/>
<path d="M79.6624 352.195L85.1856 343.614" stroke="#171717" stroke-width="3.619" stroke-linecap="round" stroke-linejoin="round"/>
<path d="M103.702 374.958L96.4064 366.355" stroke="#171717" stroke-width="3.619" stroke-linecap="round" stroke-linejoin="round"/>
<path d="M69.1888 401.671L75.9589 392.557" stroke="#171717" stroke-width="3.619" stroke-linecap="round" stroke-linejoin="round"/>
<path d="M115.134 406.274L122.411 398.11" stroke="#171717" stroke-width="3.619" stroke-linecap="round" stroke-linejoin="round"/>
<path d="M98.24 429.928L89.1424 420.862" stroke="#171717" stroke-width="3.619" stroke-linecap="round" stroke-linejoin="round"/>
<path d="M111.822 457.457L123.609 446.084" stroke="#171717" stroke-width="3.619" stroke-linecap="round" stroke-linejoin="round"/>
<path d="M144.543 433.566L139.117 427.07L139.965 426.151" stroke="#171717" stroke-width="3.619" stroke-linecap="round" stroke-linejoin="round"/>
<path d="M156.951 458.56L165.897 451.573" stroke="#171717" stroke-width="3.619" stroke-linecap="round" stroke-linejoin="round"/>
<path d="M193.254 440.698C190.455 439.08 188.228 436.633 186.88 433.694" stroke="#171717" stroke-width="3.619" stroke-linecap="round" stroke-linejoin="round"/>
<path d="M203.59 460.228L211.547 451.36" stroke="#171717" stroke-width="3.619" stroke-linecap="round" stroke-linejoin="round"/>
<path d="M69.6069 247.771C71.696 253.496 72.5323 259.602 72.0592 265.678C71.5867 271.753 69.8155 277.657 66.8656 282.989C65.0821 286.162 62.7664 289.204 59.5221 290.855C56.2779 292.506 51.9465 292.427 49.3417 289.881C46.7369 287.334 46.9774 282.215 50.2276 280.575C52.5209 279.419 55.4832 280.308 57.2011 282.214C58.9189 284.119 59.536 286.817 59.4363 289.381C59.1435 296.872 53.4992 303.005 47.6942 307.748C41.8894 312.492 35.3508 316.868 31.954 323.548C28.5572 330.228 30.0303 340.146 37.0361 342.812" stroke="#171717" stroke-width="3.619" stroke-linecap="round" stroke-linejoin="round"/>
<path d="M380.258 128.842C374.215 138.635 371.016 149.915 371.018 161.422C371.018 165.468 371.456 169.676 373.564 173.128C375.672 176.581 379.832 179.048 383.763 178.094C387.693 177.14 390.262 171.924 387.84 168.684C385.727 165.858 381.022 166.029 378.477 168.476C375.933 170.923 375.334 174.876 376.077 178.326C376.82 181.776 378.7 184.861 380.548 187.869L387.858 199.762C390.254 203.662 392.598 208.91 389.693 212.448C387.667 214.914 383.819 215.159 380.893 213.88C377.968 212.602 375.753 210.147 373.632 207.76" stroke="#171717" stroke-width="3.619" stroke-linecap="round" stroke-linejoin="round"/>
<path d="M155.9 156.582L146.843 149.737" stroke="#171717" stroke-width="3.619" stroke-linecap="round" stroke-linejoin="round"/>
<path d="M148.533 158.672L153.653 146.919" stroke="#171717" stroke-width="3.619" stroke-linecap="round" stroke-linejoin="round"/>
<path d="M134.811 183.43C130.932 181.675 127.365 179.298 124.251 176.394" stroke="#171717" stroke-width="3.619" stroke-linecap="round" stroke-linejoin="round"/>
<path d="M126.002 186.904L132.205 174.336" stroke="#171717" stroke-width="3.619" stroke-linecap="round" stroke-linejoin="round"/>
<path d="M124.593 145.313L119.167 143.861" stroke="#171717" stroke-width="3.619" stroke-linecap="round" stroke-linejoin="round"/>
<path d="M120.965 147.84L123.209 140.112" stroke="#171717" stroke-width="3.619" stroke-linecap="round" stroke-linejoin="round"/>
<path d="M48.8099 261.85L57.3744 257.191" stroke="#171717" stroke-width="3.619" stroke-linecap="round" stroke-linejoin="round"/>
<path d="M54.7563 264.536L49.2964 254.097" stroke="#171717" stroke-width="3.619" stroke-linecap="round" stroke-linejoin="round"/>
<path d="M21.5557 358.566L27.9136 354.026" stroke="#171717" stroke-width="3.619" stroke-linecap="round" stroke-linejoin="round"/>
<path d="M26.1292 360.816C24.4288 358.217 23.2723 355.3 22.7292 352.242" stroke="#171717" stroke-width="3.619" stroke-linecap="round" stroke-linejoin="round"/>
<path d="M372.142 199.622L368.509 196.897" stroke="#171717" stroke-width="3.619" stroke-linecap="round" stroke-linejoin="round"/>
<path d="M368.444 201.387L372.362 196.704" stroke="#171717" stroke-width="3.619" stroke-linecap="round" stroke-linejoin="round"/>
<path d="M400.847 137.805L397.191 131.458" stroke="#171717" stroke-width="3.619" stroke-linecap="round" stroke-linejoin="round"/>
<path d="M394.841 137.851L403.407 130.513" stroke="#171717" stroke-width="3.619" stroke-linecap="round" stroke-linejoin="round"/>
<path d="M340.807 80.186L353.153 73.8425L352.581 74.2239" stroke="#171717" stroke-width="3.619" stroke-linecap="round" stroke-linejoin="round"/>
<path d="M329.009 72.9242C334.48 61.0938 340.754 49.651 347.787 38.6763" stroke="#171717" stroke-width="3.619" stroke-linecap="round" stroke-linejoin="round"/>
<path d="M316.284 67.9247L315.83 58.8425" stroke="#171717" stroke-width="3.619" stroke-linecap="round" stroke-linejoin="round"/>
<path d="M399.034 399.368C421.827 388.764 437.472 364.328 437.566 339.189" stroke="white" stroke-width="3.619" stroke-linecap="round" stroke-linejoin="round"/>
<g opacity="0.1">
<path d="M293.883 139.834C291.771 137.332 287.959 135.894 285.13 134.33C281.971 132.583 278.774 130.892 275.674 129.042C274.026 128.06 271.081 128.862 270.785 131.031C269.718 138.821 264.806 145.404 258.233 149.649C250.553 154.609 241.273 156.334 232.355 157.528C230.134 157.825 228.205 159.222 228.205 161.678C228.205 163.705 230.116 166.105 232.355 165.828C243.088 164.494 254.338 162.418 263.367 156.058C271.314 150.461 277.181 141.91 277.322 131.916L272.314 134.79C275.801 136.294 279.212 137.981 282.65 139.596C285.683 141.02 289.018 143.169 292.397 143.419C294.373 143.566 294.951 141.1 293.883 139.834Z" fill="#171717"/>
</g>
<g opacity="0.1">
<path d="M226.194 237.176C217.46 241.724 215.1 256.279 218.273 264.834L223.354 259.752C210.963 256.772 198.283 254.487 185.503 254.392C174.259 254.36 163.062 255.852 152.218 258.828C128.496 265.232 109.018 282.638 93.2656 300.814C85.1562 310.156 77.8858 320.195 71.5402 330.815C65.1184 341.588 59.856 353.033 54.8586 364.522C52.192 370.655 49.6554 376.91 48.1125 383.437C46.7972 389.374 46.1622 395.443 46.2197 401.525C46.1578 413.067 48.3701 424.652 55.2698 434.157C72.4149 457.776 103.537 467.601 131.436 469.28C133.481 469.404 133.633 466.511 131.894 465.892C125.974 463.784 120.087 461.751 114.014 460.123C108.004 458.576 102.141 456.505 96.4917 453.936C85.9125 449.093 76.2746 442.415 68.024 434.212C60.512 426.627 56.6506 417.358 56.0725 406.745C55.785 401.461 55.784 395.923 56.5824 390.685C57.497 384.681 59.4277 378.827 61.6341 373.187C70.064 351.64 80.9754 330.724 95.4944 312.64C102.652 303.677 110.587 295.363 119.207 287.795C127.482 280.574 136.771 274.022 147.057 270.008C170.806 260.739 196.741 262.381 221.158 267.719C223.922 268.323 227.478 265.776 226.24 262.637C223.588 255.914 224.94 245.99 229.101 240.083C230.407 238.228 227.927 236.271 226.194 237.176Z" fill="#171717"/>
</g>
<g opacity="0.1">
<path d="M331.826 459.458C336.412 460.66 341.237 460.116 345.935 459.801C350.786 459.476 355.635 459.169 360.484 458.816C370.322 458.101 380.164 457.301 389.97 456.212C399.23 455.184 408.465 453.955 417.498 451.637C421.975 450.489 426.341 449.12 430.696 447.579C435.026 446.047 439.832 445.064 443.033 441.615C443.354 441.274 443.57 440.848 443.654 440.387C443.739 439.926 443.689 439.45 443.509 439.017C443.33 438.585 443.029 438.213 442.644 437.947C442.258 437.681 441.804 437.532 441.335 437.518C436.784 437.228 432.621 439.459 428.241 440.525C423.767 441.615 419.227 442.52 414.689 443.303C405.836 444.831 396.942 446.176 388.006 447.125C378.499 448.136 368.961 448.779 359.444 449.669C354.545 450.127 349.661 450.696 344.795 451.376C340.139 452.016 335.34 452.624 331.249 455.027C330.848 455.276 330.527 455.635 330.325 456.061C330.123 456.487 330.048 456.962 330.109 457.43C330.17 457.898 330.365 458.338 330.67 458.698C330.974 459.058 331.377 459.322 331.828 459.459L331.826 459.458Z" fill="#171717"/>
</g>
</g>
</svg>
