<svg width="512" height="512" viewBox="0 0 512 512" fill="none" xmlns="http://www.w3.org/2000/svg">
<g clip-path="url(#clip0_760_3509)">
<mask id="mask0_760_3509" style="mask-type:luminance" maskUnits="userSpaceOnUse" x="0" y="0" width="512" height="512">
<path d="M512 0H0V512H512V0Z" fill="white"/>
</mask>
<g mask="url(#mask0_760_3509)">
<path d="M434.284 432.614C435.96 432.312 437.617 431.914 439.247 431.421C443.012 430.282 447.063 428.755 450.874 428.763V428.856C455.905 432.341 456.025 439.956 453.594 445.573C449.217 455.694 438.927 462.117 428.414 465.442C417.901 468.767 409.186 471.219 398.465 473.824L398.398 473.938C396.084 472.559 393.936 470.92 391.995 469.053C387.471 464.756 383.953 459.546 380.468 454.369C393.036 450.282 404.066 442.472 412.095 431.974L412.181 432.041C419.452 433.573 427.007 433.946 434.284 432.614Z" fill="white"/>
<path d="M318.042 262.987L324.32 328.751C322.167 329.498 320.022 330.237 317.87 330.977C316.437 331.476 314.998 331.97 313.566 332.463L313.099 332.483C312.873 327.159 312.715 321.831 312.626 316.498C312.433 305.058 312.557 293.615 312.999 282.171C313.059 280.525 313.133 278.873 313.206 277.227C313.546 269.824 313.406 261.067 307.349 256.785C302.918 253.653 296.949 254.233 291.563 254.946C270.994 257.677 251.678 260.269 231.103 262.995L231.05 262.928C222.463 269.767 216.603 279.449 214.525 290.226C214.178 292.122 213.959 294.038 213.873 295.963C213.366 307.549 217.217 318.904 224.667 327.792C225.566 328.851 226.512 329.872 227.511 330.837C227.186 332.433 226.718 333.996 226.113 335.507C223.59 341.915 218.849 347.203 212.753 350.406C211.499 351.059 210.193 351.607 208.849 352.045C202.901 346.049 198.057 339.053 194.537 331.377C189.95 321.443 187.49 310.661 187.314 299.721C187.196 293.087 187.958 286.466 189.579 280.032C190.534 276.28 191.793 272.612 193.344 269.065C202.153 248.856 220.043 232.611 241.23 226.328C245.259 225.143 249.373 224.272 253.537 223.723C264.664 222.211 276.105 222.744 287.278 224.163C288.67 224.343 290.07 224.528 291.476 224.716C299.705 225.809 308.062 226.796 315.942 224.436C328.542 220.665 337.39 208.798 341.135 196.192C344.873 183.605 344.3 169.587 343.76 156.458C353.961 151.068 367.394 149.845 378.281 153.66C375.17 178.106 372.058 202.555 368.948 227.006C368.068 233.908 367.028 241.193 362.691 246.633C358.52 251.863 351.964 254.522 345.594 256.58C336.762 259.439 327.71 261.565 318.529 262.937L318.042 262.987Z" fill="white"/>
<path d="M365.455 85.3137L365.309 85.4001L358.293 85.3201C357.946 84.8934 357.593 84.4609 357.24 84.0401C355.213 81.6011 353.094 79.2331 350.883 76.9371L351.197 76.6305L357.353 72.9329C360.245 76.9579 362.946 81.0849 365.455 85.3137Z" fill="white"/>
<path d="M357.24 84.0411L357.173 84.0944C354.077 83.2581 350.865 82.9381 347.665 83.1483L347.625 83.1947C347.099 82.7147 346.566 82.2421 346.025 81.7691C344.279 80.2299 342.494 78.7355 340.668 77.2848L340.688 77.2581C341.987 75.0325 343.34 73.0603 344.639 70.8352C346.791 72.8075 348.873 74.8416 350.882 76.9381C353.095 79.2368 355.214 81.6048 357.24 84.0411Z" fill="white"/>
<path d="M360.751 124.632L360.505 124.738C360.451 124.658 360.391 124.585 360.331 124.512C359.265 123.273 357.406 123.159 355.781 123.313C353.215 123.56 350.71 124.238 348.371 125.318C348.012 125.484 347.652 125.665 347.299 125.858L346.972 125.331C344.039 124.425 342.049 121.314 342.181 118.249C342.296 116.714 342.82 115.238 343.697 113.974C344.575 112.71 345.774 111.704 347.172 111.059C348.581 110.443 350.105 110.134 351.643 110.155C353.18 110.176 354.695 110.525 356.087 111.179C358.607 112.281 360.6 114.318 361.644 116.862C362.145 118.131 362.325 119.504 362.169 120.859C362.013 122.214 361.526 123.509 360.751 124.632Z" fill="white"/>
<path d="M346.027 81.7697L345.9 81.9158C342.102 81.663 338.307 81.4118 334.513 81.1633L334.36 81.343C333.58 80.6769 332.807 80.0235 332.021 79.3697L332.148 79.2166C332.874 76.9766 333.598 74.7355 334.32 72.4934C336.478 74.0326 338.595 75.6294 340.67 77.2843C342.495 78.7371 344.281 80.2326 346.027 81.7697Z" fill="white"/>
<path d="M340.929 95.9744L340.842 96.1211C334.507 96.8688 328.225 98.0123 322.033 99.5456L321.9 99.4923C323.386 95.7408 324.871 92.0165 326.364 88.3989C331.389 90.5813 336.257 93.1125 340.929 95.9744Z" fill="white"/>
<path d="M337.677 84.1878L337.431 84.4742C332.11 83.9942 326.754 84.0881 321.453 84.7537C322.947 81.2694 324.351 77.7377 325.711 74.2129C327.829 75.9121 329.932 77.6316 332.021 79.3702C332.807 80.023 333.58 80.6764 334.359 81.3436C335.472 82.2753 336.578 83.2284 337.677 84.1878Z" fill="white"/>
<path d="M318.102 109.107C318.474 108.161 318.85 107.212 319.228 106.262L319.261 106.275C320.428 111.446 322.58 116.344 325.6 120.7L325.56 120.847C321.843 119.78 318.02 119.123 314.16 118.888C315.476 115.69 316.789 112.412 318.102 109.107Z" fill="white"/>
<path d="M319.228 106.262C318.848 107.214 318.473 108.163 318.101 109.107L318.035 109.081C315.843 107.328 313.87 106.056 311.678 104.303C313.524 101.225 315.23 98.0598 316.829 94.8347L316.862 94.855C317.755 98.2262 318.646 101.6 319.534 104.976L319.707 105.043C319.547 105.45 319.387 105.857 319.228 106.262Z" fill="white"/>
<path d="M293.189 354.437C294.773 354.438 296.333 354.822 297.736 355.558C299.139 356.293 300.343 357.358 301.244 358.66C302.146 359.963 302.717 361.465 302.911 363.038C303.105 364.609 302.914 366.205 302.356 367.688C301.798 369.17 300.889 370.495 299.706 371.549C298.523 372.603 297.103 373.355 295.566 373.739C294.029 374.124 292.422 374.131 290.883 373.758C289.343 373.386 287.917 372.646 286.726 371.601C288.061 369.624 288.63 367.227 288.324 364.861C288.019 362.495 286.861 360.321 285.067 358.747C285.965 357.42 287.175 356.333 288.591 355.582C290.007 354.83 291.586 354.437 293.189 354.437Z" fill="#171717"/>
<path d="M290.453 215.921C291.826 216.914 292.427 218.713 292.398 220.412C292.362 221.889 292.051 223.347 291.479 224.709V224.716C290.073 224.529 288.674 224.345 287.282 224.163C276.108 222.743 264.668 222.211 253.54 223.723L253.527 223.617C251.615 221.944 252.481 218.546 254.553 217.067C256.58 215.621 259.217 215.487 261.716 215.434H261.876L279.612 215.075L285.523 214.955C287.226 214.921 289.067 214.921 290.453 215.921Z" fill="white"/>
<path d="M283.388 364.231C283.387 365.627 283.684 367.006 284.26 368.277C284.835 369.548 285.676 370.681 286.726 371.6C285.612 373.25 284.021 374.521 282.167 375.245C280.312 375.968 278.281 376.109 276.345 375.65C274.407 375.191 272.656 374.152 271.324 372.673C269.992 371.193 269.142 369.344 268.887 367.369C268.632 365.395 268.985 363.39 269.898 361.621C270.81 359.852 272.241 358.403 273.997 357.467C275.754 356.531 277.754 356.152 279.732 356.38C281.709 356.609 283.57 357.435 285.067 358.747C283.97 360.366 283.385 362.276 283.388 364.231Z" fill="white"/>
<path d="M209.875 394.848L273.799 389.251C271.628 411.585 256.763 431.707 237.154 442.628C217.478 453.582 193.658 455.814 171.59 451.35C168.657 450.757 165.54 449.937 163.595 447.658C161.236 444.907 161.289 440.882 161.549 437.258C161.995 430.915 162.668 424.587 163.568 418.276C163.981 415.37 164.614 412.206 166.133 409.787C166.859 408.577 167.879 407.572 169.098 406.862C171.717 405.362 174.935 405.596 177.951 405.609C189.453 405.632 200.656 401.942 209.894 395.088L209.875 394.848Z" fill="#171717"/>
<path d="M270.342 196.725L270.068 196.812C269.105 197.05 268.262 197.634 267.698 198.451C267.135 199.269 266.89 200.264 267.01 201.25C266.746 201.071 266.508 200.856 266.304 200.61C265.118 199.184 264.998 197.085 265.604 195.333C266.301 193.603 267.403 192.066 268.816 190.849C268.515 191.875 268.498 192.963 268.766 193.998C269.035 195.033 269.58 195.976 270.342 196.725Z" fill="#171717"/>
<path d="M268.123 111.239L267.916 111.746C264.255 111.745 260.601 112.026 256.983 112.585L256.977 112.518C258.323 108.387 260.651 104.642 263.759 101.604L263.833 101.571C265.265 104.77 266.69 107.981 268.123 111.239Z" fill="white"/>
<path d="M260.454 93.9952L260.334 94.0485C254.912 92.6581 249.763 90.3648 245.102 87.2656L245.076 87.0928C249.003 86.4304 252.98 86.1024 256.963 86.113C258.129 88.7648 259.292 91.3925 260.454 93.9952Z" fill="white"/>
<path d="M258.548 159.878L258.562 160.252C257.135 160.292 255.709 160.334 254.284 160.379C253.891 156.748 249.726 153.969 246.089 154.362C247.226 153.636 248.525 153.202 249.87 153.1C251.215 152.998 252.565 153.23 253.799 153.776C255.033 154.323 256.112 155.166 256.941 156.23C257.77 157.295 258.322 158.549 258.548 159.878Z" fill="#171717"/>
<path d="M254.31 164.776L254.037 164.783C252.472 164.528 250.867 164.712 249.401 165.315C247.933 165.917 246.662 166.915 245.729 168.196C245.632 167.079 245.782 165.955 246.167 164.903C246.553 163.851 247.165 162.896 247.961 162.106C249.467 160.627 251.679 160.3 253.791 160.48C253.917 160.487 254.037 160.5 254.164 160.514L254.231 160.82L254.31 164.776Z" fill="#171717"/>
<path d="M253.797 160.392C253.957 160.386 254.123 160.386 254.283 160.379C255.709 160.332 257.135 160.29 258.561 160.252C264.165 160.086 269.766 159.924 275.365 159.766C279.636 159.639 284 159.499 287.985 157.96C291.969 156.421 295.561 153.196 296.347 149L296.42 148.92C297.172 149.57 297.759 150.389 298.132 151.31C298.506 152.23 298.655 153.227 298.569 154.217C298.483 155.207 298.163 156.162 297.635 157.004C297.107 157.846 296.387 158.551 295.534 159.061L295.927 159.094C299.145 158.988 302.361 158.883 305.575 158.781L305.842 158.941C306.022 162.286 303.403 165.271 300.325 166.597C297.839 167.67 295.101 167.89 292.37 167.943C291.73 167.949 291.083 167.956 290.444 167.956C285.127 167.97 279.81 167.981 274.493 167.989C271.434 167.996 268.183 168.056 265.618 169.728C262.779 171.581 261.404 175.066 261.04 178.437C260.676 181.808 261.127 185.213 261.087 188.605C261.074 189.291 261.04 189.984 260.98 190.677C260.721 193.397 259.954 196.087 258.207 198.143C256.008 200.722 251.717 202.521 248.945 200.568C252.23 199.283 253.212 195.165 253.585 191.654C254.518 182.732 254.478 173.743 254.311 164.774L254.231 160.816L254.164 160.509C254.038 160.496 253.918 160.483 253.791 160.476L253.797 160.392Z" fill="#171717"/>
<path d="M245.769 96.3946C246.462 97.4708 246.878 98.7028 246.979 99.9796C247.078 101.257 246.86 102.539 246.342 103.71C245.264 106.058 243.328 107.904 240.931 108.868C238.972 109.694 236.687 109.96 234.715 109.154C231.515 107.848 229.951 103.817 230.875 100.492C232.549 94.5071 241.547 90.2778 245.769 96.3946Z" fill="white"/>
<path d="M230.943 121.174L231.164 121.567C227.362 123.73 223.764 126.235 220.416 129.05L220.003 128.55C217.984 125.099 215.812 121.742 213.486 118.482L213.507 118.469C219.395 118.789 225.236 119.695 230.943 121.174Z" fill="white"/>
<path d="M214.439 99.7253L214.573 99.912C213.619 105.049 212.665 110.189 211.708 115.33L211.361 115.59C209.428 113.038 207.407 110.562 205.298 108.161L205.118 107.635C207.993 104.737 211.111 102.09 214.439 99.7253Z" fill="white"/>
<path d="M194.537 331.376L194.018 331.623C175.941 333.229 157.351 336.547 139.501 338.579C138.841 327.925 138.179 317.268 137.516 306.61C153.947 304.578 169.911 301.912 186.861 299.73L187.315 299.723C187.491 310.662 189.95 321.444 194.537 331.376Z" fill="#171717"/>
<path d="M173.562 158.433L180.591 164.623L180.445 164.79C177.842 167.104 175.79 169.973 174.442 173.185L174.189 173.072C173.538 168.221 173.327 163.322 173.562 158.433Z" fill="white"/>
<path d="M165.041 150.944L170.164 155.449C166.214 155.212 162.274 156.038 158.751 157.841C160.083 154.869 162.08 152.13 165.041 150.944Z" fill="white"/>
<path d="M169.411 195.852L169.491 195.886C168.339 198.771 166.353 201.389 163.515 202.569L163.215 202.495C161.662 201.435 160.127 200.349 158.611 199.237L158.717 199.084C162.484 198.848 166.144 197.741 169.411 195.852Z" fill="white"/>
<path d="M167.212 175.836C167.423 176.812 167.322 177.829 166.923 178.744C166.523 179.659 165.846 180.425 164.987 180.933C164.106 181.398 163.088 181.537 162.114 181.324C161.14 181.113 160.273 180.564 159.663 179.774C158.731 178.455 158.717 176.649 159.263 175.13C160.85 170.693 166.24 171.386 167.212 175.836Z" fill="white"/>
<path d="M150.648 462.611C147.81 465.869 144.305 468.727 140.281 469.673L140.227 469.413C133.724 466.495 126.861 462.204 125.249 455.261C123.963 449.731 126.402 444.088 128.787 438.93C131.56 432.94 134.33 426.952 137.095 420.967C139.621 415.51 142.506 409.573 148.369 408.241L148.382 408.161C154.366 409.14 160.969 412.452 166.119 409.78L166.132 409.787C164.613 412.205 163.98 415.37 163.567 418.275C162.668 424.578 161.995 430.906 161.548 437.258C161.289 440.884 161.235 444.907 163.594 447.658L163.374 447.844C159.936 450.236 157.411 453.614 154.925 457.026C153.946 458.372 152.98 459.724 151.961 461.026C151.541 461.558 151.101 462.091 150.648 462.611Z" fill="white"/>
<path d="M144.427 187.856C146.179 186.819 147.741 185.49 149.044 183.925L149.244 184.092C149.051 186.85 149.237 189.62 149.797 192.327L149.75 192.38C147.943 190.908 146.169 189.4 144.427 187.856Z" fill="white"/>
<path d="M138.849 129.563C139.788 130.875 140.73 132.187 141.675 133.5C140.228 135.857 138.499 138.027 136.524 139.964L136.465 139.904C137.244 136.466 138.024 133.03 138.803 129.596L138.849 129.563Z" fill="white"/>
<path d="M135.303 124.625L135.237 124.671C132.645 124.725 130.058 124.88 127.475 125.138L127.421 125.091C128.981 123.316 130.345 121.377 131.486 119.308L135.303 124.625Z" fill="white"/>
<path d="M129.7 134.999C129.939 135.726 129.93 136.512 129.675 137.233C129.419 137.954 128.931 138.57 128.287 138.984C127.622 139.361 126.842 139.481 126.094 139.32C125.347 139.16 124.684 138.729 124.234 138.111C123.786 137.354 123.59 136.474 123.675 135.599C123.684 134.872 123.876 134.16 124.234 133.527C125.675 131.215 129.001 132.927 129.7 134.999Z" fill="white"/>
<path d="M124.703 147.413L124.73 147.493C122.603 148.277 120.391 148.804 118.14 149.065C117.413 147.38 116.721 145.681 116.074 143.968L116.114 143.955C118.979 145.107 121.842 146.26 124.703 147.413Z" fill="white"/>
<path d="M117.573 132.647L117.634 132.774C116.634 134.886 115.637 137.001 114.642 139.117L114.389 139.204C113.849 137.572 113.342 135.929 112.869 134.274C114.49 133.899 116.067 133.354 117.573 132.647Z" fill="white"/>
<path d="M94.832 242.273C94.9653 244.359 95.0987 246.437 95.232 248.523C92.904 250.059 90.3408 251.204 87.6432 251.915L87.5899 251.715C90.1643 248.697 92.5776 245.546 94.8192 242.275L94.832 242.273Z" fill="white"/>
<path d="M93.8731 227.375C94 229.327 94.1243 231.279 94.2464 233.231L94.1664 233.238C91.8731 232.532 89.4427 231.972 87.2635 230.972L87.2235 230.846C90.4485 229.847 93.3669 228.567 93.8731 227.375Z" fill="white"/>
<path d="M75.2635 239.055C78.2421 236.53 84.7317 238.049 82.4464 242.913C82.024 243.701 81.4005 244.363 80.6405 244.833C79.88 245.304 79.0091 245.565 78.1152 245.592C76.7093 245.672 75.1904 245.199 74.3707 244.052C73.2917 242.54 73.8443 240.255 75.2635 239.055Z" fill="white"/>
<path d="M69.1072 229.946L69.0203 230.379C66.8683 231.013 64.7163 231.65 62.5643 232.292L62.4443 232.252L64.7829 225.416C65.7792 227.296 67.2757 228.864 69.1072 229.946Z" fill="white"/>
<path d="M59.7259 240.761C61.5915 243.925 63.4523 247.089 65.3093 250.254L65.2427 250.401C62.5712 249.141 60.096 247.503 57.8933 245.537L59.5525 240.699L59.7259 240.761Z" fill="white"/>
<path d="M248.92 200.576C248.927 200.571 248.937 200.568 248.947 200.569C252.231 199.283 253.213 195.166 253.587 191.655C254.519 182.732 254.479 173.744 254.313 164.775L254.233 160.817" stroke="#171717" stroke-width="3.748" stroke-linecap="round" stroke-linejoin="round"/>
<path d="M253.797 160.392C253.957 160.385 254.124 160.385 254.284 160.378C255.71 160.332 257.136 160.29 258.562 160.252C264.165 160.085 269.766 159.923 275.365 159.765C279.636 159.639 284.001 159.499 287.985 157.96C291.97 156.42 295.561 153.196 296.347 149" stroke="#171717" stroke-width="3.748" stroke-linecap="round" stroke-linejoin="round"/>
<path d="M248.946 200.57C251.719 202.522 256.009 200.723 258.208 198.145C259.954 196.086 260.72 193.394 260.981 190.678C261.041 189.985 261.075 189.291 261.088 188.606C261.128 185.214 260.668 181.81 261.041 178.438C261.414 175.067 262.78 171.582 265.619 169.73C268.184 168.057 271.435 167.997 274.494 167.99C279.811 167.977 285.128 167.966 290.445 167.957C291.085 167.957 291.731 167.95 292.371 167.944C295.102 167.891 297.841 167.671 300.326 166.598C303.404 165.272 306.023 162.287 305.843 158.942" stroke="#171717" stroke-width="3.748" stroke-linecap="round" stroke-linejoin="round"/>
<path d="M295.927 159.094C299.146 158.987 302.362 158.883 305.575 158.781" stroke="#171717" stroke-width="3.748" stroke-linecap="round" stroke-linejoin="round"/>
<path d="M295.534 159.06C296.388 158.55 297.107 157.845 297.635 157.003C298.163 156.161 298.483 155.205 298.57 154.216C298.656 153.226 298.506 152.229 298.133 151.308C297.759 150.387 297.172 149.568 296.42 148.918C296.404 148.901 296.386 148.885 296.367 148.872" stroke="#171717" stroke-width="3.748" stroke-linecap="round" stroke-linejoin="round"/>
<path d="M254.293 160.405C254.294 160.396 254.292 160.386 254.286 160.379C253.893 156.748 249.729 153.969 246.091 154.362C247.228 153.636 248.527 153.202 249.873 153.1C251.218 152.998 252.568 153.23 253.802 153.776C255.035 154.323 256.115 155.166 256.943 156.23C257.772 157.295 258.324 158.549 258.551 159.878" stroke="#171717" stroke-width="3.748" stroke-linecap="round" stroke-linejoin="round"/>
<path d="M254.164 160.511C254.037 160.498 253.917 160.485 253.79 160.478C251.678 160.299 249.466 160.625 247.96 162.104C247.165 162.894 246.553 163.849 246.167 164.901C245.781 165.954 245.631 167.078 245.728 168.194C246.662 166.913 247.933 165.916 249.4 165.313C250.867 164.71 252.471 164.526 254.037 164.781" stroke="#171717" stroke-width="3.748" stroke-linecap="round" stroke-linejoin="round"/>
<path d="M286.759 171.446C283.826 171.374 280.905 171.837 278.137 172.812C279.623 178.734 280.442 184.804 280.576 190.908C279.25 191.062 277.924 191.222 276.598 191.375" stroke="#171717" stroke-width="3.748" stroke-linecap="round" stroke-linejoin="round"/>
<path d="M268.655 177.769C270.228 177.455 271.794 177.149 273.359 176.836" stroke="#171717" stroke-width="3.748" stroke-linecap="round" stroke-linejoin="round"/>
<path d="M282.055 177.043C283.618 176.722 285.236 176.804 286.758 177.283" stroke="#171717" stroke-width="3.748" stroke-linecap="round" stroke-linejoin="round"/>
<path d="M276.865 197.707C275.852 198.192 274.722 198.377 273.608 198.241C272.494 198.105 271.442 197.655 270.575 196.941C270.495 196.875 270.415 196.801 270.342 196.728C269.58 195.978 269.035 195.035 268.766 194.001C268.498 192.965 268.515 191.877 268.816 190.851C267.403 192.068 266.301 193.605 265.604 195.336C264.998 197.088 265.118 199.187 266.304 200.612C266.508 200.858 266.746 201.073 267.01 201.252C268.269 202.152 270.089 202.285 271.261 201.299" stroke="#171717" stroke-width="3.748" stroke-linecap="round" stroke-linejoin="round"/>
<path d="M267.01 201.269V201.249C266.89 200.264 267.135 199.268 267.698 198.451C268.261 197.633 269.105 197.05 270.068 196.811" stroke="#171717" stroke-width="3.748" stroke-linecap="round" stroke-linejoin="round"/>
<path d="M261 190.675C261.533 198.898 261.771 207.131 261.713 215.375" stroke="#171717" stroke-width="3.748" stroke-linecap="round" stroke-linejoin="round"/>
<path d="M292.37 167.875V167.941C292.223 176.163 291.885 184.374 291.356 192.574C291.156 195.668 290.817 199.018 288.677 201.256C286.912 203.102 284.246 203.808 282.261 205.427C280.909 206.57 279.932 208.095 279.459 209.802C278.986 211.509 279.038 213.318 279.609 214.995" stroke="#171717" stroke-width="3.748" stroke-linecap="round" stroke-linejoin="round"/>
<path d="M253.524 223.617C251.612 221.944 252.478 218.546 254.55 217.067C256.577 215.621 259.214 215.487 261.713 215.434H261.873L279.61 215.075L285.52 214.955C287.227 214.921 289.064 214.921 290.451 215.921C291.823 216.914 292.424 218.713 292.396 220.412C292.359 221.889 292.047 223.347 291.476 224.709" stroke="#171717" stroke-width="3.748" stroke-linecap="round" stroke-linejoin="round"/>
<path d="M208.849 352.045C202.902 346.049 198.058 339.053 194.537 331.377C189.95 321.443 187.49 310.661 187.315 299.721C187.196 293.087 187.958 286.466 189.58 280.032C190.534 276.28 191.794 272.612 193.345 269.065C202.153 248.856 220.043 232.612 241.231 226.328C245.259 225.143 249.374 224.272 253.538 223.724C264.665 222.211 276.105 222.744 287.279 224.163C288.671 224.343 290.07 224.527 291.476 224.716C299.705 225.809 308.063 226.796 315.943 224.436C328.542 220.665 337.391 208.798 341.135 196.192C344.874 183.605 344.3 169.587 343.761 156.459V156.405" stroke="#171717" stroke-width="3.748" stroke-linecap="round" stroke-linejoin="round"/>
<path d="M208.849 352.045C210.194 351.607 211.499 351.059 212.754 350.406C218.85 347.203 223.591 341.915 226.113 335.507C226.719 333.996 227.187 332.433 227.512 330.837" stroke="#171717" stroke-width="3.748" stroke-linecap="round" stroke-linejoin="round"/>
<path d="M227.512 330.837C226.513 329.87 225.566 328.851 224.667 327.791C217.218 318.904 213.367 307.548 213.873 295.963C213.96 294.038 214.178 292.122 214.526 290.226C216.604 279.448 222.465 269.767 231.05 262.928C234.109 260.468 237.484 258.428 241.085 256.865" stroke="#171717" stroke-width="3.748" stroke-linecap="round" stroke-linejoin="round"/>
<path d="M343.727 156.48C343.741 156.473 343.747 156.467 343.761 156.46C353.962 151.07 367.394 149.846 378.282 153.661" stroke="#171717" stroke-width="3.748" stroke-linecap="round" stroke-linejoin="round"/>
<path d="M378.282 153.662C375.17 178.108 372.059 202.557 368.948 227.008C368.069 233.91 367.028 241.195 362.692 246.635C358.521 251.865 351.964 254.524 345.595 256.582C336.763 259.441 327.71 261.566 318.53 262.939" stroke="#171717" stroke-width="3.748" stroke-linecap="round" stroke-linejoin="round"/>
<path d="M318.009 262.667C318.022 262.773 318.028 262.88 318.042 262.987L324.32 328.751" stroke="#171717" stroke-width="3.748" stroke-linecap="round" stroke-linejoin="round"/>
<path d="M324.32 328.751C322.167 329.498 320.022 330.237 317.87 330.977C316.437 331.476 314.998 331.97 313.566 332.462" stroke="#171717" stroke-width="3.748" stroke-linecap="round" stroke-linejoin="round"/>
<path d="M349.197 153.736C347.351 147.619 345.5 141.503 343.974 135.3C343.541 133.52 343.141 131.62 343.641 129.883C343.68 129.742 343.727 129.604 343.781 129.469C344.401 127.863 345.773 126.711 347.301 125.858C347.654 125.665 348.014 125.485 348.374 125.318C350.713 124.238 353.218 123.56 355.783 123.313C357.409 123.159 359.267 123.273 360.333 124.512C360.393 124.586 360.453 124.659 360.507 124.739C360.851 125.298 361.043 125.938 361.066 126.594C361.087 127.251 360.939 127.901 360.634 128.483C359.945 129.72 358.922 130.739 357.682 131.422C356.262 132.288 354.55 133.128 354.137 134.74C353.857 135.839 354.277 136.972 354.697 138.024C355.949 141.203 357.204 144.383 358.461 147.566L358.961 148.825" stroke="#171717" stroke-width="3.748" stroke-linecap="round" stroke-linejoin="round"/>
<path d="M384.844 124.252C386.818 121.959 386.444 118.742 382.018 118.142C381.455 118.061 380.886 118.03 380.319 118.049C379.489 118.06 378.662 118.158 377.853 118.342C377.376 118.452 376.906 118.592 376.447 118.762C375.528 119.084 374.652 119.52 373.842 120.061C372.868 120.691 371.998 121.469 371.264 122.367C371.224 122.407 371.19 122.447 371.157 122.486C370.244 123.626 369.551 125.299 370.391 126.498C371.07 127.477 372.436 127.644 373.629 127.637C374.076 127.637 374.522 127.624 374.969 127.59C377.372 127.449 379.743 126.966 382.011 126.158C383.105 125.78 384.082 125.123 384.844 124.252Z" stroke="#171717" stroke-width="3.748" stroke-linecap="round" stroke-linejoin="round"/>
<path d="M374.977 127.683C373.171 128.263 372.058 130.315 372.305 132.201C372.469 133.138 372.87 134.018 373.469 134.757C374.068 135.497 374.846 136.071 375.73 136.425C375.93 136.505 376.123 136.578 376.329 136.638C377.961 137.107 379.695 137.082 381.313 136.565C382.309 136.265 383.253 135.813 384.111 135.226C385.477 134.314 386.527 133.001 387.117 131.468C388.029 128.961 387.236 125.804 384.983 124.372" stroke="#171717" stroke-width="3.748" stroke-linecap="round" stroke-linejoin="round"/>
<path d="M376.316 136.678C374.943 137.323 373.738 138.273 372.791 139.456C371.922 140.504 371.457 141.829 371.478 143.19C371.493 143.51 371.545 143.828 371.632 144.136C372.318 146.528 375.045 147.801 377.529 147.847C378.952 147.864 380.364 147.59 381.677 147.042C382.991 146.494 384.18 145.685 385.171 144.662C385.854 143.995 386.4 143.198 386.775 142.319C387.15 141.439 387.348 140.495 387.357 139.539C387.277 137.633 386.005 135.727 384.153 135.281" stroke="#171717" stroke-width="3.748" stroke-linecap="round" stroke-linejoin="round"/>
<path d="M358.606 147.506C362.378 145.03 366.714 143.548 371.212 143.195" stroke="#171717" stroke-width="3.748" stroke-linecap="round" stroke-linejoin="round"/>
<path d="M343.514 129.842C338.147 125.742 332.055 122.69 325.557 120.847C321.84 119.78 318.018 119.123 314.157 118.888C315.476 115.688 316.789 112.412 318.104 109.107C318.477 108.161 318.852 107.212 319.23 106.262L319.71 105.043C320.443 103.19 321.169 101.338 321.902 99.4923C323.388 95.7408 324.874 92.0165 326.366 88.3989" stroke="#171717" stroke-width="3.748" stroke-linecap="round" stroke-linejoin="round"/>
<path d="M326.364 88.3984C331.389 90.5798 336.257 93.1104 340.929 95.9718C352.407 102.984 362.626 111.874 371.159 122.27" stroke="#171717" stroke-width="3.748" stroke-linecap="round" stroke-linejoin="round"/>
<path d="M318.035 109.081C315.843 107.328 313.87 106.055 311.678 104.303C313.524 101.225 315.23 98.0597 316.829 94.8347C318.475 91.528 320 88.1584 321.453 84.7547C322.946 81.2704 324.351 77.7387 325.711 74.2139" stroke="#171717" stroke-width="3.748" stroke-linecap="round" stroke-linejoin="round"/>
<path d="M325.711 74.2129C327.829 75.9121 329.933 77.6316 332.021 79.3702C332.807 80.023 333.58 80.6764 334.36 81.3436C335.472 82.2764 336.578 83.2294 337.677 84.1889C350.517 95.3286 362.6 107.313 373.844 120.062L373.851 120.069" stroke="#171717" stroke-width="3.748" stroke-linecap="round" stroke-linejoin="round"/>
<path d="M332.147 79.2176C332.873 76.9776 333.597 74.7365 334.319 72.4944C336.477 74.0336 338.594 75.6304 340.669 77.2853C342.495 78.7376 344.281 80.2325 346.026 81.7696C346.565 82.2426 347.098 82.7157 347.626 83.1952C358.998 93.4704 368.713 105.443 376.426 118.689" stroke="#171717" stroke-width="3.748" stroke-linecap="round" stroke-linejoin="round"/>
<path d="M340.689 77.2582C341.988 75.0326 343.341 73.0603 344.64 70.8347C346.793 72.807 348.874 74.8417 350.883 76.9382C353.095 79.2368 355.214 81.6048 357.24 84.0411C357.593 84.4608 357.946 84.8945 358.293 85.3211C366.369 95.2673 372.956 106.334 377.849 118.174" stroke="#171717" stroke-width="3.748" stroke-linecap="round" stroke-linejoin="round"/>
<path d="M351.197 76.6314L357.353 72.9338C360.245 76.9584 362.946 81.0848 365.455 85.3136C371.572 95.593 376.554 106.507 380.314 117.862" stroke="#171717" stroke-width="3.748" stroke-linecap="round" stroke-linejoin="round"/>
<path d="M220.363 129.089C220.383 129.076 220.396 129.062 220.416 129.049C223.764 126.234 227.362 123.73 231.164 121.566C239.147 117.017 247.899 113.973 256.982 112.585C260.6 112.026 264.255 111.746 267.916 111.746H268.022" stroke="#171717" stroke-width="3.748" stroke-linecap="round" stroke-linejoin="round"/>
<path d="M220.003 128.55C217.984 125.098 215.812 121.742 213.486 118.482C212.787 117.509 212.079 116.545 211.361 115.59C209.428 113.038 207.407 110.562 205.298 108.161" stroke="#171717" stroke-width="3.748" stroke-linecap="round" stroke-linejoin="round"/>
<path d="M268.123 111.239C266.69 107.981 265.265 104.77 263.832 101.572C262.706 99.0463 261.58 96.5279 260.454 93.9983C259.288 91.3924 258.124 88.7652 256.963 86.1162C256.963 86.1098 256.956 86.1028 256.956 86.0964" stroke="#171717" stroke-width="3.748" stroke-linecap="round" stroke-linejoin="round"/>
<path d="M205.12 107.635C207.995 104.736 211.114 102.09 214.442 99.7253C223.569 93.257 234.042 88.9386 245.076 87.0933C249.003 86.4309 252.98 86.1029 256.963 86.1135H257.049" stroke="#171717" stroke-width="3.748" stroke-linecap="round" stroke-linejoin="round"/>
<path d="M163.515 202.568C166.353 201.389 168.339 198.77 169.491 195.885C169.678 195.419 169.844 194.946 169.991 194.472C171.03 191.048 171.15 187.437 171.603 183.892C172.034 180.206 172.989 176.6 174.442 173.185C175.79 169.973 177.842 167.104 180.445 164.789" stroke="#171717" stroke-width="3.748" stroke-linecap="round" stroke-linejoin="round"/>
<path d="M163.215 202.495C161.662 201.435 160.128 200.349 158.611 199.237C155.586 197.045 152.631 194.759 149.749 192.38C147.943 190.908 146.169 189.4 144.425 187.856" stroke="#171717" stroke-width="3.748" stroke-linecap="round" stroke-linejoin="round"/>
<path d="M144.427 187.857C146.179 186.82 147.741 185.49 149.044 183.926C152.116 180.315 154.095 175.557 155.287 171C156.267 167.262 156.693 163.377 157.993 159.733C158.219 159.1 158.466 158.467 158.752 157.841C160.085 154.869 162.084 152.13 165.042 150.944" stroke="#171717" stroke-width="3.748" stroke-linecap="round" stroke-linejoin="round"/>
<path d="M180.711 164.723C180.673 164.687 180.633 164.654 180.591 164.623L173.562 158.433C172.429 157.441 171.297 156.445 170.164 155.446L165.041 150.942" stroke="#171717" stroke-width="3.748" stroke-linecap="round" stroke-linejoin="round"/>
<path d="M95.2325 248.523C95.0992 246.437 94.9659 244.359 94.8325 242.273C94.6395 239.261 94.4464 236.247 94.2533 233.231H94.2464C94.1264 231.279 94.0021 229.327 93.8731 227.375" stroke="#171717" stroke-width="3.748" stroke-linecap="round" stroke-linejoin="round"/>
<path d="M93.8731 227.374C93.3669 228.567 90.4485 229.846 87.2235 230.846C83.6256 231.958 79.6501 232.725 78.2101 232.625C75.0069 232.464 71.888 231.546 69.1088 229.946C67.2768 228.863 65.7803 227.294 64.7845 225.413" stroke="#171717" stroke-width="3.748" stroke-linecap="round" stroke-linejoin="round"/>
<path d="M64.7829 225.416L62.4443 232.252C61.4779 235.07 60.5136 237.886 59.5525 240.7L57.8933 245.538" stroke="#171717" stroke-width="3.748" stroke-linecap="round" stroke-linejoin="round"/>
<path d="M57.8933 245.538C60.096 247.504 62.5712 249.143 65.2427 250.402C68.504 251.927 72.0235 252.827 75.6171 253.054C79.6613 253.35 83.7269 252.965 87.6437 251.915C90.3408 251.204 92.904 250.059 95.2325 248.523" stroke="#171717" stroke-width="3.748" stroke-linecap="round" stroke-linejoin="round"/>
<path d="M118.14 149.067C117.413 147.381 116.721 145.683 116.074 143.97C115.481 142.391 114.915 140.805 114.389 139.206C113.849 137.574 113.342 135.93 112.869 134.276" stroke="#171717" stroke-width="3.748" stroke-linecap="round" stroke-linejoin="round"/>
<path d="M112.869 134.273C114.49 133.899 116.067 133.354 117.573 132.647C121.338 130.828 124.689 128.256 127.421 125.091C128.981 123.316 130.345 121.377 131.486 119.308" stroke="#171717" stroke-width="3.748" stroke-linecap="round" stroke-linejoin="round"/>
<path d="M118.14 149.067C120.391 148.806 122.603 148.278 124.73 147.495C129.156 145.863 133.179 143.295 136.523 139.966C138.497 138.029 140.227 135.859 141.674 133.503C141.68 133.489 141.687 133.483 141.693 133.469" stroke="#171717" stroke-width="3.748" stroke-linecap="round" stroke-linejoin="round"/>
<path d="M141.766 133.633C141.733 133.59 141.702 133.546 141.674 133.5C140.727 132.187 139.785 130.875 138.847 129.562C137.668 127.916 136.486 126.27 135.302 124.625L131.485 119.308" stroke="#171717" stroke-width="3.748" stroke-linecap="round" stroke-linejoin="round"/>
<path d="M226.525 335.675C231.458 337.049 236.636 337.298 241.677 336.401C242.497 336.2 243.343 336.13 244.184 336.194C244.605 336.232 245.007 336.383 245.349 336.631C245.691 336.878 245.961 337.213 246.128 337.601C246.527 338.78 245.568 339.966 244.602 340.747C242.772 342.199 240.65 343.236 238.38 343.788C236.111 344.341 233.748 344.395 231.456 343.947" stroke="#171717" stroke-width="3.748" stroke-linecap="round" stroke-linejoin="round"/>
<path d="M231.456 343.943C236.583 348.02 241.323 352.56 245.615 357.509C246.383 358.283 247 359.194 247.434 360.194C247.684 360.684 247.783 361.237 247.721 361.783C247.658 362.329 247.436 362.845 247.082 363.265C246.728 363.686 246.258 363.994 245.731 364.149C245.203 364.305 244.642 364.302 244.116 364.141C243.071 363.879 242.086 363.418 241.218 362.781C237.367 360.259 233.847 357.267 230.737 353.875C229.624 352.655 228.564 351.389 227.578 350.084C227.471 349.95 227.379 349.823 227.278 349.691" stroke="#171717" stroke-width="3.748" stroke-linecap="round" stroke-linejoin="round"/>
<path d="M227.346 349.813C227.426 349.9 227.499 349.993 227.579 350.08C228.665 351.332 229.712 352.599 230.737 353.871C233.462 357.249 236.041 360.661 238.959 363.992C239.798 364.837 240.468 365.834 240.932 366.93C241.325 368.05 241.212 369.429 240.346 370.242C239.937 370.579 239.448 370.807 238.926 370.901C238.405 370.995 237.868 370.954 237.367 370.781C236.365 370.429 235.444 369.881 234.655 369.169C229.588 365.071 225.399 359.992 222.342 354.236" stroke="#171717" stroke-width="3.748" stroke-linecap="round" stroke-linejoin="round"/>
<path d="M212.767 350.426C216.607 359.076 221.746 367.089 228.005 374.187C229.011 375.327 230.697 376.52 231.883 375.567C232.496 375.081 232.636 374.221 232.676 373.441C232.794 370.717 232.131 368.017 230.764 365.659" stroke="#171717" stroke-width="3.748" stroke-linecap="round" stroke-linejoin="round"/>
<path d="M231.103 262.995C251.679 260.27 270.997 257.678 291.563 254.946C296.947 254.233 302.917 253.653 307.35 256.785C313.404 261.067 313.547 269.824 313.204 277.227C313.131 278.873 313.058 280.525 312.998 282.171C312.558 293.605 312.434 305.047 312.625 316.499C312.711 321.829 312.869 327.157 313.098 332.483C313.538 342.977 314.244 353.455 315.217 363.919C315.79 370.095 316.216 377.051 312.118 381.709C309.307 384.909 305.102 386.146 300.785 386.779C299.325 386.992 297.851 387.139 296.42 387.266C288.878 387.925 281.338 388.587 273.799 389.251L209.875 394.848C194.117 396.235 178.362 397.616 162.609 398.992C157.051 399.479 150.762 399.732 146.697 395.914C143.053 392.49 142.513 386.986 142.199 381.994C141.3 367.523 140.401 353.052 139.501 338.581C138.841 327.926 138.179 317.27 137.516 306.612C137.282 302.907 137.051 299.2 136.822 295.491C136.436 289.275 136.403 282.125 141.04 277.961C143.951 275.342 148.036 274.596 151.9 273.983C165.593 271.831 179.349 270.167 193.171 268.992" stroke="#171717" stroke-width="3.748" stroke-linecap="round" stroke-linejoin="round"/>
<path d="M209.895 395.087C200.658 401.941 189.455 405.631 177.953 405.608C174.934 405.595 171.716 405.361 169.099 406.861C167.881 407.57 166.86 408.577 166.134 409.786C164.615 412.205 163.982 415.369 163.569 418.274C162.669 424.577 161.996 430.905 161.55 437.257C161.29 440.884 161.237 444.906 163.596 447.657C165.541 449.936 168.659 450.755 171.591 451.348C193.659 455.813 217.479 453.58 237.155 442.626C256.764 431.706 271.629 411.584 273.801 389.249C273.807 389.183 273.814 389.11 273.821 389.043" stroke="#171717" stroke-width="3.748" stroke-linecap="round" stroke-linejoin="round"/>
<path d="M166.119 409.779C160.969 412.451 154.366 409.139 148.383 408.16C145.564 407.7 142.886 407.753 140.561 409.199C138.342 410.579 136.996 412.964 135.75 415.256C130.266 425.39 125.085 435.682 120.205 446.132C118.879 448.97 117.547 452.043 118.072 455.127C118.645 458.472 121.263 461.044 123.822 463.269C127.773 466.708 132.378 470.065 137.614 469.999C138.513 469.985 139.406 469.876 140.281 469.672C144.305 468.726 147.81 465.868 150.649 462.61C151.101 462.09 151.541 461.557 151.961 461.024C152.98 459.725 153.947 458.372 154.926 457.024C157.411 453.61 159.937 450.235 163.374 447.843" stroke="#171717" stroke-width="3.748" stroke-linecap="round" stroke-linejoin="round"/>
<path d="M317.889 331.037C349.889 363.871 382.166 395.98 414.675 428.302" stroke="#171717" stroke-width="3.748" stroke-linecap="round" stroke-linejoin="round"/>
<path d="M414.675 428.302C413.862 429.562 413.002 430.785 412.096 431.973C406.298 439.512 398.934 445.704 390.511 450.121C382.089 454.539 372.808 457.076 363.31 457.559" stroke="#171717" stroke-width="3.748" stroke-linecap="round" stroke-linejoin="round"/>
<path d="M363.31 457.559C342.934 433.559 322.092 409.966 300.785 386.779L300.605 386.579" stroke="#171717" stroke-width="3.748" stroke-linecap="round" stroke-linejoin="round"/>
<path d="M412.182 432.04C419.451 433.573 427.009 433.946 434.283 432.613C435.959 432.311 437.617 431.913 439.247 431.421C443.012 430.281 447.062 428.754 450.874 428.762C452.665 428.729 454.436 429.146 456.024 429.975C460.237 432.234 462.054 437.477 461.841 442.248C461.488 450.39 456.338 457.719 449.854 462.657C443.371 467.594 435.614 470.532 427.98 473.39C421.697 475.749 415.126 478.148 408.451 477.428C404.889 476.995 401.461 475.805 398.396 473.937C396.083 472.558 393.934 470.92 391.993 469.053C387.469 464.755 383.951 459.545 380.466 454.368C380.446 454.341 380.433 454.315 380.413 454.288" stroke="#171717" stroke-width="3.748" stroke-linecap="round" stroke-linejoin="round"/>
<path d="M398.464 473.823C409.184 471.219 417.893 468.773 428.413 465.442C438.934 462.11 449.213 455.694 453.593 445.573C456.025 439.956 455.905 432.34 450.873 428.855" stroke="#171717" stroke-width="3.748" stroke-linecap="round" stroke-linejoin="round"/>
<path d="M434.303 432.566C434.297 432.58 434.29 432.601 434.284 432.614C431.858 437.925 431.065 443.837 432.005 449.6" stroke="#171717" stroke-width="3.748" stroke-linecap="round" stroke-linejoin="round"/>
<path d="M423.575 433.619C421.22 439.01 420.242 444.901 420.731 450.763C420.817 450.47 420.897 450.183 420.984 449.89" stroke="#171717" stroke-width="3.748" stroke-linecap="round" stroke-linejoin="round"/>
<path d="M415.261 432.894C411.829 438.08 410.23 444.265 410.717 450.464C410.817 450.177 410.91 449.884 411.003 449.598" stroke="#171717" stroke-width="3.748" stroke-linecap="round" stroke-linejoin="round"/>
<path d="M148.369 408.24C142.506 409.574 139.622 415.51 137.095 420.967C134.322 426.957 131.553 432.944 128.787 438.93C126.401 444.087 123.963 449.73 125.249 455.261C126.861 462.203 133.724 466.495 140.227 469.413" stroke="#171717" stroke-width="3.748" stroke-linecap="round" stroke-linejoin="round"/>
<path d="M159.417 451.203C158.313 448.174 156.583 445.412 154.341 443.095C152.099 440.779 149.395 438.96 146.404 437.757" stroke="#171717" stroke-width="3.748" stroke-linecap="round" stroke-linejoin="round"/>
<path d="M154.946 457.087L154.926 457.026C153.861 453.953 152.155 451.142 149.919 448.78C147.683 446.418 144.97 444.559 141.96 443.328" stroke="#171717" stroke-width="3.748" stroke-linecap="round" stroke-linejoin="round"/>
<path d="M150.695 462.736C150.682 462.694 150.667 462.651 150.649 462.61C149.63 459.719 148.022 457.072 145.926 454.835C143.831 452.598 141.293 450.821 138.475 449.617C138.602 449.45 138.722 449.29 138.842 449.124" stroke="#171717" stroke-width="3.748" stroke-linecap="round" stroke-linejoin="round"/>
<path d="M213.867 295.963H213.873C247.181 291.259 279.823 287.261 312.865 282.164" stroke="#171717" stroke-width="3.748" stroke-linecap="round" stroke-linejoin="round"/>
<path d="M137.435 306.617C137.462 306.617 137.489 306.61 137.515 306.61C153.946 304.578 169.91 301.912 186.861 299.73" stroke="#171717" stroke-width="3.748" stroke-linecap="round" stroke-linejoin="round"/>
<path d="M224.774 327.699C253.837 323.908 283.155 320.576 312.551 316.499" stroke="#171717" stroke-width="3.748" stroke-linecap="round" stroke-linejoin="round"/>
<path d="M139.315 338.599L139.501 338.579C157.351 336.547 175.941 333.229 194.018 331.623" stroke="#171717" stroke-width="3.748" stroke-linecap="round" stroke-linejoin="round"/>
<path d="M285.066 358.748C286.791 360.261 287.93 362.331 288.285 364.598C288.64 366.865 288.188 369.184 287.008 371.152C285.828 373.12 283.995 374.611 281.829 375.365C279.662 376.121 277.299 376.091 275.152 375.282C273.005 374.473 271.21 372.937 270.079 370.94C268.949 368.944 268.556 366.613 268.967 364.356C269.379 362.099 270.569 360.058 272.331 358.589C274.093 357.12 276.315 356.315 278.61 356.316C280.986 356.315 283.282 357.18 285.066 358.748Z" stroke="#171717" stroke-width="3.748" stroke-linecap="round" stroke-linejoin="round"/>
<path d="M285.067 358.748C286.381 356.802 288.349 355.393 290.615 354.777C292.881 354.16 295.292 354.378 297.411 355.39C299.529 356.402 301.214 358.141 302.158 360.29C303.103 362.439 303.244 364.856 302.557 367.102C301.87 369.346 300.399 371.27 298.413 372.522C296.427 373.774 294.058 374.272 291.736 373.924C289.414 373.576 287.294 372.407 285.762 370.628C284.23 368.849 283.387 366.579 283.388 364.231C283.388 362.277 283.973 360.367 285.067 358.748Z" stroke="#171717" stroke-width="3.748" stroke-linecap="round" stroke-linejoin="round"/>
<path d="M158.613 157.914C158.659 157.887 158.706 157.867 158.753 157.841C162.275 156.038 166.217 155.212 170.166 155.449C170.193 155.449 170.219 155.455 170.246 155.455" stroke="#171717" stroke-width="3.748" stroke-linecap="round" stroke-linejoin="round"/>
<path d="M173.562 158.353V158.433C173.327 163.321 173.538 168.221 174.189 173.071" stroke="#171717" stroke-width="3.748" stroke-linecap="round" stroke-linejoin="round"/>
<path d="M149.796 192.327C149.236 189.621 149.05 186.85 149.243 184.092" stroke="#171717" stroke-width="3.748" stroke-linecap="round" stroke-linejoin="round"/>
<path d="M158.72 199.084C162.486 198.848 166.147 197.741 169.414 195.852" stroke="#171717" stroke-width="3.748" stroke-linecap="round" stroke-linejoin="round"/>
<path d="M159.263 175.13C158.717 176.649 158.73 178.455 159.663 179.774C160.272 180.564 161.14 181.113 162.114 181.324C163.087 181.537 164.105 181.398 164.987 180.933C165.846 180.425 166.523 179.659 166.922 178.744C167.322 177.829 167.423 176.812 167.212 175.836C166.239 171.386 160.849 170.693 159.263 175.13Z" stroke="#171717" stroke-width="3.748" stroke-linecap="round" stroke-linejoin="round"/>
<path d="M62.5643 232.292C64.7157 231.652 66.8677 231.014 69.0203 230.379" stroke="#171717" stroke-width="3.748" stroke-linecap="round" stroke-linejoin="round"/>
<path d="M65.3088 250.256C63.4496 247.091 61.5888 243.926 59.7253 240.762" stroke="#171717" stroke-width="3.748" stroke-linecap="round" stroke-linejoin="round"/>
<path d="M87.2635 230.972C89.4427 231.972 91.8747 232.531 94.1664 233.238" stroke="#171717" stroke-width="3.748" stroke-linecap="round" stroke-linejoin="round"/>
<path d="M87.5899 251.715C90.1643 248.697 92.5776 245.546 94.8192 242.275" stroke="#171717" stroke-width="3.748" stroke-linecap="round" stroke-linejoin="round"/>
<path d="M75.2635 239.055C73.8443 240.255 73.2901 242.54 74.3707 244.052C75.1904 245.199 76.7093 245.672 78.1152 245.592C79.0085 245.565 79.8795 245.304 80.64 244.833C81.4005 244.363 82.0235 243.701 82.4464 242.913C84.7317 238.049 78.24 236.53 75.2635 239.055Z" stroke="#171717" stroke-width="3.748" stroke-linecap="round" stroke-linejoin="round"/>
<path d="M124.236 133.527C123.878 134.16 123.686 134.872 123.676 135.599C123.592 136.474 123.788 137.354 124.236 138.111C124.686 138.729 125.349 139.16 126.096 139.32C126.844 139.481 127.625 139.361 128.289 138.984C128.933 138.57 129.421 137.954 129.677 137.233C129.932 136.512 129.941 135.726 129.702 134.999C129 132.927 125.675 131.215 124.236 133.527Z" stroke="#171717" stroke-width="3.748" stroke-linecap="round" stroke-linejoin="round"/>
<path d="M114.642 139.117C115.641 136.998 116.638 134.884 117.634 132.774" stroke="#171717" stroke-width="3.748" stroke-linecap="round" stroke-linejoin="round"/>
<path d="M116.114 143.954C118.979 145.107 121.842 146.259 124.701 147.412" stroke="#171717" stroke-width="3.748" stroke-linecap="round" stroke-linejoin="round"/>
<path d="M136.463 139.903C137.243 136.465 138.022 133.029 138.802 129.596" stroke="#171717" stroke-width="3.748" stroke-linecap="round" stroke-linejoin="round"/>
<path d="M127.475 125.139C130.053 124.879 132.641 124.723 135.237 124.672" stroke="#171717" stroke-width="3.748" stroke-linecap="round" stroke-linejoin="round"/>
<path d="M211.708 115.33C212.66 110.193 213.615 105.054 214.573 99.9121" stroke="#171717" stroke-width="3.748" stroke-linecap="round" stroke-linejoin="round"/>
<path d="M213.507 118.469C219.395 118.789 225.236 119.695 230.943 121.174" stroke="#171717" stroke-width="3.748" stroke-linecap="round" stroke-linejoin="round"/>
<path d="M245.102 87.2656C249.763 90.3648 254.912 92.6576 260.333 94.0486" stroke="#171717" stroke-width="3.748" stroke-linecap="round" stroke-linejoin="round"/>
<path d="M263.758 101.605C260.65 104.642 258.323 108.387 256.976 112.519" stroke="#171717" stroke-width="3.748" stroke-linecap="round" stroke-linejoin="round"/>
<path d="M230.877 100.492C229.951 103.817 231.517 107.848 234.717 109.154C236.69 109.96 238.974 109.694 240.933 108.868C243.33 107.904 245.267 106.058 246.344 103.71C246.862 102.539 247.081 101.257 246.981 99.9796C246.881 98.7028 246.465 97.4708 245.771 96.3946C241.547 90.2778 232.549 94.5071 230.877 100.492Z" stroke="#171717" stroke-width="3.748" stroke-linecap="round" stroke-linejoin="round"/>
<path d="M360.751 124.632C361.526 123.509 362.013 122.214 362.169 120.859C362.325 119.504 362.145 118.131 361.644 116.862C360.6 114.318 358.607 112.281 356.087 111.179C354.696 110.525 353.18 110.176 351.643 110.155C350.105 110.134 348.581 110.443 347.172 111.059C345.774 111.704 344.575 112.71 343.697 113.974C342.82 115.238 342.296 116.714 342.181 118.249C342.049 121.314 344.041 124.425 346.972 125.331" stroke="#171717" stroke-width="3.748" stroke-linecap="round" stroke-linejoin="round"/>
<path d="M322.033 99.5461C328.225 98.0128 334.507 96.8688 340.842 96.1216" stroke="#171717" stroke-width="3.748" stroke-linecap="round" stroke-linejoin="round"/>
<path d="M319.261 106.276C320.428 111.446 322.58 116.344 325.6 120.701" stroke="#171717" stroke-width="3.748" stroke-linecap="round" stroke-linejoin="round"/>
<path d="M319.534 104.977C318.648 101.605 317.757 98.2309 316.862 94.8555" stroke="#171717" stroke-width="3.748" stroke-linecap="round" stroke-linejoin="round"/>
<path d="M321.32 84.7676C321.364 84.7596 321.409 84.7553 321.453 84.7542C326.754 84.0881 332.11 83.9942 337.431 84.4748" stroke="#171717" stroke-width="3.748" stroke-linecap="round" stroke-linejoin="round"/>
<path d="M334.513 81.1633C338.304 81.4161 342.1 81.6668 345.9 81.9159" stroke="#171717" stroke-width="3.748" stroke-linecap="round" stroke-linejoin="round"/>
<path d="M347.665 83.1471C350.865 82.937 354.078 83.2564 357.173 84.0932" stroke="#171717" stroke-width="3.748" stroke-linecap="round" stroke-linejoin="round"/>
<path d="M358.253 85.3206H358.293L365.309 85.4006" stroke="#171717" stroke-width="3.748" stroke-linecap="round" stroke-linejoin="round"/>
<path d="M318.774 256.957L321.439 247.08" stroke="#171717" stroke-width="3.748" stroke-linecap="round" stroke-linejoin="round"/>
<path d="M311.405 245.356L321.439 247.08" stroke="#171717" stroke-width="3.748" stroke-linecap="round" stroke-linejoin="round"/>
<path d="M318.774 256.957L311.405 245.356" stroke="#171717" stroke-width="3.748" stroke-linecap="round" stroke-linejoin="round"/>
<path d="M194.608 294.27L199.782 281.885" stroke="#171717" stroke-width="3.748" stroke-linecap="round" stroke-linejoin="round"/>
<path d="M207.15 293.643L199.782 281.885" stroke="#171717" stroke-width="3.748" stroke-linecap="round" stroke-linejoin="round"/>
<path d="M194.608 294.27L207.15 293.643" stroke="#171717" stroke-width="3.748" stroke-linecap="round" stroke-linejoin="round"/>
<path d="M317.833 327.035L321.126 318.727" stroke="#171717" stroke-width="3.748" stroke-linecap="round" stroke-linejoin="round"/>
<path d="M314.07 317.473L321.126 318.728" stroke="#171717" stroke-width="3.748" stroke-linecap="round" stroke-linejoin="round"/>
<path d="M317.833 327.036L314.07 317.473" stroke="#171717" stroke-width="3.748" stroke-linecap="round" stroke-linejoin="round"/>
<path d="M210.089 264.834L216.204 269.185" stroke="#171717" stroke-width="3.748" stroke-linecap="round" stroke-linejoin="round"/>
<path d="M218.32 262.131L216.204 269.186" stroke="#171717" stroke-width="3.748" stroke-linecap="round" stroke-linejoin="round"/>
<path d="M210.089 264.835L218.32 262.131" stroke="#171717" stroke-width="3.748" stroke-linecap="round" stroke-linejoin="round"/>
<path d="M248.887 243.709L244.065 234.503" stroke="#171717" stroke-width="3.748" stroke-linecap="round" stroke-linejoin="round"/>
<path d="M236.976 242.906L244.065 234.503" stroke="#171717" stroke-width="3.748" stroke-linecap="round" stroke-linejoin="round"/>
<path d="M248.887 243.709L236.976 242.906" stroke="#171717" stroke-width="3.748" stroke-linecap="round" stroke-linejoin="round"/>
<path d="M364.631 196.05L360.868 201.812" stroke="#171717" stroke-width="3.748" stroke-linecap="round" stroke-linejoin="round"/>
<path d="M367.335 202.752L360.868 201.811" stroke="#171717" stroke-width="3.748" stroke-linecap="round" stroke-linejoin="round"/>
<path d="M364.631 196.05L367.335 202.752" stroke="#171717" stroke-width="3.748" stroke-linecap="round" stroke-linejoin="round"/>
<path d="M361.025 162.656L370.432 164.42" stroke="#171717" stroke-width="3.748" stroke-linecap="round" stroke-linejoin="round"/>
<path d="M366.787 175.943L370.432 164.42" stroke="#171717" stroke-width="3.748" stroke-linecap="round" stroke-linejoin="round"/>
<path d="M361.025 162.656L366.787 175.943" stroke="#171717" stroke-width="3.748" stroke-linecap="round" stroke-linejoin="round"/>
<path d="M201.193 335.658L209.345 340.048" stroke="#171717" stroke-width="3.748" stroke-linecap="round" stroke-linejoin="round"/>
<path d="M211.696 331.583L209.345 340.519" stroke="#171717" stroke-width="3.748" stroke-linecap="round" stroke-linejoin="round"/>
<path d="M201.193 335.659L211.696 331.583" stroke="#171717" stroke-width="3.748" stroke-linecap="round" stroke-linejoin="round"/>
<path d="M348.405 232.971L356.557 230.776" stroke="#171717" stroke-width="3.748" stroke-linecap="round" stroke-linejoin="round"/>
<path d="M355.93 240.81L356.557 230.776" stroke="#171717" stroke-width="3.748" stroke-linecap="round" stroke-linejoin="round"/>
<path d="M348.405 232.971L355.93 240.81" stroke="#171717" stroke-width="3.748" stroke-linecap="round" stroke-linejoin="round"/>
<path d="M290.751 236.234L298.903 234.038" stroke="#171717" stroke-width="3.748" stroke-linecap="round" stroke-linejoin="round"/>
<path d="M298.277 244.072L298.903 234.038" stroke="#171717" stroke-width="3.748" stroke-linecap="round" stroke-linejoin="round"/>
<path d="M290.751 236.234L298.277 244.073" stroke="#171717" stroke-width="3.748" stroke-linecap="round" stroke-linejoin="round"/>
<path d="M324.623 231.344L324.808 225.193" stroke="#171717" stroke-width="3.748" stroke-linecap="round" stroke-linejoin="round"/>
<path d="M331.677 227.743L324.808 225.193" stroke="#171717" stroke-width="3.748" stroke-linecap="round" stroke-linejoin="round"/>
<path d="M324.623 231.344L331.677 227.743" stroke="#171717" stroke-width="3.748" stroke-linecap="round" stroke-linejoin="round"/>
<path d="M275.121 251.022L275.306 244.872" stroke="#171717" stroke-width="3.748" stroke-linecap="round" stroke-linejoin="round"/>
<path d="M282.174 247.422L275.306 244.872" stroke="#171717" stroke-width="3.748" stroke-linecap="round" stroke-linejoin="round"/>
<path d="M275.121 251.022L282.174 247.421" stroke="#171717" stroke-width="3.748" stroke-linecap="round" stroke-linejoin="round"/>
<path d="M313.334 276.989L317.41 280.359" stroke="#171717" stroke-width="3.748" stroke-linecap="round" stroke-linejoin="round"/>
<path d="M312.942 284.358L317.41 280.36" stroke="#171717" stroke-width="3.748" stroke-linecap="round" stroke-linejoin="round"/>
<path d="M321.33 297.037L317.097 301.681" stroke="#171717" stroke-width="3.748" stroke-linecap="round" stroke-linejoin="round"/>
<path d="M322.153 305.856L317.097 301.681" stroke="#171717" stroke-width="3.748" stroke-linecap="round" stroke-linejoin="round"/>
<path d="M286.169 223.724C286.922 220.965 287.307 218.119 287.314 215.259" stroke="#171717" stroke-width="3.748" stroke-linecap="round" stroke-linejoin="round"/>
<path d="M278.142 223.248C278.684 220.581 278.903 217.86 278.797 215.141" stroke="#171717" stroke-width="3.748" stroke-linecap="round" stroke-linejoin="round"/>
<path d="M270.669 223.021C270.852 220.512 271.035 218.002 271.217 215.493" stroke="#171717" stroke-width="3.748" stroke-linecap="round" stroke-linejoin="round"/>
<path d="M263.377 222.784C263.396 220.324 263.65 217.872 264.135 215.46" stroke="#171717" stroke-width="3.748" stroke-linecap="round" stroke-linejoin="round"/>
<path d="M256.996 223.373C256.749 220.908 256.814 218.422 257.19 215.973" stroke="#171717" stroke-width="3.748" stroke-linecap="round" stroke-linejoin="round"/>
<path d="M180.179 65.449L183.087 79.8895L197.527 82.7978L183.087 85.7071L180.179 100.147L177.269 85.7071L162.829 82.7978L177.269 79.8895L180.179 65.449Z" stroke="#171717" stroke-width="3.748" stroke-linecap="round" stroke-linejoin="round"/>
<path d="M328.257 143.981L322.674 135.607" stroke="#171717" stroke-width="3.748" stroke-linecap="round" stroke-linejoin="round"/>
<path d="M322.098 143.413C324.35 141.016 326.603 138.618 328.855 136.221" stroke="#171717" stroke-width="3.748" stroke-linecap="round" stroke-linejoin="round"/>
<path d="M232.135 204.761C229.51 200.825 226.886 196.889 224.261 192.954" stroke="#171717" stroke-width="3.748" stroke-linecap="round" stroke-linejoin="round"/>
<path d="M223.449 203.959C226.626 200.577 229.803 197.195 232.98 193.814" stroke="#171717" stroke-width="3.748" stroke-linecap="round" stroke-linejoin="round"/>
<path d="M354.879 64.5585L361.464 52.6438" stroke="#171717" stroke-width="3.748" stroke-linecap="round" stroke-linejoin="round"/>
<path d="M345.787 62.3637L345.159 14.3906" stroke="#171717" stroke-width="3.748" stroke-linecap="round" stroke-linejoin="round"/>
<path d="M334.499 62.991L330.109 53.8982" stroke="#171717" stroke-width="3.748" stroke-linecap="round" stroke-linejoin="round"/>
<path d="M322.27 68.0081L279 37.2798" stroke="#171717" stroke-width="3.748" stroke-linecap="round" stroke-linejoin="round"/>
<path d="M364.286 69.8885L404.421 43.864" stroke="#171717" stroke-width="3.748" stroke-linecap="round" stroke-linejoin="round"/>
<path d="M408.298 83.0101L402.715 74.6394" stroke="#171717" stroke-width="3.748" stroke-linecap="round" stroke-linejoin="round"/>
<path d="M402.14 82.4416C404.392 80.0437 406.644 77.6464 408.897 75.249" stroke="#171717" stroke-width="3.748" stroke-linecap="round" stroke-linejoin="round"/>
<path d="M191.569 149.219C193.726 141.885 195.884 134.551 198.042 127.217" stroke="#171717" stroke-width="3.748" stroke-linecap="round" stroke-linejoin="round"/>
<path d="M183.534 135.312L206.041 141.221" stroke="#171717" stroke-width="3.748" stroke-linecap="round" stroke-linejoin="round"/>
<path d="M411.622 102.034C414.729 98.8133 417.835 95.5936 420.942 92.3733" stroke="#171717" stroke-width="3.748" stroke-linecap="round" stroke-linejoin="round"/>
<path d="M411.222 92.6399C414.58 95.6938 417.938 98.7482 421.297 101.803" stroke="#171717" stroke-width="3.748" stroke-linecap="round" stroke-linejoin="round"/>
<path fill-rule="evenodd" clip-rule="evenodd" d="M312.998 282.171L312.865 282.164C292.074 285.371 271.441 288.143 250.701 290.929C238.481 292.572 226.222 294.218 213.873 295.962C213.367 307.548 217.218 318.903 224.667 327.791L224.774 327.698C236.398 326.182 248.062 324.74 259.757 323.293C277.301 321.123 294.912 318.945 312.551 316.498H312.625C312.434 305.047 312.558 293.605 312.998 282.171ZM308.077 289.264C308.107 288.713 307.684 288.242 307.133 288.212C306.582 288.182 306.111 288.605 306.081 289.156L304.908 310.804C304.878 311.355 305.3 311.826 305.852 311.856C306.403 311.886 306.874 311.463 306.904 310.912L308.077 289.264Z" fill="#171717"/>
<path fill-rule="evenodd" clip-rule="evenodd" d="M363.31 457.56C369.146 457.268 374.916 456.195 380.467 454.369C393.036 450.282 404.066 442.473 412.096 431.974C413.002 430.786 413.862 429.562 414.675 428.303C382.166 395.981 349.889 363.872 317.889 331.037L317.868 330.977C316.668 331.396 315.463 331.81 314.261 332.223C314.029 332.303 313.796 332.383 313.564 332.463L313.098 332.483C313.537 342.98 314.244 353.458 315.217 363.919C315.79 370.095 316.216 377.051 312.118 381.709C309.307 384.907 305.105 386.146 300.785 386.779C322.092 409.966 342.934 433.56 363.31 457.56ZM319.614 341.205C319.209 340.831 318.577 340.856 318.202 341.262C317.828 341.667 317.853 342.3 318.259 342.674C347.488 369.66 375.566 397.825 402.493 427.171C402.866 427.578 403.498 427.605 403.905 427.232C404.311 426.859 404.339 426.226 403.966 425.82C377.002 396.433 348.884 368.228 319.614 341.205Z" fill="#171717"/>
<path d="M231.018 454.273C242.521 450.487 252.66 443.407 260.175 433.911" stroke="#171717" stroke-width="3.748" stroke-linecap="round" stroke-linejoin="round"/>
<path d="M124.42 418.872C127.222 411.685 132.414 405.684 139.122 401.877" stroke="#171717" stroke-width="3.748" stroke-linecap="round" stroke-linejoin="round"/>
<path d="M122.529 409.462C122.846 408.231 123.434 407.086 124.25 406.111C125.066 405.136 126.09 404.357 127.245 403.828" stroke="#171717" stroke-width="3.748" stroke-linecap="round" stroke-linejoin="round"/>
<path d="M377.455 153.295C377.873 151.516 378.291 149.739 378.709 147.961" stroke="#171717" stroke-width="3.748" stroke-linecap="round" stroke-linejoin="round"/>
<path d="M386.876 152.684C389.341 150.673 391.326 148.134 392.682 145.256C394.039 142.377 394.734 139.231 394.716 136.049" stroke="#171717" stroke-width="3.748" stroke-linecap="round" stroke-linejoin="round"/>
<path d="M394.7 151.413C396.236 149.254 397.305 146.797 397.836 144.201" stroke="#171717" stroke-width="3.748" stroke-linecap="round" stroke-linejoin="round"/>
<path d="M392.275 478.354C395.444 481.126 399.351 482.916 403.52 483.504C407.689 484.093 411.939 483.455 415.751 481.669" stroke="#171717" stroke-width="3.748" stroke-linecap="round" stroke-linejoin="round"/>
<g opacity="0.1">
<path d="M289.673 168.533L289.627 168.324C289.554 168.073 289.402 167.852 289.194 167.693C288.985 167.534 288.731 167.447 288.469 167.444C282.976 167.211 277.166 166.792 271.699 167.466C267.21 168.02 262.977 170.259 261.661 174.86C260.963 177.3 261.037 180.092 260.982 182.602C260.916 185.602 260.861 188.603 260.815 191.604C260.714 197.953 260.891 204.316 260.953 210.666C261.006 216.326 269.823 216.339 269.753 210.666C269.621 200.141 269.383 189.653 268.905 179.136C268.825 177.385 268.632 175.381 269.471 173.786C270.34 172.133 272.485 172.004 274.277 171.764C279.113 171.117 283.972 170.6 288.788 169.801C288.991 169.75 289.176 169.645 289.324 169.498C289.471 169.35 289.576 169.165 289.627 168.962C289.66 168.822 289.676 168.68 289.673 168.536V168.533Z" fill="#171717"/>
</g>
<g opacity="0.1">
<path d="M258.527 215.3C255.947 215.862 254.944 218.009 252.954 219.603C250.757 221.378 248.281 222.776 245.627 223.739C240.101 225.754 234.594 227.39 229.266 229.938C219.745 234.49 211.27 241.668 204.648 249.849C197.679 258.458 192.158 268.483 189.323 279.232C186.414 290.587 186.027 302.441 188.189 313.962C190.57 327.15 196.718 339.455 205.225 349.738C207.249 352.185 211.439 351.833 213.533 349.738C215.954 347.317 215.56 343.883 213.533 341.43C200.635 325.835 195.207 303.569 199.554 283.798C203.801 264.484 216.119 249.26 232.744 238.998C237.683 235.949 243.025 234.141 248.374 231.985C254.358 229.573 260.032 226.147 261.685 219.478C261.839 218.916 261.841 218.323 261.692 217.76C261.543 217.196 261.248 216.681 260.837 216.268C260.133 215.616 259.582 215.072 258.527 215.302V215.3Z" fill="#171717"/>
</g>
<g opacity="0.1">
<path d="M298.096 228.381C298.702 228.728 298.998 229.288 299.662 229.617C300.661 230.11 301.665 230.032 302.753 230.038C305.035 230.051 307.314 229.998 309.588 229.797C313.803 229.5 318 228.968 322.156 228.205C330.771 226.436 338.466 221.637 343.845 214.679C349.291 207.663 352.305 199.07 353.545 190.332C354.253 185.157 354.503 179.93 354.291 174.71C354.195 171.987 354.007 169.27 353.777 166.554C353.547 163.837 353.635 160.65 352.64 158.106C351.825 156.024 350.187 154.436 347.819 154.436C345.775 154.436 343.364 155.971 342.997 158.106C342.194 162.776 343.398 167.934 343.629 172.67C343.888 177.417 343.808 182.176 343.39 186.91C342.762 194.448 340.358 201.73 336.377 208.16C332.34 214.531 326.274 218.818 319.441 221.766C315.755 223.317 311.86 224.311 307.882 224.716C305.89 224.947 303.897 225.106 301.899 225.273C301.204 225.285 300.516 225.411 299.862 225.646C299.031 225.988 298.804 226.595 298.096 227.003C297.977 227.075 297.879 227.176 297.811 227.297C297.742 227.418 297.707 227.555 297.707 227.693C297.707 227.833 297.742 227.969 297.811 228.09C297.879 228.211 297.977 228.313 298.096 228.384V228.381Z" fill="#171717"/>
</g>
<g opacity="0.1">
<path d="M353.804 150.805C354.018 147.036 352.308 143.171 351.845 139.429C351.609 137.519 351.091 135.561 351.051 133.631C351.005 131.435 351.598 130.071 350.337 128.007C348.813 125.514 344.869 125.944 344.077 128.825C343.365 131.411 344.503 132.548 345.136 134.924C345.69 136.996 346.169 139.053 346.901 141.068C348.204 144.648 348.812 148.863 351.328 151.83C352.199 152.857 353.738 151.957 353.804 150.805Z" fill="#171717"/>
</g>
</g>
</g>
<defs>
<clipPath id="clip0_760_3509">
<rect width="512" height="512" fill="white"/>
</clipPath>
</defs>
</svg>
