<svg width="512" height="512" viewBox="0 0 512 512" fill="none" xmlns="http://www.w3.org/2000/svg">
<mask id="mask0_760_3258" style="mask-type:luminance" maskUnits="userSpaceOnUse" x="41" y="20" width="431" height="472">
<path d="M471.467 20.8H41.0667V491.2H471.467V20.8Z" fill="white"/>
</mask>
<g mask="url(#mask0_760_3258)">
<path fill-rule="evenodd" clip-rule="evenodd" d="M261.102 77.7775C261.102 77.7775 256.625 67.9706 252.201 62.801C247.782 57.6255 244.868 56.9647 239.037 56.3093C233.207 55.6538 208.185 64.7781 203.2 72.1119C198.216 79.4458 210.005 95.0623 210.005 95.0623L210.064 95.1898C220.04 90.8783 230.234 87.089 240.603 83.8378C248.609 81.2901 255.404 79.2751 261.102 77.7775ZM241.63 59.7903C241.22 59.6266 240.755 59.8261 240.59 60.2362C240.427 60.6463 240.626 61.1119 241.036 61.2762C242.726 61.9519 245.443 63.4741 247.992 65.8159C250.539 68.1551 252.876 71.2741 253.893 75.137C254.005 75.5642 254.443 75.8191 254.87 75.7071C255.298 75.5946 255.553 75.1567 255.441 74.7295C254.324 70.4858 251.772 67.1157 249.075 64.6373C246.379 62.1615 243.496 60.537 241.63 59.7903Z" fill="white" fill-opacity="0.96"/>
<path fill-rule="evenodd" clip-rule="evenodd" d="M188.35 212.76L238.972 201.593L244.237 203.854L245.975 218.137L246.15 218.116C246.15 218.116 249.252 218.958 253.767 216.421C255.54 215.425 256.298 214.067 257.02 212.772C258.138 210.768 259.17 208.919 263.74 208.805C267.507 208.712 270.07 210.902 272.493 212.971C274.911 215.037 277.19 216.983 280.385 216.421C286.781 215.296 288.449 210.937 288.449 210.937L288.481 210.932C288.097 208.97 287.879 207.862 287.879 207.862C287.879 207.862 389.46 201.093 378.177 79.6938C373.122 78.3444 367.943 77.5178 362.72 77.226C354.318 76.7364 345.897 77.7876 337.873 80.3268C334.886 81.2388 332.001 82.457 329.265 83.9615C333.219 168.775 262.589 167.053 260.585 166.984C260.644 164.085 260.649 157.908 259.727 155.914C258.853 154.022 252.542 153.542 245.054 153.489C242.112 153.468 238.983 153.51 235.929 153.564C231.052 153.649 225.451 153.889 220.574 154.257C214.626 154.7 209.749 155.328 208.561 156.107C206.999 157.119 207.692 162.341 208.198 165.167L207.873 165.226C165.575 168.591 149.227 195.24 143.931 222.565C138.586 250.155 144.529 278.44 146.42 284.111C149.501 293.357 155.78 290.825 157.954 289.605C158.216 289.463 158.469 289.304 158.711 289.131L185.339 280.347C185.339 280.347 194.373 278.465 191.319 267.811C189.693 262.135 188.462 256.853 187.566 251.934C186.797 247.773 186.242 243.574 185.903 239.356C185.04 228.285 186.079 219.528 188.004 212.664L188.35 212.76ZM372.805 84.89C376.071 113.664 365.645 177.343 297.861 201.915L298.406 203.419C367.155 178.497 377.707 113.891 374.395 84.7098L372.805 84.89Z" fill="#171717"/>
<path d="M466.14 455.786C466.14 455.786 468.341 463.003 462.697 473.913C457.052 484.824 424.892 489.503 424.892 489.503V489.508C415.927 487.801 408.215 482.58 404.762 472.218C403.093 467.214 400.103 461.249 396.228 454.736L396.735 454.438C396.735 454.438 410.228 455.813 414.27 438.124C418.949 448.048 421.945 454.875 422.819 456.044C426.203 460.558 453.294 453.789 453.294 453.789C453.294 453.789 461.114 451.834 466.14 455.786Z" fill="white" fill-opacity="0.96"/>
<path d="M294.24 241.791L293.771 241.818C293.771 241.818 292.05 246.178 285.43 247.302C278.81 248.427 275.99 239.499 268.209 239.686C260.428 239.873 262.565 244.765 257.891 247.302C253.217 249.839 250.008 248.997 250.008 248.997L249.741 249.029L247.865 233.621L248.244 233.573C248.244 233.573 251.399 234.415 255.982 231.878C260.566 229.341 258.466 224.448 266.109 224.256C273.753 224.064 276.524 233.007 283.021 231.878C289.518 230.748 291.207 226.394 291.207 226.394L291.421 226.356C292.297 231.039 293.262 236.307 294.24 241.791Z" fill="#171717"/>
<path d="M211.135 110.337C209.403 110.881 189.709 116.94 187.556 111.424C186.133 107.789 195.359 101.67 210.062 95.1894C220.038 90.8785 230.233 87.0902 240.603 83.8395C248.609 81.2918 255.404 79.2769 261.102 77.7793C277.273 73.5259 284.601 73.3825 285.625 76.7611C287.005 81.3291 273.457 86.3707 273.457 86.3707L273.414 86.6587C270.618 86.3409 267.798 86.2891 264.993 86.5041C264.993 86.5041 210.82 94.8134 212.638 100.58C213.293 102.669 212.755 106.385 211.891 110.34L211.135 110.337Z" fill="white" fill-opacity="0.96"/>
<path d="M221.139 100.64L220.857 127.3L220.601 127.294C220.601 127.294 216.022 134.063 213.203 131.43C210.511 128.92 214.146 123.446 214.493 122.94C214.173 123.361 211.146 127.22 209.189 125.914C207.868 125.034 210.373 117.317 211.892 110.34C212.755 106.386 213.293 102.67 212.638 100.58C210.821 94.8133 264.993 86.504 264.993 86.504C267.799 86.2891 270.619 86.3408 273.414 86.6586C275.494 86.9573 277.257 87.5541 277.694 88.6683C278.915 91.7701 267.343 93.273 267.343 93.273C267.343 93.273 278.163 103.341 269.699 106.539C262.174 109.38 261.779 97.7387 261.79 95.112V95.1066C261.79 94.7813 261.795 94.5947 261.795 94.5947C261.795 94.5947 240.729 90.3573 221.481 100.644L221.139 100.64Z" fill="#171717"/>
<path d="M246.151 218.117C246.151 218.117 249.254 218.964 253.768 216.422C258.282 213.879 256.214 208.992 263.741 208.806C271.268 208.62 273.99 217.553 280.386 216.422C286.782 215.291 288.45 210.938 288.45 210.938L288.482 210.932C289.106 214.146 290.172 219.652 291.419 226.357L291.205 226.394C291.205 226.394 289.516 230.748 283.019 231.878C276.522 233.009 273.75 224.07 266.107 224.257C258.465 224.443 260.57 229.336 255.98 231.878C251.391 234.421 248.242 233.573 248.242 233.573L247.863 233.621L245.977 218.138L246.151 218.117Z" fill="white" fill-opacity="0.96"/>
<path d="M194.027 316.926C215.25 313.291 278.35 301.134 296.088 296.257C294.933 325.299 276.724 338.725 253.768 346.186C228.313 354.464 206.301 356.345 190.312 349.198C187.023 347.727 182.807 346.005 177.968 344.347C186.57 330.321 194.026 316.931 194.026 316.931L194.027 316.926Z" fill="white" fill-opacity="0.96"/>
<path d="M190.311 349.198C206.301 356.345 228.313 354.465 253.768 346.187C276.724 338.725 294.935 325.3 296.087 296.258C296.641 296.103 297.154 295.959 297.617 295.821C297.617 295.821 340.804 324.495 344.316 329.009C345.046 329.953 344.231 332.921 342.429 337.046C339.167 344.524 332.686 355.791 326.344 365.652C319.405 376.45 312.63 385.569 310.456 386.193C305.185 387.701 254.776 355.344 254.776 355.344C254.776 355.344 233.456 400.493 228.686 409.02C226.037 413.758 200.846 405.561 180.836 395.621C173.715 392.077 167.25 388.319 162.693 384.834C157.017 380.511 154.298 376.626 156.958 374.153C162 369.462 170.421 356.659 177.968 344.348C182.807 346.006 187.023 347.727 190.311 349.198Z" fill="white" fill-opacity="0.96"/>
<path d="M75.9473 460.937C61.647 467.706 49.7988 462.067 48.1038 449.462C46.4089 436.857 76.0966 401.126 76.0966 401.126C79.3419 401.776 84.6667 402.81 89.991 403.748C92.5206 404.17 95.0801 404.386 97.6449 404.393V404.399C91.9953 413.945 98.6838 423.758 100.315 425.899C93.951 426.325 89.991 426.325 89.991 426.325C80.4593 433.094 80.2086 450.4 75.9473 460.937Z" fill="white" fill-opacity="0.96"/>
<path d="M207.873 165.227C165.575 168.593 149.227 195.242 143.931 222.561C138.586 250.153 144.529 278.438 146.42 284.107C149.501 293.355 155.78 290.823 157.954 289.601C158.216 289.458 158.469 289.3 158.711 289.126L185.339 280.343C185.339 280.343 194.373 278.461 191.319 267.807C189.693 262.131 188.462 256.849 187.566 251.93C186.797 247.768 186.242 243.57 185.903 239.352C185.04 228.281 186.079 219.524 188.004 212.66C192.854 195.348 203.359 190.051 203.359 190.051" stroke="#171717" stroke-width="3" stroke-linecap="round" stroke-linejoin="round"/>
<path d="M260.543 166.982H260.586C262.589 167.052 333.22 168.773 329.265 83.9599C332.001 82.4548 334.886 81.2372 337.873 80.3252C345.897 77.7866 354.318 76.7364 362.721 77.2266C367.944 77.5178 373.123 78.345 378.177 79.6943" stroke="#171717" stroke-width="3" stroke-linecap="round" stroke-linejoin="round"/>
<path d="M187.056 307.69C187.056 307.69 184.294 317.72 187.056 317.971C187.45 318.008 189.976 317.624 194.027 316.926C215.25 313.292 278.35 301.134 296.088 296.258C296.642 296.103 297.154 295.959 297.617 295.821C299.291 295.325 300.351 294.925 300.671 294.647C302.797 292.803 298.438 265.333 294.238 241.794C293.262 236.309 292.298 231.044 291.418 226.359C290.171 219.654 289.105 214.148 288.482 210.934C288.098 208.973 287.88 207.864 287.88 207.864C287.88 207.864 389.46 201.094 378.177 79.697" stroke="#171717" stroke-width="3" stroke-linecap="round" stroke-linejoin="round"/>
<path d="M194.027 316.932C194.027 316.932 186.57 330.318 177.968 344.348C170.421 356.66 162 369.462 156.958 374.153C154.298 376.626 157.017 380.511 162.693 384.834C167.25 388.319 173.715 392.077 180.836 395.621C200.844 405.561 226.037 413.758 228.686 409.02C233.456 400.493 254.773 355.344 254.773 355.344C254.773 355.344 305.182 387.701 310.453 386.193C312.628 385.569 319.402 376.45 326.341 365.652C332.684 355.791 339.165 344.524 342.427 337.046C344.228 332.921 345.044 329.953 344.314 329.009C340.801 324.495 297.614 295.821 297.614 295.821" stroke="#171717" stroke-width="3" stroke-linecap="round" stroke-linejoin="round"/>
<path d="M208.561 166.993C208.561 166.993 208.395 166.257 208.198 165.165C207.692 162.339 206.999 157.117 208.561 156.104C209.749 155.326 214.626 154.697 220.574 154.255C225.451 153.887 231.052 153.647 235.929 153.561C238.983 153.508 242.112 153.465 245.054 153.487C252.542 153.54 258.853 154.02 259.727 155.912C260.649 157.905 260.644 164.083 260.585 166.982C260.569 167.92 260.542 168.517 260.542 168.517" stroke="#171717" stroke-width="3" stroke-linecap="round" stroke-linejoin="round"/>
<path d="M220.574 154.25L220.857 127.298L221.139 100.638L221.165 98.1648" stroke="#171717" stroke-width="3" stroke-linecap="round" stroke-linejoin="round"/>
<path d="M261.789 95.1052C261.793 95.0913 261.794 95.0769 261.795 95.0625" stroke="#171717" stroke-width="3" stroke-linecap="round" stroke-linejoin="round"/>
<path d="M245.054 153.482C245.054 153.482 242.799 143.782 245.619 141.522C248.438 139.262 255.026 139.454 257.467 132.493C259.854 125.698 261.704 96.48 261.789 95.1104" stroke="#171717" stroke-width="3" stroke-linecap="round" stroke-linejoin="round"/>
<path d="M214.519 122.899C214.509 122.911 214.5 122.923 214.493 122.937C214.173 123.358 211.146 127.217 209.189 125.91C207.868 125.031 210.373 117.314 211.892 110.337C212.755 106.382 213.293 102.667 212.638 100.577C210.821 94.8101 264.993 86.5008 264.993 86.5008C267.799 86.2859 270.619 86.3376 273.414 86.6555C275.494 86.9541 277.257 87.5509 277.694 88.6651C278.915 91.7669 267.343 93.2699 267.343 93.2699C267.343 93.2699 278.163 103.338 269.699 106.535C262.174 109.377 261.779 97.7355 261.79 95.1088V95.1035C261.79 94.7781 261.795 94.5915 261.795 94.5915C261.795 94.5915 240.729 90.3541 221.481 100.641" stroke="#171717" stroke-width="3" stroke-linecap="round" stroke-linejoin="round"/>
<path d="M220.601 127.292C220.601 127.292 216.023 134.061 213.203 131.428C210.512 128.918 214.147 123.444 214.493 122.938" stroke="#171717" stroke-width="3" stroke-linecap="round" stroke-linejoin="round"/>
<path d="M211.258 110.3C211.258 110.3 211.215 110.316 211.135 110.337C209.403 110.881 189.709 116.94 187.556 111.424C186.133 107.789 195.359 101.67 210.062 95.1894C220.038 90.8785 230.233 87.0902 240.603 83.8395C248.609 81.2918 255.404 79.2769 261.102 77.7793C277.273 73.5259 284.601 73.3825 285.625 76.7611C287.005 81.3291 273.457 86.3707 273.457 86.3707" stroke="#171717" stroke-width="3" stroke-linecap="round" stroke-linejoin="round"/>
<path d="M210.005 95.0623C210.005 95.0623 198.216 79.4458 203.2 72.1119C208.185 64.7781 233.207 55.6538 239.037 56.3093C244.868 56.9647 247.784 57.6255 252.202 62.801C256.62 67.9765 261.103 77.7775 261.103 77.7775" stroke="#171717" stroke-width="3" stroke-linecap="round" stroke-linejoin="round"/>
<path d="M353.718 64.6502C353.717 64.6433 353.715 64.6358 353.713 64.6289C353.563 63.6753 348.921 33.7005 354.469 32.4211C360.114 31.1208 362.747 76.7595 362.747 76.7595" stroke="#171717" stroke-width="3" stroke-linecap="round" stroke-linejoin="round"/>
<path d="M346.32 66.1536C346.32 66.1445 346.318 66.1355 346.315 66.1269C346.101 65.1035 339.866 35.0335 343.435 33.8015C347.016 32.5647 353.515 63.6752 353.71 64.6283" stroke="#171717" stroke-width="3" stroke-linecap="round" stroke-linejoin="round"/>
<path d="M339.045 70.5452L339.04 70.5398C338.88 69.9964 330.182 40.682 334.409 38.8164C338.598 36.9674 346.054 65.1356 346.315 66.127" stroke="#171717" stroke-width="3" stroke-linecap="round" stroke-linejoin="round"/>
<path d="M337.937 80.3845C337.937 80.3845 337.915 80.3632 337.873 80.3258C336.822 79.3984 322.853 66.9269 325.63 64.1498C328.476 61.304 338.763 70.2949 339.039 70.5402" stroke="#171717" stroke-width="3" stroke-linecap="round" stroke-linejoin="round"/>
<path d="M157.954 289.605C158.76 292.05 159.838 294.395 161.168 296.599C162.063 298.114 163.102 299.54 164.27 300.857C168.145 305.185 173.959 308.452 182.13 305.462" stroke="#171717" stroke-width="3" stroke-linecap="round" stroke-linejoin="round"/>
<path d="M175.831 300.856C177.606 302.783 179.769 304.313 182.178 305.344C183.75 306.023 185.426 306.434 187.134 306.559C189.986 306.762 193.268 306.143 196.829 303.985" stroke="#171717" stroke-width="3" stroke-linecap="round" stroke-linejoin="round"/>
<path d="M185.829 298.693C185.829 298.693 190.994 302.546 196.83 303.985H196.836C200.646 304.928 204.745 304.838 207.876 301.981C212.699 297.573 209.443 290.863 209.443 290.863" stroke="#171717" stroke-width="3" stroke-linecap="round" stroke-linejoin="round"/>
<path d="M185.339 280.348C185.339 280.348 192.641 284.308 198.53 288.433C200.079 289.498 201.566 290.649 202.986 291.881C205.144 293.801 206.365 295.5 205.613 296.529C201.477 302.173 186.596 289.605 186.596 289.605" stroke="#171717" stroke-width="3" stroke-linecap="round" stroke-linejoin="round"/>
<path d="M143.932 222.562L119.084 228.046L116.388 306.335L120.715 309.507L164.265 300.856" stroke="#171717" stroke-width="3" stroke-linecap="round" stroke-linejoin="round"/>
<path d="M203.481 291.732L209.392 290.602L253.768 282.106L251.924 266.969L250.735 257.221L249.739 249.029L247.862 233.621L245.976 218.138L244.238 203.854L238.972 201.594L188.35 212.76" stroke="#171717" stroke-width="3" stroke-linecap="round" stroke-linejoin="round"/>
<path d="M198.53 288.432L248.438 278.471L238.972 201.594" stroke="#171717" stroke-width="3" stroke-linecap="round" stroke-linejoin="round"/>
<path d="M161.169 296.599L116.388 306.336" stroke="#171717" stroke-width="3" stroke-linecap="round" stroke-linejoin="round"/>
<path d="M213.23 165.927H255.463" stroke="#171717" stroke-width="3" stroke-linecap="round" stroke-linejoin="round"/>
<path d="M162.687 384.838C162.687 384.838 158.764 395.221 135.413 399.733C118.059 403.091 106.126 404.509 97.6411 404.391C95.0768 404.383 92.5168 404.168 89.9872 403.747C84.6629 402.809 79.3381 401.773 76.0928 401.124C74.1365 400.735 72.9317 400.49 72.9317 400.49C72.9317 400.49 38.3185 437.857 42.5852 454.161C46.8519 470.465 71.6805 471.467 75.9445 460.934C80.2085 450.402 80.4587 433.091 89.9883 426.321C89.9883 426.321 93.9483 426.321 100.312 425.894C109.959 425.25 125.139 423.629 140.403 419.548C165.539 412.832 180.606 395.878 180.835 395.617L180.841 395.612" stroke="#171717" stroke-width="3" stroke-linecap="round" stroke-linejoin="round"/>
<path d="M100.648 426.331C100.648 426.331 100.52 426.182 100.312 425.899C98.681 423.757 91.992 413.945 97.6421 404.399" stroke="#171717" stroke-width="3" stroke-linecap="round" stroke-linejoin="round"/>
<path d="M414.27 438.121C400.834 409.633 373.492 355.658 342.43 337.046" stroke="#171717" stroke-width="3" stroke-linecap="round" stroke-linejoin="round"/>
<path d="M326.347 365.653C326.347 365.653 374.795 418.642 396.231 454.741C400.106 461.254 403.096 467.218 404.764 472.223C408.218 482.584 415.93 487.807 424.895 489.513C444.255 493.201 469.452 480.51 470.225 467.831C470.609 461.489 468.754 457.843 466.142 455.791C461.116 451.836 453.297 453.793 453.297 453.793C453.297 453.793 426.204 460.561 422.821 456.047C421.947 454.879 418.952 448.052 414.273 438.127" stroke="#171717" stroke-width="3" stroke-linecap="round" stroke-linejoin="round"/>
<path d="M396.735 454.441C396.735 454.441 410.228 455.816 414.27 438.126V438.121" stroke="#171717" stroke-width="3" stroke-linecap="round" stroke-linejoin="round"/>
<path d="M237.528 122.335C237.528 122.335 242.138 123.769 242.325 121.876C242.512 119.984 240.352 99.8593 240.352 99.8593C240.352 99.8593 249.945 96.6593 254.929 98.7292" stroke="#171717" stroke-width="3" stroke-linecap="round" stroke-linejoin="round"/>
<path d="M246.232 106.442C246.931 106.011 247.737 105.782 248.558 105.782C249.38 105.782 250.186 106.011 250.885 106.442" stroke="#171717" stroke-width="3" stroke-linecap="round" stroke-linejoin="round"/>
<path d="M228.313 105.775C228.313 105.775 231.607 103.148 234.33 105.312" stroke="#171717" stroke-width="3" stroke-linecap="round" stroke-linejoin="round"/>
<path d="M225.397 130.99C225.397 130.99 228.597 135.318 233.014 134.284" stroke="#171717" stroke-width="3" stroke-linecap="round" stroke-linejoin="round"/>
<path d="M141.426 103.494C141.427 106.7 140.477 109.833 138.697 112.499C136.916 115.164 134.385 117.242 131.423 118.468C128.462 119.695 125.204 120.017 122.06 119.391C118.916 118.766 116.028 117.222 113.762 114.956C111.495 112.689 109.952 109.801 109.327 106.658C108.702 103.514 109.023 100.255 110.25 97.2939C111.477 94.3328 113.554 91.8016 116.22 90.0213C118.885 88.2411 122.019 87.2912 125.224 87.2917C127.352 87.2917 129.459 87.7109 131.425 88.5248C133.39 89.3392 135.177 90.5328 136.681 92.0374C138.186 93.5419 139.379 95.328 140.193 97.2939C141.007 99.2597 141.426 101.366 141.426 103.494Z" stroke="#171717" stroke-width="3" stroke-linecap="round" stroke-linejoin="round"/>
<path d="M129.679 80.9964L133.447 65.967" stroke="#171717" stroke-width="3" stroke-linecap="round" stroke-linejoin="round"/>
<path d="M117.64 123.907L112.752 141.773" stroke="#171717" stroke-width="3" stroke-linecap="round" stroke-linejoin="round"/>
<path d="M104.848 111.771L97.3221 115.773" stroke="#171717" stroke-width="3" stroke-linecap="round" stroke-linejoin="round"/>
<path d="M104.849 96.8159L72.4966 89.6687" stroke="#171717" stroke-width="3" stroke-linecap="round" stroke-linejoin="round"/>
<path d="M112.752 85.7135L107.108 79.7178" stroke="#171717" stroke-width="3" stroke-linecap="round" stroke-linejoin="round"/>
<path d="M143.974 89.6688L150.599 87.2917" stroke="#171717" stroke-width="3" stroke-linecap="round" stroke-linejoin="round"/>
<path d="M147.289 111.105L161.28 114.532" stroke="#171717" stroke-width="3" stroke-linecap="round" stroke-linejoin="round"/>
<path d="M134.998 123.907L138.708 129.599" stroke="#171717" stroke-width="3" stroke-linecap="round" stroke-linejoin="round"/>
<path d="M256.715 260.127C256.715 260.127 292.836 250.064 295.842 286.184C296.131 289.533 296.213 292.898 296.087 296.258C294.933 325.3 276.724 338.725 253.768 346.187C228.313 354.465 206.301 356.346 190.311 349.199C187.023 347.728 182.807 346.006 177.967 344.348C159.276 337.958 131.284 332.596 111.532 346.944" stroke="#171717" stroke-width="3" stroke-linecap="round" stroke-linejoin="round"/>
<path d="M110.199 346.064C110.798 346.511 111.322 347.051 111.75 347.664C114.687 351.843 112.683 358.544 107.316 364.085C106.02 365.42 104.602 366.63 103.078 367.699C94.6624 373.619 84.9093 374.244 81.2901 369.101C77.6709 363.958 81.5515 354.982 89.9616 349.065C90.4523 348.719 90.9477 348.394 91.4432 348.091C98.4683 343.724 106.106 342.962 110.199 346.064Z" stroke="#171717" stroke-width="3" stroke-linecap="round" stroke-linejoin="round"/>
<path d="M246.151 218.117C246.151 218.117 249.254 218.964 253.768 216.422C258.282 213.879 256.214 208.992 263.741 208.806C271.268 208.62 273.99 217.553 280.386 216.422C286.782 215.291 288.45 210.938 288.45 210.938" stroke="#171717" stroke-width="3" stroke-linecap="round" stroke-linejoin="round"/>
<path d="M248.241 233.573C248.241 233.573 251.396 234.415 255.98 231.878C260.563 229.341 258.463 224.448 266.107 224.256C273.75 224.064 276.521 233.007 283.018 231.878C289.515 230.748 291.205 226.394 291.205 226.394" stroke="#171717" stroke-width="3" stroke-linecap="round" stroke-linejoin="round"/>
<path d="M250.005 248.998C250.005 248.998 253.219 249.845 257.888 247.303C262.557 244.761 260.42 239.873 268.206 239.686C275.993 239.5 278.813 248.433 285.427 247.303C292.042 246.173 293.768 241.819 293.768 241.819" stroke="#171717" stroke-width="3" stroke-linecap="round" stroke-linejoin="round"/>
<path d="M249.504 267.37L248.438 257.589L250.735 257.221L253.768 256.742L255.308 266.149L251.924 266.97L250.261 267.37" stroke="#171717" stroke-width="3" stroke-linecap="round" stroke-linejoin="round"/>
<path d="M185.903 239.356C185.903 239.356 191.35 239.623 192.193 244.328C193.024 248.928 187.796 251.806 187.566 251.934H187.561" stroke="#171717" stroke-width="3" stroke-linecap="round" stroke-linejoin="round"/>
<path d="M76.0944 401.126C76.0944 401.126 46.4067 436.859 48.1016 449.462C49.7966 462.065 61.6448 467.706 75.9451 460.937" stroke="#171717" stroke-width="3" stroke-linecap="round" stroke-linejoin="round"/>
<path d="M424.892 489.505C424.892 489.505 457.058 484.825 462.697 473.915C468.336 463.005 466.14 455.789 466.14 455.789" stroke="#171717" stroke-width="3" stroke-linecap="round" stroke-linejoin="round"/>
<path d="M91.4432 348.084V348.09C91.4539 348.308 91.7579 354.475 95.7712 359.085C98.1179 361.787 101.736 363.956 107.316 364.084" stroke="#171717" stroke-width="3" stroke-linecap="round" stroke-linejoin="round"/>
<path d="M110.199 346.064C110.199 346.064 99.4224 350.286 95.7712 359.085" stroke="#171717" stroke-width="3" stroke-linecap="round" stroke-linejoin="round"/>
<path d="M135.02 432.835C142.678 432.08 149.948 429.102 155.934 424.267" stroke="#171717" stroke-width="3" stroke-linecap="round" stroke-linejoin="round"/>
<path d="M220.913 389.956L219.659 383.937" stroke="#171717" stroke-width="3" stroke-linecap="round" stroke-linejoin="round"/>
<path d="M182.037 364.122L186.552 362.367" stroke="#171717" stroke-width="3" stroke-linecap="round" stroke-linejoin="round"/>
<path d="M216.636 343.056L215.806 338.053" stroke="#171717" stroke-width="3" stroke-linecap="round" stroke-linejoin="round"/>
<path d="M241.981 321.221L248.759 320.528" stroke="#171717" stroke-width="3" stroke-linecap="round" stroke-linejoin="round"/>
<path d="M204.61 327.001L203.858 323.239" stroke="#171717" stroke-width="3" stroke-linecap="round" stroke-linejoin="round"/>
<path d="M278.527 355.168L284.848 352.529" stroke="#171717" stroke-width="3" stroke-linecap="round" stroke-linejoin="round"/>
<path d="M311.275 363.591C310.315 361.356 310.249 358.837 311.093 356.555" stroke="#171717" stroke-width="3" stroke-linecap="round" stroke-linejoin="round"/>
<path d="M320.234 331.497C322.504 331.19 324.813 331.372 327.007 332.03" stroke="#171717" stroke-width="3" stroke-linecap="round" stroke-linejoin="round"/>
<path d="M298.569 328.295C297.866 326.502 297.898 324.504 298.659 322.735" stroke="#171717" stroke-width="3" stroke-linecap="round" stroke-linejoin="round"/>
<path d="M276.614 310.427L281.502 315.076" stroke="#171717" stroke-width="3" stroke-linecap="round" stroke-linejoin="round"/>
<path d="M71.4362 357.107C69.9386 358.719 69.016 360.78 68.8112 362.971C68.6064 365.161 69.1312 367.358 70.304 369.219" stroke="#171717" stroke-width="3" stroke-linecap="round" stroke-linejoin="round"/>
<path d="M126.101 333.017C128.234 331.068 130.809 329.669 133.604 328.938C136.398 328.208 139.329 328.168 142.142 328.823" stroke="#171717" stroke-width="3" stroke-linecap="round" stroke-linejoin="round"/>
<path d="M244.483 225.924L243.467 217.9" stroke="#171717" stroke-width="3" stroke-linecap="round" stroke-linejoin="round"/>
<path d="M246.497 240.973L245.996 235.956" stroke="#171717" stroke-width="3" stroke-linecap="round" stroke-linejoin="round"/>
<path d="M378.807 60.1243C379.716 50.1358 376.636 40.1937 370.24 32.4678" stroke="#171717" stroke-width="3" stroke-linecap="round" stroke-linejoin="round"/>
<path d="M384.974 47.3435C384.927 45.5642 384.394 43.8318 383.432 42.3345" stroke="#171717" stroke-width="3" stroke-linecap="round" stroke-linejoin="round"/>
<path d="M138.611 210.113C140.701 201.848 144.307 194.043 149.245 187.094" stroke="#171717" stroke-width="3" stroke-linecap="round" stroke-linejoin="round"/>
<path d="M307.033 258.763L304.22 240.611C303.982 239.45 303.916 238.26 304.026 237.079" stroke="#171717" stroke-width="3" stroke-linecap="round" stroke-linejoin="round"/>
<path d="M390.426 471.107C385.842 457.389 379.012 444.527 370.215 433.045" stroke="#171717" stroke-width="3" stroke-linecap="round" stroke-linejoin="round"/>
<path d="M440.859 456.411C437.542 462.095 436.195 468.716 437.029 475.244" stroke="#171717" stroke-width="3" stroke-linecap="round" stroke-linejoin="round"/>
<path d="M449.917 454.545C447.069 460.377 446.147 466.961 447.281 473.35" stroke="#171717" stroke-width="3" stroke-linecap="round" stroke-linejoin="round"/>
<path d="M83.8656 433.22C81.7141 432.456 79.7728 431.194 78.2 429.538C76.6272 427.883 75.4667 425.88 74.8123 423.692" stroke="#171717" stroke-width="3" stroke-linecap="round" stroke-linejoin="round"/>
<path d="M79.6976 444.976C76.9365 444.234 74.4074 442.807 72.3456 440.826C70.2842 438.845 68.7568 436.375 67.905 433.646" stroke="#171717" stroke-width="3" stroke-linecap="round" stroke-linejoin="round"/>
<path d="M195.62 83.9419C194.474 81.671 193.909 79.1504 193.977 76.6075C194.044 74.064 194.741 71.5771 196.006 69.3696" stroke="#171717" stroke-width="3" stroke-linecap="round" stroke-linejoin="round"/>
<path d="M267.808 57.2463L271.196 51.228" stroke="#171717" stroke-width="3" stroke-linecap="round" stroke-linejoin="round"/>
<path d="M272.705 56.1249L266.381 51.1428" stroke="#171717" stroke-width="3" stroke-linecap="round" stroke-linejoin="round"/>
<path d="M241.857 35.8056V29.7864" stroke="#171717" stroke-width="3" stroke-linecap="round" stroke-linejoin="round"/>
<path d="M237.333 33.1272L245.233 31.6167" stroke="#171717" stroke-width="3" stroke-linecap="round" stroke-linejoin="round"/>
<path d="M338.203 201.788C352.477 194.667 363.958 182.974 370.817 168.573" stroke="#171717" stroke-width="3" stroke-linecap="round" stroke-linejoin="round"/>
<path d="M103.825 209.583L98.5488 203.573" stroke="#171717" stroke-width="3" stroke-linecap="round" stroke-linejoin="round"/>
<path d="M97.7803 209.268C99.8032 207.862 101.364 205.888 102.267 203.596" stroke="#171717" stroke-width="3" stroke-linecap="round" stroke-linejoin="round"/>
<path d="M65.5665 216.267C58.591 221.506 53.9825 230.187 54.7521 238.875C55.5217 247.564 62.2721 255.706 70.8993 256.999C73.9227 257.452 77.1963 257.044 79.6614 255.236C82.1265 253.428 83.5313 250.027 82.4529 247.167C80.8646 242.954 74.4923 242.142 71.1537 245.166C67.815 248.189 67.4465 253.55 69.2689 257.669C71.0913 261.788 74.6641 264.863 78.3889 267.399C82.1137 269.934 86.1222 272.098 89.4577 275.123C92.215 277.623 94.5878 281.18 93.8843 284.834C93.1115 288.845 88.7051 291.377 84.6235 291.214C80.5419 291.051 76.8321 288.807 73.6662 286.226" stroke="#171717" stroke-width="3" stroke-linecap="round" stroke-linejoin="round"/>
<path d="M63.1712 272.04C61.6928 271.155 60.4858 269.879 59.6837 268.354" stroke="#171717" stroke-width="3" stroke-linecap="round" stroke-linejoin="round"/>
<path d="M58.9899 273.186L62.8597 267.618" stroke="#171717" stroke-width="3" stroke-linecap="round" stroke-linejoin="round"/>
<path d="M91.3674 239.342L95.5061 234.075" stroke="#171717" stroke-width="3" stroke-linecap="round" stroke-linejoin="round"/>
<path d="M94.8539 239.25L90.703 234.747" stroke="#171717" stroke-width="3" stroke-linecap="round" stroke-linejoin="round"/>
<path d="M397.854 194.851C403.683 209.329 403.702 225.498 397.907 239.989C395.684 245.474 392.012 251.116 386.244 252.437C380.874 253.666 375.276 250.613 371.797 246.343C368.717 242.563 367.011 236.733 370.098 232.96C372.62 229.876 377.292 229.534 381.138 230.577C389.735 232.908 396.084 240.793 398.346 249.409C400.609 258.025 399.301 267.229 396.591 275.715C394.721 281.57 391.089 288.064 384.967 288.605C380.921 288.964 377.158 286.504 373.121 286.063C367.181 285.414 361.189 289.74 359.634 295.51C358.079 301.28 360.89 307.849 365.974 310.988C371.059 314.127 377.974 313.796 382.929 310.459" stroke="#171717" stroke-width="3" stroke-linecap="round" stroke-linejoin="round"/>
<path d="M353.218 287.122L358.485 281.855" stroke="#171717" stroke-width="3" stroke-linecap="round" stroke-linejoin="round"/>
<path d="M357.733 285.993C356.721 284.004 355.205 282.315 353.338 281.094L354.347 280.348" stroke="#171717" stroke-width="3" stroke-linecap="round" stroke-linejoin="round"/>
<path d="M411.897 226.91L416.79 223.151" stroke="#171717" stroke-width="3" stroke-linecap="round" stroke-linejoin="round"/>
<path d="M415.733 227.64C414.405 225.588 413.372 223.361 412.662 221.022" stroke="#171717" stroke-width="3" stroke-linecap="round" stroke-linejoin="round"/>
<path d="M270.953 34.7147L267.525 38.4977C267.422 38.6119 267.286 38.6917 267.136 38.7263C266.986 38.7609 266.829 38.7486 266.686 38.6911C266.543 38.6337 266.421 38.5338 266.337 38.4049C266.252 38.276 266.209 38.1242 266.213 37.9702L266.358 32.8673C266.362 32.7184 266.322 32.5716 266.243 32.4454C266.164 32.3193 266.049 32.2195 265.913 32.1585L261.256 30.0673C261.116 30.0042 260.998 29.8996 260.918 29.7675C260.839 29.6354 260.802 29.4822 260.813 29.3285C260.823 29.1748 260.881 29.028 260.977 28.9078C261.074 28.7877 261.204 28.7 261.352 28.6566L266.25 27.2166C266.393 27.1748 266.52 27.0917 266.616 26.9778C266.711 26.8639 266.771 26.7243 266.787 26.5766L267.336 21.5014C267.353 21.3481 267.416 21.2036 267.517 21.0872C267.618 20.9709 267.753 20.8884 267.902 20.8508C268.051 20.8133 268.209 20.8225 268.353 20.8772C268.497 20.9319 268.621 21.0296 268.708 21.1569L271.588 25.3702C271.672 25.4931 271.79 25.5884 271.929 25.6439C272.067 25.6994 272.219 25.7127 272.364 25.6822L277.361 24.6363C277.512 24.6047 277.669 24.62 277.811 24.6803C277.953 24.7405 278.073 24.8428 278.155 24.9734C278.236 25.1039 278.276 25.2564 278.269 25.4104C278.261 25.5643 278.207 25.7122 278.113 25.8342L274.996 29.8779C274.906 29.9958 274.852 30.1381 274.842 30.2866C274.831 30.4352 274.865 30.5834 274.939 30.7126L277.478 35.1419C277.555 35.2756 277.588 35.4294 277.575 35.5829C277.562 35.7363 277.501 35.882 277.403 36.0002C277.304 36.1183 277.171 36.2034 277.022 36.2439C276.874 36.2844 276.716 36.2785 276.571 36.2267L271.763 34.5121C271.623 34.4624 271.472 34.4551 271.328 34.4912C271.184 34.5273 271.053 34.605 270.953 34.7147Z" fill="#171717"/>
<path d="M418.429 283.813L416.184 287.173C416.116 287.275 416.019 287.353 415.905 287.397C415.791 287.442 415.667 287.451 415.548 287.422C415.43 287.394 415.323 287.33 415.241 287.238C415.16 287.147 415.109 287.034 415.094 286.913L414.614 282.898C414.6 282.781 414.552 282.67 414.475 282.581C414.398 282.491 414.297 282.426 414.183 282.394L410.29 281.298C410.173 281.265 410.068 281.196 409.991 281.102C409.914 281.008 409.867 280.892 409.857 280.771C409.847 280.649 409.875 280.528 409.937 280.422C409.998 280.316 410.091 280.233 410.202 280.181L413.871 278.484C413.978 278.435 414.068 278.355 414.13 278.254C414.191 278.153 414.222 278.037 414.217 277.919L414.057 273.879C414.052 273.757 414.085 273.636 414.15 273.534C414.216 273.431 414.312 273.351 414.425 273.304C414.537 273.257 414.661 273.246 414.781 273.272C414.9 273.298 415.008 273.36 415.091 273.45L417.839 276.415C417.919 276.501 418.023 276.562 418.138 276.59C418.253 276.617 418.373 276.61 418.484 276.569L422.277 275.169C422.391 275.127 422.516 275.121 422.634 275.152C422.752 275.182 422.858 275.248 422.937 275.341C423.017 275.434 423.065 275.548 423.077 275.67C423.09 275.791 423.064 275.913 423.005 276.02L421.031 279.55C420.974 279.653 420.948 279.771 420.958 279.889C420.967 280.006 421.011 280.118 421.085 280.211L423.591 283.385C423.667 283.481 423.711 283.598 423.719 283.72C423.726 283.842 423.695 283.963 423.631 284.068C423.567 284.172 423.473 284.254 423.361 284.303C423.249 284.352 423.125 284.365 423.005 284.341L419.038 283.557C418.923 283.535 418.803 283.547 418.695 283.593C418.587 283.638 418.494 283.715 418.429 283.813Z" fill="#171717"/>
<g opacity="0.1">
<path d="M62.6667 467.163C65.7195 469.681 70.7574 465.334 72.8993 463.175C76.167 459.925 78.6433 455.968 80.1366 451.608C81.6342 447.252 81.7835 442.613 82.4449 438.093C83.0315 434.096 84.2182 430.037 88.2374 428.302C92.3158 426.542 97.1558 426.979 101.486 426.851C106.782 426.676 112.062 426.176 117.298 425.354C127.57 423.755 137.602 420.878 147.161 416.789C157.95 412.168 168.053 406.087 177.188 398.718C178.919 397.331 178.607 394.405 177.188 392.958C175.506 391.239 173.134 391.594 171.425 392.958C155.356 405.765 135.844 414.164 115.594 417.494C110.628 418.297 105.615 418.769 100.587 418.907C95.8054 419.05 90.7782 418.836 86.2102 420.494C76.1003 424.161 74.7521 433.858 73.9601 443.292C73.5985 448.161 72.0177 452.86 69.3643 456.958C67.9921 459.117 66.0161 461.082 64.2561 462.932C63.5169 463.708 61.1313 465.898 62.6657 467.164L62.6667 467.163Z" fill="#171717"/>
</g>
<g opacity="0.1">
<path d="M224.869 410.555C229.281 408.883 231.308 402.957 233.465 399.115C235.885 394.801 238.171 390.412 240.494 386.045C245.309 376.993 250.062 367.909 254.753 358.795C257.202 354.059 250.06 349.859 247.586 354.606C242.849 363.703 238.156 372.821 233.506 381.961C231.269 386.381 228.993 390.783 226.856 395.252C224.989 399.153 221.055 404.572 222.223 409.053C222.497 410.101 223.788 410.964 224.868 410.555H224.869Z" fill="#171717"/>
</g>
<g opacity="0.1">
<path d="M327.353 365.978C329.344 370.796 333.806 374.61 337.407 378.285C341.218 382.176 344.992 386.101 348.731 390.061C356.082 397.864 363.34 405.737 370.106 414.061C376.798 422.228 382.895 430.865 388.35 439.905C393.624 448.723 397.687 457.95 401.714 467.372C405.591 476.444 410.998 485.876 421.213 488.574C426.507 489.972 428.766 481.771 423.473 480.378C415.638 478.315 411.923 469.901 409.027 463.079C405.027 453.652 400.921 444.444 395.649 435.637C384.89 417.674 371.233 401.578 356.855 386.43C352.795 382.152 348.593 378.003 344.389 373.868C340.357 369.901 336.045 364.748 330.705 362.626C328.879 361.9 326.591 364.133 327.353 365.978Z" fill="#171717"/>
</g>
<g opacity="0.1">
<path d="M160.279 290.964C158.37 297.741 164.801 304.404 170.405 307.338C171.389 307.883 172.546 308.028 173.634 307.742C174.722 307.457 175.658 306.763 176.248 305.805C176.435 305.485 176.58 305.142 176.678 304.785C177.17 303.104 176.382 300.755 174.716 299.963C172.281 298.876 170.093 297.302 168.288 295.339C167.506 294.444 166.708 293.543 165.965 292.614C165.198 291.695 164.328 290.868 163.372 290.147C162.315 289.3 160.688 289.515 160.278 290.964L160.279 290.964Z" fill="#171717"/>
</g>
<g opacity="0.1">
<path d="M259.351 94.5798C251.75 93.4161 244.011 93.9691 236.431 95.0395C230.284 95.9078 222.818 97.2577 220.82 104.163C219.838 107.556 220.211 111.528 220.112 115.021C219.992 119.243 219.986 123.466 219.952 127.689C219.919 131.56 219.916 135.43 219.941 139.3C219.961 143.212 219.199 148.145 220.449 151.866C221.939 156.307 229.111 154.135 227.367 149.958L227.304 149.709C227.298 149.236 227.169 148.773 226.929 148.365C226.69 147.957 226.348 147.619 225.938 147.384C225.527 147.148 225.063 147.024 224.59 147.023C224.117 147.022 223.652 147.144 223.241 147.378L223.908 147.324L227.367 151.865C228.526 148.751 228.053 144.718 228.181 141.412C228.316 137.892 228.471 134.376 228.559 130.856C228.731 123.993 228.89 117.136 228.925 110.269C228.937 107.953 228.538 105.992 230.698 104.678C232.941 103.314 235.934 102.918 238.455 102.375C245.132 100.941 251.87 100.538 258.641 99.8331C261.361 99.5499 262.588 95.0737 259.353 94.5777L259.351 94.5798Z" fill="#171717"/>
</g>
<g opacity="0.1">
<path d="M209.411 105.387C206.585 105.322 203.772 106.407 200.962 106.709C198.086 107.019 194.954 107.2 192.099 106.656V112.213C199.396 110.387 206.308 106.25 213.257 103.317C220.51 100.256 227.892 97.4171 235.334 94.8507C250.115 89.7649 265.297 85.9291 280.721 83.3841C283.174 82.9777 284.542 79.9414 283.933 77.7254C283.219 75.1259 280.733 74.0987 278.275 74.5126C262.539 77.1361 247.057 81.1041 231.999 86.3723C224.49 88.9985 217.121 92.007 209.919 95.3857C202.888 98.6923 194.979 102.037 189.301 107.395C187.469 109.123 188.888 112.321 191.338 112.314C194.706 112.304 197.964 112.383 201.316 111.909C204.323 111.482 207.957 111.011 210.425 109.109C211.918 107.957 211.566 105.429 209.416 105.382L209.411 105.387Z" fill="#171717"/>
</g>
<g opacity="0.1">
<path d="M215.07 89.6054C213.885 86.2454 211.936 83.3617 211.81 79.6886C211.718 78.0347 211.84 76.3761 212.171 74.7526C212.651 72.6465 213.601 70.8518 212.131 68.8422C211.2 67.5675 209.834 66.8497 208.235 67.2566L207.787 67.3707C207.1 67.5611 206.474 67.9265 205.97 68.4305C205.466 68.9345 205.1 69.5606 204.91 70.2475C202.918 77.5062 204.1 88.2673 210.92 92.7958C212.914 94.1195 215.88 91.9062 215.07 89.6054Z" fill="#171717"/>
</g>
</g>
</svg>
