<svg width="512" height="512" viewBox="0 0 512 512" fill="none" xmlns="http://www.w3.org/2000/svg">
<g clip-path="url(#clip0_760_2739)">
<mask id="mask0_760_2739" style="mask-type:luminance" maskUnits="userSpaceOnUse" x="0" y="0" width="512" height="512">
<path d="M512 0H0V512H512V0Z" fill="white"/>
</mask>
<g mask="url(#mask0_760_2739)">
<mask id="mask1_760_2739" style="mask-type:luminance" maskUnits="userSpaceOnUse" x="65" y="20" width="382" height="473">
<path d="M446.933 20.2666H65.6V492.267H446.933V20.2666Z" fill="white"/>
</mask>
<g mask="url(#mask1_760_2739)">
<path fill-rule="evenodd" clip-rule="evenodd" d="M286.457 419.467L307.693 281.557L307.34 281.51C307.031 283.487 305.613 287.39 299.257 288.057C291.74 288.847 290.097 282.376 289.801 280.733L289.403 280.81L268.501 420.543L268.155 421.711L270.305 422.351L278.869 424.907L287.092 420.718L286.457 419.467ZM299.78 293.535C299.823 293.005 299.429 292.54 298.899 292.497C298.369 292.454 297.904 292.848 297.861 293.378C294.618 332.931 289.197 372.274 281.623 411.23C281.522 411.752 281.862 412.257 282.385 412.359C282.907 412.46 283.412 412.119 283.514 411.597C291.101 372.572 296.532 333.158 299.78 293.535Z" fill="white"/>
<path d="M376.734 241.563L383.539 237.757L377.954 269.148C372.741 268.872 368.735 290.422 368.588 300.514L368.594 300.546C363.633 301.672 358.838 303.437 354.33 305.797C352.494 306.767 350.665 307.864 349.362 309.482C348.059 311.1 347.378 313.353 348.09 315.305C348.803 317.257 351.73 318.874 353.637 318.039L353.669 318.097C353.521 318.174 353.38 318.264 353.233 318.348C350.517 319.978 347.641 322.469 347.975 325.615C348.29 328.542 352.269 330.461 354.869 329.087L354.889 329.12C354.074 329.588 353.271 330.07 352.468 330.56C351.339 331.247 350.175 332 349.496 333.134C348.817 334.268 348.777 335.913 349.772 336.793C350.709 337.621 352.128 337.493 353.354 337.273C357.564 336.591 361.701 335.521 365.712 334.076L365.872 334.506L360.409 366.552L357.257 385.028L287.093 420.72L286.458 419.469L307.692 281.557L307.339 281.504C307.4 281.122 307.426 280.735 307.416 280.349L376.734 241.563Z" fill="white"/>
<path d="M339.007 210.223C339.634 210.312 340.268 210.346 340.9 210.326L340.926 211.019C340.502 213.846 339.424 218.042 336.708 219.307C334.995 220.103 332.975 219.833 331.091 219.544C328.517 219.153 325.941 218.76 323.362 218.363C321.642 218.106 319.735 217.734 318.74 216.386C317.707 214.98 318.496 213.163 318.875 211.479C319.224 210.037 319.646 208.613 320.14 207.213C321.685 207.771 323.294 208.135 324.929 208.297L339.007 210.223Z" fill="white"/>
<path d="M318.015 199.855C318.975 200.568 320.448 200.806 322.477 200.972C329.057 201.518 335.695 201.719 342.294 202.092C343.153 202.167 344.018 202.152 344.875 202.047L346.646 202.092C347.308 205.825 346.467 209.333 343.751 209.969C342.817 210.19 341.861 210.311 340.901 210.328C340.268 210.349 339.634 210.314 339.007 210.225L324.927 208.299C323.292 208.137 321.684 207.773 320.139 207.215C319.399 206.922 318.714 206.507 318.112 205.988C316.315 204.415 315.91 201.232 317.958 199.935L318.015 199.855Z" fill="white"/>
<path d="M177.58 474.927C174.468 472.526 172.077 469.314 170.672 465.642C169.267 461.972 168.902 457.984 169.617 454.118C170.331 450.253 172.098 446.66 174.723 443.734C177.348 440.807 180.729 438.662 184.494 437.533C185.727 437.48 186.959 437.456 188.166 437.443C201.731 437.27 215.293 437.098 228.853 436.929C233.257 436.872 238.155 437.437 242.341 435.787L242.386 435.894C247.181 434.199 253.151 435.445 257.883 438.16L257.741 438.41C251.515 440.94 244.728 441.19 237.943 440.901C235.33 440.794 232.717 440.599 230.138 440.432C228.244 440.304 226.324 440.201 224.405 440.157C219.071 440.009 213.71 440.292 208.747 441.787C206.707 442.39 204.742 443.226 202.893 444.278C197.982 447.096 193.822 452.54 195.093 458.054C196.153 462.65 200.55 465.662 204.87 467.555C206.71 468.358 208.596 469.048 210.519 469.622C215.41 471.057 220.461 471.873 225.554 472.049C229.302 472.2 233.056 472.09 236.788 471.721C239.035 471.503 241.275 471.208 243.503 470.848C251.964 469.487 260.29 467.222 268.57 464.968L268.981 465.032C268.186 469.729 266.652 474.271 264.436 478.488L264.649 479.906C259.199 480.735 253.734 481.448 248.253 482.044C229.559 484.105 210.449 484.972 192.114 480.773C187.017 479.605 181.862 477.946 177.311 475.419L177.58 474.927Z" fill="white"/>
<path d="M222.852 152.537C224.847 150.691 227.22 149.301 229.806 148.464C232.393 147.627 235.13 147.363 237.829 147.69C238.933 147.831 240.146 148.152 240.737 149.102C240.97 149.538 241.084 150.027 241.069 150.52C241.053 151.014 240.907 151.494 240.647 151.914C240.115 152.745 239.415 153.456 238.593 154C236.361 155.666 233.928 157.042 231.351 158.096C234.391 157.339 238.009 157.628 241.045 158.398C242.457 158.751 244.036 159.509 244.293 160.94C244.563 162.475 243.144 163.767 241.783 164.522C236.949 167.219 231.33 167.533 225.734 166.922C223.223 166.633 220.73 166.218 218.262 165.677C210.404 164.014 202.209 161.908 194.49 164.123C191.492 164.983 188.494 166.678 187.217 169.522C186.356 171.448 186.389 173.643 186.44 175.755C186.562 180.807 186.686 185.858 186.813 190.906H186.698C185.465 192.022 184.868 193.653 184.201 195.181C183.533 196.708 182.647 198.282 181.132 198.981C180.757 199.184 180.334 199.282 179.908 199.263C179.482 199.245 179.068 199.112 178.712 198.879C177.948 198.275 177.865 197.158 177.922 196.182C178.018 194.668 178.301 193.172 178.763 191.727C178.381 192.277 177.907 192.756 177.364 193.146C175.823 194.224 173.3 194.083 172.472 192.399C171.779 190.98 172.569 189.324 173.3 187.925C176.317 182.128 178.519 175.818 178.954 169.302C179.101 167.074 179.044 164.827 179.416 162.631C179.788 160.436 180.643 158.221 182.296 156.726C184.163 155.044 186.783 154.492 189.293 154.286C193.485 153.946 197.697 154.393 201.901 154.228C206.106 154.063 210.452 153.202 213.765 150.608C216.673 148.335 218.644 144.843 221.995 143.296C223.362 142.66 225.333 142.59 226.045 143.919C226.349 144.648 226.379 145.463 226.129 146.212C225.559 148.547 224.399 150.696 222.758 152.452L222.852 152.537Z" fill="#171717"/>
<path d="M214.027 338.871C212.871 336.008 209.514 336.027 206.477 336.598L206.465 336.56C207.151 336.329 207.838 336.085 208.525 335.835C209.95 335.315 211.405 334.75 212.531 333.729C213.657 332.708 214.387 331.11 213.982 329.646C213.552 328.125 212.011 327.136 210.451 326.886C208.891 326.636 207.305 326.988 205.765 327.335C200.758 328.459 195.744 329.839 190.737 331.026L190.73 330.988C190.903 330.028 191.045 329.081 191.167 328.144H191.186L199.114 258.145L205.162 259.628L289.748 280.35C289.748 280.35 289.761 280.485 289.806 280.729L289.408 280.806L268.506 420.54L268.159 421.708L183.253 396.357L184.113 388.608L186.88 363.579L186.854 363.271C193.54 362.75 200.13 361.354 206.453 359.117C208.578 358.354 210.709 357.435 212.319 355.864C213.93 354.293 214.926 351.903 214.303 349.74C213.68 347.576 210.623 345.74 208.577 346.684L208.551 346.614C210.037 346.095 211.403 345.279 212.563 344.214C213.954 342.838 214.75 340.688 214.027 338.871Z" fill="white"/>
<path d="M97.9072 373.87C105.675 378.768 115.362 379.282 124.555 379.282C130.012 379.282 135.61 379.102 141.252 378.768L141.259 378.833C180.155 387.711 180.758 387.788 183.48 388.539L184.109 388.61L183.249 396.359L268.156 421.709L270.306 422.349L270.253 422.522C263.345 425.242 247.47 433.166 243.631 435.201C243.213 435.423 242.782 435.619 242.34 435.788C238.155 437.438 233.257 436.873 228.853 436.93C215.289 437.104 201.726 437.275 188.166 437.444C186.959 437.457 185.726 437.483 184.494 437.534C178.703 437.778 172.829 438.664 168.573 442.432C165.46 445.186 163.887 449.07 163.613 453.178L163.164 453.153C139.758 453.262 117.861 449.988 95.296 443.754C85.6155 441.078 75.2864 437.213 70.1573 428.579C66.1195 421.768 66.1707 413.255 67.7435 405.494C69.8683 394.979 75.0811 384.669 83.9979 378.693C93.9867 372.003 97.3845 373.589 97.3845 373.589L97.4101 373.544C97.5733 373.658 97.7403 373.76 97.9072 373.87Z" fill="#171717"/>
<path d="M211.574 229.488C208.723 226.471 210.241 219.408 213.044 216.347C215.847 213.286 220.58 212.387 222.789 208.869C225.022 205.318 224.355 199.663 224.541 195.477C224.958 185.996 225.352 176.516 225.722 167.039" stroke="#171717" stroke-width="3.611" stroke-linecap="round" stroke-linejoin="round"/>
<path d="M218.634 180.083C217.118 179.64 215.606 179.198 214.095 178.754" stroke="#171717" stroke-width="3.611" stroke-linecap="round" stroke-linejoin="round"/>
<path d="M219.962 171.565C216.17 170.691 212.239 170.608 208.414 171.32C207.942 179.738 209.149 188.166 211.964 196.113C211.383 196.699 210.643 197.101 209.836 197.267C209.028 197.434 208.19 197.358 207.425 197.05" stroke="#171717" stroke-width="3.611" stroke-linecap="round" stroke-linejoin="round"/>
<path d="M202.283 177.94C200.215 177.317 198.009 177.317 195.941 177.94" stroke="#171717" stroke-width="3.611" stroke-linecap="round" stroke-linejoin="round"/>
<path d="M203.644 210.08C200.831 210.152 198.087 209.211 195.91 207.429" stroke="#171717" stroke-width="3.611" stroke-linecap="round" stroke-linejoin="round"/>
<path d="M148.846 285.813C139.552 291.729 132.303 300.363 128.086 310.541C125.537 316.717 124.658 324.915 129.851 329.12C132.951 331.63 137.272 331.854 141.265 331.861C152.193 331.886 163.11 331.168 173.94 329.71C173.994 330.853 174.043 331.989 174.1 333.132C174.569 343.313 175.04 353.497 175.513 363.683C175.687 367.489 175.862 371.296 176.039 375.103" stroke="#171717" stroke-width="3.611" stroke-linecap="round" stroke-linejoin="round"/>
<path d="M176.041 375.103C164.841 376.753 152.956 378.081 141.253 378.768C135.61 379.102 130.012 379.282 124.555 379.282C115.363 379.282 105.675 378.768 97.9077 373.87C97.7408 373.764 97.5739 373.657 97.4069 373.543C89.7163 368.452 85.1584 359.729 82.1157 350.991C76.8709 335.957 75.1504 319.407 79.2208 304.013C84.8005 282.899 101.041 265.553 120.485 255.616C138.165 246.577 158.265 243.194 178.172 243.303C180.163 243.309 182.148 243.352 184.129 243.431" stroke="#171717" stroke-width="3.611" stroke-linecap="round" stroke-linejoin="round"/>
<path d="M178.171 242.982C177.503 240.935 176.823 238.842 176.868 236.685C176.913 234.528 177.825 232.274 179.679 231.176C181.073 230.354 182.761 230.291 184.373 230.246C185.503 230.214 186.639 230.188 187.769 230.156L211.573 229.521C212.599 229.495 213.633 229.463 214.66 229.437C218.14 229.348 221.799 229.296 224.867 230.946C227.935 232.596 229.284 236.293 227.647 239.362" stroke="#171717" stroke-width="3.611" stroke-linecap="round" stroke-linejoin="round"/>
<path d="M220.977 239.907C223.185 239.759 225.41 239.629 227.653 239.516C264.199 237.679 305.118 240.459 339.437 251.501" stroke="#171717" stroke-width="3.611" stroke-linecap="round" stroke-linejoin="round"/>
<path d="M190.953 330.198L191.183 328.144L199.111 258.145L205.159 259.628L289.746 280.35C289.746 280.35 289.758 280.485 289.803 280.729C290.099 282.372 291.742 288.843 299.259 288.054C305.615 287.386 307.034 283.483 307.342 281.505C307.403 281.124 307.428 280.737 307.419 280.35L376.737 241.563L383.542 237.757L377.957 269.148" stroke="#171717" stroke-width="3.611" stroke-linecap="round" stroke-linejoin="round"/>
<path d="M365.873 334.505L360.41 366.552L357.258 385.028L287.092 420.72L278.868 424.906L270.305 422.351L268.154 421.709L183.249 396.358L184.109 388.609L186.876 363.579" stroke="#171717" stroke-width="3.611" stroke-linecap="round" stroke-linejoin="round"/>
<path d="M289.403 280.807L268.501 420.541" stroke="#171717" stroke-width="3.611" stroke-linecap="round" stroke-linejoin="round"/>
<path d="M307.757 281.146L307.692 281.557L286.456 419.469" stroke="#171717" stroke-width="3.611" stroke-linecap="round" stroke-linejoin="round"/>
<path d="M204.774 259.846L205.159 259.628L211.803 255.879L295.18 276.274L339.597 251.79L365.873 237.301L376.734 241.563L377.049 241.685" stroke="#171717" stroke-width="3.611" stroke-linecap="round" stroke-linejoin="round"/>
<path d="M368.587 300.514C368.735 290.423 372.741 268.872 377.954 269.148C382.184 269.628 380.419 277.551 379.757 282.084C378.477 290.859 380.149 299.782 380.002 308.648C379.854 317.513 377.299 327.174 369.987 332.188" stroke="#171717" stroke-width="3.611" stroke-linecap="round" stroke-linejoin="round"/>
<path d="M369.988 332.188C368.602 332.902 367.174 333.532 365.713 334.076C361.701 335.521 357.564 336.591 353.355 337.272C352.129 337.49 350.71 337.619 349.773 336.792C348.778 335.913 348.813 334.276 349.497 333.133C350.18 331.99 351.339 331.246 352.469 330.559C353.269 330.071 354.074 329.59 354.889 329.119C360.575 325.825 366.517 322.996 372.659 320.658" stroke="#171717" stroke-width="3.611" stroke-linecap="round" stroke-linejoin="round"/>
<path d="M354.921 329.062C354.901 329.068 354.889 329.081 354.867 329.087C352.267 330.461 348.287 328.542 347.973 325.614C347.639 322.468 350.515 319.978 353.23 318.348C353.378 318.264 353.519 318.174 353.667 318.097C359.654 314.578 366.258 312.234 373.124 311.19" stroke="#171717" stroke-width="3.611" stroke-linecap="round" stroke-linejoin="round"/>
<path d="M353.637 318.039C351.73 318.874 348.796 317.256 348.09 315.305C347.384 313.353 348.065 311.1 349.362 309.482C350.659 307.864 352.494 306.767 354.33 305.797C358.838 303.437 363.633 301.672 368.594 300.546C370.688 300.066 372.806 299.704 374.941 299.461" stroke="#171717" stroke-width="3.611" stroke-linecap="round" stroke-linejoin="round"/>
<path d="M190.727 330.987C190.901 330.027 191.042 329.08 191.164 328.143C191.524 325.325 191.671 322.571 191.794 319.56C191.838 318.411 192.159 317.133 191.441 316.235C190.49 315.053 188.494 315.349 187.387 316.389C186.281 317.429 185.802 318.949 185.237 320.362C183.049 325.739 179.13 330.233 174.099 333.131C174.035 333.17 173.971 333.202 173.906 333.24" stroke="#171717" stroke-width="3.611" stroke-linecap="round" stroke-linejoin="round"/>
<path d="M188.693 331.502C189.374 331.348 190.054 331.187 190.735 331.027C195.742 329.839 200.756 328.459 205.763 327.335C207.303 326.989 208.889 326.636 210.449 326.886C212.009 327.137 213.55 328.125 213.98 329.647C214.385 331.11 213.652 332.702 212.529 333.73C211.406 334.757 209.948 335.315 208.523 335.835C207.836 336.085 207.149 336.33 206.462 336.561C199.816 338.862 193.007 340.665 186.093 341.953" stroke="#171717" stroke-width="3.611" stroke-linecap="round" stroke-linejoin="round"/>
<path d="M206.475 336.598C209.511 336.027 212.869 336.008 214.025 338.871C214.75 340.688 213.954 342.838 212.561 344.212C211.401 345.277 210.035 346.094 208.548 346.612C208.189 346.76 207.823 346.895 207.463 347.03C200.841 349.461 193.981 351.191 186.998 352.191" stroke="#171717" stroke-width="3.611" stroke-linecap="round" stroke-linejoin="round"/>
<path d="M208.574 346.684C210.622 345.74 213.684 347.576 214.3 349.739C214.916 351.902 213.927 354.284 212.317 355.863C210.707 357.443 208.574 358.354 206.45 359.117C200.127 361.352 193.538 362.749 186.851 363.27C183.141 363.597 179.392 363.713 175.604 363.675" stroke="#171717" stroke-width="3.611" stroke-linecap="round" stroke-linejoin="round"/>
<path d="M360.769 366.617C369.634 362.65 376.246 360.107 385.953 360.358C395.66 360.608 405.86 365.808 409.147 374.943C412.446 384.11 408.119 394.202 402.952 402.457C391.532 420.682 375.637 435.73 357.527 447.445C354.305 449.532 351.018 451.509 347.667 453.377C346.145 454.23 344.611 455.053 343.07 455.855C340.445 457.235 337.791 458.544 335.11 459.784C332.568 460.965 330.006 462.091 327.426 463.16C322.9 465.035 318.316 466.756 313.675 468.322C311.044 469.214 308.395 470.062 305.729 470.864C300.792 472.347 295.814 473.682 290.795 474.87C282.167 476.924 273.43 478.58 264.649 479.909C259.198 480.737 253.733 481.45 248.253 482.047C229.559 484.108 210.448 484.974 192.114 480.776C187.017 479.607 181.862 477.949 177.31 475.422C173.747 473.508 170.607 470.894 168.079 467.738C164.891 463.577 163.306 458.41 163.611 453.178C163.887 449.071 165.46 445.185 168.571 442.431C172.827 438.663 178.701 437.777 184.492 437.533C185.724 437.48 186.957 437.456 188.164 437.443C201.728 437.269 215.29 437.098 228.851 436.93C233.254 436.872 238.153 437.437 242.338 435.787C242.78 435.618 243.211 435.422 243.629 435.2C247.469 433.166 263.343 425.244 270.251 422.522" stroke="#171717" stroke-width="3.611" stroke-linecap="round" stroke-linejoin="round"/>
<path d="M97.3808 373.588C97.3808 373.588 93.9851 372.002 83.9941 378.692C75.0795 384.668 69.8667 394.978 67.7419 405.493C66.1691 413.254 66.1179 421.767 70.1557 428.578C75.2848 437.212 85.6139 441.077 95.2944 443.753C117.859 449.987 139.756 453.261 163.162 453.152" stroke="#171717" stroke-width="3.611" stroke-linecap="round" stroke-linejoin="round"/>
<path d="M183.48 388.54C180.76 387.789 180.155 387.711 141.259 378.833" stroke="#171717" stroke-width="3.611" stroke-linecap="round" stroke-linejoin="round"/>
<path d="M290.874 475.203C301.742 481.923 313.143 486.052 325.68 488.524C328.075 488.999 330.508 489.384 332.947 489.64C339.566 490.34 346.268 490.096 352.559 488.029C361.167 485.202 368.871 478.438 370.9 469.605C372.71 461.722 367.863 452.432 360.558 448.909C359.684 448.483 358.77 448.145 357.829 447.901" stroke="#171717" stroke-width="3.611" stroke-linecap="round" stroke-linejoin="round"/>
<path d="M187.769 230.201V230.156C187.449 217.071 187.13 203.989 186.812 190.907C186.684 185.855 186.559 180.805 186.439 175.757C186.386 173.645 186.356 171.449 187.215 169.524C188.495 166.68 191.491 164.985 194.489 164.125C202.205 161.91 210.403 164.018 218.261 165.678C220.729 166.219 223.222 166.635 225.733 166.924C231.333 167.534 236.948 167.219 241.782 164.524C243.143 163.766 244.562 162.476 244.292 160.942C244.035 159.51 242.456 158.755 241.044 158.399C238.007 157.629 234.393 157.34 231.35 158.098" stroke="#171717" stroke-width="3.611" stroke-linecap="round" stroke-linejoin="round"/>
<path d="M231.351 158.096C233.928 157.042 236.361 155.665 238.593 154C239.415 153.456 240.115 152.745 240.647 151.914C240.907 151.495 241.053 151.014 241.069 150.52C241.084 150.027 240.97 149.537 240.737 149.102C240.146 148.152 238.933 147.831 237.829 147.69C235.13 147.363 232.393 147.627 229.806 148.464C227.22 149.301 224.847 150.691 222.852 152.537C223.057 152.357 223.262 152.184 223.475 152.011" stroke="#171717" stroke-width="3.611" stroke-linecap="round" stroke-linejoin="round"/>
<path d="M178.762 191.722C179.423 190.716 179.965 189.636 180.38 188.505" stroke="#171717" stroke-width="3.611" stroke-linecap="round" stroke-linejoin="round"/>
<path d="M222.517 152.717C222.601 152.627 222.684 152.544 222.761 152.454C224.402 150.697 225.563 148.549 226.132 146.214C226.382 145.464 226.353 144.649 226.048 143.92C225.335 142.591 223.365 142.662 221.997 143.297C218.646 144.844 216.676 148.337 213.767 150.609C210.455 153.203 206.102 154.063 201.904 154.23C197.706 154.397 193.488 153.948 189.296 154.288C186.786 154.493 184.167 155.045 182.299 156.727C180.643 158.221 179.789 160.431 179.419 162.633C179.049 164.836 179.104 167.076 178.956 169.303C178.52 175.819 176.318 182.129 173.303 187.926C172.571 189.326 171.781 190.982 172.475 192.401C173.303 194.082 175.826 194.224 177.366 193.148C177.91 192.758 178.384 192.278 178.766 191.729" stroke="#171717" stroke-width="3.611" stroke-linecap="round" stroke-linejoin="round"/>
<path d="M180.161 188.48C179.592 189.514 179.123 190.599 178.761 191.722V191.728C178.299 193.173 178.016 194.67 177.92 196.183C177.862 197.159 177.946 198.276 178.71 198.88C179.066 199.113 179.479 199.247 179.906 199.264C180.332 199.282 180.755 199.185 181.13 198.982C182.645 198.282 183.53 196.703 184.198 195.182C184.867 193.66 185.463 192.023 186.695 190.906" stroke="#171717" stroke-width="3.611" stroke-linecap="round" stroke-linejoin="round"/>
<path d="M320.14 207.212C319.646 208.612 319.224 210.036 318.875 211.479C318.496 213.16 317.707 214.977 318.74 216.385C319.735 217.733 321.642 218.105 323.362 218.363C325.937 218.76 328.513 219.155 331.091 219.544C332.972 219.832 334.995 220.102 336.708 219.306C339.424 218.041 340.502 213.843 340.926 211.019" stroke="#171717" stroke-width="3.611" stroke-linecap="round" stroke-linejoin="round"/>
<path d="M317.957 199.933C315.91 201.229 316.314 204.413 318.111 205.986C318.714 206.505 319.398 206.92 320.138 207.213C321.683 207.771 323.292 208.135 324.927 208.297L339.007 210.223C339.634 210.312 340.268 210.346 340.901 210.326C341.861 210.309 342.817 210.188 343.751 209.967C346.467 209.331 347.308 205.826 346.646 202.09" stroke="#171717" stroke-width="3.611" stroke-linecap="round" stroke-linejoin="round"/>
<path d="M318.015 199.855C318.975 200.568 320.447 200.806 322.476 200.972C329.057 201.518 335.694 201.719 342.293 202.092C343.153 202.167 344.018 202.152 344.874 202.047C345.291 201.985 345.696 201.866 346.081 201.694C347.506 200.965 348.623 199.749 349.228 198.266C352.854 190.286 352.641 189.176 362.779 180.631C396.476 152.218 383.091 125.886 360.225 122.419C343.084 119.819 302.969 128.049 314.793 162.233C323.151 186.396 316.61 191.538 316.617 196.013C316.615 198 317.071 199.162 318.015 199.855Z" stroke="#171717" stroke-width="3.611" stroke-linecap="round" stroke-linejoin="round"/>
<path d="M340.085 198.09C344.412 188.537 348.739 178.983 353.067 169.426C353.555 168.354 354.119 167.199 355.211 166.659C356.257 166.146 357.515 166.326 358.69 166.249C359.817 166.168 360.914 165.848 361.907 165.311C362.901 164.775 363.77 164.033 364.455 163.135C365.041 162.408 365.447 161.553 365.641 160.64C365.834 159.726 365.807 158.779 365.565 157.878C365.267 156.967 364.687 156.174 363.909 155.614C363.132 155.053 362.197 154.753 361.238 154.758C359.287 154.841 357.509 156.671 357.868 158.488C357.95 158.957 358.179 159.389 358.521 159.72C358.864 160.051 359.303 160.264 359.775 160.33C360.751 160.407 361.739 159.463 361.444 158.584" stroke="#171717" stroke-width="3.611" stroke-linecap="round" stroke-linejoin="round"/>
<path d="M323.702 197.936C327.497 185.005 330.245 171.789 331.919 158.416C329.962 158.294 328.767 155.72 329.994 154.263C331.22 152.806 334.147 153.319 334.712 155.103" stroke="#171717" stroke-width="3.611" stroke-linecap="round" stroke-linejoin="round"/>
<path d="M338.063 156.004C337.659 157.827 339.322 159.599 341.222 160.068C343.122 160.536 345.145 160.036 347.006 159.419C348.867 158.803 350.742 158.058 352.707 158.052" stroke="#171717" stroke-width="3.611" stroke-linecap="round" stroke-linejoin="round"/>
<path d="M239.176 116.293C243.291 117.306 247.714 116.267 251.399 114.174C255.18 112.023 258.371 108.704 259.95 104.654C263.538 95.4101 255.683 82.5002 245.082 83.7327C235.209 84.8879 226.517 95.9295 229.13 105.706C230.439 110.605 234.137 115.047 239.176 116.293Z" stroke="#171717" stroke-width="3.611" stroke-linecap="round" stroke-linejoin="round"/>
<path d="M240.081 79.5017C236.056 80.9929 232.563 83.642 230.041 87.115C228.843 85.0718 227.121 83.3849 225.053 82.2297L219.044 89.8948L225.13 95.0558" stroke="#171717" stroke-width="3.611" stroke-linecap="round" stroke-linejoin="round"/>
<path d="M223.513 98.2014C223.557 100.712 223.602 103.222 223.647 105.732C223.7 106.345 223.628 106.964 223.434 107.549C222.67 109.423 219.871 109.57 218.78 111.278C220.058 113.262 221.335 115.248 222.613 117.236C222.805 117.531 223.03 117.858 223.377 117.922C223.727 117.932 224.067 117.805 224.326 117.569C225.88 116.459 227.431 115.346 228.981 114.231" stroke="#171717" stroke-width="3.611" stroke-linecap="round" stroke-linejoin="round"/>
<path d="M231.081 117.216C232.773 118.713 234.804 119.777 236.997 120.317C239.191 120.857 241.483 120.857 243.676 120.317C243.926 122.731 244.183 125.151 244.434 127.565C248.106 126.901 251.733 126.01 255.295 124.898C254.3 122.978 253.305 121.058 252.309 119.138C252.377 119.162 252.449 119.172 252.521 119.167C252.592 119.162 252.662 119.143 252.726 119.111C252.79 119.079 252.847 119.034 252.894 118.979C252.94 118.924 252.975 118.86 252.996 118.791" stroke="#171717" stroke-width="3.611" stroke-linecap="round" stroke-linejoin="round"/>
<path d="M255.675 116.151C257.643 115.282 259.406 114.007 260.85 112.411C262.294 110.815 263.386 108.933 264.054 106.887C264.337 106.014 264.593 105.032 265.351 104.519C266.802 103.543 268.862 104.949 270.467 104.262C270.325 100.526 270.183 96.7871 270.044 93.0469C268.233 93.5802 266.429 94.1135 264.619 94.6517" stroke="#171717" stroke-width="3.611" stroke-linecap="round" stroke-linejoin="round"/>
<path d="M262.608 91.4165C262.301 89.4015 261.477 87.5007 260.214 85.9002C258.953 84.3002 257.296 83.0554 255.408 82.2879C255.568 80.1114 255.735 77.9354 255.896 75.7588L249.165 74.9332C248.651 74.8239 248.117 74.8548 247.619 75.0228C247.305 75.1924 247.043 75.4437 246.861 75.7498C246.679 76.0565 246.584 76.4063 246.586 76.7626C246.598 77.4762 246.742 78.1807 247.009 78.8426" stroke="#171717" stroke-width="3.611" stroke-linecap="round" stroke-linejoin="round"/>
<path d="M242.387 435.896C247.182 434.201 253.152 435.447 257.883 438.162C259.344 438.989 260.701 439.987 261.927 441.134C266.8 445.731 269.259 452.529 269.394 459.225C269.428 461.17 269.29 463.114 268.983 465.035C268.188 469.732 266.654 474.273 264.438 478.49" stroke="#171717" stroke-width="3.611" stroke-linecap="round" stroke-linejoin="round"/>
<path d="M257.742 438.413C251.515 440.942 244.729 441.192 237.944 440.903C235.331 440.797 232.717 440.601 230.138 440.434C228.244 440.306 226.325 440.204 224.405 440.159C219.072 440.011 213.71 440.294 208.748 441.789C206.707 442.392 204.743 443.228 202.893 444.28C197.982 447.098 193.822 452.542 195.093 458.056C196.153 462.653 200.55 465.664 204.87 467.557C206.71 468.36 208.596 469.05 210.52 469.624C215.41 471.06 220.461 471.875 225.554 472.051C229.302 472.202 233.056 472.093 236.789 471.724C239.035 471.505 241.276 471.21 243.503 470.85C251.964 469.489 260.291 467.224 268.57 464.97" stroke="#171717" stroke-width="3.611" stroke-miterlimit="10" stroke-linecap="round"/>
<path d="M305.837 471.223C308.136 472.24 310.485 473.138 312.877 473.913C317.028 475.255 321.284 476.249 325.601 476.885C327.526 477.174 329.465 477.392 331.404 477.546C334.184 477.805 336.983 477.801 339.762 477.533C341.771 477.332 343.746 476.87 345.636 476.159C350.123 474.439 354.091 470.761 355.053 466.049C356.016 461.337 353.172 455.848 348.474 454.84" stroke="#171717" stroke-width="3.611" stroke-miterlimit="10" stroke-linecap="round"/>
<path d="M243.497 470.819C245.194 465.852 245.573 460.529 244.597 455.372C243.62 450.215 241.321 445.4 237.924 441.398" stroke="#171717" stroke-width="3.611" stroke-miterlimit="10" stroke-linecap="round"/>
<path d="M225.586 471.364C230.792 462.21 230.298 450.103 224.367 441.398" stroke="#171717" stroke-width="3.611" stroke-miterlimit="10" stroke-linecap="round"/>
<path d="M210.532 469.586C212.585 465.23 213.506 460.427 213.21 455.621C212.913 450.815 211.41 446.161 208.837 442.091" stroke="#171717" stroke-width="3.611" stroke-miterlimit="10" stroke-linecap="round"/>
<path d="M343.2 455.413C343.155 455.561 343.117 455.709 343.072 455.856C341.107 462.697 339.971 469.749 339.689 476.861" stroke="#171717" stroke-width="3.611" stroke-miterlimit="10" stroke-linecap="round"/>
<path d="M325.61 476.853C326.233 472.328 326.853 467.8 327.471 463.27" stroke="#171717" stroke-width="3.611" stroke-miterlimit="10" stroke-linecap="round"/>
<path d="M313.001 473.541C312.909 471.976 313.222 470.415 313.908 469.007" stroke="#171717" stroke-width="3.611" stroke-miterlimit="10" stroke-linecap="round"/>
<path d="M184.587 437.508C184.555 437.514 184.529 437.527 184.497 437.533C180.732 438.662 177.351 440.807 174.726 443.734C172.101 446.66 170.334 450.253 169.619 454.118C168.905 457.984 169.27 461.971 170.675 465.642C172.08 469.314 174.47 472.526 177.583 474.927C177.75 475.055 177.917 475.184 178.09 475.306" stroke="#171717" stroke-width="3.611" stroke-miterlimit="10" stroke-linecap="round"/>
<path d="M332.922 489.897C340.374 490.796 347.982 491.497 355.339 490C362.695 488.503 369.867 484.48 373.513 477.92C375.008 475.225 375.857 472.219 375.99 469.14C376.124 466.061 375.539 462.993 374.282 460.179C373.026 457.365 371.131 454.881 368.749 452.926C366.367 450.97 363.563 449.595 360.558 448.91C360.493 448.891 360.429 448.878 360.365 448.865" stroke="#171717" stroke-width="3.611" stroke-miterlimit="10" stroke-linecap="round"/>
<path d="M217.241 292.888L266.78 304.667" stroke="#171717" stroke-width="3.611" stroke-linecap="round" stroke-linejoin="round"/>
<path d="M225.695 305.278L257.113 313.43" stroke="#171717" stroke-width="3.611" stroke-linecap="round" stroke-linejoin="round"/>
<path d="M292.76 296.816L279.17 397.417" stroke="#171717" stroke-width="3.611" stroke-linecap="round" stroke-linejoin="round"/>
<path d="M147.204 193.227L153.292 191.274C153.383 191.245 153.482 191.244 153.573 191.272C153.665 191.3 153.746 191.356 153.805 191.431C153.864 191.507 153.899 191.599 153.904 191.695C153.909 191.791 153.885 191.886 153.834 191.967L150.478 197.407C150.43 197.486 150.406 197.577 150.409 197.67C150.412 197.762 150.443 197.852 150.497 197.927L154.235 203.114C154.291 203.191 154.322 203.285 154.323 203.38C154.325 203.475 154.297 203.569 154.243 203.649C154.19 203.728 154.114 203.789 154.025 203.824C153.935 203.858 153.838 203.865 153.745 203.843L147.532 202.333C147.442 202.311 147.348 202.317 147.261 202.348C147.174 202.38 147.099 202.437 147.044 202.512L143.267 207.67C143.21 207.747 143.131 207.805 143.041 207.836C142.95 207.867 142.852 207.87 142.761 207.843C142.668 207.817 142.587 207.763 142.526 207.689C142.466 207.615 142.429 207.524 142.422 207.429L141.939 201.054C141.932 200.961 141.898 200.873 141.841 200.8C141.784 200.727 141.707 200.673 141.619 200.644L135.546 198.646C135.455 198.616 135.375 198.559 135.318 198.482C135.26 198.406 135.228 198.313 135.224 198.217C135.221 198.122 135.247 198.027 135.299 197.947C135.35 197.866 135.426 197.804 135.514 197.768L141.427 195.338C141.513 195.303 141.586 195.243 141.638 195.166C141.69 195.089 141.717 194.999 141.717 194.906L141.741 188.513C141.742 188.417 141.772 188.324 141.827 188.246C141.882 188.168 141.959 188.108 142.049 188.075C142.139 188.042 142.237 188.038 142.33 188.062C142.422 188.086 142.505 188.138 142.567 188.211L146.705 193.085C146.765 193.154 146.844 193.205 146.933 193.231C147.022 193.256 147.116 193.255 147.204 193.227Z" stroke="#171717" stroke-width="3.611" stroke-miterlimit="10"/>
<path d="M369.771 88.2618L378.969 90.258C379.106 90.2884 379.23 90.3599 379.326 90.4634C379.421 90.5663 379.483 90.6964 379.502 90.8356C379.522 90.9748 379.499 91.1162 379.435 91.242C379.372 91.3674 379.272 91.4708 379.149 91.538L370.862 96.0004C370.742 96.065 370.644 96.1636 370.58 96.2842C370.516 96.4042 370.49 96.5412 370.503 96.6767L371.446 106.041C371.46 106.181 371.431 106.322 371.363 106.445C371.294 106.568 371.189 106.668 371.062 106.729C370.936 106.791 370.793 106.813 370.654 106.791C370.515 106.769 370.386 106.706 370.284 106.608L363.479 100.107C363.38 100.013 363.256 99.9503 363.122 99.9268C362.988 99.9034 362.85 99.9199 362.725 99.9743L354.11 103.765C353.981 103.822 353.838 103.837 353.7 103.81C353.562 103.783 353.435 103.714 353.337 103.613C353.239 103.511 353.174 103.382 353.152 103.243C353.13 103.104 353.15 102.962 353.211 102.835L357.292 94.3546C357.351 94.2314 357.372 94.0943 357.353 93.9594C357.334 93.8244 357.276 93.698 357.186 93.5962L350.918 86.5748C350.823 86.4698 350.764 86.338 350.747 86.1983C350.73 86.058 350.757 85.9162 350.823 85.7919C350.889 85.6671 350.991 85.5658 351.117 85.5012C351.243 85.4372 351.385 85.4127 351.525 85.4319L360.852 86.6922C360.987 86.7103 361.124 86.6884 361.246 86.6282C361.369 86.5684 361.471 86.474 361.54 86.3562L366.281 78.226C366.351 78.1044 366.458 78.0074 366.586 77.9476C366.714 77.8884 366.857 77.8698 366.995 77.8943C367.134 77.9188 367.262 77.985 367.362 78.0842C367.462 78.1839 367.529 78.3114 367.555 78.45L369.239 87.7098C369.263 87.8442 369.326 87.9679 369.421 88.0666C369.516 88.1647 369.638 88.2324 369.771 88.2618Z" stroke="#171717" stroke-width="3.611" stroke-miterlimit="10"/>
<path d="M393.965 235.49L445.623 189.722" stroke="#171717" stroke-width="3.611" stroke-linecap="round" stroke-linejoin="round"/>
<path d="M387.168 226.427L393.058 214.193" stroke="#171717" stroke-width="3.611" stroke-linecap="round" stroke-linejoin="round"/>
<path d="M377.198 224.162L381.276 179.301" stroke="#171717" stroke-width="3.611" stroke-linecap="round" stroke-linejoin="round"/>
<path d="M393.058 251.35L405.293 251.804" stroke="#171717" stroke-width="3.611" stroke-linecap="round" stroke-linejoin="round"/>
<path d="M393.511 265.398L431.575 294.853" stroke="#171717" stroke-width="3.611" stroke-linecap="round" stroke-linejoin="round"/>
<path d="M411.2 408.607C415.063 403.941 417.775 398.431 419.115 392.524C420.454 386.616 420.386 380.476 418.913 374.6" stroke="white" stroke-width="3.611" stroke-linecap="round" stroke-linejoin="round"/>
<path fill-rule="evenodd" clip-rule="evenodd" d="M270.253 422.525C263.346 425.247 247.471 433.168 243.631 435.204C243.213 435.425 242.782 435.621 242.34 435.79L242.386 435.896C247.181 434.202 253.151 435.447 257.882 438.163C259.343 438.99 260.7 439.988 261.926 441.135C266.799 445.732 269.258 452.53 269.393 459.225C269.427 461.17 269.289 463.114 268.982 465.035C268.187 469.732 266.653 474.274 264.437 478.491L264.651 479.909C273.433 478.58 282.17 476.924 290.797 474.87C295.816 473.682 300.794 472.347 305.731 470.864C308.397 470.062 311.046 469.214 313.677 468.322C318.318 466.756 322.902 465.035 327.428 463.16C330.009 462.091 332.57 460.965 335.112 459.784C337.793 458.544 340.446 457.235 343.073 455.855C344.613 455.053 346.147 454.23 347.669 453.377C351.02 451.509 354.307 449.532 357.529 447.445C375.639 435.73 391.534 420.682 402.954 402.457C408.122 394.202 412.449 384.11 409.149 374.943C405.862 365.808 395.662 360.608 385.955 360.358C376.249 360.107 369.636 362.65 360.771 366.617L360.412 366.552L357.26 385.028L287.094 420.721L278.87 424.907L270.307 422.351L270.253 422.525ZM404.401 375.092C404.272 374.576 403.749 374.263 403.233 374.392C402.717 374.521 402.404 375.044 402.533 375.56C403.253 378.435 403.633 381.027 403.393 384.057C403.152 387.099 402.283 390.636 400.436 395.384C397.654 402.538 393.945 406.511 390.573 410.124C389.51 411.262 388.482 412.364 387.525 413.519C387.186 413.928 387.243 414.535 387.653 414.875C388.063 415.214 388.67 415.157 389.009 414.747C389.871 413.706 390.836 412.673 391.859 411.579C395.266 407.933 399.302 403.616 402.231 396.082C404.118 391.23 405.052 387.502 405.313 384.209C405.574 380.904 405.153 378.093 404.401 375.092Z" fill="#171717"/>
<path d="M266.798 257.867C279.914 244.853 281.558 221.96 270.435 207.209C264.679 199.575 255.993 193.895 252.66 184.935C248.458 173.639 254.19 161.152 260.98 151.192C267.77 141.232 276.029 131.445 277.548 119.489" stroke="white" stroke-width="3.611" stroke-linecap="round" stroke-linejoin="round"/>
<path d="M308.373 258.296C306.164 250.961 311.075 243.089 317.521 238.949C323.966 234.809 331.707 233.349 339.014 231.056C344.535 229.322 349.978 227.025 354.449 223.352C358.92 219.679 362.356 214.48 362.957 208.725" stroke="white" stroke-width="3.611" stroke-linecap="round" stroke-linejoin="round"/>
<path d="M194.414 129.621L183.539 118.745" stroke="white" stroke-width="3.611" stroke-linecap="round" stroke-linejoin="round"/>
<path d="M184.054 130.752L192.292 117.205" stroke="white" stroke-width="3.611" stroke-linecap="round" stroke-linejoin="round"/>
<path d="M399.764 172.347L412.065 165.209" stroke="white" stroke-width="3.611" stroke-linecap="round" stroke-linejoin="round"/>
<path d="M407.923 176.153C406.698 171.701 404.919 167.42 402.628 163.41" stroke="white" stroke-width="3.611" stroke-linecap="round" stroke-linejoin="round"/>
<path d="M163.767 168.878C161.954 166.612 160.14 164.346 158.327 162.081" stroke="white" stroke-width="3.611" stroke-linecap="round" stroke-linejoin="round"/>
<path d="M156.489 169.76C159.21 166.741 161.932 163.723 164.653 160.704" stroke="white" stroke-width="3.611" stroke-linecap="round" stroke-linejoin="round"/>
<path d="M308.32 87.7651C305.958 84.6713 304.261 81.123 303.335 77.3433" stroke="#171717" stroke-width="3.611" stroke-linecap="round" stroke-linejoin="round"/>
<path d="M300.25 86.4842C302.972 83.4655 305.694 80.4468 308.415 77.4287" stroke="#171717" stroke-width="3.611" stroke-linecap="round" stroke-linejoin="round"/>
<path d="M260.621 227.574C257.761 226.14 255.442 223.82 254.008 220.96" stroke="#171717" stroke-width="3.611" stroke-linecap="round" stroke-linejoin="round"/>
<path d="M253.489 229.147C256.247 226.453 258.409 223.212 259.836 219.631" stroke="#171717" stroke-width="3.611" stroke-linecap="round" stroke-linejoin="round"/>
<path d="M149.266 347.417L128.875 349.456L145.414 365.543L149.266 347.417Z" stroke="white" stroke-width="3.611" stroke-linecap="round" stroke-linejoin="round"/>
<path d="M103.045 356.254L110.748 323.854L88.5446 340.847L103.045 356.254Z" stroke="white" stroke-width="3.611" stroke-linecap="round" stroke-linejoin="round"/>
<path d="M121.851 294.173L135.899 283.977L123.89 278.54L121.851 294.173Z" stroke="white" stroke-width="3.611" stroke-linecap="round" stroke-linejoin="round"/>
<path d="M159.009 301.423L160.142 320.682L174.189 310.712L159.009 301.423Z" stroke="white" stroke-width="3.611" stroke-linecap="round" stroke-linejoin="round"/>
<path d="M175.322 272.421L159.235 260.64L178.947 252.936L175.322 272.421Z" stroke="white" stroke-width="3.611" stroke-linecap="round" stroke-linejoin="round"/>
<path d="M195.486 249.085L211.12 247.499L201.151 239.116L195.486 249.085Z" stroke="white" stroke-width="3.611" stroke-linecap="round" stroke-linejoin="round"/>
<path d="M236.043 246.139L246.012 257.921L254.849 245.686L236.043 246.139Z" stroke="white" stroke-width="3.611" stroke-linecap="round" stroke-linejoin="round"/>
<path d="M292.913 248.406L283.623 266.984L305.374 264.266L292.913 248.406Z" stroke="white" stroke-width="3.611" stroke-linecap="round" stroke-linejoin="round"/>
<path d="M285.681 260.505C296.514 253.494 302.712 239.939 300.928 227.159C299.258 215.196 291.488 205.122 286.411 194.162C278.612 177.338 277.379 156.84 286.171 140.513C296.011 122.237 316.222 111.946 328.506 95.2148C333.604 88.187 337.216 80.1929 339.121 71.7214C341.025 63.2505 341.182 54.4798 339.582 45.9456C338.33 39.4704 335.948 33.0197 331.454 28.1936C326.959 23.3675 320.062 20.4379 313.637 21.9275C307.213 23.4171 302.019 30.0555 303.301 36.5248" stroke="#171717" stroke-width="3.611" stroke-linecap="round" stroke-linejoin="round"/>
<path d="M107.283 306.46L97.9296 303.401" stroke="#171717" stroke-width="3.611" stroke-linecap="round" stroke-linejoin="round"/>
<path d="M101.534 308.598C102.097 305.734 103.117 302.98 104.555 300.441" stroke="#171717" stroke-width="3.611" stroke-linecap="round" stroke-linejoin="round"/>
<path d="M140.317 267.384L133.921 261.701" stroke="#171717" stroke-width="3.611" stroke-linecap="round" stroke-linejoin="round"/>
<path d="M132.321 268.383C135.301 265.942 138.049 263.229 140.529 260.281" stroke="#171717" stroke-width="3.611" stroke-linecap="round" stroke-linejoin="round"/>
<path d="M183.823 298.197L175.627 290.686" stroke="#171717" stroke-width="3.611" stroke-linecap="round" stroke-linejoin="round"/>
<path d="M175.197 299.5L181.219 291.027" stroke="#171717" stroke-width="3.611" stroke-linecap="round" stroke-linejoin="round"/>
<path d="M276.693 264.214C275.791 262.198 274.89 260.182 273.989 258.166" stroke="#171717" stroke-width="3.611" stroke-linecap="round" stroke-linejoin="round"/>
<path d="M271.573 263.173C274.402 262.124 277.028 260.594 279.335 258.65" stroke="#171717" stroke-width="3.611" stroke-linecap="round" stroke-linejoin="round"/>
<path d="M124.192 365.695L118.752 359.049" stroke="#171717" stroke-width="3.611" stroke-linecap="round" stroke-linejoin="round"/>
<path d="M117.547 366.6C119.863 364.284 122.179 361.968 124.495 359.652" stroke="#171717" stroke-width="3.611" stroke-linecap="round" stroke-linejoin="round"/>
<path d="M389.701 153.979C391.213 146.607 390.956 138.982 388.951 131.728" stroke="#171717" stroke-width="3.611" stroke-linecap="round" stroke-linejoin="round"/>
<path d="M211.403 97.3331C210.875 93.1453 211.387 88.8915 212.894 84.9485C214.402 81.0056 216.859 77.4952 220.047 74.7283" stroke="#171717" stroke-width="3.611" stroke-linecap="round" stroke-linejoin="round"/>
<path d="M274.926 110.95C276.569 107.813 277.486 104.348 277.61 100.81C277.733 97.2714 277.061 93.7503 275.642 90.5066" stroke="#171717" stroke-width="3.611" stroke-linecap="round" stroke-linejoin="round"/>
<path d="M396.705 147.421C396.245 144 395.785 140.579 395.324 137.158" stroke="#171717" stroke-width="3.611" stroke-linecap="round" stroke-linejoin="round"/>
<path fill-rule="evenodd" clip-rule="evenodd" d="M370.9 469.603C372.71 461.72 367.865 452.431 360.558 448.907C359.683 448.48 358.768 448.143 357.826 447.899L357.524 447.443C354.295 449.53 351.009 451.507 347.664 453.374L348.473 454.838C353.172 455.846 356.015 461.335 355.053 466.047C354.09 470.759 350.123 474.437 345.635 476.157C343.745 476.868 341.771 477.33 339.762 477.531C336.982 477.799 334.183 477.803 331.403 477.544C329.465 477.39 327.526 477.172 325.6 476.883C321.284 476.247 317.028 475.253 312.876 473.911C310.485 473.136 308.135 472.238 305.836 471.221L305.73 470.861C300.787 472.338 295.81 473.673 290.796 474.867L290.874 475.201C301.742 481.922 313.143 486.05 325.68 488.522C328.075 488.998 330.508 489.382 332.947 489.638C339.566 490.338 346.266 490.094 352.559 488.027C361.167 485.203 368.873 478.436 370.9 469.603ZM360.602 455.818C360.181 455.492 359.577 455.568 359.25 455.988C358.924 456.408 359.001 457.013 359.42 457.339C361.127 458.664 362.455 460.415 363.272 462.416C364.088 464.418 364.363 466.598 364.07 468.739C363.998 469.266 364.367 469.751 364.894 469.824C365.421 469.896 365.906 469.527 365.978 469C366.317 466.525 365.999 464.003 365.055 461.689C364.111 459.375 362.575 457.35 360.602 455.818Z" fill="white"/>
</g>
</g>
</g>
<defs>
<clipPath id="clip0_760_2739">
<rect width="512" height="512" fill="white"/>
</clipPath>
</defs>
</svg>
