<svg width="512" height="512" viewBox="0 0 512 512" fill="none" xmlns="http://www.w3.org/2000/svg">
<mask id="mask0_760_3385" style="mask-type:luminance" maskUnits="userSpaceOnUse" x="20" y="45" width="472" height="423">
<path d="M491.733 45.3333H20.2667V467.2H491.733V45.3333Z" fill="white"/>
</mask>
<g mask="url(#mask0_760_3385)">
<path fill-rule="evenodd" clip-rule="evenodd" d="M376.771 419.444C413.775 429.203 452.37 404.526 462.977 364.32C472.293 329.002 456.917 293.451 427.954 278.71L427.963 278.67C427.538 278.549 427.107 278.433 426.677 278.316L426.653 278.31C390.319 268.728 352.27 293.548 341.663 333.755C332.662 367.852 346.294 402.063 372.804 417.513C373.411 417.716 374.02 418.071 374.632 418.428C375.339 418.839 376.05 419.254 376.771 419.444ZM426.381 283.898C425.978 283.717 425.504 283.896 425.323 284.299C425.141 284.702 425.321 285.176 425.723 285.357C442.935 293.113 461.391 311.435 458.813 345.474C458.78 345.915 459.11 346.299 459.55 346.332C459.991 346.366 460.375 346.035 460.409 345.595C463.046 310.77 444.095 291.88 426.381 283.898Z" fill="#171717"/>
<path d="M426.485 97.2271L451.789 121.747L416.834 162.953L393.364 145.74L426.485 97.2271Z" fill="#171717"/>
<path d="M250.693 390.131L280.164 430.036L249.565 456.118L223.828 421.578L250.693 390.131Z" fill="white" fill-opacity="0.96"/>
<path d="M201.446 145.375C201.299 145.449 200.894 145.656 200.313 145.976C200.894 145.681 201.293 145.464 201.446 145.375ZM266.463 112.313C249.747 106.455 225.749 108.711 216.81 117.284C209.617 124.186 210.514 153.425 212.144 173.93L212.031 173.94C212.031 173.94 201.044 182.197 194.324 176.635C190.353 173.354 194.142 168.373 197.91 164.84C199.826 163.672 201.581 162.26 203.133 160.638C201.294 161.913 199.549 163.318 197.91 164.84C194.477 166.885 190.013 168.094 186.673 163.885C181.347 157.18 195.807 148.464 200.255 146.006C197.078 147.597 188.767 151.189 185.978 146.725C183.418 142.626 191.55 136.138 196.009 133C196.967 132.479 197.878 131.874 198.729 131.191C198.729 131.191 197.606 131.881 196.009 133C192.427 134.973 186.284 136.808 183.89 128.181C180.411 115.658 202.901 117.284 202.901 117.284C202.901 117.284 196.871 87.6057 204.288 85.1769C211.705 82.7481 215.417 99.6611 214.723 93.6355C214.028 87.6099 225.852 76.4814 229.887 76.9422C233.922 77.403 224.458 107.542 231.414 91.5449C238.37 75.5481 265.497 71.6067 271.059 74.3902C274.472 76.0969 266.205 85.8201 261.437 90.8846C260.907 91.307 260.404 91.7614 259.93 92.2441C256.52 95.7422 258.25 94.2787 261.437 90.8846C271.217 83.051 293.027 81.8713 296.103 87.1401C299.345 92.7075 270.367 103.369 276.628 101.98C282.89 100.59 287.753 103.6 292.625 106.093C297.497 108.586 313.721 132.584 300.74 138.959C287.758 145.334 292.162 132.12 278.02 118.902C275.001 116.086 271.001 113.899 266.463 112.313Z" fill="#171717"/>
<path d="M219.113 260.019C220.965 264.999 223.261 274.276 225.406 283.883C228.912 299.658 232 316.319 232 316.319C232 316.319 86.9867 362.226 73.7664 280.498C60.5462 198.77 199.657 207.815 199.657 207.815C199.657 207.815 193.745 201.903 199.657 197.386C201.228 196.183 206.86 195.474 214.284 195.08C223.51 194.587 235.503 194.582 245.898 194.72C258.57 194.902 268.861 195.296 268.861 195.296V202.763C268.861 202.763 268.516 211.296 282.08 207.818C295.643 204.34 345.372 198.428 367.626 207.818C389.88 217.208 386.465 245.665 386.465 245.665L386.347 246.694C380.448 245.974 374.479 246.038 368.597 246.886L368.469 246.078C368.469 246.078 365.474 244.837 360.641 243.206L362.064 242.915C362.064 242.915 364.498 229.382 362.064 222.775C361.177 220.371 346.368 220.396 327.632 221.701V221.696L319.203 213.119C319.203 213.119 302.334 214.509 298.954 214.942C295.624 215.376 293.456 224.717 293.397 224.978V224.983C281.731 226.377 270.681 227.988 262.251 229.574L261.605 229.516C262.285 228.58 262.586 227.254 261.876 225.409C259.903 220.246 249.737 219.295 240.229 223.931C230.721 228.566 231.42 249.663 228.405 255.23C225.39 260.797 219.113 260.019 219.113 260.019Z" fill="white" fill-opacity="0.96"/>
<path d="M80.4917 335.908L150.046 351.674L139.146 445.571L71.6794 430.269L80.4917 335.908ZM130.975 434.735L139.843 361.185L94.456 345.533L84.0288 422.076L130.975 434.735Z" fill="#171717"/>
<path d="M110.865 145.741L85.5915 171.822L48.3209 135.833L75.6789 106.096L110.865 145.741Z" fill="white" fill-opacity="0.96"/>
<path d="M125.931 256.274C125.931 256.274 162.797 275.276 216.699 256.274C217.334 256.047 218.168 257.476 219.113 260.019C220.965 264.999 223.261 274.276 225.406 283.883C228.912 299.658 232 316.319 232 316.319C232 316.319 86.9867 362.226 73.7664 280.498C60.5462 198.77 199.657 207.815 199.657 207.815C199.657 207.815 193.745 201.903 199.657 197.386C201.228 196.183 206.86 195.474 214.284 195.08C223.51 194.587 235.503 194.582 245.898 194.72C258.57 194.902 268.861 195.296 268.861 195.296V202.763C268.861 202.763 268.516 211.296 282.08 207.818C295.643 204.34 345.372 198.428 367.626 207.818C389.88 217.208 386.465 245.665 386.465 245.665" stroke="#171717" stroke-width="3" stroke-linecap="round" stroke-linejoin="round"/>
<path d="M442.166 265.92C442.576 266.112 442.979 266.319 443.383 266.531" stroke="#171717" stroke-width="3" stroke-linecap="round" stroke-linejoin="round"/>
<path d="M338.175 405.403C324.341 384.455 319.325 356.414 326.725 328.376C339.589 279.612 385.135 249.342 428.451 260.772C432.826 261.926 437.085 263.485 441.171 265.427" stroke="#171717" stroke-width="3" stroke-linecap="round" stroke-linejoin="round"/>
<path d="M443.517 266.601C477.259 284.174 494.877 326.977 483.59 369.76C470.72 418.524 425.18 448.793 381.86 437.363C363.46 432.506 348.423 420.908 338.2 405.434C338.19 405.428 338.183 405.419 338.18 405.409" stroke="#171717" stroke-width="3" stroke-linecap="round" stroke-linejoin="round"/>
<path d="M427.963 278.671C463.479 288.874 483.708 328.751 473.229 368.469C462.622 408.67 424.569 433.496 388.24 423.908C382.829 422.484 377.637 420.333 372.804 417.514C346.294 402.064 332.662 367.853 341.663 333.756C352.27 293.549 390.319 268.729 426.653 278.311C427.093 278.429 427.53 278.548 427.963 278.671Z" stroke="#171717" stroke-width="3" stroke-linecap="round" stroke-linejoin="round"/>
<path d="M427.954 278.71C456.917 293.451 472.293 329.004 462.977 364.321C452.37 404.527 413.775 429.204 376.771 419.445C375.426 419.09 374.11 417.952 372.805 417.514C372.799 417.508 372.793 417.505 372.785 417.504" stroke="#171717" stroke-width="3" stroke-linecap="round" stroke-linejoin="round"/>
<path d="M338.2 405.434C338.195 405.424 338.188 405.416 338.18 405.409C338.175 405.409 338.175 405.409 338.175 405.404C337.87 405.02 334.609 400.978 330.165 395.142C326.165 389.88 321.205 383.16 316.587 376.368C315.926 375.398 315.271 374.423 314.626 373.452C310.808 367.678 307.373 361.986 305.127 357.239C304.566 356.052 304.078 354.919 303.684 353.864C303.208 352.662 302.843 351.419 302.595 350.15C299.989 335.626 293.397 298.238 328.675 268.333C341.125 257.78 352.732 249.293 368.596 246.887C374.478 246.039 380.447 245.974 386.347 246.695C389.12 247.005 392.025 247.475 395.062 248.104C405.718 250.326 418.079 254.583 432.8 261.401C435.509 262.652 438.299 263.996 441.17 265.431C441.505 265.591 441.835 265.751 442.165 265.924C442.569 266.126 442.973 266.333 443.382 266.535C443.427 266.555 443.471 266.579 443.515 266.604" stroke="#171717" stroke-width="3" stroke-linecap="round" stroke-linejoin="round"/>
<path d="M298.954 320.143L288.8 292.869L285.6 284.272C283.529 278.716 283.306 272.639 284.964 266.945C288.191 255.915 295.616 239.1 311.287 236.336C327.866 233.409 349.301 239.376 360.638 243.204C365.471 244.835 368.466 246.076 368.466 246.076" stroke="#171717" stroke-width="3" stroke-linecap="round" stroke-linejoin="round"/>
<path d="M293.397 224.98C304.841 223.615 316.882 222.443 327.632 221.699C346.368 220.393 361.179 220.369 362.064 222.773C364.498 229.38 362.064 242.913 362.064 242.913" stroke="#171717" stroke-width="3" stroke-linecap="round" stroke-linejoin="round"/>
<path d="M262.251 229.577C270.681 227.991 281.731 226.377 293.397 224.985" stroke="#171717" stroke-width="3" stroke-linecap="round" stroke-linejoin="round"/>
<path d="M288.8 292.87C288.8 292.87 253.909 304.496 249.564 301.018C248.145 299.885 246.524 292.272 245.519 283.327" stroke="#171717" stroke-width="3" stroke-linecap="round" stroke-linejoin="round"/>
<path d="M80.4917 335.908L150.046 351.674L139.148 445.571L71.6827 430.269L80.4917 335.908Z" stroke="#171717" stroke-width="3" stroke-linecap="round" stroke-linejoin="round"/>
<path d="M207.137 418.563L249.565 466.278L294.25 428.993L250.693 377.874L207.137 418.563Z" stroke="#171717" stroke-width="3" stroke-linecap="round" stroke-linejoin="round"/>
<path d="M85.5915 171.822L110.865 145.741L75.6789 106.096L48.3209 135.833L85.5915 171.822Z" stroke="#171717" stroke-width="3" stroke-linecap="round" stroke-linejoin="round"/>
<path d="M383.451 143.656L412.661 174.433L469.525 127.482L419.238 85.177L383.451 143.656Z" stroke="#171717" stroke-width="3" stroke-linecap="round" stroke-linejoin="round"/>
<path d="M130.975 434.732L139.843 361.182L94.4592 345.53L84.0294 422.075L130.975 434.732Z" stroke="#171717" stroke-width="3" stroke-linecap="round" stroke-linejoin="round"/>
<path d="M249.565 456.118L280.164 430.036L250.693 390.131L223.828 421.578L249.565 456.118Z" stroke="#171717" stroke-width="3" stroke-linecap="round" stroke-linejoin="round"/>
<path d="M416.834 162.953L451.789 121.747L426.485 97.2271L393.364 145.74L416.834 162.953Z" stroke="#171717" stroke-width="3" stroke-linecap="round" stroke-linejoin="round"/>
<path d="M205.802 209.787L263.995 208.166" stroke="#171717" stroke-width="3" stroke-linecap="round" stroke-linejoin="round"/>
<path d="M245.899 194.726V194.721C245.82 194.401 242.106 179.163 245.899 176.867C249.739 174.546 262.837 175.94 265.093 170.373C267.349 164.806 266.427 112.417 266.427 112.417" stroke="#171717" stroke-width="3" stroke-linecap="round" stroke-linejoin="round"/>
<path d="M197.914 164.84C194.145 168.373 190.356 173.354 194.327 176.635C201.047 182.197 212.034 173.94 212.034 173.94" stroke="#171717" stroke-width="3" stroke-linecap="round" stroke-linejoin="round"/>
<path d="M197.914 164.84C199.829 163.672 201.585 162.26 203.136 160.638C201.298 161.913 199.553 163.318 197.914 164.84Z" stroke="#171717" stroke-width="3" stroke-linecap="round" stroke-linejoin="round"/>
<path d="M200.258 146.006C195.81 148.465 181.35 157.18 186.676 163.885C190.016 168.093 194.479 166.886 197.913 164.841" stroke="#171717" stroke-width="3" stroke-linecap="round" stroke-linejoin="round"/>
<path d="M201.515 145.336C201.511 145.337 201.508 145.339 201.505 145.341C201.495 145.347 201.486 145.351 201.471 145.361C201.456 145.371 201.456 145.371 201.446 145.376C201.299 145.45 200.894 145.657 200.313 145.977" stroke="#171717" stroke-width="3" stroke-linecap="round" stroke-linejoin="round"/>
<path d="M200.313 145.977C200.894 145.681 201.293 145.464 201.446 145.376" stroke="#171717" stroke-width="3" stroke-linecap="round" stroke-linejoin="round"/>
<path d="M200.313 145.977C200.295 145.988 200.278 145.998 200.259 146.006" stroke="#171717" stroke-width="3" stroke-linecap="round" stroke-linejoin="round"/>
<path d="M196.012 133C191.554 136.138 183.42 142.626 185.981 146.725C188.77 151.189 197.081 147.597 200.259 146.006" stroke="#171717" stroke-width="3" stroke-linecap="round" stroke-linejoin="round"/>
<path d="M196.012 133C196.971 132.479 197.881 131.874 198.732 131.191C198.732 131.191 197.608 131.882 196.012 133Z" stroke="#171717" stroke-width="3" stroke-linecap="round" stroke-linejoin="round"/>
<path d="M261.443 90.8868C266.212 85.8201 274.479 76.0969 271.065 74.3924C265.502 71.6089 238.377 75.5503 231.42 91.5471C224.463 107.544 233.932 77.4073 229.893 76.9444C225.853 76.4815 214.034 87.6057 214.729 93.6377C215.423 99.6697 211.713 82.7503 204.294 85.1791C196.875 87.6079 202.907 117.286 202.907 117.286C202.907 117.286 180.417 115.66 183.895 128.183C186.29 136.81 192.433 134.977 196.015 133.002" stroke="#171717" stroke-width="3" stroke-linecap="round" stroke-linejoin="round"/>
<path d="M261.443 90.8872C260.913 91.3096 260.41 91.7635 259.935 92.2467C256.526 95.7448 258.255 94.2813 261.443 90.8872Z" stroke="#171717" stroke-width="3" stroke-linecap="round" stroke-linejoin="round"/>
<path d="M214.265 194.726C214.265 194.726 213.083 185.789 212.147 173.93C210.516 153.426 209.62 124.186 216.812 117.284C225.749 108.712 249.747 106.457 266.466 112.313C271.003 113.9 275.004 116.087 278.023 118.905C292.168 132.123 287.759 145.336 300.743 138.961C313.728 132.586 297.493 108.586 292.628 106.096C287.763 103.605 282.889 100.593 276.631 101.982C270.374 103.372 299.348 92.7102 296.107 87.1427C293.033 81.8712 271.222 83.0536 261.443 90.8872" stroke="#171717" stroke-width="3" stroke-linecap="round" stroke-linejoin="round"/>
<path d="M234.898 153.569C234.898 153.569 243.061 154.377 244.195 152.061C245.328 149.746 239.549 120.299 239.549 120.299L255.407 118.905" stroke="#171717" stroke-width="3" stroke-linecap="round" stroke-linejoin="round"/>
<path d="M238.607 167.132C238.607 167.132 230.03 172.466 221.684 165.506" stroke="#171717" stroke-width="3" stroke-linecap="round" stroke-linejoin="round"/>
<path d="M231.42 134.148L230.144 127.25" stroke="#171717" stroke-width="3" stroke-linecap="round" stroke-linejoin="round"/>
<path d="M252.983 134.148L251.589 127.25" stroke="#171717" stroke-width="3" stroke-linecap="round" stroke-linejoin="round"/>
<path d="M244.865 271.266C252.604 268.877 279.326 260.989 280.514 265.546C281.49 269.285 262.891 279.05 245.441 282.962C238.022 284.632 230.814 285.238 225.404 283.883" stroke="#171717" stroke-width="3" stroke-linecap="round" stroke-linejoin="round"/>
<path d="M244.219 271.466C244.322 271.431 244.436 271.396 244.549 271.362" stroke="#171717" stroke-width="3" stroke-linecap="round" stroke-linejoin="round"/>
<path d="M243.593 271.665C243.771 271.606 243.978 271.542 244.204 271.473" stroke="#171717" stroke-width="3" stroke-linecap="round" stroke-linejoin="round"/>
<path d="M242.972 271.862C243.022 271.843 243.086 271.823 243.155 271.803" stroke="#171717" stroke-width="3" stroke-linecap="round" stroke-linejoin="round"/>
<path d="M242.781 271.921C242.792 271.917 242.804 271.913 242.815 271.911C242.835 271.901 242.865 271.896 242.904 271.882" stroke="#171717" stroke-width="3" stroke-linecap="round" stroke-linejoin="round"/>
<path d="M242.903 271.882C242.864 271.896 242.835 271.901 242.815 271.911" stroke="#171717" stroke-width="3" stroke-linecap="round" stroke-linejoin="round"/>
<path d="M242.903 271.882C242.923 271.877 242.948 271.867 242.972 271.862" stroke="#171717" stroke-width="3" stroke-linecap="round" stroke-linejoin="round"/>
<path d="M243.155 271.803C243.086 271.828 243.022 271.847 242.972 271.862" stroke="#171717" stroke-width="3" stroke-linecap="round" stroke-linejoin="round"/>
<path d="M243.155 271.804C243.158 271.804 243.161 271.804 243.163 271.803C243.166 271.802 243.168 271.8 243.17 271.798C243.21 271.784 243.254 271.774 243.298 271.759C243.367 271.74 243.441 271.715 243.52 271.69C243.522 271.688 243.524 271.687 243.527 271.686C243.529 271.685 243.532 271.685 243.534 271.685C243.555 271.681 243.575 271.675 243.594 271.666" stroke="#171717" stroke-width="3" stroke-linecap="round" stroke-linejoin="round"/>
<path d="M244.204 271.473C243.972 271.547 243.771 271.611 243.593 271.665" stroke="#171717" stroke-width="3" stroke-linecap="round" stroke-linejoin="round"/>
<path d="M244.205 271.474C244.21 271.474 244.214 271.469 244.219 271.469" stroke="#171717" stroke-width="3" stroke-linecap="round" stroke-linejoin="round"/>
<path d="M244.549 271.365C244.43 271.404 244.322 271.438 244.219 271.468" stroke="#171717" stroke-width="3" stroke-linecap="round" stroke-linejoin="round"/>
<path d="M244.549 271.365C244.628 271.34 244.711 271.316 244.795 271.291C244.815 271.282 244.839 271.276 244.864 271.267" stroke="#171717" stroke-width="3" stroke-linecap="round" stroke-linejoin="round"/>
<path d="M248.979 257.255C259.625 254.614 284.45 248.924 285.903 252.924C287.515 257.358 253.693 268.453 244.865 271.266" stroke="#171717" stroke-width="3" stroke-linecap="round" stroke-linejoin="round"/>
<path d="M244.194 258.477C244.209 258.472 244.223 258.469 244.238 258.467C244.263 258.459 244.287 258.453 244.313 258.447C244.761 258.329 246.455 257.881 248.919 257.27" stroke="#171717" stroke-width="3" stroke-linecap="round" stroke-linejoin="round"/>
<path d="M248.919 257.27C246.455 257.915 244.766 258.339 244.313 258.447C244.283 258.457 244.259 258.462 244.238 258.467" stroke="#171717" stroke-width="3" stroke-linecap="round" stroke-linejoin="round"/>
<path d="M248.919 257.27L248.979 257.255" stroke="#171717" stroke-width="3" stroke-linecap="round" stroke-linejoin="round"/>
<path d="M219.113 260.019C219.113 260.019 225.395 260.792 228.405 255.23C231.415 249.668 230.725 228.567 240.229 223.931C249.732 219.295 259.906 220.246 261.876 225.409C262.586 227.257 262.285 228.582 261.605 229.516C260.398 231.201 257.974 231.639 257.974 231.639C257.974 231.639 251.126 230.713 248.579 235.551C246.032 240.39 245.899 246.65 245.899 246.65C245.899 246.65 285.903 235.551 285.903 242.911C285.903 247.148 259.935 254.391 248.979 257.253" stroke="#171717" stroke-width="3" stroke-linecap="round" stroke-linejoin="round"/>
<path d="M432.821 261.349C432.821 261.349 419.095 228.163 403.099 229.902C387.102 231.641 395.241 247.253 395.241 247.253" stroke="#171717" stroke-width="3" stroke-linecap="round" stroke-linejoin="round"/>
<path d="M330.165 395.141C330.165 395.141 303.117 395.781 300.162 386.569C297.206 377.357 316.588 376.366 316.588 376.366" stroke="#171717" stroke-width="3" stroke-linecap="round" stroke-linejoin="round"/>
<path d="M314.626 373.449C314.626 373.449 290.249 375.09 287.12 366.916C283.991 358.743 304.521 357.53 304.521 357.53" stroke="#171717" stroke-width="3" stroke-linecap="round" stroke-linejoin="round"/>
<path d="M303.684 353.861C303.684 353.861 285.209 353.181 285.209 346.052C285.209 338.923 298.954 333.706 298.954 333.706" stroke="#171717" stroke-width="3" stroke-linecap="round" stroke-linejoin="round"/>
<path d="M293.397 224.986V224.981C293.455 224.719 295.623 215.381 298.954 214.945C302.333 214.511 319.202 213.122 319.202 213.122L327.632 221.695" stroke="#171717" stroke-width="3" stroke-linecap="round" stroke-linejoin="round"/>
<path d="M390.187 213.047C389.336 210.096 387.843 207.37 385.814 205.065C383.786 202.759 381.272 200.932 378.453 199.713" stroke="#171717" stroke-width="3" stroke-linecap="round" stroke-linejoin="round"/>
<path d="M320.323 100.319L333.515 97.4351" stroke="#171717" stroke-width="3" stroke-linecap="round" stroke-linejoin="round"/>
<path d="M314.002 86.6809L347.958 46.2363" stroke="#171717" stroke-width="3" stroke-linecap="round" stroke-linejoin="round"/>
<path d="M302.59 74.6233L305.025 63.8425" stroke="#171717" stroke-width="3" stroke-linecap="round" stroke-linejoin="round"/>
<path d="M179.593 97.2116L178.172 88.522" stroke="#171717" stroke-width="3" stroke-linecap="round" stroke-linejoin="round"/>
<path d="M174.277 94.4693L183.077 92.5007" stroke="#171717" stroke-width="3" stroke-linecap="round" stroke-linejoin="round"/>
<path d="M149.233 117.399C147.903 113.909 145.893 110.719 143.321 108.012" stroke="#171717" stroke-width="3" stroke-linecap="round" stroke-linejoin="round"/>
<path d="M141.582 116.356C144.259 113.433 147.298 110.862 150.624 108.705" stroke="#171717" stroke-width="3" stroke-linecap="round" stroke-linejoin="round"/>
<path d="M167.502 143.049L170.877 136.605C170.924 136.645 170.961 136.695 170.982 136.753C171.004 136.81 171.012 136.872 171.004 136.933C170.996 136.993 170.973 137.051 170.937 137.101C170.901 137.15 170.853 137.19 170.797 137.216" stroke="#171717" stroke-width="3" stroke-linecap="round" stroke-linejoin="round"/>
<path d="M171.52 142.047L165.607 138.223" stroke="#171717" stroke-width="3" stroke-linecap="round" stroke-linejoin="round"/>
<path d="M68.032 298.844C61.7808 286.09 60.3211 271.514 63.9184 257.773" stroke="#171717" stroke-width="3" stroke-linecap="round" stroke-linejoin="round"/>
<path d="M305.838 219.052C307.95 218.439 310.134 218.11 312.332 218.074" stroke="#171717" stroke-width="3" stroke-linecap="round" stroke-linejoin="round"/>
<path d="M219.828 224.983L210.612 220.938V231.863L219.828 224.983Z" stroke="#171717" stroke-width="3" stroke-linecap="round" stroke-linejoin="round"/>
<path d="M199.137 244.333L191.66 237.899L187.139 249.375L199.137 244.333Z" stroke="#171717" stroke-width="3" stroke-linecap="round" stroke-linejoin="round"/>
<path d="M165.404 228.335V218.562L175.141 220.939L165.404 228.335Z" stroke="#171717" stroke-width="3" stroke-linecap="round" stroke-linejoin="round"/>
<path d="M147.146 238.943L144.885 249.375L132.018 240.334L147.146 238.943Z" stroke="#171717" stroke-width="3" stroke-linecap="round" stroke-linejoin="round"/>
<path d="M96.5467 245.141L104.545 254.939L89.0699 261.906L96.5467 245.141Z" stroke="#171717" stroke-width="3" stroke-linecap="round" stroke-linejoin="round"/>
<path d="M202.267 274.066L212.004 283.326L197.919 292.497L202.267 274.066Z" stroke="#171717" stroke-width="3" stroke-linecap="round" stroke-linejoin="round"/>
<path d="M176.183 306.061L165.403 292.497L158.97 309.713L176.183 306.061Z" stroke="#171717" stroke-width="3" stroke-linecap="round" stroke-linejoin="round"/>
<path d="M124.889 274.066L136.191 277.849L122.977 293.367L124.889 274.066Z" stroke="#171717" stroke-width="3" stroke-linecap="round" stroke-linejoin="round"/>
<path d="M89.0699 280.326L96.8075 277.849L95.3296 285.89L89.0699 280.326Z" stroke="#171717" stroke-width="3" stroke-linecap="round" stroke-linejoin="round"/>
<path d="M345.719 213.122L337.141 208.166L333.516 216.048L345.719 213.122Z" stroke="#171717" stroke-width="3" stroke-linecap="round" stroke-linejoin="round"/>
<path d="M374.235 223.467L372.786 237.899L383.451 234.363L374.235 223.467Z" stroke="#171717" stroke-width="3" stroke-linecap="round" stroke-linejoin="round"/>
<path d="M257.249 204.919L257.329 199.007" stroke="#171717" stroke-width="3" stroke-linecap="round" stroke-linejoin="round"/>
<path d="M239.789 205.615L239.902 199.589" stroke="#171717" stroke-width="3" stroke-linecap="round" stroke-linejoin="round"/>
<path d="M222.379 205.847L222.694 199.817" stroke="#171717" stroke-width="3" stroke-linecap="round" stroke-linejoin="round"/>
<path d="M208.586 205.383L208.237 199.586" stroke="#171717" stroke-width="3" stroke-linecap="round" stroke-linejoin="round"/>
<path d="M312.579 402.975C307.373 402.543 302.529 400.144 299.03 396.267" stroke="#171717" stroke-width="3" stroke-linecap="round" stroke-linejoin="round"/>
<path d="M71.5072 182.258V174.954" stroke="#171717" stroke-width="3" stroke-linecap="round" stroke-linejoin="round"/>
<path d="M75.1547 179.05L68.3654 179.435" stroke="#171717" stroke-width="3" stroke-linecap="round" stroke-linejoin="round"/>
<path d="M385.46 169.21L385.899 163.465" stroke="#171717" stroke-width="3" stroke-linecap="round" stroke-linejoin="round"/>
<path d="M381.381 166.736L389.724 165.664" stroke="#171717" stroke-width="3" stroke-linecap="round" stroke-linejoin="round"/>
<path d="M162.784 379.408L170.077 376.771" stroke="#171717" stroke-width="3" stroke-linecap="round" stroke-linejoin="round"/>
<path d="M166.9 382.589L164.649 374.811" stroke="#171717" stroke-width="3" stroke-linecap="round" stroke-linejoin="round"/>
<path d="M58.4667 382.047L54.2933 375.266" stroke="#171717" stroke-width="3" stroke-linecap="round" stroke-linejoin="round"/>
<path d="M52.2667 382.121L59.1344 376.488" stroke="#171717" stroke-width="3" stroke-linecap="round" stroke-linejoin="round"/>
<path d="M365.062 118.482C353.755 129.997 353.214 149.177 360.451 163.602C367.689 178.026 381.204 188.329 395.417 195.975C404.93 201.092 415.341 205.335 426.137 205.034C436.933 204.733 448.148 198.933 452.125 188.893C454.017 184.119 453.523 177.559 448.937 175.25C445.613 173.578 441.298 175.014 438.967 177.913C436.636 180.813 436.043 184.807 436.535 188.494C436.985 191.864 438.25 195.073 440.222 197.842C442.195 200.612 444.814 202.857 447.851 204.384C450.889 205.91 454.254 206.671 457.653 206.601C461.052 206.532 464.382 205.632 467.355 203.982C471.849 201.486 475.774 197.217 480.914 197.086C486.85 196.934 491.697 203.366 490.701 209.22C489.706 215.074 483.892 219.419 477.958 219.644" stroke="#171717" stroke-width="3" stroke-linecap="round" stroke-linejoin="round"/>
<path d="M220.394 337.507C222.936 340.769 224.75 344.538 225.714 348.56C226.678 352.583 226.77 356.764 225.984 360.825C225.197 364.885 223.55 368.73 221.154 372.101C218.758 375.472 215.667 378.291 212.091 380.368C209.667 381.776 206.918 382.849 204.124 382.62C201.33 382.391 198.531 380.578 197.849 377.858C196.978 374.384 200.159 370.716 203.736 370.518C207.313 370.32 210.647 373.043 211.815 376.43C212.984 379.816 212.26 383.642 210.559 386.795C204.936 397.223 190.923 399.791 182.905 408.513C174.101 418.088 175.123 434.958 185.017 443.401" stroke="#171717" stroke-width="3" stroke-linecap="round" stroke-linejoin="round"/>
<path d="M37.9859 352.038C41.5166 350.461 44.4734 347.831 46.4516 344.507C48.4299 341.185 49.3328 337.332 49.0368 333.477C48.7407 329.621 47.2602 325.951 44.798 322.969C42.3357 319.987 39.012 317.84 35.2819 316.819C31.9529 315.909 28.0467 316.063 25.4809 318.37C22.915 320.678 22.7363 325.536 25.7395 327.237C28.8243 328.983 32.6537 326.543 34.8115 323.732C37.495 320.121 39.0984 315.822 39.435 311.335C39.7717 306.848 38.8279 302.357 36.7134 298.385C34.3251 294.062 30.6409 290.632 27.467 286.847C24.2931 283.063 21.5001 278.56 21.4979 273.621C21.4958 268.681 25.2921 263.503 30.2302 263.587" stroke="#171717" stroke-width="3" stroke-linecap="round" stroke-linejoin="round"/>
<path d="M44.4128 158.772C41.5562 171.418 40.4272 185.997 48.5786 196.077C56.8683 206.327 71.808 208.153 84.9275 206.86C92.7766 206.087 100.722 204.415 107.448 200.294C114.173 196.174 119.545 189.267 120.241 181.41C120.514 178.327 120.025 175.078 118.276 172.524C116.528 169.971 113.364 168.27 110.316 168.807C107.268 169.345 104.851 172.072 104.225 175.111C103.598 178.151 104.568 181.375 106.374 183.899C110.627 189.844 119.305 191.725 126.06 188.932C132.816 186.14 137.474 179.362 138.709 172.157C139.944 164.953 138.06 157.45 134.514 151.058" stroke="#171717" stroke-width="3" stroke-linecap="round" stroke-linejoin="round"/>
<path d="M101.763 104.01L102.806 95.6643" stroke="#171717" stroke-width="3" stroke-linecap="round" stroke-linejoin="round"/>
<path d="M104.892 100.359L96.5461 98.2717" stroke="#171717" stroke-width="3" stroke-linecap="round" stroke-linejoin="round"/>
<path d="M324.6 131.04L321.246 132.688C321.145 132.737 321.03 132.755 320.919 132.738C320.807 132.721 320.704 132.67 320.622 132.592C320.541 132.514 320.485 132.414 320.462 132.303C320.439 132.193 320.451 132.078 320.495 131.975L321.972 128.542C322.015 128.441 322.028 128.33 322.008 128.223C321.988 128.116 321.937 128.017 321.861 127.939L319.258 125.258C319.179 125.177 319.127 125.074 319.108 124.962C319.09 124.852 319.106 124.737 319.155 124.635C319.204 124.534 319.282 124.449 319.38 124.393C319.478 124.338 319.591 124.313 319.704 124.324L323.426 124.668C323.534 124.678 323.643 124.655 323.739 124.604C323.835 124.551 323.913 124.472 323.964 124.376L325.709 121.069C325.762 120.969 325.843 120.888 325.943 120.836C326.044 120.784 326.158 120.765 326.269 120.78C326.381 120.794 326.486 120.844 326.57 120.919C326.653 120.996 326.71 121.095 326.735 121.206L327.558 124.851C327.582 124.957 327.637 125.054 327.716 125.129C327.796 125.205 327.895 125.255 328.003 125.273L331.683 125.913C331.794 125.933 331.896 125.985 331.976 126.065C332.057 126.144 332.11 126.246 332.131 126.357C332.151 126.468 332.137 126.582 332.091 126.685C332.044 126.788 331.967 126.874 331.87 126.932L328.658 128.841C328.563 128.896 328.487 128.978 328.44 129.077C328.393 129.175 328.375 129.286 328.391 129.394L328.924 133.093C328.94 133.205 328.922 133.319 328.871 133.42C328.82 133.52 328.74 133.603 328.641 133.657C328.541 133.711 328.428 133.733 328.316 133.72C328.204 133.708 328.099 133.661 328.014 133.586L325.205 131.121C325.124 131.049 325.022 131.003 324.915 130.989C324.807 130.974 324.698 130.992 324.6 131.04Z" fill="#171717"/>
<path d="M352.847 227.467H341.197L342.067 233.379H355.667L352.847 227.467Z" stroke="#171717" stroke-width="3" stroke-linecap="round" stroke-linejoin="round"/>
<g opacity="0.1">
<path d="M261.637 110.359C258.171 108.722 253.438 108.436 249.637 108.004C245.289 107.501 240.895 107.537 236.555 108.111C229.681 109.053 222.431 111.577 217.314 116.391C204.746 128.219 208.85 147.751 209.917 163.024L210.984 178.278L211.498 185.642C211.688 188.356 211.518 191.5 212.507 194.057C213.799 197.402 219.17 198.198 220.124 194.057C220.764 191.284 220.281 188.452 220.071 185.642L219.525 178.278L218.356 162.496C217.974 157.334 217.564 152.173 217.213 147.009C216.902 142.427 216.627 137.712 217.419 133.164C218.849 124.958 224.426 118.634 232.127 115.51C236.473 113.747 241.387 113.107 246.035 112.929C248.595 112.831 251.202 112.705 253.756 112.818C256.269 112.93 258.823 113.368 261.307 112.872C262.427 112.647 262.69 110.857 261.635 110.359L261.637 110.359Z" fill="#171717"/>
</g>
<g opacity="0.1">
<path d="M201.333 195.463C198.428 200.476 198.627 205.723 199.762 211.249L203.475 206.376C190.378 205.673 177.166 206.304 164.098 207.294C152.183 208.197 140.204 209.454 128.564 212.243C107.356 217.324 86.976 228.518 76.3264 248.292C71.2955 257.634 68.9797 268.212 70.4875 278.763C71.9221 288.801 76.9408 297.976 83.7493 305.39C99.4597 322.501 122.915 328.029 145.318 328.841C173.207 329.855 202.137 326.489 228.408 316.833C230.764 315.967 232.361 313.679 231.655 311.113C231.032 308.844 228.305 306.995 225.935 307.865C203.919 315.951 180.586 319.172 157.217 319.601C136.59 319.981 113.924 318.205 97.0469 305.007C90.1035 299.578 84.1296 292.319 81.2848 283.887C78.3578 275.216 78.9269 266.199 82.1867 257.705C89.4677 238.735 107.746 227.359 126.485 221.98C151.354 214.84 177.845 215.046 203.475 214.073C206.314 213.967 208.373 210.861 206.799 208.28C204.818 205.033 204.943 200.926 205.674 197.289C206.187 194.739 202.744 193.022 201.333 195.459V195.463Z" fill="#171717"/>
</g>
<g opacity="0.1">
<path d="M252.591 301.233C257.724 302.689 263.624 301.207 268.684 300.006C273.631 298.833 279.873 297.446 284.044 294.427C287.787 291.719 285.635 285.793 280.844 286.842C278.313 287.396 275.914 288.698 273.467 289.558C271.142 290.376 268.787 291.098 266.401 291.724C261.58 292.984 256.369 293.24 251.821 295.339C249.204 296.547 250.106 300.527 252.591 301.232V301.233Z" fill="#171717"/>
</g>
<g opacity="0.1">
<path d="M284.877 273.666C283.471 277.186 285.156 281.067 286.26 284.471C287.402 287.991 288.566 291.501 289.718 295.016C290.871 298.531 292.055 302.039 293.238 305.545C294.459 309.169 295.265 313.341 297.722 316.319C300.169 319.283 304.791 316.703 304.892 313.349C305.003 309.646 302.824 305.61 301.61 302.144C300.385 298.648 299.15 295.155 297.903 291.667C296.651 288.18 295.441 284.675 294.145 281.204C292.885 277.825 291.846 274.077 288.551 272.174C287.028 271.294 285.469 272.19 284.879 273.667L284.877 273.666Z" fill="#171717"/>
</g>
<g opacity="0.1">
<path d="M302.569 337.556C302.302 342.507 301.899 347.018 303.049 351.94C304.183 356.693 305.764 361.329 307.769 365.786C309.659 370.057 311.905 374.16 314.484 378.053C317.065 381.946 320.215 387.29 324.35 389.668C328.134 391.842 331.787 387.602 330.028 383.989C328.989 381.856 327.052 380.162 325.553 378.336C324.309 376.823 323.145 375.251 322.036 373.637C319.475 369.909 317.223 365.979 315.302 361.884C313.483 357.98 311.947 353.951 310.706 349.826C309.404 345.538 307.422 341.369 306.299 337.049C305.744 334.91 302.681 335.462 302.566 337.554L302.569 337.556Z" fill="#171717"/>
</g>
</g>
</svg>
