<svg width="512" height="512" viewBox="0 0 512 512" fill="none" xmlns="http://www.w3.org/2000/svg">
<g clip-path="url(#clip0_760_2858)">
<mask id="mask0_760_2858" style="mask-type:luminance" maskUnits="userSpaceOnUse" x="0" y="0" width="512" height="512">
<path d="M512 0H0V512H512V0Z" fill="white"/>
</mask>
<g mask="url(#mask0_760_2858)">
<mask id="mask1_760_2858" style="mask-type:luminance" maskUnits="userSpaceOnUse" x="56" y="20" width="400" height="472">
<path d="M455.467 20.8H56.5333V491.733H455.467V20.8Z" fill="white"/>
</mask>
<g mask="url(#mask1_760_2858)">
<path fill-rule="evenodd" clip-rule="evenodd" d="M302.284 446.948C302.115 449.503 302.008 452.329 303.325 454.44C303.492 454.71 303.682 454.966 303.892 455.205C306.098 457.699 309.942 457.643 313.263 457.383C317.57 457.046 322.5 456.359 324.859 452.74C326.187 450.684 326.367 448.113 326.497 445.67C328.973 397.926 326.929 350.056 320.389 302.697C317.487 281.691 313.558 260.369 303.376 241.761L303.393 241.479L274.017 239.757L273.995 240.162C273.972 241.654 273.938 243.143 273.876 244.637L274.163 244.648C297.691 309.063 306.889 378.522 302.284 446.948ZM301.542 250.817C301.395 250.374 300.917 250.135 300.475 250.282C300.033 250.429 299.793 250.907 299.94 251.349C320.447 313.103 320.052 379.591 319.439 444.845C319.434 445.311 319.809 445.693 320.275 445.698C320.741 445.702 321.123 445.327 321.127 444.861C321.74 379.655 322.153 312.881 301.542 250.817Z" fill="white"/>
<path fill-rule="evenodd" clip-rule="evenodd" d="M382.645 215.566C382.096 212.686 380.703 210.034 378.642 207.949C376.509 205.939 373.824 204.61 370.932 204.131C368.039 203.653 365.07 204.048 362.403 205.265L362.38 205.253C359.802 210.026 359.921 215.891 363.112 220.299C364.787 222.537 367.056 224.26 369.663 225.271C372.269 226.282 375.107 226.541 377.853 226.018C379.283 225.721 380.653 225.186 381.907 224.436L381.721 224.121C382.871 221.424 383.193 218.446 382.645 215.566ZM370.18 205.965C369.715 205.931 369.31 206.28 369.276 206.745C369.241 207.21 369.59 207.615 370.055 207.65C371.794 207.779 373.452 208.437 374.806 209.536C376.161 210.634 377.146 212.121 377.63 213.796C377.759 214.244 378.227 214.502 378.675 214.373C379.123 214.244 379.381 213.776 379.252 213.328C378.672 211.321 377.492 209.54 375.87 208.225C374.249 206.908 372.263 206.12 370.18 205.965Z" fill="#171717"/>
<path fill-rule="evenodd" clip-rule="evenodd" d="M285.674 48.6357C285.865 43.9637 282.972 39.1738 278.542 37.6767C274.118 36.1738 268.59 38.5599 267.105 42.9887C263.885 39.6954 259.483 37.3541 254.879 37.3487C250.275 37.3434 245.569 39.9946 243.858 44.2725C243.66 44.7701 243.495 45.2921 243.33 45.8141C242.893 47.1986 242.457 48.5829 241.382 49.5125C240.342 50.4096 238.947 50.6598 237.571 50.9068C237.209 50.9717 236.848 51.0364 236.495 51.1125C233.697 51.7082 231.143 53.1353 229.169 55.2069C227.194 57.2783 225.892 59.8981 225.431 62.7226C224.971 65.5471 225.374 68.4447 226.588 71.0362C227.802 73.6277 229.77 75.7919 232.235 77.2458L232.73 77.7866C233.179 77.5338 233.662 77.3498 234.166 77.2405C235.748 76.88 237.402 77.1391 239.006 77.3925C242.458 77.9455 245.909 78.4954 249.357 79.0415C250.605 79.2864 251.804 79.7312 252.909 80.3589L253.821 80.353C255.042 78.3888 255.723 76.137 255.795 73.8256C255.867 71.5141 255.328 69.2239 254.231 67.1877C256.275 67.1679 258.29 66.7023 260.135 65.8234C261.98 64.9445 263.612 63.6735 264.915 62.0991C269.514 62.921 274.45 62.3695 278.48 59.9941C281.402 58.2719 283.66 55.6175 284.891 52.4575C285.351 51.2325 285.615 49.9428 285.674 48.6357ZM279.179 38.4778C278.793 38.2161 278.268 38.3167 278.006 38.7027C277.745 39.0885 277.845 39.6135 278.231 39.8753C279.687 40.8627 280.839 42.2356 281.56 43.8405C282.28 45.4455 282.54 47.2191 282.309 48.9631C282.248 49.4254 282.573 49.8496 283.036 49.9106C283.498 49.9716 283.922 49.6463 283.983 49.1841C284.254 47.1295 283.949 45.04 283.1 43.1493C282.252 41.2585 280.894 39.6411 279.179 38.4778Z" fill="#171717"/>
<path fill-rule="evenodd" clip-rule="evenodd" d="M297.967 83.2351C300.455 80.7076 301.873 77.0031 301.153 73.5364C300.432 70.0639 297.308 67.0863 293.76 67.0399C294.511 65.5513 294.881 63.8991 294.834 62.2324C294.787 60.5657 294.325 58.937 293.491 57.4932C292.657 56.0495 291.476 54.8361 290.056 53.9631C288.636 53.0901 287.02 52.5845 285.355 52.4921L284.894 52.4585C283.897 55.0505 282.195 57.3119 279.98 58.9876L280.177 59.2297C284.313 62.5775 287.324 67.1124 288.804 72.2234C290.284 77.3343 290.163 82.7764 288.457 87.8164L288.58 87.8559C292.062 87.209 295.479 85.7625 297.967 83.2351ZM289.786 54.7407C289.398 54.4809 288.874 54.5849 288.615 54.9721C288.355 55.3593 288.459 55.8841 288.846 56.1433C290.114 56.9929 291.113 58.1865 291.725 59.5844C292.338 60.9828 292.538 62.5263 292.302 64.0346C292.23 64.4948 292.546 64.9268 293.006 64.9988C293.467 65.0708 293.899 64.7556 293.971 64.2948C294.256 62.4692 294.013 60.5999 293.272 58.9071C292.531 57.2143 291.321 55.7689 289.786 54.7407Z" fill="#171717"/>
<path d="M403.926 196.005C405.271 198.437 404.072 201.437 402.851 203.931C394.43 221.137 385.226 237.929 375.237 254.307L374.291 253.688C363.626 247.599 353.31 240.918 343.39 233.678L343.817 233.087C353.082 214.439 362.043 196.64 371.306 177.999L372.01 176.766C373.085 177.38 374.166 177.999 375.241 178.618C383.605 183.403 391.969 188.187 400.333 192.971C401.714 193.76 403.161 194.613 403.926 196.005ZM388.836 220.645C389.387 218.78 389.61 216.834 389.494 214.893C389.241 210.356 387.293 205.943 384.631 202.212C381.569 197.923 375.248 197.14 370.444 198.581C367.051 199.666 364.044 201.711 361.788 204.469C361.461 204.857 361.148 205.251 360.847 205.662C357.397 210.355 355.804 216.632 357.6 222.176C359.739 228.767 366.735 233.338 373.653 232.91C380.571 232.483 386.86 227.284 388.836 220.647V220.645Z" fill="white"/>
<path d="M387.463 98.7643C387.64 102.476 387.465 106.196 386.939 109.875L386.286 109.78C377.397 108.446 368.555 106.84 359.758 104.962L358.987 104.821C359.389 102.558 359.478 100.252 359.254 97.9653C359.13 96.7717 359.046 95.3083 360.047 94.6501C360.533 94.3776 361.098 94.28 361.647 94.3739C361.873 94.3968 362.092 94.4304 362.306 94.4699C369.055 95.6181 375.804 96.7701 382.553 97.9259C384.187 98.2075 385.824 98.4832 387.463 98.7643Z" fill="white"/>
<path d="M333.787 472.474L346.941 490.341C339.864 491.367 332.646 489.987 326.446 486.423C320.246 482.859 315.422 477.317 312.746 470.684L312.453 470.819C312.037 474.253 312.313 477.056 311.547 480.427C311.339 481.732 310.847 482.975 310.107 484.069C308.885 485.628 306.78 486.27 304.799 486.191C302.818 486.112 300.932 485.409 299.081 484.722C301.158 474.732 302.575 464.616 303.324 454.44C303.493 454.71 303.683 454.966 303.893 455.205C306.099 457.699 309.943 457.643 313.265 457.383C317.571 457.046 322.501 456.359 324.86 452.74C325.339 459.675 329.667 466.874 333.787 472.474Z" fill="#171717"/>
<path d="M280.861 121.505C282.791 125.354 284.3 129.57 284.041 133.87C283.782 138.171 281.423 142.55 277.444 144.194C273.065 146.012 267.926 144.137 264.245 141.148C260.809 138.362 258.216 134.675 256.758 130.498C255.299 126.322 255.033 121.822 255.988 117.502L255.898 117.249C257.524 116.663 259.175 116.148 260.851 115.702C260.969 117.458 261.087 119.214 261.295 120.954C261.977 126.667 263.958 132.746 268.787 135.87C270.213 136.883 271.952 137.356 273.694 137.203C276.204 136.849 278.186 134.597 278.715 132.121C279.244 129.644 278.523 127.021 277.257 124.826C275.991 122.63 274.217 120.772 272.461 118.949L272.315 118.73C272.137 118.039 272.029 117.332 271.995 116.619L272.321 116.602C275.226 118.105 278.141 119.608 281.079 121.054L280.861 121.505Z" fill="white"/>
<path d="M112.93 327.007C117.332 322.425 121.733 317.839 126.135 313.25L126.484 312.947C129.948 316.979 133.627 320.821 137.505 324.457C148.385 334.59 161.438 342.846 175.994 345.874C190.549 348.902 206.709 346.161 218.057 336.559C228.886 327.395 234.217 313.301 237.295 299.46C241.798 279.173 242.412 258.216 239.102 237.7C250.742 238.387 262.38 239.072 274.017 239.755L273.995 240.16C273.972 241.653 273.938 243.143 273.876 244.635C272.767 274.707 264.815 304.13 250.624 330.667C243.279 344.367 233.907 357.572 220.597 365.604C202.467 376.546 178.956 376.217 159.447 367.973C140.13 359.8 124.42 344.671 112.247 327.576L112.715 327.239C112.784 327.159 112.857 327.086 112.93 327.007Z" fill="white"/>
<path d="M253.343 88.0304C257.699 91.8358 259.49 98.1227 258.369 103.764C257.924 106.099 256.938 108.297 255.489 110.18C253.598 112.601 250.845 114.515 247.778 114.706C244.71 114.898 241.445 112.972 240.731 109.989C237.781 114.706 230.363 115.758 226.22 112.049C222.077 108.34 222.308 100.849 226.67 97.4032C224.188 99.2891 220.175 97.3131 219.404 94.2966C218.633 91.28 220.405 88.0656 222.927 86.2363C225.359 84.4688 228.359 83.7259 231.308 83.1067C231.645 83.6315 232.071 84.0923 232.569 84.4688C233.849 85.4368 235.439 85.8758 236.993 86.2699C241.377 87.3723 248.514 89.6 253.343 88.0304Z" fill="#171717"/>
<path d="M231.307 83.1055C230.749 82.2852 230.537 81.2783 230.716 80.3023C230.852 79.7636 231.103 79.2601 231.451 78.826C231.798 78.3924 232.235 78.0377 232.731 77.7865C233.179 77.5337 233.663 77.3497 234.166 77.2404C235.748 76.8799 237.403 77.1391 239.006 77.3924C242.457 77.9439 245.908 78.4937 249.358 79.0415C250.605 79.2863 251.804 79.7311 252.909 80.3588C256.197 82.154 258.977 85.3455 254.429 87.5913C254.077 87.762 253.715 87.9087 253.343 88.0303C248.514 89.6009 241.377 87.3721 236.991 86.2703C235.438 85.8761 233.845 85.4372 232.567 84.4692C232.07 84.0921 231.643 83.6308 231.307 83.1055Z" fill="white"/>
<path d="M232.629 251.301L225.902 251.47C218.737 251.65 211.572 251.828 204.406 252.004C202.307 252.054 200.207 252.11 198.108 252.164C198.339 249.22 198.541 246.27 198.733 243.321L199.009 243.338C210.022 244.323 221.102 244.329 232.117 243.355L232.235 243.349C232.319 245.999 232.451 248.65 232.629 251.301Z" fill="white"/>
<path d="M193.809 268.683L194.203 269.015C189.131 275.122 183.924 281.376 178.982 287.353C174.236 286.88 169.481 285.806 165.31 283.486C161.078 281.133 157.481 277.379 156.018 272.766C154.065 266.614 155.995 259.589 153.378 253.691C151.762 250.037 148.571 247.291 145.111 245.298C141.651 243.306 137.861 241.955 134.236 240.277C128.945 237.84 123.846 234.576 120.525 229.786C117.249 225.069 116.011 218.646 118.476 213.48C126.739 208.869 135.002 204.261 143.265 199.656C142.741 204.384 145.578 208.965 149.31 211.909C153.053 214.858 157.623 216.513 162.042 218.309C166.46 220.105 170.93 222.176 174.121 225.71C178.781 230.872 179.941 238.212 180.83 245.107C181.72 252.002 182.71 259.325 187.157 264.672C188.853 266.72 191.163 268.441 193.809 268.683Z" fill="white"/>
<path d="M126.483 312.947L126.134 313.25C121.733 317.837 117.332 322.422 112.93 327.007C110.307 322.335 104.031 320.95 98.7568 321.902C93.4656 322.848 88.6768 325.561 83.5477 327.153C85.3845 321.681 88.6272 316.788 92.9515 312.965C97.2757 309.141 102.529 306.522 108.185 305.37C105.77 302.314 103.356 299.257 100.941 296.197C103.323 294.137 105.708 292.077 108.094 290.017L108.804 290.399C114.506 298.053 120.23 305.742 126.483 312.947Z" fill="#171717"/>
<path d="M280.068 66.6304C277.851 66.272 275.582 66.7707 273.721 68.0262" stroke="#171717" stroke-width="3.166" stroke-linecap="round" stroke-linejoin="round"/>
<path d="M264.701 70.3734C263.571 70.0651 262.383 70.0283 261.236 70.2657C260.089 70.5035 259.014 71.0091 258.099 71.7414" stroke="#171717" stroke-width="3.166" stroke-linecap="round" stroke-linejoin="round"/>
<path d="M270.78 72.9685C272.086 74.257 273.443 75.6304 273.932 77.3978C274.422 79.1653 273.662 81.417 271.895 81.912" stroke="#171717" stroke-width="3.166" stroke-linecap="round" stroke-linejoin="round"/>
<path d="M268.129 91.0191C267.402 91.2772 266.615 91.3162 265.866 91.1311C265.117 90.946 264.439 90.545 263.916 89.978" stroke="#171717" stroke-width="3.166" stroke-linecap="round" stroke-linejoin="round"/>
<path d="M253.095 87.8165C253.18 87.8842 253.264 87.9573 253.343 88.0298C257.699 91.8351 259.49 98.1221 258.369 103.763C257.924 106.098 256.938 108.296 255.489 110.18C253.598 112.6 250.845 114.514 247.778 114.706C244.71 114.897 241.445 112.972 240.731 109.989C237.781 114.706 230.363 115.758 226.22 112.048C222.077 108.339 222.308 100.848 226.67 97.4026C224.188 99.2885 220.175 97.3125 219.404 94.2959C218.633 91.2794 220.405 88.065 222.927 86.2357C225.359 84.4682 228.359 83.7253 231.308 83.1061L231.628 83.0383" stroke="#171717" stroke-width="3.166" stroke-linecap="round" stroke-linejoin="round"/>
<path d="M253.343 88.0304C248.514 89.601 241.377 87.3722 236.991 86.2704C235.438 85.8762 233.845 85.4373 232.567 84.4693C232.07 84.0928 231.644 83.632 231.307 83.1072C230.749 82.2869 230.537 81.28 230.716 80.304C230.852 79.7653 231.103 79.2618 231.451 78.8277C231.798 78.3941 232.235 78.0394 232.731 77.7882C233.179 77.536 233.663 77.3514 234.166 77.2421C235.748 76.8816 237.403 77.1408 239.006 77.3941C242.457 77.9456 245.908 78.4954 249.358 79.0432C250.605 79.288 251.804 79.7328 252.909 80.3605C256.197 82.1557 258.977 85.3472 254.429 87.593C254.077 87.7632 253.714 87.9093 253.343 88.0304Z" stroke="#171717" stroke-width="3.166" stroke-linecap="round" stroke-linejoin="round"/>
<path d="M253.821 80.3531C255.042 78.3889 255.723 76.1371 255.795 73.8257C255.867 71.5142 255.328 69.2241 254.231 67.1878C256.275 67.1681 258.29 66.7025 260.135 65.8235C261.98 64.9446 263.612 63.6737 264.915 62.0993C269.514 62.9211 274.45 62.3697 278.48 59.9942C281.402 58.2721 283.66 55.6177 284.891 52.4577C285.351 51.2326 285.615 49.9429 285.674 48.6358C285.865 43.9638 282.972 39.1739 278.542 37.6769C274.113 36.1798 268.59 38.5606 267.105 42.9899C263.885 39.6971 259.489 37.3558 254.879 37.3499C250.269 37.3441 245.569 39.9958 243.858 44.2737C243.132 46.0913 242.862 48.2358 241.381 49.5137C240.07 50.6449 238.19 50.7462 236.495 51.1137C233.697 51.7094 231.143 53.1365 229.169 55.2081C227.194 57.2795 225.892 59.8993 225.431 62.7238C224.971 65.5483 225.374 68.4459 226.588 71.0374C227.802 73.6289 229.77 75.7931 232.235 77.247" stroke="#171717" stroke-width="3.166" stroke-linecap="round" stroke-linejoin="round"/>
<path d="M280.174 59.2288C284.31 62.5765 287.321 67.1114 288.802 72.2224C290.282 77.3333 290.161 82.7754 288.454 87.8154C287.783 89.8426 286.862 91.7792 285.713 93.5792C283.051 97.7333 279.268 101.046 276.29 104.983C273.746 108.349 271.754 112.503 271.996 116.618C272.03 117.33 272.138 118.038 272.316 118.728" stroke="#171717" stroke-width="3.166" stroke-linecap="round" stroke-linejoin="round"/>
<path d="M259.016 103.897C260.305 107.684 260.575 111.693 260.851 115.701C260.969 117.457 261.087 119.213 261.295 120.952C261.977 126.665 263.958 132.744 268.787 135.869C270.213 136.882 271.952 137.355 273.694 137.202C276.204 136.847 278.186 134.596 278.715 132.119C279.244 129.643 278.523 127.02 277.257 124.824C275.991 122.629 274.217 120.771 272.461 118.948" stroke="#171717" stroke-width="3.166" stroke-linecap="round" stroke-linejoin="round"/>
<path d="M288.578 87.8561C292.062 87.2092 295.484 85.7569 297.964 83.2353C300.444 80.7137 301.87 77.0044 301.15 73.5366C300.429 70.0689 297.308 67.0865 293.759 67.0401C294.511 65.5516 294.881 63.8988 294.834 62.231C294.787 60.5638 294.325 58.9345 293.491 57.4902C292.657 56.0465 291.475 54.8326 290.054 53.9601C288.633 53.0869 287.016 52.5818 285.35 52.4902" stroke="#171717" stroke-width="3.166" stroke-linecap="round" stroke-linejoin="round"/>
<path d="M260.853 115.701C259.175 116.146 257.524 116.661 255.9 117.248C247.997 120.189 240.725 124.605 234.471 130.261C228.677 135.448 223.652 141.435 219.55 148.042C210.066 163.242 205.197 180.908 202.585 198.627C201.595 205.347 200.914 212.102 200.373 218.874C200.035 223.027 199.759 227.187 199.495 231.347C199.236 235.338 198.999 239.328 198.735 243.319C198.544 246.268 198.341 249.218 198.11 252.162C200.21 252.108 202.309 252.055 204.409 252.002C211.574 251.821 218.738 251.644 225.902 251.468L232.629 251.299C232.454 248.648 232.323 245.997 232.235 243.346C232.162 241.353 232.122 239.355 232.106 237.363C232.006 223.386 233.134 209.428 235.477 195.649C235.809 193.712 236.164 191.778 236.543 189.845C238.663 179.009 241.54 168.336 245.156 157.903" stroke="#171717" stroke-width="3.166" stroke-linecap="round" stroke-linejoin="round"/>
<path d="M272.322 116.602C275.227 118.105 278.142 119.607 281.081 121.054C282.178 121.6 283.281 122.136 284.387 122.664C291.367 125.968 298.505 128.867 306.002 130.657C317.873 133.483 330.88 133.291 341.687 127.628C342.469 127.218 343.241 126.778 343.989 126.295C346.364 124.802 348.547 123.026 350.491 121.004C354.836 116.495 357.943 110.844 358.984 104.821C359.386 102.559 359.476 100.252 359.251 97.9658C359.127 96.7722 359.043 95.3088 360.044 94.6506C360.531 94.3781 361.095 94.2805 361.644 94.3744C361.869 94.3973 362.089 94.4309 362.302 94.4704C369.051 95.6186 375.801 96.7706 382.549 97.9264C384.187 98.208 385.825 98.4837 387.463 98.7648C387.641 102.477 387.466 106.197 386.94 109.876C384.945 123.775 378.364 136.609 368.241 146.339C366.531 147.965 364.724 149.487 362.831 150.898C361.295 152.041 359.704 153.104 358.059 154.089C342.569 163.382 322.868 165.521 305.813 159.482" stroke="#171717" stroke-width="3.166" stroke-linecap="round" stroke-linejoin="round"/>
<path d="M284.294 122.867C293.769 133.539 300.924 146.063 305.308 159.644C308.397 169.209 310.107 179.165 310.385 189.212C310.441 191.078 310.332 193.202 308.916 194.412C307.812 195.358 306.242 195.454 304.79 195.505C303.287 195.555 301.79 195.606 300.287 195.651C278.814 196.287 257.331 196.307 235.839 195.713" stroke="#171717" stroke-width="3.166" stroke-linecap="round" stroke-linejoin="round"/>
<path d="M255.988 117.502C255.033 121.822 255.299 126.322 256.758 130.498C258.216 134.675 260.809 138.362 264.245 141.148C267.925 144.135 273.065 146.012 277.444 144.194C281.423 142.55 283.788 138.167 284.041 133.87C284.294 129.574 282.791 125.354 280.861 121.505" stroke="#171717" stroke-width="3.166" stroke-linecap="round" stroke-linejoin="round"/>
<path d="M300.28 195.634C300.28 195.639 300.286 195.645 300.286 195.651C307.237 209.627 314.185 223.6 321.129 237.571C321.63 238.579 322.137 239.749 321.697 240.785C321.073 242.26 319.069 242.4 317.47 242.304L303.393 241.477L274.017 239.755C262.377 239.068 250.739 238.383 239.102 237.7C237.143 237.588 235.19 237.469 233.231 237.357" stroke="#171717" stroke-width="3.166" stroke-linecap="round" stroke-linejoin="round"/>
<path d="M239.052 237.398L239.105 237.702C242.414 258.218 241.801 279.176 237.298 299.462C234.219 313.304 228.889 327.397 218.059 336.561C206.712 346.161 190.552 348.905 175.996 345.876C161.441 342.848 148.388 334.591 137.508 324.459C133.629 320.824 129.95 316.981 126.486 312.949C120.233 305.744 114.509 298.055 108.807 290.4" stroke="#171717" stroke-width="3.166" stroke-linecap="round" stroke-linejoin="round"/>
<path d="M108.094 290.015C105.708 292.075 103.324 294.135 100.941 296.196C103.356 299.253 105.77 302.311 108.185 305.369C102.529 306.521 97.2757 309.14 92.9515 312.964C88.6272 316.787 85.3845 321.68 83.5477 327.152C88.6757 325.559 93.4677 322.846 98.7568 321.901C104.031 320.949 110.307 322.334 112.93 327.006C112.931 327.014 112.935 327.022 112.941 327.028" stroke="#171717" stroke-width="3.166" stroke-linecap="round" stroke-linejoin="round"/>
<path d="M112.71 327.238C112.784 327.159 112.857 327.086 112.93 327.007C117.332 322.425 121.733 317.839 126.135 313.25" stroke="#171717" stroke-width="3.166" stroke-linecap="round" stroke-linejoin="round"/>
<path d="M111.893 327.086C112.012 327.249 112.124 327.412 112.242 327.575C124.417 344.67 140.127 359.799 159.442 367.972C178.951 376.218 202.462 376.545 220.592 365.603C233.904 357.571 243.276 344.366 250.619 330.666C264.809 304.131 272.762 274.709 273.872 244.639C273.934 243.146 273.967 241.656 273.99 240.164" stroke="#171717" stroke-width="3.166" stroke-linecap="round" stroke-linejoin="round"/>
<path d="M303.376 241.76C313.558 260.369 317.487 281.69 320.389 302.696C326.929 350.055 328.973 397.926 326.497 445.67C326.367 448.113 326.187 450.683 324.859 452.739C322.5 456.359 317.57 457.045 313.263 457.383C309.942 457.642 306.098 457.698 303.892 455.205C303.682 454.966 303.491 454.71 303.323 454.439C302.006 452.329 302.113 449.503 302.282 446.948C306.886 378.521 297.689 309.062 274.161 244.647" stroke="#171717" stroke-width="3.166" stroke-linecap="round" stroke-linejoin="round"/>
<path d="M303.336 454.327C303.335 454.365 303.332 454.403 303.325 454.44C302.576 464.616 301.158 474.732 299.081 484.722C300.933 485.408 302.824 486.109 304.799 486.191C306.775 486.273 308.886 485.628 310.107 484.069C310.848 482.975 311.339 481.732 311.547 480.427C312.313 477.056 312.037 474.253 312.454 470.819" stroke="#171717" stroke-width="3.166" stroke-linecap="round" stroke-linejoin="round"/>
<path d="M312.746 470.684C315.422 477.316 320.246 482.858 326.446 486.422C332.646 489.986 339.863 491.365 346.94 490.34L333.786 472.473C329.666 466.873 325.338 459.673 324.859 452.74" stroke="#171717" stroke-width="3.166" stroke-linecap="round" stroke-linejoin="round"/>
<path d="M341.341 221.559C341.69 220.813 342.051 220.074 342.408 219.342C348.909 205.979 355.41 192.619 361.911 179.26C362.765 177.5 363.808 175.567 365.671 174.971C366.874 174.655 368.151 174.782 369.268 175.331C369.987 175.637 370.685 175.99 371.356 176.389C371.575 176.513 371.795 176.643 372.015 176.766C373.09 177.38 374.171 177.999 375.245 178.618C383.61 183.403 391.974 188.187 400.338 192.972C401.717 193.759 403.165 194.615 403.929 196.005C405.275 198.437 404.076 201.437 402.854 203.931C394.434 221.137 385.229 237.929 375.24 254.307C374.576 255.399 373.908 256.487 373.236 257.572C372.752 258.354 372.15 259.215 371.238 259.332C370.533 259.335 369.848 259.103 369.291 258.673C361.85 254.125 354.408 249.574 346.967 245.02C341.189 241.493 337.28 239.69 337.973 232.282C338.03 231.708 338.108 231.145 338.21 230.582C338.333 229.884 338.491 229.192 338.677 228.505C339.363 226.117 340.254 223.794 341.341 221.559Z" stroke="#171717" stroke-width="3.166" stroke-linecap="round" stroke-linejoin="round"/>
<path d="M339.225 230.638C340.627 231.674 342.015 232.688 343.39 233.678C353.31 240.919 363.627 247.599 374.292 253.689" stroke="#171717" stroke-width="3.166" stroke-linecap="round" stroke-linejoin="round"/>
<path d="M389.493 214.895C389.24 210.358 387.293 205.946 384.63 202.214C381.569 197.925 375.247 197.142 370.444 198.583C367.05 199.668 364.043 201.713 361.787 204.471C361.461 204.859 361.147 205.253 360.847 205.664C357.397 210.357 355.804 216.634 357.599 222.179C359.738 228.77 366.735 233.34 373.653 232.912C380.571 232.485 386.858 227.284 388.834 220.646C389.384 218.781 389.608 216.836 389.493 214.895Z" stroke="#171717" stroke-width="3.166" stroke-linecap="round" stroke-linejoin="round"/>
<path d="M362.567 204.916C362.505 205.028 362.438 205.141 362.381 205.253C359.803 210.026 359.922 215.891 363.113 220.299C364.788 222.537 367.058 224.26 369.664 225.272C372.27 226.282 375.108 226.541 377.854 226.018C379.284 225.721 380.654 225.186 381.908 224.436C383.614 223.391 385.091 222.012 386.249 220.381C387.407 218.75 388.222 216.901 388.645 214.946" stroke="#171717" stroke-width="3.166" stroke-linecap="round" stroke-linejoin="round"/>
<path d="M381.722 224.121C382.925 221.434 383.276 218.443 382.725 215.551C382.175 212.66 380.75 210.006 378.643 207.95C376.537 205.894 373.85 204.534 370.946 204.054C368.042 203.573 365.06 203.996 362.404 205.265" stroke="#171717" stroke-width="3.166" stroke-linecap="round" stroke-linejoin="round"/>
<path d="M343.818 233.087C353.082 214.439 362.043 196.64 371.306 178" stroke="#171717" stroke-width="3.166" stroke-linecap="round" stroke-linejoin="round"/>
<path d="M341.119 221.458C340.169 221.317 339.51 220.484 338.835 219.798C338.159 219.111 337.181 218.481 336.301 218.875C335.735 219.219 335.313 219.757 335.114 220.389C334.484 221.818 333.847 223.243 333.217 224.667C333.039 224.968 332.973 225.323 333.031 225.668C333.159 225.964 333.386 226.206 333.671 226.355C335.201 227.36 336.894 228.088 338.675 228.505C338.686 228.505 338.698 228.511 338.709 228.511" stroke="#171717" stroke-width="3.166" stroke-linecap="round" stroke-linejoin="round"/>
<path d="M375.485 178.196C376.695 176.267 377.756 174.248 378.659 172.157C378.974 171.436 379.267 170.614 378.969 169.889C378.794 169.555 378.541 169.269 378.232 169.052C377.924 168.836 377.569 168.696 377.196 168.644C376.459 168.484 375.693 168.504 374.962 168.324C374.658 168.251 374.342 168.144 374.032 168.058C373.567 167.891 373.057 167.907 372.603 168.102C372.15 168.425 371.822 168.894 371.674 169.431C371.494 169.881 371.297 170.365 371.087 170.866C370.479 172.352 369.798 173.979 369.263 175.33L369.247 175.363" stroke="#171717" stroke-width="3.166" stroke-linecap="round" stroke-linejoin="round"/>
<path d="M396.445 203.204C396.179 202.084 395.912 200.958 395.645 199.838C395.375 198.707 395.112 197.581 394.841 196.45" stroke="#171717" stroke-width="3.166" stroke-linecap="round" stroke-linejoin="round"/>
<path d="M391.787 200.885C393.076 200.537 394.359 200.187 395.648 199.838L399.132 198.893" stroke="#171717" stroke-width="3.166" stroke-linecap="round" stroke-linejoin="round"/>
<path d="M374.24 172.635C374.229 171.104 374.159 169.579 374.031 168.059C373.334 160.545 371.376 153.202 368.239 146.338C364.581 138.298 359.751 130.843 353.909 124.217C352.922 122.995 351.772 121.914 350.492 121.003C350.193 120.805 349.881 120.627 349.558 120.47C347.819 119.626 345.596 119.518 344.059 120.678C342.523 121.837 342.139 124.46 343.619 125.705" stroke="#171717" stroke-width="3.166" stroke-linecap="round" stroke-linejoin="round"/>
<path d="M358.588 154.955C361.486 160.847 365.502 166.12 370.413 170.479" stroke="#171717" stroke-width="3.166" stroke-linecap="round" stroke-linejoin="round"/>
<path d="M237.267 189.988C245.814 182.021 251.101 171.167 252.105 159.526C252.673 152.62 251.604 145.381 247.86 139.55C244.844 134.85 239.89 131.236 234.47 130.262C233.154 130.021 231.813 129.946 230.479 130.037C223.275 130.533 217.269 135.677 212.58 141.171C205.358 149.625 199.921 159.419 193.899 168.763C189.885 174.988 185.525 181.117 180.339 186.363C177.775 188.99 174.964 191.365 171.947 193.456C171.924 193.473 171.896 193.489 171.874 193.509" stroke="#171717" stroke-width="3.166" stroke-linecap="round" stroke-linejoin="round"/>
<path d="M169.768 189.752C170.483 190.99 171.208 192.228 171.946 193.455C179.89 206.769 188.885 219.427 198.845 231.307" stroke="#171717" stroke-width="3.166" stroke-linecap="round" stroke-linejoin="round"/>
<path d="M200.267 218.864L181.673 188.384C181.262 187.709 180.823 187.017 180.34 186.363C179.13 184.71 177.649 183.301 175.69 183.026C173.681 182.744 171.743 183.769 169.972 184.754C161.067 189.718 152.164 194.684 143.263 199.653C135.001 204.257 126.738 208.865 118.475 213.477C117.141 214.22 115.812 214.963 114.478 215.706C109.334 218.576 103.652 222.162 102.574 227.954C101.943 231.348 103.114 234.872 105.005 237.753C106.897 240.635 109.481 242.988 111.996 245.346C127.89 260.206 142.542 276.34 155.804 293.589C157.954 296.381 160.482 299.443 163.994 299.758C168.058 300.119 171.328 296.657 173.917 293.505C175.561 291.501 177.255 289.441 178.984 287.353C183.926 281.376 189.133 275.122 194.204 269.015H194.21C197.593 264.929 200.925 260.904 204.076 257.065" stroke="#171717" stroke-width="3.166" stroke-linecap="round" stroke-linejoin="round"/>
<path d="M217.013 262.485C216.849 264.095 216.823 265.717 216.934 267.332C217.171 270.163 218.054 273.022 219.929 275.167C221.497 270.041 222.183 264.688 221.961 259.333C222.793 261.401 224.282 263.138 226.198 264.276C228.114 265.414 230.351 265.891 232.565 265.632C230.463 264.126 228.76 262.13 227.603 259.817C226.445 257.504 225.869 254.945 225.923 252.359" stroke="#171717" stroke-width="3.166" stroke-linecap="round" stroke-linejoin="round"/>
<path d="M217.013 262.485C217.176 261.27 217.318 260.054 217.439 258.838C217.285 260.048 217.127 261.27 217.013 262.485Z" stroke="#171717" stroke-width="3.166" stroke-linecap="round" stroke-linejoin="round"/>
<path d="M204.427 252.624C204.398 254.099 204.427 255.579 204.517 257.054C204.805 261.87 205.709 266.629 207.207 271.215C207.523 272.183 208.08 273.309 209.093 273.371C210.479 273.455 211.007 271.615 211.069 270.236C211.243 266.245 211.419 262.256 211.598 258.269C211.508 262.851 211.418 267.461 212.143 271.981C212.318 273.062 212.949 274.434 214.023 274.221C214.812 274.061 215.132 273.129 215.303 272.346C216.013 269.082 216.585 265.795 217.02 262.485" stroke="#171717" stroke-width="3.166" stroke-linecap="round" stroke-linejoin="round"/>
<path d="M143.263 199.627V199.655C142.74 204.383 145.577 208.965 149.308 211.908C153.051 214.858 157.622 216.513 162.04 218.308C166.458 220.104 170.928 222.175 174.119 225.71C178.78 230.872 179.939 238.211 180.829 245.106C181.718 252.001 182.709 259.324 187.155 264.672C188.855 266.721 191.163 268.443 193.809 268.685" stroke="#171717" stroke-width="3.166" stroke-linecap="round" stroke-linejoin="round"/>
<path d="M118.581 213.252C118.542 213.325 118.508 213.398 118.475 213.477C116.01 218.644 117.248 225.066 120.524 229.783C123.845 234.573 128.944 237.836 134.235 240.275C137.862 241.952 141.649 243.303 145.11 245.295C148.571 247.288 151.763 250.035 153.377 253.688C155.994 259.587 154.063 266.611 156.017 272.763C157.48 277.379 161.077 281.133 165.309 283.483C169.481 285.802 174.236 286.877 178.981 287.35C179.06 287.356 179.133 287.367 179.212 287.373" stroke="#171717" stroke-width="3.166" stroke-linecap="round" stroke-linejoin="round"/>
<path d="M361.672 94.0308C360.261 92.058 359.239 89.8346 358.661 87.4788C358.478 86.8719 358.422 86.234 358.498 85.6047C358.54 85.29 358.662 84.9914 358.854 84.738C359.045 84.4847 359.298 84.2847 359.589 84.1578C360.366 83.8767 361.205 84.321 361.863 84.8111C363.548 86.0607 364.913 87.6927 365.843 89.5727C365.882 89.6458 365.922 89.7247 365.956 89.7978C365.972 89.6628 365.983 89.5311 365.995 89.3983" stroke="#171717" stroke-width="3.166" stroke-linecap="round" stroke-linejoin="round"/>
<path d="M365.831 89.76C365.837 89.6982 365.837 89.6363 365.843 89.5744C366.061 85.2427 366.792 80.952 368.021 76.792C368.232 75.9062 368.646 75.0811 369.231 74.383C369.531 74.04 369.932 73.8022 370.377 73.704C370.821 73.6059 371.286 73.6523 371.702 73.8368C372.556 74.3168 372.769 75.4299 372.857 76.4032C373.052 78.7078 373.034 81.0251 372.803 83.3264C372.583 85.6443 372.188 87.9419 371.621 90.1995" stroke="#171717" stroke-width="3.166" stroke-linecap="round" stroke-linejoin="round"/>
<path d="M371.623 90.1979C371.961 87.8901 372.276 85.5653 372.806 83.3248C373.338 80.7285 374.354 78.256 375.8 76.0357C376.105 75.5253 376.518 75.0885 377.01 74.7557C377.257 74.592 377.546 74.5019 377.842 74.4971C378.138 74.4917 378.43 74.5717 378.682 74.7275C379.228 75.1157 379.335 75.8757 379.363 76.5456C379.469 78.8357 379.296 81.1301 378.851 83.3787C378.438 85.4699 377.789 87.5077 376.915 89.4517" stroke="#171717" stroke-width="3.166" stroke-linecap="round" stroke-linejoin="round"/>
<path d="M378.856 83.7808C378.873 83.6518 378.895 83.5222 378.918 83.3926C379.215 81.424 380.165 79.6128 381.614 78.248C381.843 78 382.126 77.8086 382.442 77.6891C382.757 77.5702 383.097 77.5264 383.432 77.5611C384.507 77.8203 384.693 79.2502 384.637 80.359C384.338 86.1232 383.663 91.8614 382.616 97.5376" stroke="#171717" stroke-width="3.166" stroke-linecap="round" stroke-linejoin="round"/>
<path d="M199.009 243.336C210.023 244.321 221.102 244.327 232.117 243.353" stroke="#171717" stroke-width="3.166" stroke-linecap="round" stroke-linejoin="round"/>
<path d="M359.758 104.96C368.55 106.84 377.393 108.446 386.286 109.778" stroke="#171717" stroke-width="3.166" stroke-linecap="round" stroke-linejoin="round"/>
<path d="M213.31 75.1999C210.285 71.7034 206.158 69.3434 201.611 68.5098" stroke="#171717" stroke-width="3.166" stroke-linecap="round" stroke-linejoin="round"/>
<path d="M203.186 77.2623C205.899 72.6735 208.612 68.0842 211.325 63.4949" stroke="#171717" stroke-width="3.166" stroke-linecap="round" stroke-linejoin="round"/>
<path d="M335.925 55.9226L326.275 56.1333" stroke="#171717" stroke-width="3.166" stroke-linecap="round" stroke-linejoin="round"/>
<path d="M330.755 62.3825C330.47 58.0449 330.186 53.7067 329.901 49.3691" stroke="#171717" stroke-width="3.166" stroke-linecap="round" stroke-linejoin="round"/>
<path d="M319.498 25.5354L324.866 21.3898C324.911 21.3549 324.966 21.3346 325.023 21.3319C325.081 21.3291 325.138 21.3439 325.186 21.3744C325.235 21.4048 325.273 21.4494 325.295 21.5021C325.317 21.5549 325.323 21.6132 325.311 21.6693L323.929 28.3088C323.917 28.363 323.923 28.4194 323.943 28.4708C323.964 28.5221 323.999 28.5662 324.045 28.5973L329.645 32.4218C329.693 32.4541 329.729 32.5001 329.749 32.5537C329.77 32.6073 329.773 32.6658 329.759 32.7215C329.746 32.777 329.715 32.827 329.671 32.8646C329.628 32.9022 329.574 32.9256 329.517 32.9317L322.775 33.6677C322.721 33.6738 322.668 33.696 322.626 33.7316C322.583 33.7672 322.553 33.8145 322.537 33.8677L320.631 40.3744C320.615 40.4293 320.583 40.478 320.538 40.5139C320.493 40.5497 320.439 40.5711 320.382 40.5751C320.325 40.579 320.268 40.5654 320.219 40.536C320.169 40.5066 320.13 40.4629 320.107 40.4106L317.323 34.224C317.3 34.1732 317.262 34.1303 317.215 34.1009C317.167 34.0716 317.113 34.057 317.057 34.0592L310.277 34.2581C310.22 34.2598 310.164 34.2439 310.116 34.2126C310.068 34.1813 310.031 34.1359 310.01 34.0828C309.988 34.0297 309.983 33.9713 309.996 33.9154C310.009 33.8596 310.039 33.8091 310.081 33.7706L315.102 29.2117C315.143 29.1744 315.172 29.1259 315.186 29.0722C315.199 29.0185 315.197 28.962 315.178 28.9098L312.894 22.5242C312.875 22.4703 312.873 22.4118 312.888 22.3566C312.903 22.3014 312.935 22.2521 312.979 22.2153C313.023 22.1786 313.077 22.1561 313.134 22.151C313.191 22.1459 313.248 22.1583 313.298 22.1866L319.185 25.5536C319.233 25.5825 319.289 25.5962 319.344 25.593C319.4 25.5897 319.454 25.5697 319.498 25.5354Z" fill="white"/>
<path d="M441.671 122.421L446.503 127.18C446.544 127.22 446.572 127.271 446.583 127.328C446.594 127.384 446.587 127.442 446.564 127.494C446.541 127.546 446.502 127.59 446.453 127.62C446.404 127.65 446.347 127.664 446.29 127.66L439.525 127.186C439.469 127.182 439.414 127.195 439.366 127.222C439.318 127.25 439.279 127.291 439.255 127.34L436.222 133.406C436.196 133.457 436.156 133.499 436.106 133.526C436.055 133.554 435.998 133.565 435.941 133.559C435.884 133.553 435.83 133.53 435.787 133.492C435.744 133.454 435.714 133.404 435.7 133.349L434.06 126.768C434.047 126.714 434.018 126.666 433.977 126.628C433.936 126.592 433.885 126.567 433.83 126.559L427.121 125.547C427.064 125.538 427.011 125.513 426.97 125.473C426.928 125.434 426.899 125.382 426.887 125.326C426.876 125.27 426.882 125.212 426.905 125.16C426.927 125.107 426.965 125.062 427.014 125.032L432.765 121.439C432.812 121.41 432.85 121.367 432.873 121.316C432.895 121.266 432.902 121.21 432.893 121.155L431.781 114.465C431.772 114.409 431.78 114.351 431.805 114.299C431.829 114.248 431.869 114.205 431.919 114.177C431.969 114.148 432.026 114.136 432.083 114.141C432.139 114.146 432.194 114.168 432.237 114.205L437.433 118.564C437.475 118.6 437.527 118.622 437.582 118.628C437.637 118.635 437.693 118.625 437.742 118.599L443.761 115.474C443.812 115.447 443.869 115.437 443.926 115.444C443.983 115.452 444.036 115.476 444.079 115.515C444.121 115.553 444.151 115.604 444.163 115.66C444.176 115.716 444.171 115.774 444.15 115.827L441.609 122.115C441.587 122.166 441.582 122.223 441.593 122.278C441.604 122.332 441.631 122.382 441.671 122.421Z" stroke="white" stroke-width="3.166" stroke-miterlimit="10"/>
<path d="M215.164 46.4469C213.574 44.6106 211.405 43.3713 209.016 42.9333" stroke="#171717" stroke-width="3.166" stroke-linecap="round" stroke-linejoin="round"/>
<path d="M209.844 47.5306C211.27 45.1195 212.696 42.708 214.121 40.2959" stroke="#171717" stroke-width="3.166" stroke-linecap="round" stroke-linejoin="round"/>
<path d="M418.096 141.232C416.507 139.394 414.338 138.154 411.948 137.716" stroke="#171717" stroke-width="3.166" stroke-linecap="round" stroke-linejoin="round"/>
<path d="M412.777 142.315C414.203 139.904 415.628 137.492 417.054 135.081" stroke="#171717" stroke-width="3.166" stroke-linecap="round" stroke-linejoin="round"/>
<path d="M450.135 160.032C449.33 156.868 447.469 154.074 444.86 152.112" stroke="#171717" stroke-width="3.166" stroke-linecap="round" stroke-linejoin="round"/>
<path d="M443.093 158.137L452.581 152.012" stroke="#171717" stroke-width="3.166" stroke-linecap="round" stroke-linejoin="round"/>
<path d="M184.041 82.4667L188.873 87.2257C188.914 87.2657 188.941 87.3174 188.953 87.3739C188.963 87.4305 188.956 87.4891 188.933 87.5414C188.909 87.5937 188.87 87.6374 188.82 87.6673C188.771 87.6966 188.714 87.7099 188.657 87.7057L181.891 87.2321C181.836 87.2283 181.781 87.2406 181.733 87.2683C181.685 87.2955 181.646 87.3366 181.621 87.3862L178.588 93.4523C178.563 93.5035 178.522 93.5457 178.471 93.5729C178.421 93.6006 178.364 93.6118 178.307 93.6054C178.25 93.599 178.197 93.5755 178.154 93.5377C178.11 93.5003 178.08 93.4502 178.066 93.3947L176.427 86.8134C176.413 86.7595 176.384 86.711 176.343 86.6737C176.302 86.6363 176.251 86.6123 176.196 86.6038L169.49 85.5942C169.433 85.5857 169.38 85.5601 169.339 85.5206C169.297 85.4811 169.268 85.4299 169.257 85.3739C169.245 85.3174 169.251 85.2593 169.274 85.2065C169.296 85.1537 169.334 85.1094 169.383 85.079L175.135 81.4865C175.182 81.4571 175.219 81.4145 175.242 81.3638C175.264 81.3137 175.271 81.2571 175.262 81.2027L174.15 74.5121C174.141 74.4555 174.149 74.3974 174.173 74.3457C174.198 74.2939 174.238 74.2513 174.288 74.2225C174.338 74.1942 174.395 74.1819 174.452 74.1873C174.509 74.1921 174.563 74.215 174.607 74.2518L179.802 78.6118C179.844 78.647 179.896 78.6694 179.951 78.6753C180.006 78.6817 180.062 78.671 180.111 78.6459L186.13 75.5211C186.181 75.495 186.238 75.4849 186.295 75.4923C186.352 75.4998 186.405 75.5243 186.447 75.5627C186.49 75.6011 186.519 75.6513 186.532 75.7073C186.545 75.7627 186.54 75.8209 186.519 75.8742L183.978 82.1622C183.957 82.2134 183.951 82.2699 183.963 82.3238C183.974 82.3782 184.001 82.4278 184.041 82.4667Z" stroke="white" stroke-width="3.166" stroke-miterlimit="10"/>
<path d="M325.552 184.119C323.962 182.282 321.794 181.042 319.404 180.603" stroke="#171717" stroke-width="3.166" stroke-linecap="round" stroke-linejoin="round"/>
<path d="M320.232 185.201C321.658 182.79 323.084 180.379 324.509 177.967" stroke="#171717" stroke-width="3.166" stroke-linecap="round" stroke-linejoin="round"/>
<path d="M159.234 114.51C164.237 110.596 172.203 112.878 175.933 118.02C179.663 123.162 179.917 130.107 178.626 136.326C176.542 146.353 170.605 155.674 161.963 161.171C153.32 166.667 142 168.041 132.554 164.081C127.833 162.103 123.525 158.713 121.385 154.063C119.244 149.414 119.656 143.438 123.149 139.696C129.05 133.375 140.855 136.856 144.662 144.62C148.468 152.384 145.898 161.969 140.943 169.056C135.145 177.279 126.558 183.117 116.779 185.483C104.998 188.283 92.2875 185.825 80.8016 189.658C75.4683 191.437 70.6565 194.504 66.7904 198.586C62.9248 202.668 60.1243 207.639 58.6368 213.061C57.1493 218.483 57.0203 224.188 58.2619 229.671C59.5035 235.154 62.0768 240.247 65.7552 244.499" stroke="#171717" stroke-width="3.166" stroke-linecap="round" stroke-linejoin="round"/>
<path d="M253.623 364.766C259.824 360.084 269.574 364.393 272.794 371.465C276.014 378.537 274.368 386.865 271.588 394.12C269.382 399.876 266.406 405.496 261.821 409.615C257.237 413.735 250.82 416.164 244.803 414.831C238.786 413.497 233.678 407.791 234.141 401.646C234.603 395.501 241.667 390.453 247.321 392.907C251.244 394.608 253.401 399.143 253.282 403.417C253.163 407.692 251.149 411.703 248.666 415.183C245.33 419.855 241.105 423.824 236.233 426.861C231.361 429.897 225.938 431.944 220.274 432.881C214.61 433.819 208.816 433.63 203.225 432.326C197.634 431.021 192.356 428.626 187.692 425.278C180.459 420.086 174.761 412.656 166.662 408.958C157.125 404.601 145.051 406.553 137.373 413.695" stroke="#171717" stroke-width="3.166" stroke-linecap="round" stroke-linejoin="round"/>
<path d="M454.186 216.779C454.346 211.795 449.639 207.641 444.697 206.978C439.755 206.314 434.83 208.364 430.621 211.035C413.352 221.98 404.628 244.818 410.201 264.489C412.289 271.86 417.178 279.448 424.746 280.643C430.662 281.578 436.974 277.748 438.879 272.068C440.784 266.388 438.051 259.529 432.765 256.708C425.639 252.907 416.232 256.957 411.904 263.776C407.576 270.595 407.306 279.238 408.385 287.243C409.463 295.247 411.745 303.105 412.039 311.176C412.385 320.613 409.804 330.366 403.726 337.595C397.649 344.823 387.84 349.141 378.544 347.476C369.248 345.811 361.193 337.561 360.9 328.122" stroke="#171717" stroke-width="3.166" stroke-linecap="round" stroke-linejoin="round"/>
<path d="M406.473 188.129C407.664 185.546 408.856 182.964 410.049 180.381" stroke="#171717" stroke-width="3.166" stroke-linecap="round" stroke-linejoin="round"/>
<path d="M412.523 191.852L432.786 179.336" stroke="#171717" stroke-width="3.166" stroke-linecap="round" stroke-linejoin="round"/>
<path d="M413.624 197.664C415.963 199.103 418.629 199.924 421.372 200.048" stroke="#171717" stroke-width="3.166" stroke-linecap="round" stroke-linejoin="round"/>
<path d="M97.4837 216.439C91.4752 221.973 90.5621 232.183 95.4939 238.695" stroke="#171717" stroke-width="3.166" stroke-linecap="round" stroke-linejoin="round"/>
<path d="M85.1227 232.303C84.3115 230.911 83.9493 229.303 84.0869 227.699C84.2245 226.094 84.8544 224.571 85.8907 223.338" stroke="#171717" stroke-width="3.166" stroke-linecap="round" stroke-linejoin="round"/>
<path d="M185.371 384.185C194.003 386.653 203.206 386.23 211.575 382.98" stroke="#171717" stroke-width="3.166" stroke-linecap="round" stroke-linejoin="round"/>
<path d="M361.183 269.76C368.553 272.114 377.37 268.344 380.759 261.39" stroke="#171717" stroke-width="3.166" stroke-linecap="round" stroke-linejoin="round"/>
<path d="M190.673 393.27C192.465 394.059 194.408 394.45 196.366 394.416C198.325 394.382 200.253 393.924 202.018 393.073" stroke="#171717" stroke-width="3.166" stroke-linecap="round" stroke-linejoin="round"/>
<path d="M255.752 125.307L260.3 123.466" stroke="#171717" stroke-width="3.166" stroke-linecap="round" stroke-linejoin="round"/>
<path d="M258.285 133.317L263.018 130.086" stroke="#171717" stroke-width="3.166" stroke-linecap="round" stroke-linejoin="round"/>
<path d="M265.619 141.243C266.067 139.662 266.811 138.181 267.812 136.878" stroke="#171717" stroke-width="3.166" stroke-linecap="round" stroke-linejoin="round"/>
<path d="M275.719 143.84C275.186 141.986 274.654 140.133 274.123 138.28" stroke="#171717" stroke-width="3.166" stroke-linecap="round" stroke-linejoin="round"/>
<path d="M278.743 133.484C279.988 134.3 281.419 134.787 282.903 134.9" stroke="#171717" stroke-width="3.166" stroke-linecap="round" stroke-linejoin="round"/>
<path d="M277.543 124.756L281.317 124.358" stroke="#171717" stroke-width="3.166" stroke-linecap="round" stroke-linejoin="round"/>
<path d="M225.227 251.099C225.357 249.046 225.487 246.993 225.619 244.94" stroke="#171717" stroke-width="3.166" stroke-linecap="round" stroke-linejoin="round"/>
<path d="M217.906 251.301C217.959 249.247 218.013 247.194 218.066 245.141" stroke="#171717" stroke-width="3.166" stroke-linecap="round" stroke-linejoin="round"/>
<path d="M210.642 251.692C210.743 249.509 210.845 247.325 210.946 245.141" stroke="#171717" stroke-width="3.166" stroke-linecap="round" stroke-linejoin="round"/>
<path d="M203.245 251.898C203.233 249.36 203.499 246.829 204.039 244.349" stroke="#171717" stroke-width="3.166" stroke-linecap="round" stroke-linejoin="round"/>
<path d="M380.16 108.397C380.598 105.13 381.038 101.863 381.477 98.5957" stroke="#171717" stroke-width="3.166" stroke-linecap="round" stroke-linejoin="round"/>
<path d="M372.757 107.207C373.158 103.877 373.695 100.567 374.37 97.2778" stroke="#171717" stroke-width="3.166" stroke-linecap="round" stroke-linejoin="round"/>
<path d="M366.395 106.146C367.076 102.86 367.65 99.5557 368.117 96.2319" stroke="#171717" stroke-width="3.166" stroke-linecap="round" stroke-linejoin="round"/>
<path d="M362.054 104.96C362.285 101.581 362.725 98.2191 363.371 94.8943" stroke="#171717" stroke-width="3.166" stroke-linecap="round" stroke-linejoin="round"/>
<path fill-rule="evenodd" clip-rule="evenodd" d="M236.167 237.531C237.145 237.588 238.123 237.646 239.102 237.702C250.739 238.386 262.377 239.07 274.017 239.755L303.393 241.477L317.47 242.305C319.069 242.4 321.073 242.26 321.697 240.785C322.137 239.749 321.63 238.579 321.129 237.571C314.185 223.6 307.237 209.627 300.286 195.651C278.799 196.289 257.317 196.309 235.838 195.712L235.477 195.651C233.134 209.43 232.006 223.388 232.106 237.365L233.231 237.359C234.211 237.415 235.189 237.473 236.167 237.531ZM299.14 201.208C298.946 200.784 298.445 200.598 298.021 200.791C297.597 200.985 297.41 201.486 297.604 201.91L305.952 220.185L314.3 238.46C314.494 238.884 314.995 239.07 315.419 238.877C315.843 238.683 316.03 238.182 315.836 237.758L307.488 219.483L299.14 201.208Z" fill="#171717"/>
<g opacity="0.1">
<path d="M264.47 61.7322C263.227 63.6458 259.777 68.6437 256.884 67.4688C254.899 66.664 252.627 69.072 253.342 71.0106C254.129 72.9189 254.351 75.0138 253.982 77.0448C253.75 78.1909 253.039 79.2821 253.043 80.4613C253.046 81.4997 253.547 82.0576 253.988 82.8901C256.047 86.7744 255.411 91.3664 256.914 95.4005C258.658 100.082 258.98 105.368 259.581 110.297C259.876 112.723 260.183 115.15 260.457 117.578C260.713 119.846 260.643 122.131 261.64 124.206C262.306 125.593 264.606 125.237 264.93 123.776C265.359 121.837 264.906 120.06 264.667 118.098C264.414 116.018 264.197 113.938 263.969 111.858C263.514 107.73 262.844 103.528 262.799 99.3775C262.777 97.265 263.101 95.2245 263.157 93.1376C263.207 91.2544 262.81 89.2058 262.589 87.329C262.174 83.8 261.203 80.8176 259.005 77.9957L259.903 81.3925C260.987 77.1733 260.527 72.7056 258.607 68.7952V71.7018L259.281 70.7493L258.157 71.6133C262.197 69.9317 265.646 67.0666 267.306 62.9296C267.986 61.2325 265.383 60.3344 264.473 61.7354L264.47 61.7322Z" fill="#171717"/>
</g>
<g opacity="0.1">
<path d="M257.345 116.078C240.028 122.367 226.994 136.2 217.224 151.399C206.149 168.629 201.934 189.845 199.608 209.883C198.138 222.541 197.895 235.297 197.362 248.017C197.092 254.452 207.093 254.439 207.362 248.017C208.235 227.196 209.406 205.954 214.571 185.686C218.768 169.217 225.927 152.092 237.298 139.233C243.691 132.121 251.27 126.173 259.698 121.654C262.667 120.033 260.648 114.881 257.347 116.08L257.345 116.078Z" fill="#171717"/>
</g>
<g opacity="0.1">
<path d="M304.679 157.497C307.239 160.558 310.98 161.722 314.722 162.581C318.758 163.532 322.892 164 327.038 163.976C338.821 163.699 350.291 160.132 360.153 153.678C370.014 147.224 377.874 138.14 382.843 127.453C386.554 119.433 388.594 110.741 388.84 101.907C389.029 95.3728 378.878 95.3782 378.69 101.907C378.217 118.285 369.695 134.675 356.189 144.087C349.158 148.973 341.074 152.129 332.592 153.3C328.056 153.879 323.476 154.03 318.911 153.749C314.506 153.519 310.135 152.433 305.749 153.443C303.833 153.885 303.58 156.181 304.679 157.497Z" fill="#171717"/>
</g>
<g opacity="0.1">
<path d="M244.382 157.809C243.156 160.454 242.356 163.275 241.162 165.945C239.854 168.868 238.449 171.377 237.707 174.537C237.036 177.551 236.518 180.597 236.154 183.664C235.696 187.155 235.079 190.251 236.565 193.559C238.051 196.867 243.323 196.559 244.898 193.559C246.381 190.732 246.018 187.76 246.119 184.657C246.211 181.851 246.447 179.045 246.656 176.245C246.857 173.553 246.687 171.087 246.632 168.41C246.566 165.242 247.407 162.369 247.901 159.29C248.215 157.334 245.379 155.653 244.381 157.807L244.382 157.809Z" fill="#171717"/>
</g>
<g opacity="0.1">
<path d="M178.069 183.531C174.321 184.229 170.784 184.204 167.099 185.455C163.413 186.707 159.927 188.716 156.517 190.584C149.088 194.654 141.759 198.873 134.437 203.132C127.306 207.279 119.975 211.25 113.086 215.792C106.992 219.811 100.79 226.808 103.219 234.726C104.774 239.79 113.258 239.152 112.844 233.423C112.631 230.442 113.308 228.496 115.531 226.412C117.718 224.362 120.509 222.952 123.067 221.429C129.585 217.55 136.079 213.634 142.55 209.68C148.886 205.822 155.169 201.892 161.4 197.889C164.276 196.035 167.198 194.156 169.907 192.059C172.67 189.921 175.432 186.983 178.707 185.845C179.005 185.752 179.256 185.548 179.405 185.273C179.555 184.999 179.593 184.678 179.509 184.377C179.426 184.077 179.229 183.82 178.96 183.662C178.691 183.504 178.371 183.456 178.067 183.531H178.069Z" fill="#171717"/>
</g>
<g opacity="0.1">
<path d="M122.167 315.961C122.516 319.854 124.634 322.289 127.009 325.26C129.397 328.218 131.977 331.015 134.732 333.634C139.956 338.711 145.805 343.102 152.139 346.7C165.673 354.274 181.295 357.493 196.673 355.14C225.689 350.7 243.884 324.25 248.878 296.979C252.322 278.177 250.858 259.112 249.221 240.209C248.963 237.236 246.866 234.684 243.695 234.684C240.906 234.684 237.911 237.219 238.171 240.209C240.563 267.838 243.181 298.146 227.237 322.509C220.784 332.372 211.369 340.071 199.898 343.195C187.057 346.692 173.071 344.688 161.118 339.085C154.682 336.043 148.646 332.214 143.153 327.685C140.212 325.27 137.462 322.66 134.75 319.994C131.994 317.283 129.79 314.299 126.028 313.02C124.262 312.419 121.996 314.043 122.167 315.961Z" fill="#171717"/>
</g>
<g opacity="0.1">
<path d="M276.047 241.219C276.054 241.219 276.061 241.216 276.066 241.211C276.071 241.206 276.074 241.199 276.074 241.192C276.074 241.185 276.071 241.178 276.066 241.173C276.061 241.168 276.054 241.165 276.047 241.165C276.04 241.165 276.033 241.168 276.028 241.173C276.023 241.178 276.02 241.185 276.02 241.192C276.02 241.199 276.023 241.206 276.028 241.211C276.033 241.216 276.04 241.219 276.047 241.219Z" fill="#171717"/>
</g>
<g opacity="0.1">
<path d="M273.514 240.037C273.777 247.213 276.981 254.365 279.309 261.089C281.656 267.866 283.836 274.698 285.849 281.585C289.921 295.51 293.302 309.613 295.994 323.893C301.272 351.981 303.796 380.518 303.529 409.098C303.458 417.248 303.159 425.392 302.634 433.529C302.382 437.434 302.078 441.334 301.722 445.23C301.338 449.434 300.579 453.66 301.029 457.875C301.57 462.919 308.122 464.058 309.917 459.078C311.185 455.558 311.428 451.854 311.789 448.152C312.169 444.258 312.496 440.36 312.771 436.457C313.275 429.302 313.604 422.138 313.757 414.963C314.073 400.296 313.659 385.636 312.516 370.985C310.248 341.572 305.113 312.452 297.183 284.037C294.986 276.189 292.572 268.405 289.941 260.686C287.303 252.944 284.733 243.88 279.231 237.667C277.315 235.503 273.409 237.21 273.513 240.035L273.514 240.037Z" fill="#171717"/>
</g>
</g>
</g>
</g>
<defs>
<clipPath id="clip0_760_2858">
<rect width="512" height="512" fill="white"/>
</clipPath>
</defs>
</svg>
