<svg width="512" height="512" viewBox="0 0 512 512" fill="none" xmlns="http://www.w3.org/2000/svg">
<mask id="mask0_760_3110" style="mask-type:luminance" maskUnits="userSpaceOnUse" x="20" y="41" width="472" height="430">
<path d="M491.733 41.6001H20.2667V470.4H491.733V41.6001Z" fill="white"/>
</mask>
<g mask="url(#mask0_760_3110)">
<path fill-rule="evenodd" clip-rule="evenodd" d="M353.654 234.087C353.879 234.307 354.035 234.452 354.11 234.516C353.969 234.362 353.816 234.219 353.654 234.087ZM341.875 159.811C346.626 164.208 350.45 167.297 350.617 167.431C348.031 164.537 345.094 161.978 341.875 159.811ZM324.375 130.588C318.487 136.31 332.125 150.79 341.864 159.8C337.354 156.92 332.107 155.349 328.703 160.118C321.849 169.712 350.621 200.893 352.075 202.458C351.014 201.384 336.239 186.711 329.675 195.952C323.379 204.811 349.593 230.237 353.636 234.077C352.151 232.827 347.641 230.113 342.294 237.187C337.74 243.201 347.023 255.727 353.149 262.836C351.116 261.704 348.531 261.447 345.576 263.763C341.945 266.611 345.753 275.16 350.515 283.049C353.295 287.645 356.389 292.016 358.522 294.906C360.045 296.971 361.08 298.286 361.171 298.392C363.081 298.087 365.449 297.722 368.009 297.368C370.466 297.025 373.088 296.692 375.636 296.435C375.507 296 369.093 274.007 373.967 268.07C377.893 263.281 381.256 265.818 382.457 267.035C379.776 263.887 366.438 247.691 370.305 240.869C374.483 233.498 384.345 244.557 384.854 245.136C384.189 244.216 365.167 217.722 373.967 207.056C382.768 196.389 395.833 216.672 396.288 217.379C395.73 216.377 376.101 180.704 384.875 173.237C387.534 170.975 390.613 170.964 393.621 172.064C395.321 154.849 382.418 159.611 382.418 159.611C382.418 159.611 406.9 133.869 400.084 125.792C393.375 117.838 376.385 137.302 375.87 137.891C376.485 137.049 400.446 104.147 389.737 89.453C378.881 74.5608 359.201 109.387 359.201 109.387C359.201 109.387 349.104 78.852 337.246 88.1885C325.517 97.4205 349.558 135.015 350.107 135.873L350.113 135.881C349.707 135.553 333.099 122.11 324.375 130.588ZM357.927 268.059C357.821 267.84 356.051 264.45 353.149 262.836C355.729 265.844 357.751 267.882 357.927 268.059ZM363.982 120.966C363.98 120.524 363.62 120.168 363.178 120.17C362.736 120.172 362.38 120.532 362.382 120.975L363.182 120.97C362.382 120.975 362.382 120.975 362.382 120.976V120.982V121.004L362.383 121.091L362.385 121.437C362.387 121.742 362.389 122.194 362.393 122.785C362.401 123.967 362.412 125.702 362.428 127.914C362.46 132.337 362.51 138.668 362.583 146.3C362.727 161.564 362.962 182.032 363.319 202.843C363.676 223.654 364.156 244.814 364.793 261.461C365.111 269.784 365.469 276.986 365.871 282.455C366.072 285.188 366.284 287.497 366.509 289.3C366.731 291.078 366.973 292.434 367.252 293.216C367.401 293.632 367.859 293.849 368.275 293.7C368.691 293.551 368.908 293.094 368.759 292.678C368.547 292.083 368.321 290.891 368.097 289.102C367.877 287.337 367.667 285.059 367.467 282.337C367.067 276.896 366.71 269.716 366.392 261.4C365.756 244.77 365.276 223.623 364.919 202.816C364.562 182.01 364.327 161.547 364.183 146.286C364.11 138.655 364.06 132.324 364.028 127.902C364.012 125.691 364.001 123.957 363.993 122.775C363.989 122.185 363.987 121.732 363.985 121.427L363.983 121.082L363.982 120.995V120.973V120.967C363.982 120.966 363.982 120.966 363.182 120.97L363.982 120.966Z" fill="#171717"/>
<path d="M415.261 288.113C417.835 289.524 419.267 291.09 419.267 292.736C419.267 292.827 419.261 292.919 419.251 293.01C418.984 295.831 414.526 298.389 407.372 300.325C405.635 298.341 402.808 296.919 399.318 295.922L399.189 295.557C403.716 293.927 409.969 291.304 414.292 287.979L415.261 288.113Z" fill="#171717"/>
<path d="M382.617 267.219C382.761 267.391 382.858 267.509 382.901 267.552C382.863 267.504 382.766 267.38 382.617 267.219ZM435.173 191.656C435.447 191.532 441.705 188.679 449.75 184.287C457.831 181.198 466.535 179.927 467.973 187.875C470.708 203.036 419.106 225.539 417.534 226.222C418.715 225.803 447.116 215.86 451.316 226.238C455.606 236.84 412.451 249.207 412.451 249.207C412.451 249.207 437.94 247.185 439.453 257.659C440.933 267.891 403.87 271.142 402.164 271.286C403.253 271.227 419.026 270.503 419.267 280.199C419.337 283.058 417.277 285.686 414.29 287.981C409.967 291.306 403.714 293.929 399.188 295.559C395.847 296.766 393.444 297.425 393.444 297.425L393.31 297.699C391.274 296.777 389.093 296.216 386.864 296.041C384.182 295.762 380.026 295.999 375.634 296.444C375.505 296.009 369.091 274.016 373.966 268.079C377.892 263.29 381.254 265.827 382.455 267.044C379.774 263.897 366.436 247.7 370.303 240.878C374.481 233.504 384.343 244.563 384.853 245.145C384.188 244.222 365.16 217.724 373.966 207.065C382.772 196.406 395.833 216.681 396.286 217.388C395.729 216.386 376.1 180.712 384.873 173.246C387.533 170.983 390.612 170.972 393.62 172.073C400.553 174.604 407.124 183.024 407.365 183.33C406.919 182.686 388.063 155.244 400.838 145.993C408.158 140.689 419.265 164.162 419.265 164.162C419.265 164.162 414.653 123.024 421.121 119.238C427.438 115.547 434.555 149.087 434.898 150.723C434.491 148.567 424.311 93.6236 436.931 87.1884C449.802 80.6242 458.635 116.465 458.635 116.465C458.635 116.465 485.888 103.089 490.587 114.191C495.14 124.954 451.6 156.111 448.922 158.022C451.282 156.475 485.412 134.473 486.141 151.04C486.634 162.184 464.984 175.988 449.748 184.295C444.682 186.313 439.805 188.776 435.173 191.656Z" fill="white" fill-opacity="0.96"/>
<path d="M342.845 284.579C345.135 284.037 347.65 283.56 350.353 283.153L350.513 283.056C353.291 287.652 356.385 292.023 358.52 294.914L358.214 295.139C353.446 295.659 350.352 296.147 350.352 296.147L342.845 284.579Z" fill="#171717"/>
<path d="M350.616 167.431C350.45 167.297 346.626 164.208 341.874 159.811C345.093 161.977 348.03 164.537 350.616 167.431Z" fill="#171717"/>
<path d="M308.452 263.771L284.577 265.498L284.475 265.503C284.335 260.929 284.088 255.914 283.766 250.718L297.565 249.206C297.565 249.206 311.756 256.488 308.452 263.771Z" fill="white" fill-opacity="0.96"/>
<path d="M270.654 416.716H270.601C270.619 416.711 270.637 416.711 270.654 416.716Z" fill="#171717"/>
<path d="M300.21 278.921L283.365 302.014H243.233L266.707 278.921H269.267L269.787 278.899L269.267 267.08L268.634 252.786L265.947 192.228L270.302 187.873L278.255 190.147C278.255 190.147 282.057 223.043 283.768 250.716C284.088 255.913 284.337 260.927 284.476 265.502C284.621 270.634 284.627 275.214 284.439 278.888L285.163 278.92L300.21 278.921Z" fill="#171717"/>
<path d="M348.096 441.799L333.9 444.351V414.255L270.655 416.716C270.638 416.711 270.619 416.711 270.602 416.716L251.284 417.472C254.475 388.54 256.417 336.471 256.61 321.133C256.658 317.475 255.413 314.719 253.338 312.627L356.612 305.8L350.487 403.614L348.096 441.799Z" fill="#171717"/>
<path d="M256.609 321.133C256.416 336.471 254.476 388.54 251.284 417.473L42.0328 425.614V469.338H28.9661L21.5896 327.944L253.338 312.627C255.413 314.721 256.657 317.475 256.609 321.133Z" fill="#171717"/>
<path d="M289.419 64.2755L281.729 105.479L265.19 85.7912L243.363 105.479L233.581 90.8701L224.308 104.47L216.735 94.5005L211.295 98.3992L214.084 60.4941L289.419 64.2755ZM256.775 79.86C256.775 78.6867 256.428 77.54 255.776 76.564C255.124 75.5885 254.198 74.8285 253.114 74.3795C252.03 73.9304 250.837 73.8125 249.687 74.0413C248.536 74.2701 247.479 74.8355 246.65 75.6648C245.82 76.4941 245.255 77.5512 245.026 78.7021C244.797 79.8525 244.914 81.0451 245.363 82.1293C245.812 83.2131 246.573 84.1395 247.548 84.7912C248.524 85.4429 249.67 85.7912 250.844 85.7912C251.622 85.7912 252.394 85.6381 253.114 85.34C253.834 85.0419 254.487 84.6051 255.038 84.0541C255.589 83.5037 256.026 82.8499 256.324 82.1299C256.622 81.4104 256.775 80.6387 256.775 79.86Z" fill="white" fill-opacity="0.96"/>
<path d="M243.363 105.478L265.19 85.7905L281.73 105.478L278.818 121.063L209.92 117.083L211.298 98.3991L216.736 94.5004L224.309 104.47L233.581 90.8695L243.363 105.478Z" fill="#171717"/>
<path d="M200.454 174.838C200.765 175.047 207.212 179.407 204.873 184.095C202.476 188.889 196.014 180.496 196.014 180.496H196.009C196.4 175.074 196.684 168.354 196.872 162.766C197.076 167.807 206.391 167.939 206.391 172.232C206.391 176.404 200.765 174.924 200.454 174.838Z" fill="#171717"/>
<path d="M156.789 215.295C167.236 214.775 182.381 214.495 195.788 214.346C211.842 214.174 225.397 214.186 225.397 214.186L226.009 255.829L268.633 252.789L269.266 267.082L242.66 268.197L242.537 268.546C232.165 264.964 197.178 268.514 197.178 268.514L196.979 268.525L197.708 285.305L197.934 290.47C197.934 290.47 123.078 299.863 93.4261 282.064L93.1152 282.004L95.0245 272.201C95.1403 271.911 95.2 271.602 95.2011 271.289C95.2011 268.324 89.6933 265.739 81.5579 264.398L81.5904 264.205C78.8123 224.331 135.601 218.667 144.937 216.394C146.793 215.944 151.089 215.585 156.789 215.295Z" fill="white" fill-opacity="0.96"/>
<path d="M159.932 178.709C159.91 178.747 159.884 178.811 159.846 178.892C159.884 178.811 159.916 178.747 159.932 178.709ZM159.772 179.042C159.185 180.152 157.246 183.263 154.526 181.697C151.244 179.803 156.543 174.628 158.313 169.834C160.083 165.039 157.053 158.474 156.926 152.796C156.8 147.118 181.092 146.741 181.092 146.741C181.092 146.741 178.126 136.771 181.092 136.015C183.966 135.281 186.669 142.976 186.83 143.437C186.712 142.826 184.143 129.451 187.715 129.451C191.378 129.451 193.142 142.826 193.142 142.826C193.142 142.826 194.15 126.802 197.181 127.434C200.125 128.051 198.538 142.021 198.446 142.794C198.591 142.101 201.149 130.02 207.403 132.229C213.838 134.504 197.181 153.429 197.181 153.429H197.143C197.17 152.309 197.181 151.665 197.181 151.665C197.181 151.665 164.998 151.665 165.003 165.292C165.009 169.079 165.27 175.347 165.513 181.992C165.335 182.571 163.534 188.106 159.705 187.592C156.178 187.119 158.994 180.677 159.771 179.041L159.772 179.042Z" fill="#171717"/>
<path d="M195.787 214.347C182.38 214.497 167.235 214.774 156.788 215.297C156.74 215.088 155.447 209.183 157.555 208.067C158.15 207.751 161.282 207.563 165.508 207.456C171.702 207.296 180.235 207.311 186.515 207.354C191.39 207.392 194.902 207.44 194.902 207.44L195.787 214.347Z" fill="white" fill-opacity="0.96"/>
<path d="M123.041 139.989L125.126 153.616L121.834 153.804L113.328 154.281L108.276 154.566L110.169 139.989H123.041Z" fill="#171717"/>
<path d="M95.0245 272.201C93.512 276.116 82.3568 279.152 68.8261 279.152C55.6283 279.152 44.6935 276.261 42.7629 272.485L42.4573 271.289C42.4573 266.945 54.2608 263.422 68.8261 263.422C73.0896 263.404 77.3472 263.731 81.5579 264.398C89.6933 265.738 95.2011 268.323 95.2011 271.289L95.0245 272.201Z" fill="#171717"/>
<path d="M93.1152 282.005L87.1419 312.719C87.1419 315.507 79.5152 317.765 70.1093 317.765C60.7035 317.765 53.0708 315.507 53.0708 312.719L50.9374 304.374H50.9321L46.4489 286.858L45.3977 282.772L42.7625 272.486C44.6932 276.262 55.6283 279.153 68.8261 279.153C82.3568 279.153 93.512 276.117 95.0245 272.202L93.1152 282.005Z" fill="white" fill-opacity="0.96"/>
<path d="M21.5896 327.944L28.9688 469.338H42.0328V425.614L251.284 417.473L270.601 416.717H270.654L333.9 414.255V444.352L348.096 441.799L350.487 403.615L356.612 305.8L253.338 312.628L21.5896 327.944Z" stroke="#171717" stroke-width="3" stroke-linecap="round" stroke-linejoin="round"/>
<path d="M269.265 278.921H266.707L243.233 302.014H283.365L300.21 278.921H285.161" stroke="#171717" stroke-width="3" stroke-linecap="round" stroke-linejoin="round"/>
<path d="M270.301 290.467L269.786 278.899L269.266 267.08L268.633 252.786L265.946 192.228L270.301 187.873C270.301 187.873 275.256 276.71 274.655 290.466" stroke="#171717" stroke-width="3" stroke-linecap="round" stroke-linejoin="round"/>
<path d="M270.301 187.875L278.254 190.149C278.254 190.149 282.056 223.046 283.767 250.718C284.087 255.915 284.335 260.929 284.475 265.504C284.62 270.636 284.625 275.216 284.437 278.89C284.266 282.296 283.923 284.923 283.365 286.495" stroke="#171717" stroke-width="3" stroke-linecap="round" stroke-linejoin="round"/>
<path d="M268.633 252.788L226.008 255.828L225.397 214.185L224.308 139.989L309.67 158.159V247.881L297.566 249.206L283.767 250.718H283.762" stroke="#171717" stroke-width="3" stroke-linecap="round" stroke-linejoin="round"/>
<path d="M114.149 42.6304L116.417 138.665" stroke="#171717" stroke-width="3" stroke-linecap="round" stroke-linejoin="round"/>
<path d="M121.834 153.804L125.126 153.616L123.041 139.989H110.169L108.276 154.566L113.328 154.281L121.834 153.804Z" stroke="#171717" stroke-width="3" stroke-linecap="round" stroke-linejoin="round"/>
<path d="M113.328 154.281V160.497L114.964 160.411L121.442 160.073L123.105 159.987L121.834 153.803" stroke="#171717" stroke-width="3" stroke-linecap="round" stroke-linejoin="round"/>
<path d="M114.963 160.411L114.148 164.278C114.148 164.278 103.546 164.723 105.122 176.522C106.699 188.32 120.269 187.623 120.455 187.561C120.641 187.5 133.074 185.668 131.562 175.699C130.05 165.729 121.527 164.152 121.527 164.152L121.463 160.495" stroke="#171717" stroke-width="3" stroke-linecap="round" stroke-linejoin="round"/>
<path d="M116.701 165.291L114.4 173.872L111.434 179.293L116.352 177.148L119.951 180.495L123.104 176.961L127.523 177.658L118.781 165.291" stroke="#171717" stroke-width="3" stroke-linecap="round" stroke-linejoin="round"/>
<path d="M93.4261 282.064C123.079 299.864 197.934 290.468 197.934 290.468L197.708 285.303L196.979 268.523L196.674 261.572C196.674 261.572 119.276 273.247 115.28 257.282C113.328 249.457 123.105 247.435 123.105 247.435" stroke="#171717" stroke-width="3" stroke-linecap="round" stroke-linejoin="round"/>
<path d="M225.397 214.187C225.397 214.187 211.84 214.176 195.788 214.347C182.381 214.497 167.236 214.774 156.789 215.296C151.089 215.586 146.793 215.945 144.937 216.395C135.601 218.667 78.8123 224.331 81.5904 264.205" stroke="#171717" stroke-width="3" stroke-linecap="round" stroke-linejoin="round"/>
<path d="M156.789 215.301V215.296C156.741 215.087 155.449 209.181 157.556 208.066C158.151 207.75 161.283 207.562 165.509 207.455C171.703 207.295 180.236 207.31 186.516 207.353C191.391 207.391 194.903 207.439 194.903 207.439L195.787 214.347V214.353" stroke="#171717" stroke-width="3" stroke-linecap="round" stroke-linejoin="round"/>
<path d="M186.516 207.353C186.516 207.353 182.917 199.109 187.084 196.08C191.251 193.05 193.268 195.323 194.903 189.644C195.343 188.121 195.708 184.699 196.009 180.495C196.4 175.073 196.684 168.353 196.872 162.765C197.006 158.786 197.092 155.38 197.139 153.428C197.166 152.308 197.177 151.664 197.177 151.664C197.177 151.664 164.994 151.664 164.999 165.291C165.004 169.077 165.266 175.346 165.508 181.991C165.868 191.961 166.184 202.783 165.503 207.324" stroke="#171717" stroke-width="3" stroke-linecap="round" stroke-linejoin="round"/>
<path d="M200.454 174.838C200.765 174.924 206.391 176.404 206.391 172.232C206.391 167.942 197.076 167.805 196.872 162.766" stroke="#171717" stroke-width="3" stroke-linecap="round" stroke-linejoin="round"/>
<path d="M196.013 180.496C196.013 180.496 202.476 188.889 204.873 184.095C207.211 179.407 200.766 175.047 200.454 174.838C200.451 174.835 200.447 174.833 200.443 174.833" stroke="#171717" stroke-width="3" stroke-linecap="round" stroke-linejoin="round"/>
<path d="M159.771 179.041C158.993 180.676 156.177 187.117 159.701 187.589C163.53 188.104 165.332 182.569 165.509 181.989L165.525 181.941" stroke="#171717" stroke-width="3" stroke-linecap="round" stroke-linejoin="round"/>
<path d="M159.932 178.709C159.91 178.747 159.884 178.811 159.846 178.892" stroke="#171717" stroke-width="3" stroke-linecap="round" stroke-linejoin="round"/>
<path d="M159.846 178.892C159.884 178.811 159.916 178.747 159.932 178.709C159.939 178.7 159.945 178.689 159.948 178.677C159.951 178.675 159.953 178.671 159.954 178.667" stroke="#171717" stroke-width="3" stroke-linecap="round" stroke-linejoin="round"/>
<path d="M159.845 178.892C159.823 178.931 159.803 178.972 159.787 179.015C159.78 179.023 159.775 179.033 159.771 179.042" stroke="#171717" stroke-width="3" stroke-linecap="round" stroke-linejoin="round"/>
<path d="M186.827 143.438C186.667 142.976 183.963 135.281 181.088 136.015C178.123 136.771 181.088 146.741 181.088 146.741C181.088 146.741 156.799 147.114 156.923 152.796C157.046 158.478 160.076 165.04 158.309 169.834C156.542 174.628 151.241 179.803 154.523 181.697C157.243 183.263 159.183 180.15 159.768 179.042" stroke="#171717" stroke-width="3" stroke-linecap="round" stroke-linejoin="round"/>
<path d="M198.443 142.794C198.534 142.021 200.121 128.052 197.177 127.434C194.147 126.802 193.139 142.826 193.139 142.826C193.139 142.826 191.374 129.45 187.711 129.45C184.138 129.45 186.708 142.826 186.827 143.437C186.829 143.444 186.831 143.451 186.832 143.458" stroke="#171717" stroke-width="3" stroke-linecap="round" stroke-linejoin="round"/>
<path d="M197.177 153.428C197.177 153.428 213.834 134.503 207.399 132.229C201.146 130.019 198.587 142.102 198.443 142.794C198.44 142.804 198.438 142.816 198.437 142.826" stroke="#171717" stroke-width="3" stroke-linecap="round" stroke-linejoin="round"/>
<path d="M177.742 190.148C177.742 190.148 170.299 191.789 169.413 186.615" stroke="#171717" stroke-width="3" stroke-linecap="round" stroke-linejoin="round"/>
<path d="M178.251 180.495C178.251 180.495 182.411 181.696 182.917 180.495C183.422 179.294 181.909 159.735 181.909 159.735C181.909 159.735 189.604 158.351 191.878 159.735" stroke="#171717" stroke-width="3" stroke-linecap="round" stroke-linejoin="round"/>
<path d="M187.841 165.291V168.696" stroke="#171717" stroke-width="3" stroke-linecap="round" stroke-linejoin="round"/>
<path d="M174.97 165.291L175.474 168.696" stroke="#171717" stroke-width="3" stroke-linecap="round" stroke-linejoin="round"/>
<path d="M21.5896 327.944L38.9976 299.172L46.4467 286.858" stroke="#171717" stroke-width="3" stroke-linecap="round" stroke-linejoin="round"/>
<path d="M239.035 58.1726L205.002 57.0835V123.901L288.095 124.657L293.774 59.9262L261.039 58.8803L239.035 58.1726Z" stroke="#171717" stroke-width="3" stroke-linecap="round" stroke-linejoin="round"/>
<path d="M281.73 105.478L289.42 64.2749L214.087 60.4941L211.298 98.3992L209.92 117.083L278.818 121.063L281.73 105.478Z" stroke="#171717" stroke-width="3" stroke-linecap="round" stroke-linejoin="round"/>
<path d="M239.072 57.0828L251.75 49.5105L261.039 58.8742" stroke="#171717" stroke-width="3" stroke-linecap="round" stroke-linejoin="round"/>
<path d="M228.035 273.121C235.683 272.89 245.223 272.408 245.379 271.414C245.578 270.153 244.5 269.22 242.537 268.545C232.165 264.962 197.177 268.512 197.177 268.512" stroke="#171717" stroke-width="3" stroke-linecap="round" stroke-linejoin="round"/>
<path d="M228.035 273.12C223.166 273.056 218.58 273.308 218.58 273.308C218.58 273.308 222.88 273.268 228.035 273.12Z" stroke="#171717" stroke-width="3" stroke-linecap="round" stroke-linejoin="round"/>
<path d="M229.499 278.808C234.619 277.977 239.447 276.802 239.447 275.322C239.447 273.644 233.554 273.183 228.034 273.118" stroke="#171717" stroke-width="3" stroke-linecap="round" stroke-linejoin="round"/>
<path d="M229.488 278.809C225.463 279.036 221.456 279.517 217.492 280.249C217.492 280.249 223.68 279.747 229.488 278.809Z" stroke="#171717" stroke-width="3" stroke-linecap="round" stroke-linejoin="round"/>
<path d="M229.489 278.809H229.499" stroke="#171717" stroke-width="3" stroke-linecap="round" stroke-linejoin="round"/>
<path d="M197.707 285.303C197.707 285.303 202.351 285.4 208.503 285.346C215.394 285.287 224.179 285.035 230.469 284.241C235.366 283.63 238.75 282.686 238.567 281.255C238.283 279.068 234.079 278.627 229.501 278.809" stroke="#171717" stroke-width="3" stroke-linecap="round" stroke-linejoin="round"/>
<path d="M208.504 285.362L209.292 288.829C216.582 289.33 223.9 289.235 231.173 288.545C239.636 287.622 247.825 285.423 250.051 280.5C250.313 279.924 250.54 279.333 250.732 278.73C253.038 271.308 245.38 271.416 245.38 271.416" stroke="#171717" stroke-width="3" stroke-linecap="round" stroke-linejoin="round"/>
<path d="M239.448 275.323C249.67 274.443 250.174 278.921 250.174 278.921C250.174 278.921 250.383 278.846 250.732 278.728C252.593 278.101 258.412 276.315 257.242 278.921C255.855 282.01 254.089 289.835 240.837 291.476C227.586 293.117 215.599 293.498 216.736 300.942C217.669 307.034 243.969 303.151 253.338 312.628C255.413 314.719 256.658 317.475 256.61 321.133C256.417 336.471 254.476 388.54 251.284 417.473C250.281 426.617 249.145 433.449 247.906 436.086C242.732 447.064 204.873 442.709 207.27 453.059C209.668 463.41 255.156 458.085 260.079 457.602C284.642 455.178 272.006 417.335 270.655 416.715C270.638 416.71 270.619 416.71 270.602 416.715" stroke="#171717" stroke-width="3" stroke-linecap="round" stroke-linejoin="round"/>
<path d="M231.162 288.451L230.47 284.241" stroke="#171717" stroke-width="3" stroke-linecap="round" stroke-linejoin="round"/>
<path d="M242.66 268.195L269.266 267.08" stroke="#171717" stroke-width="3" stroke-linecap="round" stroke-linejoin="round"/>
<path d="M356.612 305.8L354.735 302.909L350.354 296.147L342.845 284.579L328.414 262.328L308.453 263.771L284.577 265.498" stroke="#171717" stroke-width="3" stroke-linecap="round" stroke-linejoin="round"/>
<path d="M297.566 249.206C297.566 249.206 311.756 256.488 308.452 263.771" stroke="#171717" stroke-width="3" stroke-linecap="round" stroke-linejoin="round"/>
<path d="M211.298 98.3991L216.736 94.5004L224.309 104.47L233.581 90.8695L243.363 105.478L265.19 85.7905L281.73 105.478" stroke="#171717" stroke-width="3" stroke-linecap="round" stroke-linejoin="round"/>
<path d="M250.844 85.7906C254.119 85.7906 256.775 83.1351 256.775 79.8594C256.775 76.5837 254.119 73.9282 250.844 73.9282C247.568 73.9282 244.913 76.5837 244.913 79.8594C244.913 83.1351 247.568 85.7906 250.844 85.7906Z" stroke="#171717" stroke-width="3" stroke-linecap="round" stroke-linejoin="round"/>
<path d="M350.487 403.615C350.487 403.615 405.261 414.823 408.29 396.75C411.266 378.955 419.021 295.606 419.262 293.01C419.265 292.988 419.267 292.967 419.267 292.945" stroke="#171717" stroke-width="3" stroke-linecap="round" stroke-linejoin="round"/>
<path d="M415.261 288.113C417.835 289.523 419.267 291.089 419.267 292.736C419.267 292.827 419.261 292.919 419.251 293.009C418.984 295.83 414.526 298.389 407.372 300.325C399.091 302.565 387.191 303.971 373.966 303.971C367.54 303.983 361.119 303.629 354.734 302.909L354.461 302.877" stroke="#171717" stroke-width="3" stroke-linecap="round" stroke-linejoin="round"/>
<path d="M342.845 284.579C345.135 284.037 347.65 283.56 350.353 283.152" stroke="#171717" stroke-width="3" stroke-linecap="round" stroke-linejoin="round"/>
<path d="M385.09 295.642C390.324 213.874 457.377 125.793 457.377 125.793" stroke="#171717" stroke-width="3" stroke-linecap="round" stroke-linejoin="round"/>
<path d="M399.317 295.922C402.808 296.92 405.634 298.34 407.37 300.325" stroke="#171717" stroke-width="3" stroke-linecap="round" stroke-linejoin="round"/>
<path d="M350.353 296.147C350.353 296.147 353.446 295.659 358.215 295.139" stroke="#171717" stroke-width="3" stroke-linecap="round" stroke-linejoin="round"/>
<path d="M402.106 271.289C402.126 271.289 402.146 271.287 402.165 271.284C403.253 271.225 419.026 270.501 419.267 280.197C419.337 283.056 417.278 285.683 414.291 287.979C409.968 291.304 403.715 293.927 399.188 295.557C395.848 296.763 393.445 297.423 393.445 297.423" stroke="#171717" stroke-width="3" stroke-linecap="round" stroke-linejoin="round"/>
<path d="M417.498 226.236C417.498 226.236 417.508 226.231 417.535 226.22C418.715 225.801 447.117 215.859 451.316 226.236C455.606 236.839 412.451 249.206 412.451 249.206C412.451 249.206 437.941 247.184 439.453 257.657C440.933 267.89 403.87 271.14 402.165 271.284" stroke="#171717" stroke-width="3" stroke-linecap="round" stroke-linejoin="round"/>
<path d="M435.163 191.661C435.167 191.66 435.171 191.658 435.173 191.655C439.805 188.773 444.683 186.307 449.75 184.287C457.831 181.198 466.535 179.927 467.973 187.874C470.708 203.035 419.106 225.538 417.534 226.221" stroke="#171717" stroke-width="3" stroke-linecap="round" stroke-linejoin="round"/>
<path d="M448.796 158.099C448.796 158.099 448.838 158.073 448.924 158.014C451.284 156.467 485.414 134.465 486.143 151.031C486.636 162.175 464.986 175.979 449.75 184.287C441.706 188.679 435.447 191.532 435.174 191.655" stroke="#171717" stroke-width="3" stroke-linecap="round" stroke-linejoin="round"/>
<path d="M434.91 150.78C434.906 150.762 434.902 150.744 434.9 150.726V150.716C434.492 148.56 424.313 93.6168 436.932 87.1816C449.803 80.6173 458.636 116.458 458.636 116.458C458.636 116.458 485.89 103.082 490.588 114.184C495.141 124.947 451.602 156.104 448.924 158.015" stroke="#171717" stroke-width="3" stroke-linecap="round" stroke-linejoin="round"/>
<path d="M407.372 183.332C407.371 183.328 407.369 183.324 407.366 183.322C406.921 182.678 388.065 155.236 400.84 145.985C408.16 140.681 419.267 164.154 419.267 164.154C419.267 164.154 414.654 123.016 421.122 119.229C427.44 115.539 434.556 149.079 434.9 150.715" stroke="#171717" stroke-width="3" stroke-linecap="round" stroke-linejoin="round"/>
<path d="M396.298 217.403C396.293 217.397 396.289 217.389 396.287 217.381C395.73 216.379 376.101 180.705 384.874 173.239C387.534 170.976 390.612 170.965 393.62 172.066C400.554 174.597 407.124 183.017 407.365 183.323" stroke="#171717" stroke-width="3" stroke-linecap="round" stroke-linejoin="round"/>
<path d="M384.874 245.168C384.868 245.161 384.863 245.154 384.858 245.146L384.853 245.141C384.188 244.218 365.16 217.72 373.966 207.061C382.772 196.402 395.833 216.677 396.286 217.385" stroke="#171717" stroke-width="3" stroke-linecap="round" stroke-linejoin="round"/>
<path d="M382.453 267.04C379.772 263.893 366.435 247.696 370.301 240.874C374.479 233.5 384.341 244.559 384.851 245.141" stroke="#171717" stroke-width="3" stroke-linecap="round" stroke-linejoin="round"/>
<path d="M382.901 267.552C382.858 267.508 382.761 267.392 382.617 267.219" stroke="#171717" stroke-width="3" stroke-linecap="round" stroke-linejoin="round"/>
<path d="M382.617 267.219C382.766 267.379 382.863 267.503 382.901 267.552C382.912 267.562 382.912 267.568 382.917 267.573L382.922 267.578" stroke="#171717" stroke-width="3" stroke-linecap="round" stroke-linejoin="round"/>
<path d="M382.617 267.219L382.477 267.063C382.472 267.058 382.467 267.047 382.456 267.042" stroke="#171717" stroke-width="3" stroke-linecap="round" stroke-linejoin="round"/>
<path d="M375.635 296.448V296.442C375.506 296.008 369.092 274.014 373.966 268.078C377.892 263.288 381.255 265.825 382.456 267.042" stroke="#171717" stroke-width="3" stroke-linecap="round" stroke-linejoin="round"/>
<path d="M363.182 120.967C363.182 120.967 352.724 203.985 368.008 297.375" stroke="#171717" stroke-width="3" stroke-linecap="round" stroke-linejoin="round"/>
<path d="M375.859 137.908L375.87 137.897V137.892C376.385 137.302 393.374 117.839 400.083 125.793C406.899 133.87 382.418 159.611 382.418 159.611C382.418 159.611 395.321 154.849 393.621 172.064" stroke="#171717" stroke-width="3" stroke-linecap="round" stroke-linejoin="round"/>
<path d="M350.118 135.887L350.113 135.881C349.742 135.302 325.473 97.4557 337.246 88.1885C349.104 78.852 359.201 109.387 359.201 109.387C359.201 109.387 378.881 74.5608 389.737 89.453C400.446 104.147 376.485 137.049 375.87 137.891" stroke="#171717" stroke-width="3" stroke-linecap="round" stroke-linejoin="round"/>
<path d="M341.864 159.8C332.125 150.791 318.487 136.311 324.375 130.588C333.101 122.108 349.715 135.56 350.113 135.882" stroke="#171717" stroke-width="3" stroke-linecap="round" stroke-linejoin="round"/>
<path d="M350.621 167.436L350.616 167.431C350.45 167.297 346.626 164.208 341.874 159.811" stroke="#171717" stroke-width="3" stroke-linecap="round" stroke-linejoin="round"/>
<path d="M341.874 159.811C345.093 161.977 348.03 164.537 350.616 167.431" stroke="#171717" stroke-width="3" stroke-linecap="round" stroke-linejoin="round"/>
<path d="M341.874 159.81C341.874 159.804 341.869 159.804 341.864 159.799" stroke="#171717" stroke-width="3" stroke-linecap="round" stroke-linejoin="round"/>
<path d="M352.075 202.457C350.622 200.891 321.85 169.71 328.703 160.116C332.109 155.348 337.354 156.92 341.864 159.799" stroke="#171717" stroke-width="3" stroke-linecap="round" stroke-linejoin="round"/>
<path d="M352.134 202.515L352.129 202.51L352.107 202.489" stroke="#171717" stroke-width="3" stroke-linecap="round" stroke-linejoin="round"/>
<path d="M352.107 202.489L352.129 202.51" stroke="#171717" stroke-width="3" stroke-linecap="round" stroke-linejoin="round"/>
<path d="M352.107 202.488C352.099 202.475 352.088 202.464 352.075 202.456" stroke="#171717" stroke-width="3" stroke-linecap="round" stroke-linejoin="round"/>
<path d="M353.635 234.076C349.591 230.236 323.378 204.811 329.674 195.952C336.238 186.711 351.013 201.384 352.074 202.458" stroke="#171717" stroke-width="3" stroke-linecap="round" stroke-linejoin="round"/>
<path d="M354.107 234.516C354.032 234.451 353.876 234.306 353.651 234.087" stroke="#171717" stroke-width="3" stroke-linecap="round" stroke-linejoin="round"/>
<path d="M353.653 234.087C353.815 234.219 353.967 234.362 354.109 234.516C354.118 234.528 354.129 234.539 354.141 234.548C354.147 234.553 354.152 234.553 354.152 234.559L354.157 234.564" stroke="#171717" stroke-width="3" stroke-linecap="round" stroke-linejoin="round"/>
<path d="M353.653 234.087C353.648 234.087 353.643 234.082 353.637 234.076" stroke="#171717" stroke-width="3" stroke-linecap="round" stroke-linejoin="round"/>
<path d="M357.936 268.077C357.936 268.077 357.936 268.072 357.925 268.067C357.749 267.89 355.727 265.852 353.147 262.843C347.023 255.726 337.739 243.201 342.293 237.187C347.64 230.113 352.15 232.827 353.636 234.076" stroke="#171717" stroke-width="3" stroke-linecap="round" stroke-linejoin="round"/>
<path d="M361.17 298.404V298.399C361.079 298.292 360.044 296.978 358.521 294.913C356.388 292.023 353.294 287.652 350.514 283.056C345.751 275.167 341.944 266.618 345.575 263.77C348.53 261.454 351.115 261.711 353.148 262.843C356.05 264.457 357.819 267.847 357.926 268.066" stroke="#171717" stroke-width="3" stroke-linecap="round" stroke-linejoin="round"/>
<path d="M95.2 271.289C95.1994 271.602 95.1392 271.911 95.0234 272.201C93.5109 276.116 82.3557 279.152 68.825 279.152C55.6272 279.152 44.6925 276.261 42.7618 272.485C42.5633 272.118 42.4583 271.707 42.4562 271.289C42.4562 266.945 54.2597 263.422 68.825 263.422C73.0885 263.404 77.3461 263.731 81.5568 264.398C89.6928 265.739 95.2 268.324 95.2 271.289Z" stroke="#171717" stroke-width="3" stroke-linecap="round" stroke-linejoin="round"/>
<path d="M87.1408 312.718C87.1408 315.507 79.5141 317.764 70.1083 317.764C60.7024 317.764 53.0698 315.507 53.0698 312.718" stroke="#171717" stroke-width="3" stroke-linecap="round" stroke-linejoin="round"/>
<path d="M95.2011 271.29L95.0245 272.202L93.1152 282.005L87.1408 312.719" stroke="#171717" stroke-width="3" stroke-linecap="round" stroke-linejoin="round"/>
<path d="M50.9354 304.374L53.0698 312.719" stroke="#171717" stroke-width="3" stroke-linecap="round" stroke-linejoin="round"/>
<path d="M42.4573 271.29L42.7629 272.486L45.3959 282.772L46.4471 286.858L50.9303 304.374" stroke="#171717" stroke-width="3" stroke-linecap="round" stroke-linejoin="round"/>
<path d="M45.3953 282.774C45.3953 282.774 27.1452 290.867 38.9953 299.174C41.4892 300.922 45.3127 302.681 50.9276 304.376H50.9329" stroke="#171717" stroke-width="3" stroke-linecap="round" stroke-linejoin="round"/>
<path d="M356.612 299.171C356.612 299.171 358.409 298.844 361.171 298.399C363.08 298.094 365.45 297.729 368.008 297.375C370.464 297.032 373.087 296.699 375.635 296.442C380.027 295.996 384.183 295.76 386.865 296.039C389.094 296.214 391.275 296.775 393.311 297.697C395.832 298.93 396.363 300.324 396.363 300.324" stroke="#171717" stroke-width="3" stroke-linecap="round" stroke-linejoin="round"/>
<path d="M95.2005 168.697L81.5904 165.29" stroke="#171717" stroke-width="3" stroke-linecap="round" stroke-linejoin="round"/>
<path d="M97.4896 182.577L71.7477 200.37" stroke="#171717" stroke-width="3" stroke-linecap="round" stroke-linejoin="round"/>
<path d="M111.434 194.313L108.279 201.884" stroke="#171717" stroke-width="3" stroke-linecap="round" stroke-linejoin="round"/>
<path d="M130.046 192.076L141.024 206.958" stroke="#171717" stroke-width="3" stroke-linecap="round" stroke-linejoin="round"/>
<path d="M135.534 181.027L142.538 182.577" stroke="#171717" stroke-width="3" stroke-linecap="round" stroke-linejoin="round"/>
<path d="M135.534 166.994L147.838 159.121" stroke="#171717" stroke-width="3" stroke-linecap="round" stroke-linejoin="round"/>
<path d="M154.307 122.142L152.047 125.525C151.979 125.627 151.882 125.706 151.767 125.751C151.653 125.796 151.527 125.805 151.409 125.776C151.289 125.748 151.181 125.683 151.099 125.592C151.018 125.5 150.966 125.385 150.951 125.263L150.468 121.224C150.454 121.106 150.405 120.995 150.329 120.905C150.251 120.815 150.149 120.749 150.035 120.717L146.119 119.614C146.001 119.581 145.896 119.512 145.818 119.417C145.74 119.322 145.693 119.206 145.683 119.083C145.674 118.961 145.701 118.838 145.763 118.733C145.825 118.626 145.918 118.542 146.029 118.49L149.722 116.783C149.83 116.734 149.921 116.653 149.982 116.552C150.044 116.45 150.075 116.333 150.07 116.214L149.91 112.149C149.906 112.027 149.939 111.905 150.005 111.802C150.071 111.699 150.167 111.618 150.281 111.571C150.394 111.524 150.519 111.513 150.639 111.539C150.759 111.565 150.868 111.627 150.951 111.717L153.716 114.701C153.797 114.789 153.902 114.85 154.018 114.877C154.133 114.905 154.254 114.898 154.365 114.856L158.181 113.447C158.297 113.405 158.422 113.399 158.541 113.43C158.66 113.461 158.766 113.527 158.846 113.621C158.926 113.714 158.975 113.83 158.987 113.952C158.999 114.074 158.974 114.197 158.914 114.304L156.931 117.856C156.873 117.96 156.847 118.078 156.857 118.197C156.866 118.315 156.91 118.428 156.984 118.521L159.503 121.715C159.579 121.811 159.623 121.929 159.63 122.051C159.637 122.173 159.607 122.294 159.543 122.399C159.479 122.503 159.385 122.585 159.274 122.635C159.162 122.685 159.037 122.698 158.917 122.675L154.926 121.886C154.809 121.863 154.687 121.874 154.577 121.92C154.467 121.966 154.373 122.043 154.307 122.142Z" fill="#171717"/>
<path d="M186.066 102.065L190.382 95.772" stroke="#171717" stroke-width="3" stroke-linecap="round" stroke-linejoin="round"/>
<path d="M191.086 101.352L185.018 96.0657" stroke="#171717" stroke-width="3" stroke-linecap="round" stroke-linejoin="round"/>
<path d="M94.9659 139.673L98.2469 133.867" stroke="#171717" stroke-width="3" stroke-linecap="round" stroke-linejoin="round"/>
<path d="M99.5402 139.124L93.4778 134.841" stroke="#171717" stroke-width="3" stroke-linecap="round" stroke-linejoin="round"/>
<path d="M211.31 157.592C212.261 155.622 213.541 153.83 215.097 152.292" stroke="#171717" stroke-width="3" stroke-linecap="round" stroke-linejoin="round"/>
<path d="M215.574 156.619C213.892 155.46 212.45 153.988 211.325 152.282" stroke="#171717" stroke-width="3" stroke-linecap="round" stroke-linejoin="round"/>
<path d="M402.609 84.9074L408.666 78.8503" stroke="#171717" stroke-width="3" stroke-linecap="round" stroke-linejoin="round"/>
<path d="M407.841 84.5811L403.307 78.5203" stroke="#171717" stroke-width="3" stroke-linecap="round" stroke-linejoin="round"/>
<path d="M369.242 80.3404L372.282 73.9116" stroke="#171717" stroke-width="3" stroke-linecap="round" stroke-linejoin="round"/>
<path d="M373.869 77.6381L368.19 75.3677" stroke="#171717" stroke-width="3" stroke-linecap="round" stroke-linejoin="round"/>
<path d="M393.108 56.483L396.903 52.3274" stroke="#171717" stroke-width="3" stroke-linecap="round" stroke-linejoin="round"/>
<path d="M396.961 56.868L392.419 51.946" stroke="#171717" stroke-width="3" stroke-linecap="round" stroke-linejoin="round"/>
<path d="M182.66 214.754C182.802 230.79 182.28 246.814 181.094 262.827" stroke="#171717" stroke-width="3" stroke-linecap="round" stroke-linejoin="round"/>
<path d="M216.369 227.427L213.905 224.401" stroke="#171717" stroke-width="3" stroke-linecap="round" stroke-linejoin="round"/>
<path d="M195.76 244.875L199.153 240.132" stroke="#171717" stroke-width="3" stroke-linecap="round" stroke-linejoin="round"/>
<path d="M216.803 259.541L213.947 256.909" stroke="#171717" stroke-width="3" stroke-linecap="round" stroke-linejoin="round"/>
<path d="M166.387 239.361L162.412 235.574" stroke="#171717" stroke-width="3" stroke-linecap="round" stroke-linejoin="round"/>
<path d="M136.142 228.786L138.426 225.008" stroke="#171717" stroke-width="3" stroke-linecap="round" stroke-linejoin="round"/>
<path d="M140.521 257.067L137.067 254.478" stroke="#171717" stroke-width="3" stroke-linecap="round" stroke-linejoin="round"/>
<path d="M111.138 240.253C109.809 239.745 108.643 238.883 107.767 237.76" stroke="#171717" stroke-width="3" stroke-linecap="round" stroke-linejoin="round"/>
<path d="M107.365 274.395L110.031 269.292" stroke="#171717" stroke-width="3" stroke-linecap="round" stroke-linejoin="round"/>
<path d="M136.493 284.773C135.211 283.755 134.151 282.484 133.381 281.04" stroke="#171717" stroke-width="3" stroke-linecap="round" stroke-linejoin="round"/>
<path d="M158.503 274.415L160.791 270.45" stroke="#171717" stroke-width="3" stroke-linecap="round" stroke-linejoin="round"/>
<path d="M183.974 284.055L180.337 281.076" stroke="#171717" stroke-width="3" stroke-linecap="round" stroke-linejoin="round"/>
<path d="M73.0533 242.85C73.8117 239.61 75.2155 236.556 77.1808 233.871C79.1461 231.186 81.6325 228.924 84.4917 227.221" stroke="#171717" stroke-width="3" stroke-linecap="round" stroke-linejoin="round"/>
<g opacity="0.1">
<path d="M195.147 153.044C189.736 151.159 182.237 152.069 176.91 153.984C171.341 155.985 167.036 159.342 165.432 165.248C163.684 171.685 165.295 178.748 165.639 185.27L166.181 195.531C166.305 197.867 167.352 202.541 165.153 204.204C164.231 204.901 162.646 205.107 161.59 205.567C160.42 206.038 159.371 206.764 158.517 207.692C156.679 209.743 156.451 212.986 154.242 214.676C152.19 216.246 149.081 216.367 146.629 216.784C143.176 217.37 139.731 218.022 136.29 218.673C123.821 221.034 110.946 224.029 100.266 231.217C89.6395 238.37 81.6203 249.012 80.2923 261.99C80.0709 264.156 82.3008 266.016 84.3173 266.016C86.6779 266.016 88.1205 264.163 88.3424 261.99C89.3904 251.743 96.6091 243.117 104.876 237.521C114.783 230.816 126.638 227.983 138.193 225.585C143.94 224.392 150.114 223.718 155.515 221.318C157.734 220.331 159.734 218.842 160.902 216.667C161.416 215.59 161.838 214.473 162.163 213.326C162.819 211.377 163.465 211.113 165.321 210.484C170.81 208.622 172.554 204.564 172.41 198.992C172.238 192.362 171.785 185.747 171.753 179.113C171.721 172.51 170.606 165.993 175.395 160.693C177.716 158.126 181.031 156.952 184.352 156.351C187.922 155.705 191.671 156.138 195.141 155.116C195.363 155.048 195.557 154.91 195.694 154.724C195.832 154.537 195.906 154.312 195.906 154.08C195.906 153.848 195.832 153.622 195.694 153.435C195.557 153.249 195.363 153.112 195.141 153.043L195.147 153.044Z" fill="#171717"/>
</g>
<g opacity="0.1">
<path d="M91.4187 281.831C92.1653 282.808 92.4891 283.691 93.5259 284.481C94.352 285.07 95.2672 285.522 96.2368 285.822C98.4043 286.593 100.657 287.221 102.881 287.803C107.031 288.89 111.213 289.85 115.426 290.683C124.389 292.464 133.449 293.717 142.558 294.437C160.547 295.903 178.65 295.038 196.416 291.864C198.518 291.484 199.662 288.951 199.157 287.035C198.557 284.76 196.42 284.013 194.329 284.294C177.34 286.622 160.151 287.137 143.052 285.831C134.553 285.153 126.101 283.968 117.742 282.281C113.535 281.433 109.358 280.454 105.205 279.372C103.289 278.872 101.371 278.378 99.4512 277.889C98.4635 277.578 97.4469 277.368 96.4165 277.264C95.0139 277.201 94.1611 277.753 92.9131 278.161C91.5499 278.606 90.3792 280.475 91.4197 281.833L91.4187 281.831Z" fill="#171717"/>
</g>
</g>
</svg>
